<?xml version="1.0" encoding="utf-8"?>
<!-- Generator: Adobe Illustrator 16.0.0, SVG Export Plug-In . SVG Version: 6.00 Build 0)  -->
<!DOCTYPE svg PUBLIC "-//W3C//DTD SVG 1.1//EN" "http://www.w3.org/Graphics/SVG/1.1/DTD/svg11.dtd">
<svg version="1.1" id="Layer_1" xmlns="http://www.w3.org/2000/svg" xmlns:xlink="http://www.w3.org/1999/xlink" x="0px" y="0px"
 	viewBox="0 0 80 60.931" enable-background="new 0 0 80 60.931" xml:space="preserve">
<g>
	<g>
		<path fill="#FFFFFF" d="M27.99,4.71l-9.271,51.511c-0.105,0.717-0.524,1.074-1.257,1.074h-6.914c-0.734,0-1.152-0.357-1.257-1.074
			L0.02,4.71c-0.106-0.715,0.208-1.073,0.943-1.073h8.484c0.681,0,1.074,0.358,1.179,1.073l3.221,32.499h0.314L17.383,4.71
			c0.105-0.715,0.497-1.073,1.179-1.073h8.485C27.78,3.637,28.094,3.995,27.99,4.71z"/>
		<path fill="#FFFFFF" d="M54.78,56.221c0.157,0.717-0.105,1.074-0.786,1.074h-7.148c-0.314,0-0.616-0.102-0.903-0.309
			c-0.289-0.201-0.485-0.459-0.589-0.766l-5.737-18.781v19.855l-0.078-0.768c-0.106,0.512-0.445,0.768-1.021,0.768h-6.993
			c-0.734,0-1.1-0.357-1.1-1.074V4.71c0-0.715,0.366-1.073,1.1-1.073H43.31c1.362,0,2.645,0.256,3.851,0.766
			c1.204,0.511,2.251,1.202,3.142,2.07c0.891,0.869,1.599,1.891,2.121,3.066c0.524,1.176,0.786,2.427,0.786,3.755V25.79
			c0,1.891-0.499,3.59-1.492,5.097c-0.996,1.508-2.306,2.67-3.928,3.488L54.78,56.221z M39.617,27.246h2.514
			c0.523,0,0.97-0.179,1.336-0.537c0.366-0.357,0.55-0.792,0.55-1.303V13.678c0-0.51-0.184-0.945-0.55-1.304
			c-0.366-0.356-0.812-0.536-1.336-0.536h-2.514V27.246z"/>
		<path fill="#FFFFFF" d="M73.95,3.867c1.204,0.512,2.251,1.201,3.143,2.07c0.89,0.87,1.597,1.891,2.121,3.066
			C79.737,10.178,80,11.43,80,12.759v4.989c0,0.716-0.342,1.176-1.022,1.379l-7.148-0.006c-0.75-0.115-1.021-0.825-1.021-1.542
			v-4.438c0-0.51-0.184-0.944-0.551-1.303c-0.367-0.357-0.812-0.537-1.335-0.537h-0.629c-0.523,0-0.969,0.18-1.335,0.537
			c-0.368,0.358-0.551,0.792-0.551,1.303v34.647c0,0.512,0.183,0.947,0.551,1.303c0.366,0.359,0.812,0.537,1.335,0.537h0.629
			c0.523,0,0.968-0.178,1.335-0.537c0.367-0.355,0.551-0.791,0.551-1.303V34.145h-2.2v-8.738H78.9c0.731,0,1.1,0.358,1.1,1.074
			v21.692c0,1.33-0.263,2.582-0.786,3.756c-0.524,1.176-1.231,2.199-2.121,3.066c-0.892,0.869-1.938,1.561-3.143,2.07
			c-1.205,0.51-2.489,0.766-3.85,0.766h-2.985c-1.363,0-2.646-0.256-3.851-0.766c-1.205-0.51-2.252-1.201-3.143-2.07
			c-0.891-0.867-1.599-1.891-2.121-3.066c-0.523-1.174-0.785-2.426-0.785-3.756V12.759c0-1.329,0.262-2.581,0.785-3.756
			c0.522-1.175,1.23-2.196,2.121-3.066c0.891-0.869,1.938-1.558,3.143-2.07C64.469,3.356,65.752,3.1,67.115,3.1h2.985
			C71.461,3.1,72.745,3.356,73.95,3.867z"/>
	</g>
</g>
</svg>
