<?xml version="1.0" encoding="utf-8"?>
<!-- Generator: Adobe Illustrator 21.1.0, SVG Export Plug-In . SVG Version: 6.00 Build 0)  -->
<svg version="1.1" id="branding" xmlns="http://www.w3.org/2000/svg" xmlns:xlink="http://www.w3.org/1999/xlink" x="0px" y="0px"
	 viewBox="0 0 940.3 686.7" style="enable-background:new 0 0 940.3 686.7;" xml:space="preserve">
<style type="text/css">
	.st0{opacity:0.15;enable-background:new    ;}
	.st1{fill:#7E9DAA;}
	.st2{opacity:0.27;fill:url(#SVGID_1_);enable-background:new    ;}
	.st3{fill:#e53b51;}
	.st4{fill:#FFFFFF;}
	.st5{opacity:0.17;fill:url(#SVGID_2_);enable-background:new    ;}
	.st6{fill:#FFE269;}
	.st7{opacity:0.3;fill:#C48551;enable-background:new    ;}
	.st8{opacity:0.17;fill:url(#SVGID_3_);enable-background:new    ;}
	.st9{fill:url(#SVGID_4_);}
	.st10{fill:#D8D8D8;}
	.st11{fill:url(#SVGID_5_);}
	.st12{enable-background:new    ;}
	.st13{fill:#E6EDF4;}
	.st14{fill:#E20613;}
	.st15{fill:#009EE2;}
	.st16{fill:#F8AF00;}
	.st17{fill:#93C01F;}
	.st18{opacity:0.17;fill:url(#SVGID_6_);enable-background:new    ;}
	.st19{fill:#F4F4F4;}
	.st20{fill:#FC9E48;}
	.st21{fill:#EFCCA3;}
	.st22{fill:#2A3C67;}
	.st23{fill:#D67729;}
	.st24{fill:#666666;}
	.st25{fill:url(#SVGID_7_);}
	.st26{opacity:7.000000e-02;fill:#7E9DAA;enable-background:new    ;}
	.st27{fill:#E1E5EA;}
	.st28{opacity:7.000000e-02;fill:url(#SVGID_8_);}
	.st29{fill:url(#SVGID_9_);}
	.st30{fill:#9DCC4A;}
	.st31{fill:#E8E8E8;}
	.st32{fill:#DD3344;}
	.st33{fill:#FCB6C0;}
	.st34{opacity:0.17;fill:url(#SVGID_10_);enable-background:new    ;}
	.st35{fill:#0292C4;}
	.st36{fill:#28B4E5;}
	.st37{fill:#50CDEF;}
	.st38{fill:#92E4F7;}
	.st39{opacity:0.17;fill:url(#SVGID_11_);enable-background:new    ;}
	.st40{fill:#FFE98A;}
	.st41{fill:#FCF1C5;}
	.st42{opacity:0.17;fill:url(#SVGID_12_);enable-background:new    ;}
	.st43{fill:#AFD33D;}
	.st44{fill:#CCE856;}
	.st45{fill:#EDFC97;}
	.st46{opacity:0.15;fill:#5B5B5B;enable-background:new    ;}
	.st47{opacity:0.17;fill:url(#SVGID_13_);enable-background:new    ;}
	.st48{opacity:0.17;fill:url(#SVGID_14_);enable-background:new    ;}
	.st49{opacity:0.17;fill:url(#SVGID_15_);enable-background:new    ;}
</style>
<g>
	<g class="st0">
		<path class="st1" d="M298.6,224.4l49-29.7c1.6-0.9,1.6-3.3,0-4.2l-47-27c-1.2-0.7-2.7-0.7-3.9,0l-48.6,29.4
			c-1.8,1.1-1.8,3.7,0,4.7l46.5,26.7C295.9,225.2,297.4,225.1,298.6,224.4z"/>
	</g>
	
		<linearGradient id="SVGID_1_" gradientUnits="userSpaceOnUse" x1="208.6402" y1="240.956" x2="493.0038" y2="673.5869" gradientTransform="matrix(1 0 0 -1 0 688)">
		<stop  offset="0" style="stop-color:#A5BDCB"/>
		<stop  offset="0.9958" style="stop-color:#D8E9F4;stop-opacity:0"/>
	</linearGradient>
	<path class="st2" d="M524.9,361.4L241.3,202.3c-2.9-1.6-6.5-1.6-9.3,0.1L17,326.5c-6.3,3.7-6.3,12.8,0.1,16.4l130.6,73.3L119,433.1
		c-2.6,1.6-2.6,5.4,0.1,6.9l99.6,55.7c1.8,1,3.9,1,5.6,0l31.8-18.7l44.6,25c2.9,1.6,6.5,1.6,9.3-0.1l55.1-31.8l107.2-61.9l52.7-30.4
		C531.3,374.2,531.3,365,524.9,361.4z"/>
	<path class="st3" d="M224.3,470.3l66.6-39.1c2.3-1.4,2.3-4.8-0.1-6.1L190.5,369c-1.8-1-3.9-1-5.6,0L119,407.8
		c-2.6,1.6-2.6,5.4,0.1,6.9l99.6,55.7C220.4,471.4,222.5,471.4,224.3,470.3z"/>
	<polygon class="st4" points="311,459.6 544.9,324.6 242.1,154.7 8.2,289.7 	"/>
	<linearGradient id="SVGID_2_" gradientUnits="userSpaceOnUse" x1="156.3" y1="407.425" x2="292.5627" y2="407.425">
		<stop  offset="0" style="stop-color:#000000"/>
		<stop  offset="1" style="stop-color:#000000;stop-opacity:0.7"/>
	</linearGradient>
	<path class="st5" d="M290.8,425.1L190.5,369c-1.8-1-3.9-1-5.6,0l-28.6,16.8l108.3,60.8l26.2-15.4
		C293.2,429.8,293.1,426.4,290.8,425.1z"/>
	<path class="st6" d="M314.5,457.6L534,330.8c4.8-2.8,4.7-9.7-0.1-12.4L245.7,156.7c-2.2-1.2-4.9-1.2-7.1,0L19.1,283.5
		c-4.8,2.8-4.7,9.7,0.1,12.4l288.3,161.7C309.6,458.9,312.3,458.8,314.5,457.6z"/>
	<path class="st7" d="M242.9,182.2c-1.8-1-3.9-1-5.7,0l-176.5,98c-3.8,2.2-3.8,7.8,0.1,10l219.2,125c21,12,46.7,12,67.7,0.1
		l141.5-80.1c7.3-4.1,7.2-14.6-0.1-18.6L242.9,182.2z"/>
	
		<linearGradient id="SVGID_3_" gradientUnits="userSpaceOnUse" x1="92.4" y1="466.5537" x2="198.1756" y2="466.5537" gradientTransform="matrix(1 0 0 -1 0 688)">
		<stop  offset="0" style="stop-color:#000000"/>
		<stop  offset="1" style="stop-color:#000000;stop-opacity:0.7"/>
	</linearGradient>
	<path class="st8" d="M123.4,250.1c2.3,1.3,6.2,0.6,8.5-0.7l64-38.9c3.1-1.8,3-6.3-0.1-8l-18.4-10.4l-85,49.1L123.4,250.1z"/>
	<path class="st4" d="M222.2,457.4l15.8-9.6c0.5-0.3,0.5-1.1,0-1.3l-15.1-8.7c-0.4-0.2-0.9-0.2-1.2,0l-15.6,9.5
		c-0.6,0.3-0.6,1.2,0,1.5l15,8.6C221.4,457.7,221.8,457.7,222.2,457.4z"/>
	<g>
		
			<linearGradient id="SVGID_4_" gradientUnits="userSpaceOnUse" x1="260.125" y1="562.2433" x2="355.825" y2="562.2433" gradientTransform="matrix(1 0 0 -1 0 688)">
			<stop  offset="4.237290e-03" style="stop-color:#FFEC5E"/>
			<stop  offset="1" style="stop-color:#FFCE4A"/>
		</linearGradient>
		<path class="st9" d="M308.7,154.3l46-27.9c1.5-0.9,1.5-3.1,0-3.9l-44.1-25.3c-1.1-0.6-2.5-0.6-3.6,0l-45.6,27.7
			c-1.7,1-1.7,3.5,0,4.4l43.7,25.1C306.2,154.9,307.6,154.9,308.7,154.3z"/>
	</g>
	<path class="st4" d="M259.4,387.4c-0.6,0.3-1.4,0.2-1.7-0.4c-5-8.4-8.1-17.9-8-26.5c0-8.9,3.4-15,8.7-17.5l-0.1-0.2l137.5-78.1
		c0.8-0.5,0.8-1.7,0-2.2l-149.6-83c-2.7-1.5-5.9-1.5-8.5,0.1L68.1,276.2c-3.2,1.8-3.2,6.5,0,8.4L276,406.1c8,4.6,15.1,4.7,20,1.1
		c4.1-3,6.5-8.6,6.5-16.2c0-7.5-2.4-15.8-6.3-23.4c-0.3-0.6-1.1-0.9-1.7-0.5L259.4,387.4z"/>
	<path class="st10" d="M295.6,366.4L258.3,388c-5.3-8.7-8.7-18.6-8.7-27.6c0-8.9,3.4-15,8.7-17.5c4.7-2.2,10.9-1.6,17.8,2.4
		C283.8,349.8,290.7,357.5,295.6,366.4z"/>
	
		<linearGradient id="SVGID_5_" gradientUnits="userSpaceOnUse" x1="94.1204" y1="471.45" x2="204.0589" y2="471.45" gradientTransform="matrix(1 0 0 -1 0 688)">
		<stop  offset="0" style="stop-color:#5fcece"/>
		<stop  offset="1" style="stop-color:#5fcece"/>
	</linearGradient>
	<path class="st11" d="M131.5,249.5l70.2-42.1c3.1-1.8,3-6.3-0.1-8l-28.3-15.9c-2.3-1.3-5.1-1.3-7.4,0.1l-69.4,41.6
		c-3.5,2-3.4,7.1,0.1,9l27.4,15.4C126.4,250.9,129.3,250.9,131.5,249.5z"/>
	<g>
		<g class="st12">
			<g>
				<g>
					<g>
						<path class="st13" d="M201.1,241.4c16.8-9.7,40-15.7,65.6-15.7c51.2,0,92.5,24,92.4,53.7c-0.1,14.8-10.5,28.2-27.3,37.9
							c-16.1,9.3-38,15.2-62.2,15.7l0.1-22.5c13.6-0.5,25.8-3.9,34.8-9.1c9.8-5.6,15.8-13.4,15.9-22c0.1-17.2-24-31.2-53.7-31.2
							c-14.9,0-28.3,3.5-38.1,9.1c-9,5.2-14.9,12.3-15.8,20.1h-38.9C174.7,263.3,185,250.6,201.1,241.4"/>
					</g>
					<g>
						<path class="st14" d="M248.9,308.8c4.4,0.9,9.2,1.4,14,1.6l-0.1,22.5c-10.1-0.2-19.9-1.4-28.9-3.3L248.9,308.8"/>
					</g>
					<g>
						<path class="st15" d="M173.9,281.3h38.9c0.3,2.8,1.2,5.6,2.7,8.1l-36,8.6C176.2,292.8,174.3,287.1,173.9,281.3"/>
					</g>
					<g>
						<path class="st16" d="M203.2,318.6l27.6-15.9c3.6,1.8,7.5,3.4,11.9,4.6l-15,20.8C218.7,325.7,210.4,322.5,203.2,318.6"/>
					</g>
					<g>
						<path class="st17" d="M182.1,301.6l36-8.6c2.1,2.5,4.8,4.8,7.9,6.9l-27.6,15.9C191.8,311.7,186.3,306.9,182.1,301.6"/>
					</g>
				</g>
			</g>
		</g>
	</g>
	<linearGradient id="SVGID_6_" gradientUnits="userSpaceOnUse" x1="271.4" y1="269.8" x2="438.6" y2="269.8">
		<stop  offset="0" style="stop-color:#000000"/>
		<stop  offset="1" style="stop-color:#000000;stop-opacity:0.7"/>
	</linearGradient>
	<path class="st18" d="M438.6,265.1l-16.8-9.4l-128,16.8c-0.1-0.1-0.2-0.2-0.2-0.2v0.2l-22.2,8.7l0,0l0,0l4.5,0.5l19.2,2.2l0,0
		L438.6,265.1z"/>
	<path class="st19" d="M488.6,284.6c0.1-16.8-11.8-37.2-26.3-45.6c-6.1-3.5-11.7-4.4-16.2-3l-4.8,2.7l-43.7,24.8l-139.4,79.2
		l0.1,0.2c4.7-2.2,10.9-1.6,17.8,2.4c7.7,4.4,14.6,12.2,19.4,21c4.3,7.9,6.9,16.7,6.9,24.6c0,7.6-2.5,13.2-6.5,16.2l184.6-105.4l0,0
		C485.5,299.1,488.6,293.1,488.6,284.6z"/>
	<g>
		
			<rect x="264.2" y="178.8" transform="matrix(0.7427 -0.6696 0.6696 0.7427 -28.3748 295.3117)" class="st20" width="211.8" height="11.5"/>
		<path class="st3" d="M453.1,117.5l-7.6-8.4l7.1-6.4c2.4-2.1,6-1.9,8.1,0.4l0,0c2.1,2.3,1.9,5.8-0.4,7.9L453.1,117.5z"/>
		<path class="st21" d="M287.4,251.1c0,0,4.7,0.8,4,4.5c0,0,4.2-0.3,3.9,4.3l-21,11.2l13.3-19.8"/>
		<path class="st22" d="M279.2,263.6l-5,7.4l8.3-4.4C281.7,264.8,280.3,264,279.2,263.6z"/>
		<polygon class="st23" points="291.7,255.8 295.3,259.8 452.6,118 445.1,117.1 		"/>
		<path class="st24" d="M445.7,123.8l-7.4-8.2c-0.7-0.7-0.6-1.9,0.1-2.5l5.1-4.6c0.7-0.7,1.9-0.6,2.5,0.1l7.4,8.2
			c0.7,0.7,0.6,1.9-0.1,2.5l-5.1,4.6C447.5,124.6,446.4,124.5,445.7,123.8z"/>
		<path class="st24" d="M443.7,108.3c0,0,4.9-3,9.1,2.3c4,5.1,0.8,8.6,0.8,8.6l-9.2-3.1"/>
		<path class="st20" d="M438.3,115.5c0,0,3.9-2.8,6.8,1.6c3,4.4,0.6,6.6,0.6,6.6l-8.7-1.4"/>
		<path class="st23" d="M445.7,123.8c0,0,2.4-2.2-0.6-6.6l0,0l0,0l-6.1,5.6L445.7,123.8z"/>
	</g>
	
		<linearGradient id="SVGID_7_" gradientUnits="userSpaceOnUse" x1="120.7024" y1="421.5" x2="186.7234" y2="421.5" gradientTransform="matrix(-1 0 0 -1 280.8129 688)">
		<stop  offset="0" style="stop-color:#5fcece"/>
		<stop  offset="1" style="stop-color:#5fcece"/>
	</linearGradient>
	<path class="st25" d="M95.1,281.3l57.7-33.2c1.5-0.9,4.1-0.8,5.9,0.2l0,0c1.7,1,1.9,2.5,0.4,3.4l-57.7,33.2
		c-1.5,0.9-4.1,0.8-5.9-0.2l0,0C93.8,283.6,93.6,282.1,95.1,281.3z"/>
	<path class="st3" d="M109.7,287.8l34.4-19.8c1.5-0.9,4.1-0.8,5.9,0.2l0,0c1.7,1,1.9,2.5,0.4,3.4L116,291.4
		c-1.5,0.9-4.1,0.8-5.9-0.2l0,0C108.4,290.2,108.2,288.7,109.7,287.8z"/>
	<path class="st26" d="M840.6,531.5L611.1,400.4c-1.6-0.9-3.6-0.9-5.2,0L357.7,546.3c-2.5,1.4-2.5,5,0,6.5l198.7,115.4
		c19,11,42.4,11.2,61.5,0.3l222.7-128.1C844.1,538.4,844.1,533.4,840.6,531.5z"/>
	<path class="st27" d="M822.7,486.9l30.8,17.8c1.8-4.6,2.9-9.4,2.9-13.8c0-5.7-1.8-9.9-4.8-12.3l0,0l-2.4-1.4
		c-3.6-1.5-8.3-0.9-13.3,2c-0.6,0.4-1.3,0.8-1.9,1.2C830.9,482.6,825.2,483.7,822.7,486.9z"/>
	<path class="st4" d="M576.5,583.9c1.7-1,3.4-1.7,5-2.2c2.2-0.7,2.6-3.6,0.6-4.8L440.2,494c27.5-15.8,55-31.7,82.5-47.5
		c42.7-24.6,85.4-49.2,128.2-73.8c0.7-0.4,1.3-0.9,2-1.2c7.5-4.3,14-3.7,17.9,0.8l182.5,107c-3.7-1.5-8.6-1-13.9,2.1
		c-0.7,0.4-1.3,0.8-2,1.2c-3.9,2.2-7.8,4.5-11.7,6.7c-38.8,22.4-77.6,44.7-116.4,67.1c-43.3,24.9-86.6,49.9-129.9,74.8
		c-0.9,0.6-1.7,1.2-2.6,1.7c-6.2,3.6-11.7,3.7-15.6,1.2c-3.6-2.3-5.7-6.9-5.7-13.4C555.3,607.2,564.8,590.7,576.5,583.9z"/>
	<g>
		<g>
			<linearGradient id="SVGID_8_" gradientUnits="userSpaceOnUse" x1="618" y1="392.9211" x2="705.8" y2="392.9211">
				<stop  offset="0" style="stop-color:#000000"/>
				<stop  offset="1" style="stop-color:#000000;stop-opacity:0.7"/>
			</linearGradient>
			<path class="st28" d="M659.1,416.5L618,391.6c10.9-6.3,21.9-12.6,32.8-18.9c0.7-0.4,1.3-0.9,2-1.2c7.5-4.3,14-3.7,17.9,0.8
				l35.1,20.6l-41.3,23.7C662.9,417.5,660.8,417.5,659.1,416.5z"/>
		</g>
	</g>
	<path class="st27" d="M368.8,511.3c0-13.5,9.5-30,21.3-36.8c7.3-4.2,13.8-3.7,17.7,0.6l32.5,19L587,579.8c0.6,0.4,0.3,1.3-0.4,1.2
		c-3-0.1-6.5,0.8-10.1,2.9c-11.8,6.8-21.3,23.3-21.3,36.8c0,6.4,2.2,11,5.7,13.4L376,525.8l0.1-0.3
		C371.7,523.6,368.8,518.6,368.8,511.3z"/>
	<g>
		<g class="st12">
			<g>
				<g>
					<g>
						<path class="st22" d="M552.5,457.3c15.3-8.5,36.4-13.8,59.6-13.8c46.5,0,84.1,21.1,84,47.1c-0.1,13-9.6,24.8-24.9,33.3
							c-14.6,8.2-34.5,13.3-56.6,13.8l0.1-19.8c12.3-0.4,23.4-3.4,31.6-8c8.9-5,14.4-11.8,14.4-19.3c0.1-15.1-21.8-27.4-48.8-27.4
							c-13.5,0-25.8,3.1-34.6,8c-8.2,4.6-13.6,10.8-14.4,17.7h-35.3C528.6,476.6,537.9,465.4,552.5,457.3"/>
					</g>
					<g>
						<path class="st14" d="M596,516.5c4,0.8,8.3,1.3,12.8,1.4l-0.1,19.8c-9.2-0.2-18.1-1.2-26.3-2.9L596,516.5"/>
					</g>
					<g>
						<path class="st15" d="M527.8,492.3h35.3c0.3,2.5,1.1,4.9,2.5,7.1l-32.7,7.6C529.9,502.4,528.1,497.5,527.8,492.3"/>
					</g>
					<g>
						<path class="st16" d="M554.5,525.1l25.1-14c3.2,1.6,6.9,3,10.8,4l-13.6,18.3C568.5,531.3,561,528.5,554.5,525.1"/>
					</g>
					<g>
						<path class="st17" d="M535.3,510.2l32.7-7.6c1.9,2.2,4.3,4.2,7.2,6.1l-25.1,14C544.1,519,539,514.8,535.3,510.2"/>
					</g>
				</g>
			</g>
		</g>
	</g>
	<g>
		
			<linearGradient id="SVGID_9_" gradientUnits="userSpaceOnUse" x1="496.3628" y1="339.5935" x2="642.0762" y2="339.5935" gradientTransform="matrix(-1 0 0 -1 1229.3635 688)">
			<stop  offset="4.237290e-03" style="stop-color:#FFEC5E"/>
			<stop  offset="1" style="stop-color:#FFCE4A"/>
		</linearGradient>
		<path class="st29" d="M659.1,391.9L589,349.4c-2.3-1.4-2.3-4.7,0.1-6l67.1-38.5c1.7-1,3.8-1,5.5,0l69.4,42.1
			c2.6,1.5,2.5,5.3-0.1,6.7L664.6,392C662.9,392.9,660.8,392.9,659.1,391.9z"/>
	</g>
	<polygon class="st30" points="564.9,290.6 494.5,248.1 504.4,235 511.4,257.3 521.5,246.5 529.7,267.5 539.6,257.2 547.4,278.5 
		557.8,268.9 	"/>
	<polygon class="st30" points="135.5,158 206,115.5 196.1,102.4 189.1,124.7 179,113.9 170.7,134.8 160.8,124.6 153,145.9 
		142.7,136.3 	"/>
	<g>
		<g>
			<g class="st12">
				<g>
					<path class="st4" d="M523.7,181.8c-0.4-0.2-0.5-0.7-0.1-0.9l3.8-3.1c0.4-0.3,1.2-0.4,1.8-0.2l0.1,0.1c0.1,0,0.1,0,0.2,0.1
						c0.4,0.3,0.5,0.6,0.1,0.9l-3.8,3.1c-0.4,0.3-1.2,0.4-1.8,0.2l-0.1-0.1C523.8,181.8,523.7,181.8,523.7,181.8 M527.8,183.5
						c-0.4-0.2-0.5-0.7-0.1-0.9l3.8-3.1c0.4-0.3,1.2-0.4,1.8-0.2l0.1,0.1c0.1,0,0.1,0,0.2,0.1c0.4,0.3,0.5,0.7,0.1,0.9l-3.8,3.1
						c-0.4,0.3-1.2,0.4-1.8,0.2l-0.1-0.1C527.9,183.6,527.9,183.5,527.8,183.5 M532,185.2c-0.4-0.2-0.5-0.6-0.1-0.9l3.8-3.1
						c0.4-0.3,1.2-0.4,1.8-0.2l0.1,0.1c0.1,0,0.1,0.1,0.2,0.1c0.4,0.2,0.5,0.6,0.1,0.9l-3.8,3.1c-0.4,0.3-1.2,0.4-1.8,0.2l-0.1-0.1
						C532.1,185.3,532,185.3,532,185.2 M579.7,205c-0.4-0.2-0.5-0.6-0.1-0.9l3.8-3.1c0.4-0.3,1.2-0.4,1.8-0.2l0.1,0.1
						c0.1,0,0.1,0.1,0.2,0.1c0.4,0.2,0.5,0.6,0.1,0.9l-3.8,3.1c-0.4,0.3-1.2,0.4-1.8,0.2l-0.1-0.1
						C579.8,205.1,579.7,205.1,579.7,205 M583.8,206.8c-0.4-0.3-0.5-0.7-0.1-0.9l3.8-3.1c0.4-0.3,1.2-0.4,1.8-0.2l0.1,0.1
						c0.1,0,0.1,0,0.2,0.1c0.4,0.2,0.5,0.6,0.1,0.9l-3.8,3.1c-0.4,0.3-1.2,0.4-1.8,0.2l-0.1-0.1
						C583.9,206.8,583.9,206.8,583.8,206.8 M588,208.5c-0.4-0.3-0.5-0.7-0.1-0.9l3.8-3.1c0.4-0.3,1.2-0.4,1.8-0.2l0.1,0.1
						c0.1,0,0.1,0,0.2,0.1c0.4,0.2,0.5,0.7,0.1,0.9l-3.8,3.1c-0.4,0.3-1.2,0.4-1.8,0.2l-0.1-0.1C588.1,208.5,588,208.5,588,208.5
						 M635.7,228.3c-0.4-0.2-0.5-0.6-0.1-0.9l3.8-3.1c0.4-0.3,1.2-0.4,1.8-0.2l0.1,0.1c0.1,0,0.1,0,0.2,0.1c0.4,0.3,0.5,0.7,0.1,0.9
						l-3.8,3.1c-0.4,0.3-1.2,0.4-1.8,0.2l-0.1-0.1C635.8,228.3,635.7,228.3,635.7,228.3 M639.8,230c-0.4-0.2-0.5-0.6-0.1-0.9
						l3.8-3.1c0.4-0.3,1.2-0.4,1.8-0.2l0.1,0.1c0.1,0,0.1,0.1,0.2,0.1c0.4,0.2,0.5,0.6,0.1,0.9l-3.8,3.1c-0.4,0.3-1.2,0.4-1.8,0.2
						l-0.1-0.1C639.9,230.1,639.9,230,639.8,230 M644,231.7c-0.4-0.2-0.5-0.7-0.1-0.9l3.8-3.1c0.4-0.3,1.2-0.4,1.8-0.2l0.1,0.1
						c0.1,0,0.1,0,0.2,0.1c0.4,0.2,0.5,0.6,0.1,0.9l-3.8,3.1c-0.4,0.3-1.2,0.4-1.8,0.2l-0.1-0.1C644.1,231.8,644,231.8,644,231.7
						 M691.7,251.6c-0.4-0.3-0.5-0.7-0.1-0.9l3.8-3.1c0.4-0.3,1.2-0.4,1.8-0.2l0.1,0.1c0.1,0,0.1,0,0.2,0.1c0.4,0.2,0.5,0.7,0.1,0.9
						l-3.8,3.1c-0.4,0.3-1.2,0.4-1.8,0.2l-0.1-0.1C691.8,251.6,691.7,251.6,691.7,251.6 M695.8,253.3c-0.4-0.2-0.5-0.6-0.1-0.9
						l3.8-3.1c0.4-0.3,1.2-0.4,1.8-0.2l0.1,0.1c0.1,0,0.1,0.1,0.2,0.1c0.4,0.2,0.5,0.6,0.1,0.9l-3.8,3.1c-0.4,0.3-1.2,0.4-1.8,0.2
						l-0.1-0.1C695.9,253.3,695.9,253.3,695.8,253.3 M700,255c-0.4-0.2-0.5-0.6-0.1-0.9l3.8-3.1c0.4-0.3,1.2-0.4,1.8-0.2l0.1,0.1
						c0.1,0,0.1,0.1,0.2,0.1c0.4,0.2,0.5,0.6,0.1,0.9L702,255c-0.4,0.3-1.2,0.4-1.8,0.2l-0.1-0.1C700.1,255.1,700,255,700,255
						 M549.8,160.5c-0.4-0.2-0.5-0.6-0.1-0.9l14.8-12c0.4-0.3,1.1-0.4,1.7-0.2l0.3,0.1c0.1,0,0.1,0,0.1,0.1c0.4,0.2,0.5,0.6,0.1,0.9
						l-14.8,12c-0.4,0.3-1.1,0.4-1.7,0.2l-0.3-0.1C549.9,160.6,549.9,160.6,549.8,160.5 M544.1,170.4c-0.5-0.3-0.5-0.7-0.2-1
						l24.7-20c0.4-0.3,1.3-0.4,1.9-0.2c0.1,0,0.1,0.1,0.2,0.1c0.5,0.3,0.5,0.7,0.1,1l-24.6,20c-0.4,0.4-1.3,0.4-1.9,0.2
						C544.2,170.5,544.1,170.5,544.1,170.4 M548.2,172.2c-0.5-0.3-0.5-0.7-0.1-1l24.6-20c0.4-0.3,1.3-0.4,1.9-0.2
						c0.1,0,0.1,0.1,0.2,0.1c0.5,0.3,0.5,0.7,0.1,1l-24.7,20c-0.4,0.4-1.3,0.4-1.9,0.2C548.3,172.2,548.3,172.2,548.2,172.2
						 M605.8,183.8c-0.4-0.2-0.5-0.6-0.1-0.9l14.8-12c0.4-0.3,1.1-0.4,1.7-0.2l0.3,0.1c0.1,0,0.1,0,0.2,0.1c0.4,0.2,0.5,0.6,0.1,0.9
						l-14.8,12c-0.4,0.3-1.1,0.4-1.7,0.2l-0.3-0.1C605.9,183.8,605.9,183.8,605.8,183.8 M600.1,193.7c-0.5-0.3-0.5-0.7-0.1-1
						l24.7-20c0.4-0.4,1.3-0.4,1.9-0.2c0.1,0,0.1,0.1,0.2,0.1c0.5,0.3,0.5,0.7,0.1,1l-24.6,20c-0.4,0.3-1.3,0.4-1.9,0.2
						C600.2,193.7,600.1,193.7,600.1,193.7 M604.2,195.4c-0.5-0.3-0.5-0.7-0.1-1l24.7-20c0.4-0.4,1.3-0.4,1.9-0.2
						c0.1,0,0.1,0.1,0.2,0.1c0.5,0.3,0.5,0.7,0.1,1l-24.6,20c-0.4,0.4-1.3,0.4-1.9,0.2C604.3,195.5,604.3,195.4,604.2,195.4
						 M538.5,190.2c-2-1.1-2.3-3-0.6-4.3l40.4-32.7c1.8-1.5,5.4-1.8,8-0.8l24.6,10.2c0.3,0.1,0.5,0.2,0.7,0.4c2,1.1,2.3,3,0.6,4.3
						L571.8,200c-1.8,1.5-5.4,1.8-8,0.8l-24.6-10.2C539,190.5,538.7,190.4,538.5,190.2 M661.8,207c-0.4-0.2-0.5-0.6-0.1-0.9l14.8-12
						c0.4-0.3,1.1-0.4,1.7-0.2l0.3,0.1c0.1,0,0.1,0,0.1,0.1c0.4,0.2,0.5,0.6,0.1,0.9l-14.8,12c-0.4,0.3-1.1,0.4-1.7,0.2l-0.3-0.1
						C661.9,207.1,661.9,207.1,661.8,207 M656.1,216.9c-0.5-0.3-0.5-0.7-0.1-1l24.6-20c0.4-0.3,1.3-0.4,1.9-0.2
						c0.1,0,0.1,0.1,0.2,0.1c0.5,0.3,0.5,0.7,0.1,1l-24.6,20c-0.4,0.4-1.3,0.4-1.9,0.2C656.2,217,656.1,217,656.1,216.9
						 M660.2,218.7c-0.5-0.3-0.5-0.7-0.1-1l24.6-20c0.4-0.3,1.3-0.4,1.9-0.2c0.1,0,0.1,0.1,0.2,0.1c0.5,0.3,0.5,0.7,0.1,1l-24.6,20
						c-0.4,0.4-1.3,0.4-1.9,0.2C660.3,218.7,660.3,218.7,660.2,218.7 M594.5,213.5c-2-1.1-2.3-3-0.6-4.3l40.4-32.7
						c1.9-1.5,5.4-1.8,8-0.8l24.6,10.2c0.3,0.1,0.5,0.2,0.7,0.4c2,1.1,2.3,2.9,0.6,4.3l-40.4,32.7c-1.9,1.5-5.4,1.8-8,0.8
						l-24.6-10.2C595,213.7,594.7,213.6,594.5,213.5 M717.8,230.3c-0.4-0.2-0.5-0.6-0.1-0.9l14.8-12c0.4-0.3,1.1-0.4,1.7-0.2
						l0.3,0.1c0.1,0,0.1,0,0.1,0.1c0.4,0.2,0.5,0.6,0.1,0.9l-14.8,12c-0.4,0.3-1.1,0.4-1.7,0.2l-0.3-0.1
						C717.9,230.4,717.9,230.3,717.8,230.3 M712.1,240.2c-0.5-0.3-0.5-0.7-0.1-1l24.6-20c0.4-0.4,1.3-0.4,1.9-0.2
						c0.1,0,0.1,0.1,0.2,0.1c0.5,0.3,0.5,0.7,0.2,1l-24.7,20c-0.4,0.3-1.3,0.4-1.9,0.2C712.2,240.3,712.1,240.2,712.1,240.2
						 M716.2,241.9c-0.5-0.3-0.5-0.7-0.1-1l24.6-20c0.4-0.4,1.3-0.4,1.9-0.2c0.1,0,0.1,0.1,0.2,0.1c0.5,0.3,0.5,0.7,0.1,1l-24.6,20
						c-0.4,0.3-1.3,0.4-1.9,0.2C716.3,242,716.3,242,716.2,241.9 M650.5,236.7c-2-1.1-2.3-3-0.6-4.3l40.4-32.7
						c1.8-1.5,5.4-1.8,8-0.8l24.6,10.2c0.3,0.1,0.5,0.2,0.7,0.4c2,1.1,2.3,3,0.6,4.3l-40.4,32.7c-1.8,1.5-5.4,1.8-8,0.8l-24.6-10.2
						C651,237,650.7,236.9,650.5,236.7 M706.5,260c-2-1.1-2.3-3-0.6-4.3l40.4-32.7c1.8-1.5,5.4-1.8,8-0.8l24.6,10.2
						c0.3,0.1,0.5,0.2,0.7,0.4c2,1.1,2.3,3,0.6,4.3l-40.4,32.7c-1.8,1.5-5.4,1.8-8,0.8l-24.6-10.2
						C706.9,260.2,706.7,260.1,706.5,260 M794.4,235.1c-0.3-0.2-0.6-0.3-1-0.5L534.7,127.2c-3.5-1.5-8.4-1-10.9,1l-44.3,35.9
						c-2.3,1.8-1.8,4.3,0.9,5.9c0.3,0.2,0.6,0.3,1,0.5L740,277.9c3.5,1.5,8.4,1,10.9-1l44.3-35.9
						C797.5,239.2,797.1,236.7,794.4,235.1"/>
					<path class="st4" d="M523.7,181.8c-0.4-0.2-0.5-0.7-0.1-0.9l3.8-3.1c0.4-0.3,1.2-0.4,1.8-0.2l0.1,0.1c0.1,0,0.1,0,0.2,0.1
						c0.4,0.3,0.5,0.6,0.1,0.9l-3.8,3.1c-0.4,0.3-1.2,0.4-1.8,0.2l-0.1-0.1C523.8,181.8,523.7,181.8,523.7,181.8 M527.8,183.5
						c-0.4-0.2-0.5-0.7-0.1-0.9l3.8-3.1c0.4-0.3,1.2-0.4,1.8-0.2l0.1,0.1c0.1,0,0.1,0,0.2,0.1c0.4,0.3,0.5,0.7,0.1,0.9l-3.8,3.1
						c-0.4,0.3-1.2,0.4-1.8,0.2l-0.1-0.1C527.9,183.6,527.9,183.5,527.8,183.5 M532,185.2c-0.4-0.2-0.5-0.6-0.1-0.9l3.8-3.1
						c0.4-0.3,1.2-0.4,1.8-0.2l0.1,0.1c0.1,0,0.1,0.1,0.2,0.1c0.4,0.2,0.5,0.6,0.1,0.9l-3.8,3.1c-0.4,0.3-1.2,0.4-1.8,0.2l-0.1-0.1
						C532.1,185.3,532,185.3,532,185.2 M579.7,205c-0.4-0.2-0.5-0.6-0.1-0.9l3.8-3.1c0.4-0.3,1.2-0.4,1.8-0.2l0.1,0.1
						c0.1,0,0.1,0.1,0.2,0.1c0.4,0.2,0.5,0.6,0.1,0.9l-3.8,3.1c-0.4,0.3-1.2,0.4-1.8,0.2l-0.1-0.1
						C579.8,205.1,579.7,205.1,579.7,205 M583.8,206.8c-0.4-0.3-0.5-0.7-0.1-0.9l3.8-3.1c0.4-0.3,1.2-0.4,1.8-0.2l0.1,0.1
						c0.1,0,0.1,0,0.2,0.1c0.4,0.2,0.5,0.6,0.1,0.9l-3.8,3.1c-0.4,0.3-1.2,0.4-1.8,0.2l-0.1-0.1
						C583.9,206.8,583.9,206.8,583.8,206.8 M588,208.5c-0.4-0.3-0.5-0.7-0.1-0.9l3.8-3.1c0.4-0.3,1.2-0.4,1.8-0.2l0.1,0.1
						c0.1,0,0.1,0,0.2,0.1c0.4,0.2,0.5,0.7,0.1,0.9l-3.8,3.1c-0.4,0.3-1.2,0.4-1.8,0.2l-0.1-0.1C588.1,208.5,588,208.5,588,208.5
						 M635.7,228.3c-0.4-0.2-0.5-0.6-0.1-0.9l3.8-3.1c0.4-0.3,1.2-0.4,1.8-0.2l0.1,0.1c0.1,0,0.1,0,0.2,0.1c0.4,0.3,0.5,0.7,0.1,0.9
						l-3.8,3.1c-0.4,0.3-1.2,0.4-1.8,0.2l-0.1-0.1C635.8,228.3,635.7,228.3,635.7,228.3 M639.8,230c-0.4-0.2-0.5-0.6-0.1-0.9
						l3.8-3.1c0.4-0.3,1.2-0.4,1.8-0.2l0.1,0.1c0.1,0,0.1,0.1,0.2,0.1c0.4,0.2,0.5,0.6,0.1,0.9l-3.8,3.1c-0.4,0.3-1.2,0.4-1.8,0.2
						l-0.1-0.1C639.9,230.1,639.9,230,639.8,230 M644,231.7c-0.4-0.2-0.5-0.7-0.1-0.9l3.8-3.1c0.4-0.3,1.2-0.4,1.8-0.2l0.1,0.1
						c0.1,0,0.1,0,0.2,0.1c0.4,0.2,0.5,0.6,0.1,0.9l-3.8,3.1c-0.4,0.3-1.2,0.4-1.8,0.2l-0.1-0.1C644.1,231.8,644,231.8,644,231.7
						 M691.7,251.6c-0.4-0.3-0.5-0.7-0.1-0.9l3.8-3.1c0.4-0.3,1.2-0.4,1.8-0.2l0.1,0.1c0.1,0,0.1,0,0.2,0.1c0.4,0.2,0.5,0.7,0.1,0.9
						l-3.8,3.1c-0.4,0.3-1.2,0.4-1.8,0.2l-0.1-0.1C691.8,251.6,691.7,251.6,691.7,251.6 M695.8,253.3c-0.4-0.2-0.5-0.6-0.1-0.9
						l3.8-3.1c0.4-0.3,1.2-0.4,1.8-0.2l0.1,0.1c0.1,0,0.1,0.1,0.2,0.1c0.4,0.2,0.5,0.6,0.1,0.9l-3.8,3.1c-0.4,0.3-1.2,0.4-1.8,0.2
						l-0.1-0.1C695.9,253.3,695.9,253.3,695.8,253.3 M700,255c-0.4-0.2-0.5-0.6-0.1-0.9l3.8-3.1c0.4-0.3,1.2-0.4,1.8-0.2l0.1,0.1
						c0.1,0,0.1,0.1,0.2,0.1c0.4,0.2,0.5,0.6,0.1,0.9L702,255c-0.4,0.3-1.2,0.4-1.8,0.2l-0.1-0.1C700.1,255.1,700,255,700,255
						 M549.8,160.5c-0.4-0.2-0.5-0.6-0.1-0.9l14.8-12c0.4-0.3,1.1-0.4,1.7-0.2l0.3,0.1c0.1,0,0.1,0,0.1,0.1c0.4,0.2,0.5,0.6,0.1,0.9
						l-14.8,12c-0.4,0.3-1.1,0.4-1.7,0.2l-0.3-0.1C549.9,160.6,549.9,160.6,549.8,160.5 M544.1,170.4c-0.5-0.3-0.5-0.7-0.2-1
						l24.7-20c0.4-0.3,1.3-0.4,1.9-0.2c0.1,0,0.1,0.1,0.2,0.1c0.5,0.3,0.5,0.7,0.1,1l-24.6,20c-0.4,0.4-1.3,0.4-1.9,0.2
						C544.2,170.5,544.1,170.5,544.1,170.4 M548.2,172.2c-0.5-0.3-0.5-0.7-0.1-1l24.6-20c0.4-0.3,1.3-0.4,1.9-0.2
						c0.1,0,0.1,0.1,0.2,0.1c0.5,0.3,0.5,0.7,0.1,1l-24.7,20c-0.4,0.4-1.3,0.4-1.9,0.2C548.3,172.2,548.3,172.2,548.2,172.2
						 M605.8,183.8c-0.4-0.2-0.5-0.6-0.1-0.9l14.8-12c0.4-0.3,1.1-0.4,1.7-0.2l0.3,0.1c0.1,0,0.1,0,0.2,0.1c0.4,0.2,0.5,0.6,0.1,0.9
						l-14.8,12c-0.4,0.3-1.1,0.4-1.7,0.2l-0.3-0.1C605.9,183.8,605.9,183.8,605.8,183.8 M600.1,193.7c-0.5-0.3-0.5-0.7-0.1-1
						l24.7-20c0.4-0.4,1.3-0.4,1.9-0.2c0.1,0,0.1,0.1,0.2,0.1c0.5,0.3,0.5,0.7,0.1,1l-24.6,20c-0.4,0.3-1.3,0.4-1.9,0.2
						C600.2,193.7,600.1,193.7,600.1,193.7 M604.2,195.4c-0.5-0.3-0.5-0.7-0.1-1l24.7-20c0.4-0.4,1.3-0.4,1.9-0.2
						c0.1,0,0.1,0.1,0.2,0.1c0.5,0.3,0.5,0.7,0.1,1l-24.6,20c-0.4,0.4-1.3,0.4-1.9,0.2C604.3,195.5,604.3,195.4,604.2,195.4
						 M538.5,190.2c-2-1.1-2.3-3-0.6-4.3l40.4-32.7c1.8-1.5,5.4-1.8,8-0.8l24.6,10.2c0.3,0.1,0.5,0.2,0.7,0.4c2,1.1,2.3,3,0.6,4.3
						L571.8,200c-1.8,1.5-5.4,1.8-8,0.8l-24.6-10.2C539,190.5,538.7,190.4,538.5,190.2 M661.8,207c-0.4-0.2-0.5-0.6-0.1-0.9l14.8-12
						c0.4-0.3,1.1-0.4,1.7-0.2l0.3,0.1c0.1,0,0.1,0,0.1,0.1c0.4,0.2,0.5,0.6,0.1,0.9l-14.8,12c-0.4,0.3-1.1,0.4-1.7,0.2l-0.3-0.1
						C661.9,207.1,661.9,207.1,661.8,207 M656.1,216.9c-0.5-0.3-0.5-0.7-0.1-1l24.6-20c0.4-0.3,1.3-0.4,1.9-0.2
						c0.1,0,0.1,0.1,0.2,0.1c0.5,0.3,0.5,0.7,0.1,1l-24.6,20c-0.4,0.4-1.3,0.4-1.9,0.2C656.2,217,656.1,217,656.1,216.9
						 M660.2,218.7c-0.5-0.3-0.5-0.7-0.1-1l24.6-20c0.4-0.3,1.3-0.4,1.9-0.2c0.1,0,0.1,0.1,0.2,0.1c0.5,0.3,0.5,0.7,0.1,1l-24.6,20
						c-0.4,0.4-1.3,0.4-1.9,0.2C660.3,218.7,660.3,218.7,660.2,218.7 M594.5,213.5c-2-1.1-2.3-3-0.6-4.3l40.4-32.7
						c1.9-1.5,5.4-1.8,8-0.8l24.6,10.2c0.3,0.1,0.5,0.2,0.7,0.4c2,1.1,2.3,2.9,0.6,4.3l-40.4,32.7c-1.9,1.5-5.4,1.8-8,0.8
						l-24.6-10.2C595,213.7,594.7,213.6,594.5,213.5 M717.8,230.3c-0.4-0.2-0.5-0.6-0.1-0.9l14.8-12c0.4-0.3,1.1-0.4,1.7-0.2
						l0.3,0.1c0.1,0,0.1,0,0.1,0.1c0.4,0.2,0.5,0.6,0.1,0.9l-14.8,12c-0.4,0.3-1.1,0.4-1.7,0.2l-0.3-0.1
						C717.9,230.4,717.9,230.3,717.8,230.3 M712.1,240.2c-0.5-0.3-0.5-0.7-0.1-1l24.6-20c0.4-0.4,1.3-0.4,1.9-0.2
						c0.1,0,0.1,0.1,0.2,0.1c0.5,0.3,0.5,0.7,0.2,1l-24.7,20c-0.4,0.3-1.3,0.4-1.9,0.2C712.2,240.3,712.1,240.2,712.1,240.2
						 M716.2,241.9c-0.5-0.3-0.5-0.7-0.1-1l24.6-20c0.4-0.4,1.3-0.4,1.9-0.2c0.1,0,0.1,0.1,0.2,0.1c0.5,0.3,0.5,0.7,0.1,1l-24.6,20
						c-0.4,0.3-1.3,0.4-1.9,0.2C716.3,242,716.3,242,716.2,241.9 M650.5,236.7c-2-1.1-2.3-3-0.6-4.3l40.4-32.7
						c1.8-1.5,5.4-1.8,8-0.8l24.6,10.2c0.3,0.1,0.5,0.2,0.7,0.4c2,1.1,2.3,3,0.6,4.3l-40.4,32.7c-1.8,1.5-5.4,1.8-8,0.8l-24.6-10.2
						C651,237,650.7,236.9,650.5,236.7 M706.5,260c-2-1.1-2.3-3-0.6-4.3l40.4-32.7c1.8-1.5,5.4-1.8,8-0.8l24.6,10.2
						c0.3,0.1,0.5,0.2,0.7,0.4c2,1.1,2.3,3,0.6,4.3l-40.4,32.7c-1.8,1.5-5.4,1.8-8,0.8l-24.6-10.2
						C706.9,260.2,706.7,260.1,706.5,260 M794.4,235.1c-0.3-0.2-0.6-0.3-1-0.5L534.7,127.2c-3.5-1.5-8.4-1-10.9,1l-44.3,35.9
						c-2.3,1.8-1.8,4.3,0.9,5.9c0.3,0.2,0.6,0.3,1,0.5L740,277.9c3.5,1.5,8.4,1,10.9-1l44.3-35.9
						C797.5,239.2,797.1,236.7,794.4,235.1"/>
					<path class="st14" d="M779.7,232.8c-0.2-0.1-0.5-0.2-0.7-0.4l-24.6-10.2c-2.6-1.1-6.2-0.7-8,0.8L706,255.7
						c-1.7,1.3-1.3,3.2,0.6,4.3c0.2,0.1,0.5,0.2,0.7,0.4l24.6,10.2c2.6,1.1,6.2,0.7,8-0.8l40.4-32.7
						C782,235.7,781.7,233.9,779.7,232.8"/>
					<path class="st31" d="M742.8,220.9c0,0-0.1-0.1-0.2-0.1c-0.6-0.2-1.5-0.2-1.9,0.2l-24.6,20c-0.4,0.3-0.3,0.7,0.1,1
						c0,0,0.1,0.1,0.2,0.1c0.6,0.2,1.5,0.2,1.9-0.2l24.6-20C743.3,221.6,743.2,221.1,742.8,220.9"/>
					<path class="st31" d="M738.6,219.1c-0.1,0-0.1-0.1-0.2-0.1c-0.6-0.3-1.5-0.2-1.9,0.2l-24.6,20c-0.4,0.3-0.3,0.7,0.1,1
						c0.1,0,0.1,0.1,0.2,0.1c0.6,0.3,1.4,0.2,1.9-0.2l24.7-20C739.1,219.8,739.1,219.4,738.6,219.1"/>
					<path class="st31" d="M734.6,217.5c0,0-0.1,0-0.1-0.1l-0.3-0.1c-0.5-0.2-1.3-0.2-1.7,0.2l-14.8,12c-0.3,0.3-0.3,0.7,0.1,0.9
						l0.1,0.1l0.3,0.1c0.5,0.2,1.3,0.2,1.7-0.2l14.8-12C735,218.1,735,217.7,734.6,217.5"/>
					<path class="st31" d="M705.7,250.9c0,0-0.1-0.1-0.2-0.1l-0.1-0.1c-0.6-0.2-1.4-0.2-1.8,0.2l-3.8,3.1c-0.4,0.3-0.3,0.7,0.1,0.9
						c0,0,0.1,0.1,0.2,0.1l0.1,0.1c0.6,0.2,1.4,0.2,1.8-0.2l3.8-3.1C706.2,251.6,706.1,251.2,705.7,250.9"/>
					<path class="st31" d="M701.5,249.2c0,0-0.1-0.1-0.2-0.1l-0.1-0.1c-0.6-0.2-1.4-0.2-1.8,0.2l-3.8,3.1c-0.4,0.3-0.3,0.7,0.1,0.9
						c0,0,0.1,0.1,0.2,0.1l0.1,0.1c0.6,0.2,1.4,0.2,1.8-0.2l3.8-3.1C702,249.9,702,249.5,701.5,249.2"/>
					<path class="st31" d="M697.4,247.5c0,0-0.1-0.1-0.2-0.1l-0.1-0.1c-0.6-0.2-1.4-0.2-1.8,0.2l-3.8,3.1c-0.4,0.3-0.3,0.7,0.1,0.9
						c0,0,0.1,0.1,0.2,0.1l0.1,0.1c0.6,0.2,1.4,0.2,1.8-0.2l3.8-3.1C697.9,248.1,697.8,247.7,697.4,247.5"/>
					<path class="st32" d="M723.7,209.5c-0.2-0.1-0.5-0.2-0.7-0.4l-24.6-10.2c-2.6-1.1-6.2-0.7-8,0.8L650,232.4
						c-1.7,1.3-1.3,3.2,0.6,4.3c0.2,0.1,0.5,0.2,0.7,0.4l24.6,10.2c2.6,1.1,6.2,0.7,8-0.8l40.4-32.7
						C726,212.5,725.7,210.7,723.7,209.5"/>
					<path class="st31" d="M686.8,197.6c0,0-0.1-0.1-0.2-0.1c-0.6-0.3-1.5-0.2-1.9,0.2l-24.6,20c-0.4,0.3-0.3,0.7,0.1,1
						c0.1,0,0.1,0.1,0.2,0.1c0.6,0.2,1.5,0.2,1.9-0.2l24.6-20C687.3,198.3,687.2,197.9,686.8,197.6"/>
					<path class="st31" d="M682.6,195.9c-0.1,0-0.1-0.1-0.2-0.1c-0.6-0.3-1.5-0.2-1.9,0.2l-24.6,20c-0.4,0.3-0.3,0.7,0.1,1
						c0,0,0.1,0.1,0.2,0.1c0.6,0.2,1.5,0.2,1.9-0.2l24.6-20C683.2,196.6,683.1,196.2,682.6,195.9"/>
					<path class="st31" d="M678.6,194.2l-0.1-0.1l-0.3-0.1c-0.5-0.2-1.3-0.2-1.7,0.2l-14.8,12c-0.3,0.3-0.3,0.6,0.1,0.9
						c0,0,0.1,0.1,0.2,0.1l0.3,0.1c0.5,0.2,1.3,0.2,1.7-0.2l14.8-12C679,194.8,679,194.4,678.6,194.2"/>
					<path class="st31" d="M649.7,227.7c0,0-0.1-0.1-0.2-0.1l-0.1-0.1c-0.6-0.2-1.4-0.2-1.8,0.2l-3.8,3.1c-0.4,0.3-0.3,0.7,0.1,0.9
						c0,0,0.1,0.1,0.2,0.1l0.1,0.1c0.6,0.2,1.4,0.2,1.8-0.2l3.8-3.1C650.2,228.3,650.1,227.9,649.7,227.7"/>
					<path class="st31" d="M645.6,226c0,0-0.1-0.1-0.2-0.1l-0.1-0.1c-0.6-0.2-1.4-0.2-1.8,0.2l-3.8,3.1c-0.4,0.3-0.3,0.7,0.1,0.9
						c0,0,0.1,0.1,0.2,0.1l0.1,0.1c0.6,0.2,1.4,0.2,1.8-0.2l3.8-3.1C646.1,226.6,646,226.2,645.6,226"/>
					<path class="st31" d="M641.4,224.2c0,0-0.1-0.1-0.2-0.1l-0.1-0.1c-0.6-0.2-1.4-0.2-1.8,0.2l-3.8,3.1c-0.4,0.3-0.3,0.7,0.1,0.9
						c0,0,0.1,0.1,0.2,0.1l0.1,0.1c0.6,0.2,1.4,0.2,1.8-0.2l3.8-3.1C641.9,224.9,641.8,224.5,641.4,224.2"/>
					<path class="st3" d="M667.7,186.3c-0.2-0.1-0.5-0.2-0.7-0.4l-24.6-10.2c-2.6-1.1-6.2-0.7-8,0.8L594,209.2
						c-1.7,1.3-1.3,3.2,0.6,4.3c0.2,0.1,0.5,0.2,0.7,0.4l24.6,10.2c2.6,1.1,6.2,0.7,8-0.8l40.4-32.7
						C670,189.2,669.7,187.4,667.7,186.3"/>
					<path class="st31" d="M630.8,174.4c-0.1,0-0.1-0.1-0.2-0.1c-0.6-0.3-1.4-0.2-1.9,0.2l-24.7,20c-0.4,0.3-0.3,0.7,0.1,1
						c0.1,0,0.1,0.1,0.2,0.1c0.6,0.3,1.4,0.2,1.9-0.2l24.6-20C631.3,175,631.2,174.6,630.8,174.4"/>
					<path class="st31" d="M626.6,172.6c-0.1,0-0.1-0.1-0.2-0.1c-0.6-0.3-1.4-0.2-1.9,0.2l-24.7,20c-0.4,0.3-0.3,0.7,0.1,1
						c0,0,0.1,0.1,0.2,0.1c0.6,0.2,1.5,0.2,1.9-0.2l24.6-20C627.2,173.3,627.1,172.9,626.6,172.6"/>
					<path class="st31" d="M622.6,170.9c0,0-0.1-0.1-0.2-0.1l-0.3-0.1c-0.5-0.2-1.3-0.1-1.7,0.2l-14.8,12c-0.3,0.3-0.3,0.7,0.1,0.9
						c0,0,0.1,0.1,0.2,0.1l0.3,0.1c0.5,0.2,1.3,0.2,1.7-0.2l14.8-12C623.1,171.6,623,171.2,622.6,170.9"/>
					<path class="st31" d="M593.7,204.4c0,0-0.1-0.1-0.2-0.1l-0.1-0.1c-0.6-0.2-1.4-0.2-1.8,0.2l-3.8,3.1c-0.4,0.3-0.3,0.7,0.1,0.9
						c0,0,0.1,0.1,0.2,0.1l0.1,0.1c0.6,0.2,1.4,0.2,1.8-0.2l3.8-3.1C594.2,205.1,594.1,204.7,593.7,204.4"/>
					<path class="st31" d="M589.6,202.7c0,0-0.1-0.1-0.2-0.1l-0.1-0.1c-0.6-0.2-1.4-0.2-1.8,0.2l-3.8,3.1c-0.4,0.3-0.3,0.7,0.1,0.9
						c0,0,0.1,0.1,0.2,0.1l0.1,0.1c0.6,0.2,1.4,0.2,1.8-0.2l3.8-3.1C590.1,203.4,590,203,589.6,202.7"/>
					<path class="st31" d="M585.4,201c0,0-0.1-0.1-0.2-0.1l-0.1-0.1c-0.6-0.2-1.4-0.2-1.8,0.2l-3.8,3.1c-0.4,0.3-0.3,0.7,0.1,0.9
						c0,0,0.1,0.1,0.2,0.1l0.1,0.1c0.6,0.2,1.4,0.2,1.8-0.2l3.8-3.1C585.9,201.6,585.8,201.2,585.4,201"/>
					<path class="st33" d="M611.7,163c-0.2-0.1-0.5-0.2-0.7-0.4l-24.6-10.2c-2.6-1.1-6.2-0.7-8,0.8L538,185.9
						c-1.7,1.3-1.3,3.2,0.6,4.3c0.2,0.1,0.5,0.2,0.7,0.3l24.6,10.2c2.6,1.1,6.2,0.7,8-0.8l40.4-32.7C614,166,613.7,164.1,611.7,163"
						/>
					<path class="st31" d="M574.8,151.1c-0.1,0-0.1-0.1-0.2-0.1c-0.6-0.3-1.5-0.2-1.9,0.2l-24.6,20c-0.4,0.3-0.3,0.7,0.1,1
						c0.1,0,0.1,0.1,0.2,0.1c0.6,0.3,1.4,0.2,1.9-0.2l24.7-20C575.3,151.8,575.2,151.4,574.8,151.1"/>
					<path class="st31" d="M570.6,149.4c-0.1,0-0.1-0.1-0.2-0.1c-0.6-0.3-1.4-0.2-1.9,0.2l-24.7,20c-0.4,0.3-0.3,0.7,0.2,1
						c0.1,0,0.1,0.1,0.2,0.1c0.6,0.3,1.4,0.2,1.9-0.2l24.6-20C571.2,150.1,571.1,149.6,570.6,149.4"/>
					<path class="st31" d="M566.6,147.7c0,0-0.1,0-0.1-0.1l-0.3-0.1c-0.5-0.2-1.3-0.2-1.7,0.2l-14.8,12c-0.3,0.3-0.3,0.7,0.1,0.9
						c0,0,0.1,0,0.1,0.1l0.3,0.1c0.5,0.2,1.3,0.2,1.7-0.2l14.8-12C567.1,148.3,567,147.9,566.6,147.7"/>
					<path class="st31" d="M537.7,181.2c0,0-0.1-0.1-0.2-0.1l-0.1-0.1c-0.6-0.2-1.4-0.2-1.8,0.2l-3.8,3.1c-0.4,0.3-0.3,0.7,0.1,0.9
						c0,0,0.1,0.1,0.2,0.1l0.1,0.1c0.6,0.2,1.4,0.2,1.8-0.2l3.8-3.1C538.2,181.8,538.1,181.4,537.7,181.2"/>
					<path class="st31" d="M533.6,179.4c0,0-0.1-0.1-0.2-0.1l-0.1-0.1c-0.6-0.2-1.4-0.2-1.8,0.2l-3.8,3.1c-0.4,0.3-0.3,0.7,0.1,0.9
						c0,0,0.1,0.1,0.2,0.1l0.1,0.1c0.6,0.2,1.4,0.2,1.8-0.2l3.8-3.1C534.1,180.1,534,179.7,533.6,179.4"/>
					<path class="st31" d="M529.4,177.7c0,0-0.1-0.1-0.2-0.1l-0.1-0.1c-0.6-0.2-1.4-0.2-1.8,0.2l-3.8,3.1c-0.4,0.3-0.3,0.7,0.1,0.9
						c0,0,0.1,0.1,0.2,0.1l0.1,0.1c0.6,0.2,1.4,0.2,1.8-0.2l3.8-3.1C529.9,178.4,529.8,178,529.4,177.7"/>
				</g>
			</g>
		</g>
		<linearGradient id="SVGID_10_" gradientUnits="userSpaceOnUse" x1="508" y1="192.9266" x2="777" y2="192.9266">
			<stop  offset="0" style="stop-color:#000000"/>
			<stop  offset="1" style="stop-color:#000000;stop-opacity:0.7"/>
		</linearGradient>
		<path class="st34" d="M508,161.8l224,89.4c6.4,2.5,13.6,1.5,19-2.7l26-20.5l-182-81.1l-53-13.6"/>
		<g>
			<g class="st12">
				<g>
					<g>
						<path class="st4" d="M547.4,169.2c-0.3-0.2-0.4-0.4-0.3-0.7l1.3-3.7c0.1-0.4,0.8-0.6,1.5-0.6h0.2c0.2,0,0.5,0.1,0.6,0.2
							c0.3,0.2,0.4,0.4,0.3,0.7l-1.3,3.7c-0.1,0.4-0.8,0.6-1.5,0.6H548C547.8,169.4,547.6,169.3,547.4,169.2 M552.4,169.8
							c-0.3-0.2-0.4-0.4-0.3-0.7l1.3-3.7c0.1-0.4,0.8-0.6,1.5-0.6h0.2c0.2,0,0.5,0.1,0.6,0.2c0.3,0.2,0.4,0.4,0.3,0.7l-1.3,3.7
							c-0.1,0.4-0.8,0.6-1.5,0.6H553C552.8,170,552.6,169.9,552.4,169.8 M557.4,170.4c-0.3-0.2-0.4-0.4-0.3-0.7l1.3-3.7
							c0.1-0.4,0.8-0.6,1.5-0.6h0.2c0.2,0,0.5,0.1,0.6,0.2c0.3,0.2,0.4,0.4,0.3,0.7l-1.3,3.7c-0.1,0.4-0.8,0.6-1.5,0.6H558
							C557.8,170.6,557.6,170.5,557.4,170.4 M614.8,177.4c-0.3-0.2-0.4-0.4-0.3-0.7l1.3-3.7c0.1-0.4,0.8-0.6,1.5-0.6h0.2
							c0.3,0,0.5,0.1,0.6,0.2c0.3,0.2,0.4,0.4,0.3,0.7l-1.3,3.7c-0.1,0.4-0.8,0.6-1.5,0.6h-0.2C615.2,177.5,615,177.5,614.8,177.4
							 M619.8,178c-0.3-0.2-0.4-0.4-0.3-0.7l1.3-3.7c0.1-0.4,0.8-0.6,1.5-0.6h0.2c0.2,0,0.5,0.1,0.6,0.2c0.3,0.2,0.4,0.4,0.3,0.7
							l-1.3,3.7c-0.1,0.4-0.8,0.6-1.5,0.6h-0.2C620.2,178.1,620,178.1,619.8,178 M624.8,178.6c-0.3-0.2-0.4-0.4-0.3-0.7l1.3-3.7
							c0.1-0.4,0.8-0.6,1.5-0.6h0.2c0.2,0,0.5,0.1,0.6,0.2c0.3,0.2,0.4,0.4,0.3,0.7l-1.3,3.7c-0.1,0.4-0.8,0.6-1.5,0.6h-0.2
							C625.2,178.7,625,178.7,624.8,178.6 M556.5,143.6c-0.3-0.2-0.4-0.4-0.3-0.6l5.1-14.4c0.1-0.4,0.8-0.6,1.4-0.5h0.3
							c0.2,0,0.4,0.1,0.6,0.2c0.3,0.2,0.4,0.4,0.3,0.6l-5.1,14.4c-0.1,0.4-0.8,0.6-1.4,0.5h-0.3
							C556.9,143.8,556.7,143.7,556.5,143.6 M558.1,154c-0.3-0.2-0.5-0.4-0.4-0.7l8.6-24c0.2-0.4,0.9-0.7,1.6-0.6
							c0.3,0,0.5,0.1,0.7,0.2c0.3,0.2,0.5,0.4,0.4,0.7l-8.6,24.1c-0.1,0.4-0.9,0.7-1.6,0.6C558.5,154.2,558.3,154.1,558.1,154
							 M563.1,154.6c-0.3-0.2-0.5-0.4-0.4-0.7l8.6-24.1c0.2-0.4,0.9-0.7,1.6-0.6c0.3,0,0.5,0.1,0.7,0.2c0.3,0.2,0.5,0.4,0.4,0.7
							l-8.6,24c-0.2,0.4-0.9,0.7-1.6,0.6C563.5,154.8,563.3,154.7,563.1,154.6 M682.2,185.5c-0.3-0.2-0.4-0.4-0.3-0.7l1.3-3.7
							c0.1-0.4,0.8-0.6,1.5-0.6h0.2c0.2,0,0.5,0.1,0.6,0.2c0.3,0.2,0.4,0.4,0.3,0.7l-1.3,3.7c-0.1,0.4-0.8,0.6-1.5,0.6h-0.2
							C682.6,185.7,682.4,185.6,682.2,185.5 M687.2,186.1c-0.3-0.2-0.4-0.4-0.3-0.7l1.3-3.7c0.1-0.4,0.8-0.6,1.5-0.6h0.2
							c0.2,0,0.5,0.1,0.6,0.2c0.3,0.2,0.4,0.4,0.3,0.7l-1.3,3.7c-0.1,0.4-0.8,0.6-1.5,0.6h-0.2C687.6,186.3,687.3,186.2,687.2,186.1
							 M692.2,186.7c-0.3-0.2-0.4-0.4-0.3-0.7l1.3-3.7c0.1-0.4,0.8-0.6,1.5-0.6h0.2c0.3,0,0.5,0.1,0.6,0.2c0.3,0.2,0.4,0.4,0.3,0.7
							l-1.3,3.7c-0.1,0.4-0.8,0.6-1.5,0.6h-0.2C692.6,186.9,692.3,186.8,692.2,186.7 M565.3,172.9c-1.3-0.8-2-1.9-1.6-3l14.1-39.5
							c0.6-1.8,3.7-3,6.8-2.6l29.7,3.6c1.1,0.1,2.1,0.5,2.9,0.9c1.3,0.8,2,1.9,1.6,3l-14.1,39.5c-0.6,1.8-3.7,3-6.8,2.6l-29.7-3.6
							C567.1,173.6,566.1,173.3,565.3,172.9 M623.9,151.8c-0.3-0.2-0.4-0.4-0.3-0.6l5.1-14.4c0.1-0.4,0.8-0.6,1.4-0.5h0.3
							c0.2,0,0.4,0.1,0.6,0.2c0.3,0.2,0.4,0.4,0.3,0.6l-5.2,14.4c-0.1,0.4-0.8,0.6-1.4,0.5h-0.3C624.2,151.9,624,151.9,623.9,151.8
							 M625.5,162.2c-0.3-0.2-0.5-0.4-0.4-0.7l8.6-24c0.2-0.4,0.9-0.7,1.6-0.6c0.3,0,0.5,0.1,0.7,0.2c0.3,0.2,0.5,0.4,0.4,0.7
							l-8.6,24c-0.2,0.4-0.9,0.7-1.6,0.6C625.9,162.4,625.6,162.3,625.5,162.2 M630.5,162.8c-0.3-0.2-0.5-0.4-0.4-0.7l8.6-24
							c0.2-0.4,0.9-0.7,1.6-0.6c0.3,0,0.5,0.1,0.7,0.2c0.3,0.2,0.5,0.4,0.4,0.7l-8.6,24c-0.2,0.4-0.9,0.7-1.6,0.6
							C630.9,163,630.6,162.9,630.5,162.8 M749.6,193.7c-0.3-0.2-0.4-0.4-0.3-0.7l1.3-3.7c0.1-0.4,0.8-0.6,1.5-0.6h0.2
							c0.3,0,0.5,0.1,0.6,0.2c0.3,0.2,0.4,0.4,0.4,0.7l-1.3,3.7c-0.1,0.4-0.8,0.6-1.5,0.6h-0.2C749.9,193.9,749.7,193.8,749.6,193.7
							 M754.6,194.3c-0.3-0.2-0.4-0.4-0.3-0.7l1.3-3.7c0.1-0.4,0.8-0.6,1.5-0.6h0.2c0.2,0,0.5,0.1,0.6,0.2c0.3,0.2,0.4,0.4,0.3,0.7
							l-1.3,3.7c-0.1,0.4-0.8,0.6-1.5,0.6h-0.2C754.9,194.5,754.7,194.4,754.6,194.3 M759.6,194.9c-0.3-0.2-0.4-0.4-0.3-0.7l1.3-3.7
							c0.1-0.4,0.8-0.6,1.5-0.6h0.2c0.2,0,0.5,0.1,0.6,0.2c0.3,0.2,0.4,0.4,0.3,0.7l-1.3,3.7c-0.1,0.4-0.8,0.6-1.5,0.6h-0.2
							C759.9,195.1,759.7,195,759.6,194.9 M632.7,181c-1.3-0.8-2-1.9-1.6-3l14.1-39.5c0.6-1.8,3.7-3,6.8-2.6l29.7,3.6
							c1.1,0.1,2.1,0.5,2.9,0.9c1.3,0.8,2,1.9,1.6,3L672,183c-0.6,1.8-3.7,3-6.8,2.6l-29.7-3.6C634.4,181.8,633.5,181.5,632.7,181
							 M691.3,160c-0.3-0.2-0.4-0.4-0.3-0.6l5.1-14.4c0.1-0.4,0.8-0.6,1.4-0.5h0.3c0.2,0,0.4,0.1,0.6,0.2c0.3,0.2,0.4,0.4,0.3,0.6
							l-5.1,14.4c-0.1,0.4-0.8,0.6-1.4,0.5h-0.3C691.6,160.1,691.4,160.1,691.3,160 M692.9,170.4c-0.3-0.2-0.5-0.4-0.4-0.7l8.6-24.1
							c0.1-0.4,0.9-0.7,1.6-0.6c0.3,0,0.5,0.1,0.7,0.2c0.3,0.2,0.5,0.4,0.4,0.7l-8.6,24.1c-0.2,0.4-0.9,0.7-1.6,0.6
							C693.3,170.5,693,170.5,692.9,170.4 M697.8,171c-0.3-0.2-0.5-0.4-0.4-0.7l8.6-24.1c0.2-0.4,0.9-0.7,1.6-0.6
							c0.3,0,0.5,0.1,0.7,0.2c0.3,0.2,0.5,0.4,0.4,0.7l-8.6,24c-0.2,0.4-0.9,0.7-1.6,0.6C698.3,171.1,698,171.1,697.8,171
							 M700.1,189.2c-1.3-0.8-2-1.9-1.6-3l14.1-39.5c0.6-1.8,3.7-3,6.8-2.6l29.7,3.6c1.1,0.1,2.1,0.5,2.9,0.9c1.3,0.8,2,1.9,1.6,3
							l-14.1,39.5c-0.6,1.8-3.7,3-6.8,2.6l-29.7-3.6C701.8,190,700.8,189.7,700.1,189.2 M758.6,168.1c-0.3-0.2-0.4-0.4-0.3-0.6
							l5.1-14.4c0.1-0.4,0.8-0.6,1.4-0.5h0.3c0.2,0,0.4,0.1,0.6,0.2c0.3,0.2,0.4,0.4,0.3,0.6l-5.2,14.4c-0.1,0.4-0.8,0.6-1.4,0.5
							h-0.3C759,168.3,758.8,168.2,758.6,168.1 M760.2,178.5c-0.3-0.2-0.5-0.4-0.4-0.7l8.6-24c0.2-0.4,0.9-0.7,1.6-0.6
							c0.3,0,0.5,0.1,0.7,0.2c0.3,0.2,0.5,0.4,0.4,0.7l-8.6,24c-0.2,0.4-0.9,0.7-1.6,0.6C760.6,178.7,760.4,178.6,760.2,178.5
							 M765.2,179.1c-0.3-0.2-0.5-0.4-0.4-0.7l8.6-24c0.2-0.4,0.9-0.7,1.6-0.6c0.3,0,0.5,0.1,0.7,0.2c0.3,0.2,0.5,0.4,0.4,0.7
							l-8.6,24c-0.2,0.4-0.9,0.7-1.6,0.6C765.6,179.3,765.4,179.2,765.2,179.1 M767.5,197.4c-1.3-0.8-2-1.9-1.6-3l14.1-39.5
							c0.6-1.8,3.7-3,6.8-2.6l29.7,3.6c1.1,0.1,2.1,0.5,2.9,0.9c1.3,0.8,2,1.9,1.6,3l-14.1,39.5c-0.6,1.8-3.7,3-6.8,2.6l-29.7-3.6
							C769.2,198.2,768.2,197.8,767.5,197.4 M835.1,155.8c-1-0.6-2.4-1-3.9-1.2l-311.3-37.8c-4.2-0.5-8.4,1.1-9.2,3.5l-15.4,43.3
							c-0.6,1.6,0.3,3.1,2.2,4.1c1,0.6,2.4,1,3.9,1.2l311.3,37.8c4.2,0.5,8.4-1.1,9.2-3.5l15.4-43.3
							C837.8,158.4,836.9,156.9,835.1,155.8"/>
						<path class="st35" d="M819.3,156.8c-0.8-0.4-1.8-0.8-2.9-0.9l-29.7-3.6c-3.1-0.4-6.2,0.8-6.8,2.6l-14.1,39.5
							c-0.4,1.1,0.3,2.3,1.6,3c0.8,0.4,1.7,0.8,2.9,0.9l29.7,3.6c3.1,0.4,6.2-0.8,6.8-2.6l14.1-39.5
							C821.3,158.7,820.6,157.6,819.3,156.8"/>
						<path class="st31" d="M775.7,154c-0.2-0.1-0.4-0.2-0.7-0.2c-0.7-0.1-1.4,0.2-1.6,0.6l-8.6,24c-0.1,0.3,0.1,0.5,0.4,0.7
							c0.2,0.1,0.4,0.2,0.7,0.2c0.7,0.1,1.4-0.2,1.6-0.6l8.6-24C776.2,154.4,776,154.2,775.7,154"/>
						<path class="st31" d="M770.7,153.4c-0.2-0.1-0.4-0.2-0.7-0.2c-0.7-0.1-1.4,0.2-1.6,0.6l-8.6,24c-0.1,0.3,0.1,0.5,0.4,0.7
							c0.2,0.1,0.4,0.2,0.7,0.2c0.7,0.1,1.4-0.2,1.6-0.6l8.6-24C771.2,153.8,771,153.6,770.7,153.4"/>
						<path class="st31" d="M765.8,152.8c-0.2-0.1-0.4-0.2-0.6-0.2h-0.3c-0.6-0.1-1.3,0.2-1.4,0.5l-5.1,14.4
							c-0.1,0.2,0.1,0.5,0.3,0.6s0.4,0.2,0.6,0.2h0.3c0.6,0.1,1.3-0.2,1.4-0.5l5.2-14.4C766.2,153.2,766.1,152.9,765.8,152.8"/>
						<path class="st31" d="M762.8,190.2c-0.2-0.1-0.4-0.2-0.6-0.2H762c-0.7-0.1-1.4,0.2-1.5,0.6l-1.3,3.7c-0.1,0.3,0.1,0.5,0.3,0.7
							c0.2,0.1,0.4,0.2,0.6,0.2h0.2c0.7,0.1,1.4-0.2,1.5-0.6l1.3-3.7C763.3,190.6,763.1,190.4,762.8,190.2"/>
						<path class="st31" d="M757.8,189.6c-0.2-0.1-0.4-0.2-0.6-0.2H757c-0.7-0.1-1.3,0.2-1.5,0.6l-1.3,3.7c-0.1,0.3,0.1,0.5,0.3,0.7
							c0.2,0.1,0.4,0.2,0.6,0.2h0.2c0.7,0.1,1.4-0.2,1.5-0.6l1.3-3.7C758.3,190,758.1,189.8,757.8,189.6"/>
						<path class="st31" d="M752.8,189c-0.2-0.1-0.4-0.2-0.6-0.2H752c-0.7-0.1-1.4,0.2-1.5,0.6l-1.3,3.7c-0.1,0.2,0.1,0.5,0.3,0.7
							c0.2,0.1,0.4,0.2,0.6,0.2h0.2c0.7,0.1,1.4-0.2,1.5-0.6l1.3-3.7C753.3,189.4,753.1,189.2,752.8,189"/>
						<path class="st36" d="M751.9,148.6c-0.8-0.4-1.8-0.8-2.9-0.9l-29.7-3.6c-3.1-0.4-6.2,0.8-6.8,2.6l-14.1,39.5
							c-0.4,1.1,0.2,2.3,1.6,3c0.8,0.4,1.8,0.8,2.9,0.9l29.7,3.6c3.1,0.4,6.2-0.8,6.8-2.6l14.1-39.5
							C753.9,150.5,753.2,149.4,751.9,148.6"/>
						<path class="st31" d="M708.3,145.8c-0.2-0.1-0.4-0.2-0.7-0.2c-0.7-0.1-1.4,0.2-1.6,0.6l-8.6,24.1c-0.1,0.3,0.1,0.5,0.4,0.7
							c0.2,0.1,0.4,0.2,0.7,0.2c0.7,0.1,1.4-0.2,1.6-0.6l8.6-24C708.8,146.2,708.6,146,708.3,145.8"/>
						<path class="st31" d="M703.3,145.2c-0.2-0.1-0.4-0.2-0.7-0.2c-0.7-0.1-1.4,0.2-1.6,0.6l-8.6,24.1c-0.1,0.3,0.1,0.5,0.4,0.7
							c0.2,0.1,0.4,0.2,0.7,0.2c0.7,0.1,1.4-0.2,1.6-0.6l8.6-24.1C703.8,145.6,703.6,145.4,703.3,145.2"/>
						<path class="st31" d="M698.4,144.6c-0.2-0.1-0.4-0.2-0.6-0.2h-0.3c-0.6-0.1-1.3,0.2-1.4,0.5l-5.1,14.4
							c-0.1,0.2,0.1,0.5,0.3,0.6s0.4,0.2,0.6,0.2h0.3c0.6,0.1,1.3-0.2,1.4-0.5l5.1-14.4C698.8,145,698.7,144.7,698.4,144.6"/>
						<path class="st31" d="M695.4,182c-0.2-0.1-0.4-0.2-0.6-0.2h-0.2c-0.7-0.1-1.3,0.2-1.5,0.6l-1.3,3.7c-0.1,0.3,0.1,0.5,0.3,0.7
							c0.2,0.1,0.4,0.2,0.6,0.2h0.2c0.7,0.1,1.4-0.2,1.5-0.6l1.3-3.7C695.9,182.4,695.7,182.2,695.4,182"/>
						<path class="st31" d="M690.5,181.4c-0.2-0.1-0.4-0.2-0.6-0.2h-0.2c-0.7-0.1-1.4,0.2-1.5,0.6l-1.3,3.7
							c-0.1,0.2,0.1,0.5,0.3,0.7c0.2,0.1,0.4,0.2,0.6,0.2h0.2c0.7,0.1,1.3-0.2,1.5-0.6l1.3-3.7C690.9,181.8,690.7,181.6,690.5,181.4
							"/>
						<path class="st31" d="M685.5,180.8c-0.2-0.1-0.4-0.2-0.6-0.2h-0.2c-0.7-0.1-1.4,0.2-1.5,0.6l-1.3,3.7
							c-0.1,0.3,0.1,0.5,0.3,0.7c0.2,0.1,0.4,0.2,0.6,0.2h0.2c0.7,0.1,1.4-0.2,1.5-0.6l1.3-3.7C685.9,181.2,685.8,181,685.5,180.8"
							/>
						<path class="st37" d="M684.5,140.5c-0.8-0.4-1.8-0.8-2.9-0.9L652,136c-3.1-0.4-6.2,0.8-6.8,2.6L631.1,178
							c-0.4,1.1,0.3,2.3,1.6,3c0.8,0.4,1.7,0.8,2.9,0.9l29.7,3.6c3.1,0.4,6.2-0.8,6.8-2.6l14.1-39.5
							C686.5,142.4,685.8,141.2,684.5,140.5"/>
						<path class="st31" d="M640.9,137.6c-0.2-0.1-0.4-0.2-0.7-0.2c-0.7-0.1-1.4,0.2-1.6,0.6l-8.6,24c-0.1,0.3,0.1,0.5,0.4,0.7
							c0.2,0.1,0.4,0.2,0.7,0.2c0.7,0.1,1.4-0.2,1.6-0.6l8.6-24C641.4,138.1,641.3,137.8,640.9,137.6"/>
						<path class="st31" d="M635.9,137c-0.2-0.1-0.4-0.2-0.7-0.2c-0.7-0.1-1.4,0.2-1.6,0.6l-8.6,24c-0.1,0.3,0.1,0.5,0.4,0.7
							c0.2,0.1,0.4,0.2,0.7,0.2c0.7,0.1,1.4-0.2,1.6-0.6l8.6-24C636.4,137.5,636.3,137.2,635.9,137"/>
						<path class="st31" d="M631,136.4c-0.2-0.1-0.4-0.2-0.6-0.2h-0.3c-0.6-0.1-1.3,0.2-1.4,0.5l-5.1,14.4c-0.1,0.2,0.1,0.5,0.3,0.6
							s0.4,0.2,0.6,0.2h0.3c0.6,0.1,1.3-0.2,1.4-0.5l5.2-14.4C631.4,136.8,631.3,136.6,631,136.4"/>
						<path class="st31" d="M628.1,173.8c-0.2-0.1-0.4-0.2-0.6-0.2h-0.2c-0.7-0.1-1.4,0.2-1.5,0.6l-1.3,3.7
							c-0.1,0.3,0.1,0.5,0.3,0.7c0.2,0.1,0.4,0.2,0.6,0.2h0.2c0.7,0.1,1.4-0.2,1.5-0.6l1.3-3.7C628.5,174.3,628.4,174,628.1,173.8"
							/>
						<path class="st31" d="M623.1,173.2c-0.2-0.1-0.4-0.2-0.6-0.2h-0.2c-0.7-0.1-1.3,0.2-1.5,0.6l-1.3,3.7
							c-0.1,0.3,0.1,0.5,0.3,0.7c0.2,0.1,0.4,0.2,0.6,0.2h0.2c0.7,0.1,1.4-0.2,1.5-0.6l1.3-3.7C623.5,173.7,623.4,173.4,623.1,173.2
							"/>
						<path class="st31" d="M618.1,172.6c-0.2-0.1-0.4-0.2-0.6-0.2h-0.2c-0.7-0.1-1.4,0.2-1.5,0.6l-1.3,3.7
							c-0.1,0.2,0.1,0.5,0.3,0.7c0.2,0.1,0.4,0.2,0.6,0.2h0.2c0.7,0.1,1.4-0.2,1.5-0.6l1.3-3.7C618.5,173.1,618.4,172.8,618.1,172.6
							"/>
						<path class="st38" d="M617.1,132.3c-0.8-0.4-1.8-0.8-2.9-0.9l-29.7-3.6c-3.1-0.4-6.2,0.8-6.8,2.6l-14.1,39.5
							c-0.4,1.1,0.2,2.3,1.6,3c0.8,0.4,1.8,0.8,2.9,0.9l29.7,3.6c3.1,0.4,6.2-0.8,6.8-2.6l14.1-39.5
							C619.1,134.2,618.5,133,617.1,132.3"/>
						<path class="st31" d="M573.6,129.4c-0.2-0.1-0.4-0.2-0.7-0.2c-0.7-0.1-1.4,0.2-1.6,0.6l-8.6,24.1c-0.1,0.3,0.1,0.5,0.4,0.7
							c0.2,0.1,0.4,0.2,0.7,0.2c0.7,0.1,1.4-0.2,1.6-0.6l8.6-24C574,129.9,573.9,129.6,573.6,129.4"/>
						<path class="st31" d="M568.6,128.8c-0.2-0.1-0.4-0.2-0.7-0.2c-0.7-0.1-1.4,0.2-1.6,0.6l-8.6,24c-0.1,0.3,0.1,0.5,0.4,0.7
							c0.2,0.1,0.4,0.2,0.7,0.2c0.7,0.1,1.4-0.2,1.6-0.6l8.6-24.1C569,129.3,568.9,129,568.6,128.8"/>
						<path class="st31" d="M563.7,128.2c-0.2-0.1-0.4-0.2-0.6-0.2h-0.3c-0.6-0.1-1.3,0.2-1.4,0.5l-5.1,14.4
							c-0.1,0.2,0.1,0.5,0.3,0.6s0.4,0.2,0.6,0.2h0.3c0.6,0.1,1.3-0.2,1.4-0.5l5.1-14.4C564.1,128.6,563.9,128.4,563.7,128.2"/>
						<path class="st31" d="M560.7,165.7c-0.2-0.1-0.4-0.2-0.6-0.2h-0.2c-0.7-0.1-1.4,0.2-1.5,0.6l-1.3,3.7
							c-0.1,0.3,0.1,0.5,0.3,0.7c0.2,0.1,0.4,0.2,0.6,0.2h0.2c0.7,0.1,1.4-0.2,1.5-0.6l1.3-3.7C561.1,166.1,561,165.8,560.7,165.7"
							/>
						<path class="st31" d="M555.7,165.1c-0.2-0.1-0.4-0.2-0.6-0.2h-0.2c-0.7-0.1-1.4,0.2-1.5,0.6l-1.3,3.7
							c-0.1,0.2,0.1,0.5,0.3,0.7c0.2,0.1,0.4,0.2,0.6,0.2h0.2c0.7,0.1,1.3-0.2,1.5-0.6l1.3-3.7C556.1,165.5,556,165.2,555.7,165.1"
							/>
						<path class="st31" d="M550.7,164.5c-0.2-0.1-0.4-0.2-0.6-0.2h-0.2c-0.7-0.1-1.4,0.2-1.5,0.6l-1.3,3.7
							c-0.1,0.3,0.1,0.5,0.3,0.7c0.2,0.1,0.4,0.2,0.6,0.2h0.2c0.7,0.1,1.4-0.2,1.5-0.6l1.3-3.7C551.1,164.9,551,164.6,550.7,164.5"
							/>
					</g>
				</g>
			</g>
		</g>
		<linearGradient id="SVGID_11_" gradientUnits="userSpaceOnUse" x1="508" y1="150.3" x2="716.8" y2="150.3">
			<stop  offset="0" style="stop-color:#000000"/>
			<stop  offset="1" style="stop-color:#000000;stop-opacity:0.7"/>
		</linearGradient>
		<polygon class="st39" points="508,175.4 716.8,141.1 623.6,125.2 		"/>
		<g>
			<g class="st12">
				<g>
					<g>
						<path class="st4" d="M531.6,162.1c-0.1-0.1-0.2-0.1-0.3-0.2l-2.5-3.5c-0.3-0.4,0-0.8,0.7-1h0.2c0.5-0.1,1,0,1.4,0.2
							c0.1,0.1,0.2,0.1,0.3,0.2l2.5,3.5c0.3,0.4,0,0.8-0.7,1H533C532.5,162.4,532,162.4,531.6,162.1 M536.3,161
							c-0.1-0.1-0.2-0.1-0.3-0.2l-2.5-3.5c-0.3-0.4,0-0.8,0.7-1h0.2c0.5-0.1,1,0,1.4,0.2c0.1,0.1,0.2,0.1,0.3,0.2l2.5,3.5
							c0.3,0.4,0,0.8-0.7,1h-0.2C537.2,161.3,536.7,161.2,536.3,161 M541.1,159.9c-0.1-0.1-0.2-0.1-0.3-0.2l-2.5-3.5
							c-0.3-0.4,0-0.8,0.7-1h0.2c0.5-0.1,1,0,1.4,0.2c0.1,0.1,0.2,0.2,0.3,0.2l2.5,3.5c0.3,0.4,0,0.8-0.7,1h-0.2
							C541.9,160.2,541.4,160.1,541.1,159.9 M514.6,138c-0.1-0.1-0.2-0.1-0.3-0.2l-9.6-13.7c-0.2-0.3,0-0.8,0.7-0.9l0.3-0.1
							c0.5-0.1,1,0,1.3,0.2c0.1,0.1,0.2,0.1,0.3,0.2l9.6,13.7c0.2,0.4,0,0.7-0.7,0.9l-0.3,0.1C515.4,138.2,514.9,138.1,514.6,138
							 M525.8,146.1c-0.1-0.1-0.2-0.2-0.3-0.3L509.4,123c-0.3-0.4,0-0.9,0.7-1c0.5-0.1,1.1,0,1.5,0.2c0.1,0.1,0.2,0.2,0.3,0.3
							l16,22.8c0.3,0.4,0,0.9-0.7,1C526.7,146.4,526.2,146.3,525.8,146.1 M530.5,144.9c-0.1-0.1-0.2-0.2-0.3-0.3l-16.1-22.8
							c-0.3-0.4,0-0.9,0.7-1c0.5-0.1,1.1,0,1.5,0.2c0.1,0.1,0.2,0.2,0.3,0.3l16.1,22.8c0.3,0.4-0.1,0.9-0.7,1
							C531.5,145.2,530.9,145.2,530.5,144.9 M595.3,147.2c-0.1-0.1-0.2-0.1-0.3-0.2l-2.5-3.5c-0.3-0.4,0-0.8,0.7-1h0.2
							c0.5-0.1,1,0,1.4,0.2c0.1,0.1,0.2,0.2,0.3,0.2l2.5,3.5c0.3,0.4,0,0.8-0.7,1h-0.2C596.2,147.5,595.6,147.4,595.3,147.2
							 M600,146.1c-0.1-0.1-0.2-0.1-0.3-0.2l-2.5-3.5c-0.3-0.4,0-0.8,0.7-1h0.2c0.5-0.1,1,0,1.4,0.2c0.1,0.1,0.2,0.1,0.3,0.2
							l2.5,3.5c0.3,0.4,0,0.8-0.7,1h-0.2C600.9,146.4,600.4,146.3,600,146.1 M604.7,145c-0.1-0.1-0.2-0.1-0.3-0.2l-2.5-3.5
							c-0.3-0.4,0-0.8,0.7-1h0.2c0.5-0.1,1,0,1.4,0.2c0.1,0.1,0.2,0.1,0.3,0.2l2.5,3.5c0.3,0.4,0,0.8-0.7,1h-0.2
							C605.6,145.2,605.1,145.2,604.7,145 M547.7,158.7c-0.5-0.3-1-0.7-1.3-1.1L520,120.2c-1.2-1.7,0.2-3.6,3.1-4.3l28-6.6
							c2.2-0.5,4.6-0.2,6.2,0.7c0.5,0.3,1,0.7,1.3,1.1l26.3,37.4c1.2,1.7-0.2,3.6-3.2,4.3l-28,6.6
							C551.7,160,549.2,159.6,547.7,158.7 M578.2,123c-0.1-0.1-0.2-0.1-0.3-0.2l-9.6-13.7c-0.2-0.3,0-0.8,0.6-0.9l0.3-0.1
							c0.5-0.1,1,0,1.3,0.1c0.1,0.1,0.2,0.1,0.3,0.2l9.6,13.7c0.2,0.4,0,0.8-0.7,0.9l-0.3,0.1C579.1,123.3,578.6,123.2,578.2,123
							 M589.5,131.1c-0.1-0.1-0.2-0.2-0.3-0.3L573.1,108c-0.3-0.4,0.1-0.9,0.7-1c0.5-0.1,1.1,0,1.5,0.2c0.1,0.1,0.2,0.2,0.3,0.3
							l16.1,22.8c0.3,0.4,0,0.9-0.7,1C590.4,131.4,589.8,131.3,589.5,131.1 M594.2,130c-0.1-0.1-0.2-0.2-0.3-0.3L577.8,107
							c-0.3-0.4,0-0.9,0.7-1c0.5-0.1,1.1,0,1.5,0.2c0.1,0.1,0.2,0.2,0.3,0.3l16.1,22.8c0.3,0.4,0,0.9-0.7,1
							C595.1,130.3,594.6,130.2,594.2,130 M659,132.2c-0.1-0.1-0.2-0.2-0.3-0.2l-2.5-3.5c-0.3-0.4,0-0.8,0.7-1h0.2
							c0.5-0.1,1,0,1.4,0.2c0.1,0.1,0.2,0.1,0.3,0.2l2.5,3.5c0.3,0.4,0,0.8-0.7,1h-0.2C659.9,132.5,659.3,132.4,659,132.2
							 M663.7,131.1c-0.1-0.1-0.2-0.1-0.3-0.2l-2.5-3.5c-0.3-0.4,0-0.8,0.7-1h0.2c0.5-0.1,1,0,1.4,0.2c0.1,0.1,0.2,0.1,0.3,0.2
							l2.5,3.5c0.3,0.4,0,0.8-0.7,1h-0.2C664.6,131.4,664,131.3,663.7,131.1 M668.4,130c-0.1-0.1-0.2-0.1-0.3-0.2l-2.5-3.5
							c-0.3-0.4,0-0.8,0.7-1h0.2c0.5-0.1,1,0,1.4,0.2c0.1,0.1,0.2,0.1,0.3,0.2l2.5,3.5c0.3,0.4,0,0.8-0.7,1h-0.2
							C669.3,130.3,668.8,130.2,668.4,130 M611.3,143.8c-0.5-0.3-1-0.7-1.3-1.1l-26.3-37.4c-1.2-1.7,0.2-3.6,3.2-4.3l28-6.6
							c2.2-0.5,4.6-0.2,6.2,0.7c0.5,0.3,1,0.7,1.3,1.1l26.3,37.4c1.2,1.7-0.2,3.6-3.1,4.3l-28,6.6
							C615.4,145,612.9,144.7,611.3,143.8 M641.9,108c-0.1-0.1-0.2-0.1-0.3-0.2L632,94.1c-0.2-0.4,0-0.8,0.7-0.9l0.3-0.1
							c0.5-0.1,1,0,1.3,0.2c0.1,0.1,0.2,0.1,0.3,0.2l9.6,13.7c0.2,0.3,0,0.8-0.7,0.9l-0.3,0.1C642.7,108.3,642.2,108.2,641.9,108
							 M653.1,116.1c-0.1-0.1-0.2-0.2-0.3-0.3L636.7,93c-0.3-0.4,0-0.9,0.7-1c0.5-0.1,1.1,0,1.5,0.2c0.1,0.1,0.2,0.2,0.3,0.3
							l16.1,22.8c0.3,0.4,0,0.9-0.7,1C654.1,116.4,653.5,116.4,653.1,116.1 M657.9,115c-0.1-0.1-0.2-0.2-0.3-0.3L641.5,92
							c-0.3-0.4,0-0.9,0.7-1c0.5-0.1,1.1,0,1.5,0.2c0.1,0.1,0.2,0.2,0.3,0.3l16.1,22.8c0.3,0.4,0,0.9-0.7,1
							C658.8,115.3,658.2,115.2,657.9,115 M722.7,117.3c-0.1-0.1-0.2-0.1-0.3-0.2l-2.5-3.5c-0.3-0.4,0-0.8,0.7-1h0.2
							c0.5-0.1,1,0,1.4,0.2c0.1,0.1,0.2,0.2,0.3,0.2l2.5,3.5c0.3,0.4,0,0.8-0.7,1h-0.2C723.5,117.5,723,117.5,722.7,117.3
							 M727.4,116.2c-0.1-0.1-0.2-0.1-0.3-0.2l-2.5-3.5c-0.3-0.4,0-0.8,0.7-1h0.2c0.5-0.1,1,0,1.4,0.2c0.1,0.1,0.2,0.1,0.3,0.2
							l2.5,3.5c0.3,0.4,0,0.8-0.7,1h-0.2C728.3,116.4,727.7,116.4,727.4,116.2 M732.1,115.1c-0.1-0.1-0.2-0.1-0.3-0.2l-2.5-3.5
							c-0.3-0.4,0-0.8,0.7-1h0.2c0.5-0.1,1,0,1.4,0.2c0.1,0.1,0.2,0.1,0.3,0.2l2.5,3.5c0.3,0.4,0,0.8-0.7,1h-0.2
							C733,115.3,732.4,115.3,732.1,115.1 M675,128.8c-0.5-0.3-1-0.7-1.3-1.1l-26.3-37.4c-1.2-1.7,0.2-3.6,3.1-4.3l28-6.6
							c2.2-0.5,4.6-0.2,6.2,0.7c0.5,0.3,1,0.7,1.3,1.1l26.3,37.4c1.2,1.7-0.2,3.6-3.2,4.3l-28,6.6C679,130.1,676.6,129.7,675,128.8
							 M705.6,93.1c-0.1-0.1-0.2-0.1-0.3-0.2l-9.6-13.7c-0.2-0.4,0-0.8,0.6-0.9l0.3-0.1c0.5-0.1,1,0,1.3,0.2
							c0.1,0.1,0.2,0.1,0.3,0.2l9.6,13.7c0.2,0.3,0,0.8-0.7,0.9l-0.3,0.1C706.4,93.3,705.9,93.3,705.6,93.1 M716.8,101.2
							c-0.1-0.1-0.2-0.2-0.3-0.3l-16.1-22.8c-0.3-0.4,0.1-0.9,0.7-1c0.5-0.1,1.1,0,1.5,0.2c0.1,0.1,0.2,0.2,0.3,0.3l16.1,22.8
							c0.3,0.4-0.1,0.9-0.7,1C717.8,101.5,717.2,101.4,716.8,101.2 M721.6,100.1c-0.1-0.1-0.2-0.2-0.3-0.3L705.2,77
							c-0.3-0.4,0-0.9,0.7-1c0.5-0.1,1.1,0,1.5,0.2c0.1,0.1,0.2,0.2,0.3,0.3l16,22.8c0.3,0.4,0,0.9-0.7,1
							C722.5,100.4,721.9,100.3,721.6,100.1 M738.7,113.8c-0.5-0.3-1-0.7-1.3-1.1l-26.3-37.4c-1.2-1.7,0.2-3.7,3.1-4.3l28-6.6
							c2.2-0.5,4.6-0.2,6.2,0.7c0.5,0.3,1,0.7,1.3,1.1l26.3,37.4c1.2,1.7-0.2,3.6-3.1,4.3l-28,6.6
							C742.7,115.1,740.3,114.8,738.7,113.8 M761.7,59.6c-2.2-1.2-5.5-1.7-8.5-1L459,127.7c-4,0.9-5.9,3.6-4.3,5.9l28.9,41
							c0.4,0.6,1,1.1,1.7,1.5c2.2,1.2,5.5,1.7,8.5,1L788,108c4-0.9,5.9-3.6,4.3-5.9l-28.9-41C763.1,60.5,762.5,60,761.7,59.6"/>
						<path class="st16" d="M748.5,65.2c-1.6-0.9-4-1.2-6.2-0.7l-28,6.6c-2.9,0.7-4.3,2.6-3.1,4.3l26.3,37.4
							c0.3,0.4,0.7,0.8,1.3,1.1c1.6,0.9,4,1.3,6.2,0.7l28-6.6c2.9-0.7,4.4-2.6,3.1-4.3l-26.3-37.4C749.5,65.9,749,65.5,748.5,65.2"
							/>
						<path class="st31" d="M707.4,76.2c-0.4-0.2-0.9-0.3-1.5-0.2c-0.7,0.2-1,0.6-0.7,1l16.1,22.8c0.1,0.1,0.2,0.2,0.3,0.3
							c0.4,0.2,0.9,0.3,1.5,0.2c0.7-0.2,1-0.6,0.7-1l-16-22.8C707.6,76.4,707.5,76.3,707.4,76.2"/>
						<path class="st31" d="M702.7,77.3c-0.4-0.2-0.9-0.3-1.5-0.2c-0.7,0.2-1,0.6-0.7,1l16.1,22.8c0.1,0.1,0.2,0.2,0.3,0.3
							c0.4,0.2,0.9,0.3,1.5,0.2c0.7-0.2,1-0.6,0.7-1L703,77.6C702.9,77.5,702.8,77.4,702.7,77.3"/>
						<path class="st31" d="M697.9,78.4c-0.3-0.2-0.8-0.3-1.3-0.2l-0.3,0.1c-0.6,0.1-0.9,0.5-0.6,0.9l9.6,13.7
							c0.1,0.1,0.2,0.2,0.3,0.2c0.3,0.2,0.8,0.3,1.3,0.2l0.3-0.1c0.6-0.1,0.9-0.5,0.7-0.9l-9.6-13.7C698.1,78.5,698,78.4,697.9,78.4
							"/>
						<path class="st31" d="M731.6,110.5c-0.4-0.2-0.9-0.3-1.4-0.2H730c-0.6,0.2-1,0.6-0.7,1l2.5,3.5c0.1,0.1,0.2,0.2,0.3,0.2
							c0.4,0.2,0.9,0.3,1.4,0.2h0.2c0.6-0.2,0.9-0.6,0.7-1l-2.5-3.5C731.8,110.6,731.7,110.5,731.6,110.5"/>
						<path class="st31" d="M726.8,111.6c-0.3-0.2-0.9-0.3-1.4-0.2h-0.2c-0.6,0.1-1,0.6-0.7,1l2.5,3.5c0.1,0.1,0.2,0.2,0.3,0.2
							c0.4,0.2,0.9,0.3,1.4,0.2h0.2c0.6-0.2,1-0.6,0.7-1l-2.5-3.5C727.1,111.7,727,111.6,726.8,111.6"/>
						<path class="st31" d="M722.1,112.7c-0.3-0.2-0.9-0.3-1.4-0.2h-0.2c-0.6,0.2-1,0.6-0.7,1l2.5,3.5c0.1,0.1,0.2,0.2,0.3,0.2
							c0.3,0.2,0.9,0.3,1.4,0.2h0.2c0.6-0.2,1-0.6,0.7-1l-2.5-3.5C722.3,112.8,722.2,112.8,722.1,112.7"/>
						<path class="st6" d="M684.8,80.1c-1.6-0.9-4-1.2-6.2-0.7l-28,6.6c-2.9,0.7-4.3,2.6-3.1,4.3l26.3,37.4c0.3,0.4,0.7,0.8,1.3,1.1
							c1.6,0.9,4,1.3,6.2,0.7l28-6.6c2.9-0.7,4.4-2.6,3.2-4.3l-26.3-37.4C685.8,80.8,685.3,80.4,684.8,80.1"/>
						<path class="st31" d="M643.7,91.2c-0.4-0.2-0.9-0.3-1.5-0.2c-0.7,0.2-1,0.6-0.7,1l16.1,22.8c0.1,0.1,0.2,0.2,0.3,0.3
							c0.4,0.2,0.9,0.3,1.5,0.2c0.7-0.2,1-0.6,0.7-1L644,91.4C643.9,91.3,643.8,91.2,643.7,91.2"/>
						<path class="st31" d="M639,92.3c-0.4-0.2-0.9-0.3-1.5-0.2c-0.7,0.2-1,0.6-0.7,1l16.1,22.8c0.1,0.1,0.2,0.2,0.3,0.3
							c0.4,0.2,0.9,0.3,1.5,0.2c0.7-0.2,1-0.6,0.7-1l-16.1-22.8C639.2,92.4,639.1,92.3,639,92.3"/>
						<path class="st31" d="M634.3,93.3c-0.3-0.2-0.8-0.3-1.3-0.2l-0.3,0.1c-0.6,0.1-0.9,0.5-0.7,0.9l9.6,13.7
							c0.1,0.1,0.2,0.2,0.3,0.2c0.3,0.2,0.8,0.3,1.3,0.1l0.3-0.1c0.6-0.1,0.9-0.5,0.7-0.9l-9.6-13.7
							C634.4,93.5,634.4,93.4,634.3,93.3"/>
						<path class="st31" d="M667.9,125.4c-0.4-0.2-0.9-0.3-1.4-0.2h-0.2c-0.6,0.2-1,0.6-0.7,1l2.5,3.5c0.1,0.1,0.2,0.2,0.3,0.2
							c0.3,0.2,0.9,0.3,1.4,0.2h0.2c0.6-0.2,1-0.6,0.7-1l-2.5-3.5C668.1,125.6,668,125.5,667.9,125.4"/>
						<path class="st31" d="M663.2,126.5c-0.3-0.2-0.9-0.3-1.4-0.2h-0.2c-0.6,0.2-0.9,0.6-0.7,1l2.5,3.5c0.1,0.1,0.2,0.2,0.3,0.2
							c0.3,0.2,0.9,0.3,1.4,0.2h0.2c0.6-0.2,1-0.6,0.7-1l-2.5-3.5C663.4,126.7,663.3,126.6,663.2,126.5"/>
						<path class="st31" d="M658.4,127.6c-0.3-0.2-0.9-0.3-1.4-0.2h-0.2c-0.6,0.2-1,0.6-0.7,1l2.5,3.5c0.1,0.1,0.2,0.2,0.3,0.2
							c0.3,0.2,0.9,0.3,1.4,0.2h0.2c0.6-0.2,1-0.6,0.7-1l-2.5-3.5C658.7,127.8,658.6,127.7,658.4,127.6"/>
						<path class="st40" d="M621.1,95.1c-1.6-0.9-4-1.2-6.2-0.7l-28,6.6c-2.9,0.7-4.4,2.6-3.2,4.3l26.3,37.4
							c0.3,0.4,0.7,0.8,1.3,1.1c1.6,0.9,4,1.3,6.2,0.7l28-6.6c2.9-0.7,4.4-2.6,3.1-4.3l-26.3-37.4C622.1,95.8,621.7,95.4,621.1,95.1
							"/>
						<path class="st31" d="M580,106.1c-0.4-0.2-0.9-0.3-1.5-0.2c-0.7,0.2-1,0.6-0.7,1l16.1,22.8c0.1,0.1,0.2,0.2,0.3,0.3
							c0.4,0.2,0.9,0.3,1.5,0.2c0.7-0.2,1-0.6,0.7-1l-16.1-22.8C580.3,106.3,580.2,106.2,580,106.1"/>
						<path class="st31" d="M575.3,107.2c-0.4-0.2-0.9-0.3-1.5-0.2c-0.7,0.2-1,0.6-0.7,1l16.1,22.8c0.1,0.1,0.2,0.2,0.3,0.3
							c0.4,0.2,0.9,0.3,1.5,0.2c0.7-0.2,1-0.6,0.7-1l-16.1-22.8C575.5,107.4,575.4,107.3,575.3,107.2"/>
						<path class="st31" d="M570.6,108.3c-0.3-0.2-0.8-0.3-1.3-0.1l-0.3,0.1c-0.6,0.1-0.9,0.5-0.6,0.9l9.6,13.7
							c0.1,0.1,0.2,0.2,0.3,0.2c0.3,0.2,0.8,0.3,1.3,0.2l0.3-0.1c0.6-0.1,0.9-0.5,0.7-0.9l-9.6-13.7
							C570.8,108.4,570.7,108.3,570.6,108.3"/>
						<path class="st31" d="M604.2,140.4c-0.3-0.2-0.9-0.3-1.4-0.2h-0.2c-0.6,0.2-1,0.6-0.7,1l2.5,3.5c0.1,0.1,0.2,0.2,0.3,0.2
							c0.3,0.2,0.9,0.3,1.4,0.2h0.2c0.6-0.2,0.9-0.6,0.7-1l-2.5-3.5C604.4,140.5,604.3,140.5,604.2,140.4"/>
						<path class="st31" d="M599.5,141.5c-0.3-0.2-0.9-0.3-1.4-0.2h-0.2c-0.6,0.2-1,0.6-0.7,1l2.5,3.5c0.1,0.1,0.2,0.2,0.3,0.2
							c0.4,0.2,0.9,0.3,1.4,0.2h0.2c0.6-0.2,1-0.6,0.7-1l-2.5-3.5C599.7,141.6,599.6,141.6,599.5,141.5"/>
						<path class="st31" d="M594.8,142.6c-0.3-0.2-0.9-0.3-1.4-0.2h-0.2c-0.6,0.2-1,0.6-0.7,1l2.5,3.5c0.1,0.1,0.2,0.2,0.3,0.2
							c0.3,0.2,0.9,0.3,1.4,0.2h0.2c0.6-0.2,1-0.6,0.7-1l-2.5-3.5C595,142.8,594.9,142.7,594.8,142.6"/>
						<path class="st41" d="M557.4,110.1c-1.6-0.9-4-1.3-6.2-0.7l-28,6.6c-2.9,0.7-4.4,2.6-3.1,4.3l26.3,37.4
							c0.3,0.4,0.7,0.8,1.3,1.1c1.6,0.9,4,1.2,6.2,0.7l28-6.6c2.9-0.7,4.4-2.6,3.2-4.3l-26.3-37.4
							C558.4,110.7,558,110.4,557.4,110.1"/>
						<path class="st31" d="M516.4,121.1c-0.4-0.2-0.9-0.3-1.5-0.2c-0.7,0.2-1,0.6-0.7,1l16.1,22.8c0.1,0.1,0.2,0.2,0.3,0.3
							c0.4,0.2,0.9,0.3,1.5,0.2c0.7-0.2,1-0.6,0.7-1l-16.1-22.8C516.6,121.2,516.5,121.1,516.4,121.1"/>
						<path class="st31" d="M511.6,122.2c-0.4-0.2-0.9-0.3-1.5-0.2c-0.7,0.2-1,0.6-0.7,1l16.1,22.8c0.1,0.1,0.2,0.2,0.3,0.3
							c0.4,0.2,0.9,0.3,1.5,0.2c0.7-0.2,1-0.6,0.7-1l-16-22.8C511.9,122.3,511.8,122.2,511.6,122.2"/>
						<path class="st31" d="M506.9,123.2c-0.3-0.2-0.8-0.3-1.3-0.2l-0.3,0.1c-0.6,0.1-0.9,0.5-0.7,0.9l9.6,13.7
							c0.1,0.1,0.2,0.2,0.3,0.2c0.3,0.2,0.8,0.3,1.3,0.1l0.3-0.1c0.6-0.1,0.9-0.5,0.7-0.9l-9.6-13.7
							C507.1,123.4,507,123.3,506.9,123.2"/>
						<path class="st31" d="M540.5,155.3c-0.3-0.2-0.9-0.3-1.4-0.2h-0.2c-0.6,0.2-1,0.6-0.7,1l2.5,3.5c0.1,0.1,0.2,0.2,0.3,0.2
							c0.3,0.2,0.9,0.3,1.4,0.2h0.2c0.6-0.1,1-0.6,0.7-1l-2.5-3.5C540.7,155.5,540.6,155.4,540.5,155.3"/>
						<path class="st31" d="M535.8,156.5c-0.4-0.2-0.9-0.3-1.4-0.2h-0.2c-0.6,0.2-0.9,0.6-0.7,1l2.5,3.5c0.1,0.1,0.2,0.2,0.3,0.2
							c0.4,0.2,0.9,0.3,1.4,0.2h0.2c0.6-0.2,1-0.6,0.7-1l-2.5-3.5C536,156.6,535.9,156.5,535.8,156.5"/>
						<path class="st31" d="M531.1,157.6c-0.3-0.2-0.9-0.3-1.4-0.2h-0.2c-0.6,0.1-1,0.6-0.7,1l2.5,3.5c0.1,0.1,0.2,0.2,0.3,0.2
							c0.4,0.2,0.9,0.3,1.4,0.2h0.2c0.6-0.2,1-0.6,0.7-1l-2.5-3.5C531.3,157.7,531.2,157.6,531.1,157.6"/>
					</g>
				</g>
			</g>
		</g>
		<linearGradient id="SVGID_12_" gradientUnits="userSpaceOnUse" x1="513.2" y1="125.55" x2="666.2" y2="125.55">
			<stop  offset="0" style="stop-color:#000000"/>
			<stop  offset="1" style="stop-color:#000000;stop-opacity:0.7"/>
		</linearGradient>
		<polyline class="st42" points="513.2,155.6 515.9,171.9 577.2,157.5 666.2,79.2 589.7,97 555.4,105.1 		"/>
		<g>
			<g class="st12">
				<g>
					<g>
						<path class="st4" d="M474.4,160.9c-4.7-2.7-4.8-7.2-0.1-9.9c4.7-2.7,12.4-2.7,17.1,0s4.8,7.2,0,9.9
							C486.8,163.7,479.1,163.7,474.4,160.9 M471,134.8c-0.4-0.2-0.5-0.6-0.1-0.9l0.2-0.2c0.4-0.3,1.1-0.4,1.6-0.2l21,8.4
							c0.1,0,0.1,0.1,0.2,0.1c0.4,0.2,0.5,0.6,0.1,0.9l-0.2,0.2c-0.4,0.3-1.1,0.4-1.7,0.2l-21-8.4C471.1,134.9,471,134.8,471,134.8
							 M474,132.4c-0.5-0.3-0.5-0.7-0.2-1c0.4-0.4,1.3-0.4,1.9-0.2l35,14c0.1,0,0.1,0.1,0.2,0.1c0.5,0.3,0.5,0.7,0.2,1
							c-0.4,0.4-1.3,0.4-1.9,0.2l-35-14C474.1,132.5,474,132.5,474,132.4 M523.8,155.8c-0.4-0.2-0.5-0.6-0.2-0.9l0.1-0.1
							c0.4-0.3,1.2-0.4,1.8-0.2l5.4,2.2c0.1,0,0.1,0.1,0.2,0.1c0.4,0.2,0.5,0.6,0.2,0.9l-0.1,0.1c-0.4,0.3-1.2,0.4-1.8,0.2l-5.4-2.2
							C523.9,155.9,523.8,155.9,523.8,155.8 M476.9,130c-0.5-0.3-0.5-0.7-0.2-1c0.4-0.4,1.3-0.4,1.9-0.2l35,14
							c0.1,0,0.1,0.1,0.2,0.1c0.5,0.3,0.5,0.7,0.2,1c-0.4,0.4-1.3,0.4-1.9,0.2l-35-14C477,130.1,476.9,130,476.9,130 M526.7,153.4
							c-0.4-0.2-0.5-0.6-0.2-0.9l0.1-0.1c0.4-0.3,1.2-0.4,1.8-0.2l5.4,2.2c0.1,0,0.1,0.1,0.2,0.1c0.4,0.2,0.5,0.6,0.2,0.9l-0.1,0.1
							c-0.4,0.3-1.2,0.4-1.8,0.2l-5.4-2.2C526.8,153.5,526.7,153.4,526.7,153.4 M529.5,151c-0.4-0.2-0.5-0.6-0.2-0.9l0.1-0.1
							c0.4-0.3,1.2-0.4,1.8-0.2l5.4,2.2c0.1,0,0.1,0.1,0.2,0.1c0.4,0.2,0.5,0.6,0.2,0.9l-0.1,0.1c-0.4,0.3-1.2,0.4-1.8,0.2l-5.4-2.2
							C529.6,151,529.6,151,529.5,151 M479.6,126.4c-1.9-1.1-2.3-2.9-0.7-4.2l17.1-14.4c1.8-1.5,5.4-1.9,8-0.9l57.4,22.9
							c0.3,0.1,0.6,0.2,0.8,0.4c1.9,1.1,2.3,2.9,0.7,4.2l-17.1,14.4c-1.8,1.5-5.4,1.9-8,0.9l-57.4-22.9
							C480.1,126.7,479.8,126.6,479.6,126.4 M509.9,102c-0.4-0.2-0.5-0.6-0.1-0.9l0.2-0.2c0.4-0.3,1.1-0.4,1.6-0.2l21,8.4
							c0.1,0,0.1,0.1,0.2,0.1c0.4,0.2,0.5,0.6,0.1,0.9l-0.2,0.2c-0.4,0.3-1.1,0.4-1.6,0.2l-21-8.4C510,102.1,509.9,102,509.9,102
							 M512.9,99.6c-0.5-0.3-0.5-0.7-0.2-1c0.4-0.4,1.3-0.4,1.9-0.2l35,14c0.1,0,0.1,0.1,0.2,0.1c0.5,0.3,0.5,0.7,0.2,1
							c-0.4,0.4-1.3,0.4-1.9,0.2l-35-14C513,99.7,512.9,99.6,512.9,99.6 M562.6,123c-0.4-0.2-0.5-0.6-0.2-0.9l0.1-0.1
							c0.4-0.3,1.2-0.4,1.8-0.2l5.4,2.2c0.1,0,0.1,0.1,0.2,0.1c0.4,0.2,0.5,0.6,0.1,0.9l-0.1,0.1c-0.4,0.3-1.2,0.4-1.8,0.2
							L562.6,123C562.8,123.1,562.7,123.1,562.6,123 M515.7,97.2c-0.5-0.3-0.5-0.7-0.2-1c0.4-0.4,1.3-0.4,1.9-0.2l35,14
							c0.1,0,0.1,0.1,0.2,0.1c0.5,0.3,0.5,0.7,0.2,1c-0.4,0.4-1.3,0.4-1.9,0.2l-35-14C515.9,97.2,515.8,97.2,515.7,97.2
							 M565.5,120.6c-0.4-0.2-0.5-0.6-0.2-0.9l0.1-0.1c0.4-0.3,1.2-0.4,1.8-0.2l5.4,2.2c0.1,0,0.1,0.1,0.2,0.1
							c0.4,0.2,0.5,0.6,0.1,0.9l-0.1,0.1c-0.4,0.3-1.2,0.4-1.8,0.2L565.5,120.6C565.6,120.7,565.6,120.6,565.5,120.6 M568.4,118.2
							c-0.4-0.2-0.5-0.6-0.2-0.9l0.1-0.1c0.4-0.3,1.2-0.4,1.8-0.2l5.4,2.2c0.1,0,0.1,0.1,0.2,0.1c0.4,0.2,0.5,0.6,0.1,0.9l-0.1,0.1
							c-0.4,0.3-1.2,0.4-1.8,0.2L568.4,118.2C568.5,118.2,568.5,118.2,568.4,118.2 M518.4,93.6c-1.9-1.1-2.3-2.9-0.7-4.2L534.8,75
							c1.8-1.5,5.4-1.9,8-0.9L600.3,97c0.3,0.1,0.6,0.2,0.8,0.4c1.9,1.1,2.3,2.9,0.7,4.2L584.7,116c-1.8,1.5-5.4,1.9-8,0.8L519.3,94
							C519,93.9,518.7,93.8,518.4,93.6 M548.7,69.2c-0.4-0.2-0.5-0.6-0.1-0.9l0.2-0.2c0.4-0.3,1.1-0.4,1.6-0.2l21,8.4
							c0.1,0,0.1,0.1,0.2,0.1c0.4,0.2,0.5,0.6,0.1,0.9l-0.2,0.2c-0.4,0.3-1.1,0.4-1.6,0.2l-21-8.4C548.8,69.3,548.8,69.2,548.7,69.2
							 M551.7,66.8c-0.5-0.3-0.5-0.7-0.2-1c0.4-0.4,1.3-0.4,1.9-0.2l35,14c0.1,0,0.1,0.1,0.2,0.1c0.5,0.3,0.5,0.7,0.2,1
							c-0.4,0.4-1.3,0.4-1.9,0.2l-35-14C551.9,66.9,551.8,66.8,551.7,66.8 M601.5,90.2c-0.4-0.2-0.5-0.6-0.2-0.9l0.1-0.1
							c0.4-0.3,1.2-0.4,1.8-0.2l5.4,2.2c0.1,0,0.1,0.1,0.2,0.1c0.4,0.2,0.5,0.6,0.1,0.9l-0.1,0.1c-0.4,0.3-1.2,0.4-1.8,0.2
							L601.5,90.2C601.6,90.3,601.6,90.3,601.5,90.2 M554.6,64.4c-0.5-0.3-0.5-0.7-0.2-1c0.4-0.4,1.3-0.4,1.9-0.2l35,14
							c0.1,0,0.1,0.1,0.2,0.1c0.5,0.3,0.5,0.7,0.2,1c-0.4,0.4-1.3,0.4-1.9,0.2l-35-14C554.7,64.4,554.7,64.4,554.6,64.4 M604.4,87.8
							c-0.4-0.2-0.5-0.6-0.2-0.9l0.1-0.1c0.4-0.3,1.2-0.4,1.8-0.2l5.4,2.2c0.1,0,0.1,0.1,0.2,0.1c0.4,0.2,0.5,0.6,0.1,0.9l-0.1,0.1
							c-0.4,0.3-1.2,0.4-1.8,0.2L604.4,87.8C604.5,87.9,604.5,87.8,604.4,87.8 M607.3,85.4c-0.4-0.2-0.5-0.6-0.1-0.9l0.1-0.1
							c0.4-0.3,1.2-0.4,1.8-0.2l5.4,2.2c0.1,0,0.1,0.1,0.2,0.1c0.4,0.2,0.5,0.6,0.1,0.9l-0.1,0.1c-0.4,0.3-1.2,0.4-1.8,0.2l-5.4-2.2
							C607.4,85.4,607.3,85.4,607.3,85.4 M557.3,60.8c-1.9-1.1-2.3-2.9-0.7-4.2l17.1-14.4c1.8-1.5,5.4-1.9,8-0.9l57.4,22.9
							c0.3,0.1,0.6,0.2,0.8,0.4c1.9,1.1,2.3,2.9,0.7,4.2l-17.1,14.4c-1.8,1.5-5.4,1.9-8,0.9l-57.4-22.9
							C557.8,61.1,557.6,60.9,557.3,60.8 M587.6,36.4c-0.4-0.2-0.5-0.6-0.1-0.9l0.2-0.2c0.4-0.3,1.1-0.4,1.6-0.2l21,8.4
							c0.1,0,0.1,0.1,0.2,0.1c0.4,0.2,0.5,0.6,0.1,0.9l-0.2,0.2c-0.4,0.3-1.1,0.4-1.6,0.2l-21-8.4C587.7,36.5,587.7,36.4,587.6,36.4
							 M590.6,34c-0.5-0.3-0.5-0.7-0.2-1c0.4-0.4,1.3-0.4,1.9-0.2l35,14c0.1,0,0.1,0.1,0.2,0.1c0.5,0.3,0.5,0.7,0.2,1
							c-0.4,0.4-1.3,0.4-1.9,0.2l-35-14C590.7,34.1,590.7,34,590.6,34 M640.4,57.4c-0.4-0.2-0.5-0.6-0.1-0.9l0.1-0.1
							c0.4-0.3,1.2-0.4,1.8-0.2l5.4,2.2c0.1,0,0.1,0.1,0.2,0.1c0.4,0.2,0.5,0.6,0.1,0.9l-0.1,0.1c-0.4,0.3-1.2,0.4-1.8,0.2l-5.4-2.2
							C640.5,57.5,640.4,57.5,640.4,57.4 M593.5,31.6c-0.5-0.3-0.5-0.7-0.2-1c0.4-0.4,1.3-0.4,1.9-0.2l35,14c0.1,0,0.1,0.1,0.2,0.1
							c0.5,0.3,0.5,0.7,0.2,1c-0.4,0.4-1.3,0.4-1.9,0.2l-35-14C593.6,31.6,593.6,31.6,593.5,31.6 M643.3,55
							c-0.4-0.2-0.5-0.6-0.1-0.9l0.1-0.1c0.4-0.3,1.2-0.4,1.8-0.2l5.4,2.2c0.1,0,0.1,0.1,0.2,0.1c0.4,0.2,0.5,0.6,0.1,0.9l-0.1,0.1
							c-0.4,0.3-1.2,0.4-1.8,0.2l-5.4-2.2C643.4,55.1,643.3,55,643.3,55 M646.2,52.6c-0.4-0.2-0.5-0.6-0.1-0.9l0.1-0.1
							c0.4-0.3,1.2-0.4,1.8-0.2l5.4,2.2c0.1,0,0.1,0.1,0.2,0.1c0.4,0.2,0.5,0.6,0.1,0.9l-0.1,0.1c-0.4,0.3-1.2,0.4-1.8,0.2l-5.4-2.2
							C646.3,52.6,646.2,52.6,646.2,52.6 M596.2,28c-1.9-1.1-2.3-2.9-0.7-4.2l17.1-14.4c1.8-1.5,5.4-1.9,8-0.8L678,31.5
							c0.3,0.1,0.6,0.2,0.8,0.4c1.9,1.1,2.3,2.9,0.7,4.2l-17.1,14.4c-1.8,1.5-5.4,1.9-8,0.9l-57.4-23
							C596.7,28.3,596.4,28.1,596.2,28 M691.1,25.4c-0.3-0.2-0.7-0.4-1.1-0.5L627-0.2c-3.6-1.4-8.4-0.9-10.9,1.2L436.6,152.4
							c-2.2,1.8-1.7,4.3,0.9,5.8c0.3,0.2,0.7,0.4,1.1,0.5l63,25.1c3.6,1.4,8.4,0.9,10.9-1.2L692.1,31.1
							C694.2,29.3,693.8,26.9,691.1,25.4"/>
						<path class="st17" d="M678.9,31.8c-0.2-0.1-0.5-0.3-0.8-0.4L620.6,8.5c-2.6-1-6.2-0.7-8,0.8l-17.1,14.4
							c-1.6,1.3-1.2,3.1,0.7,4.2c0.2,0.1,0.5,0.3,0.8,0.4l57.4,22.9c2.6,1,6.2,0.7,8-0.9L679.5,36C681.1,34.7,680.8,32.9,678.9,31.8
							"/>
						<path class="st31" d="M630.4,44.4c-0.1,0-0.1-0.1-0.2-0.1l-35-14c-0.6-0.2-1.5-0.2-1.9,0.2c-0.4,0.3-0.3,0.7,0.2,1
							c0.1,0,0.1,0.1,0.2,0.1l35,14c0.6,0.2,1.5,0.2,1.9-0.2C630.9,45.1,630.9,44.7,630.4,44.4"/>
						<path class="st31" d="M627.5,46.9c-0.1,0-0.1-0.1-0.2-0.1l-35-14c-0.6-0.2-1.5-0.2-1.9,0.2c-0.4,0.3-0.3,0.7,0.2,1
							c0.1,0,0.1,0.1,0.2,0.1l35,14c0.6,0.2,1.5,0.2,1.9-0.2C628,47.5,628,47.1,627.5,46.9"/>
						<path class="st31" d="M610.5,43.7c0,0-0.1-0.1-0.2-0.1l-21-8.4c-0.5-0.2-1.3-0.1-1.6,0.2l-0.2,0.2c-0.3,0.3-0.3,0.6,0.1,0.9
							c0,0,0.1,0.1,0.2,0.1l21,8.4c0.5,0.2,1.3,0.1,1.6-0.2l0.2-0.2C611,44.2,610.9,43.9,610.5,43.7"/>
						<path class="st31" d="M653.4,53.6c-0.1,0-0.1-0.1-0.2-0.1l-5.4-2.2c-0.6-0.2-1.4-0.1-1.8,0.2l-0.1,0.1
							c-0.3,0.3-0.3,0.7,0.1,0.9c0.1,0,0.1,0.1,0.2,0.1l5.4,2.2c0.6,0.2,1.4,0.1,1.8-0.2l0.1-0.1C653.9,54.2,653.9,53.8,653.4,53.6"
							/>
						<path class="st31" d="M650.6,56c-0.1,0-0.1-0.1-0.2-0.1l-5.4-2.2c-0.6-0.2-1.4-0.1-1.8,0.2l-0.1,0.1c-0.4,0.3-0.3,0.7,0.1,0.9
							c0.1,0,0.1,0.1,0.2,0.1l5.4,2.2c0.6,0.2,1.4,0.1,1.8-0.2l0.1-0.1C651.1,56.7,651,56.3,650.6,56"/>
						<path class="st31" d="M647.7,58.5c-0.1,0-0.1-0.1-0.2-0.1l-5.4-2.2c-0.6-0.2-1.4-0.1-1.8,0.2l-0.1,0.1
							c-0.4,0.3-0.3,0.7,0.1,0.9c0.1,0,0.1,0.1,0.2,0.1l5.4,2.2c0.6,0.2,1.4,0.1,1.8-0.2l0.1-0.1C648.2,59.1,648.1,58.7,647.7,58.5"
							/>
						<path class="st43" d="M640,64.6c-0.2-0.1-0.5-0.3-0.8-0.4l-57.4-22.9c-2.6-1-6.2-0.7-8,0.9l-17.1,14.4
							c-1.6,1.3-1.2,3.1,0.7,4.2c0.2,0.1,0.5,0.3,0.8,0.4l57.4,22.9c2.6,1,6.2,0.7,8-0.9l17.1-14.4C642.3,67.5,641.9,65.7,640,64.6"
							/>
						<path class="st31" d="M591.5,77.2c-0.1,0-0.1-0.1-0.2-0.1l-35-14c-0.6-0.2-1.4-0.2-1.9,0.2c-0.4,0.3-0.3,0.7,0.2,1
							c0.1,0,0.1,0.1,0.2,0.1l35,14c0.6,0.2,1.5,0.2,1.9-0.2C592.1,77.9,592,77.5,591.5,77.2"/>
						<path class="st31" d="M588.6,79.7c-0.1,0-0.1-0.1-0.2-0.1l-35-14c-0.6-0.2-1.5-0.2-1.9,0.2c-0.4,0.3-0.3,0.7,0.2,1
							c0.1,0,0.1,0.1,0.2,0.1l35,14c0.6,0.2,1.4,0.2,1.9-0.2C589.2,80.3,589.1,79.9,588.6,79.7"/>
						<path class="st31" d="M571.6,76.5c0,0-0.1-0.1-0.2-0.1l-21-8.4c-0.5-0.2-1.3-0.1-1.6,0.2l-0.2,0.2c-0.3,0.3-0.3,0.6,0.1,0.9
							c0,0,0.1,0.1,0.2,0.1l21,8.4c0.5,0.2,1.3,0.1,1.6-0.2l0.2-0.2C572.1,77.1,572,76.7,571.6,76.5"/>
						<path class="st31" d="M614.6,86.4c-0.1,0-0.1-0.1-0.2-0.1l-5.4-2.2c-0.6-0.2-1.4-0.1-1.8,0.2l-0.1,0.1
							c-0.4,0.3-0.3,0.7,0.1,0.9c0.1,0,0.1,0.1,0.2,0.1l5.4,2.2c0.6,0.2,1.4,0.1,1.8-0.2l0.1-0.1C615.1,87,615,86.7,614.6,86.4"/>
						<path class="st31" d="M611.7,88.8c-0.1,0-0.1-0.1-0.2-0.1l-5.4-2.2c-0.6-0.2-1.4-0.1-1.8,0.2l-0.1,0.1
							c-0.3,0.3-0.3,0.7,0.2,0.9c0.1,0,0.1,0.1,0.2,0.1L610,90c0.6,0.2,1.4,0.1,1.8-0.2l0.1-0.1C612.2,89.5,612.1,89.1,611.7,88.8"
							/>
						<path class="st31" d="M608.8,91.3c-0.1,0-0.1-0.1-0.2-0.1l-5.4-2.2c-0.6-0.2-1.4-0.1-1.8,0.2l-0.1,0.1
							c-0.3,0.3-0.3,0.7,0.2,0.9c0.1,0,0.1,0.1,0.2,0.1l5.4,2.2c0.6,0.2,1.4,0.2,1.8-0.2l0.1-0.1C609.3,91.9,609.2,91.5,608.8,91.3"
							/>
						<path class="st44" d="M601.1,97.4c-0.2-0.1-0.5-0.3-0.8-0.4l-57.4-22.9c-2.6-1-6.2-0.7-8,0.9l-17.1,14.4
							c-1.6,1.3-1.2,3.1,0.7,4.2c0.2,0.1,0.5,0.3,0.8,0.4l57.4,22.9c2.6,1,6.2,0.7,8-0.8l17.1-14.4C603.4,100.3,603,98.5,601.1,97.4
							"/>
						<path class="st31" d="M552.7,110c-0.1,0-0.1-0.1-0.2-0.1l-35-14c-0.6-0.2-1.5-0.2-1.9,0.2c-0.4,0.3-0.3,0.7,0.2,1
							c0.1,0,0.1,0.1,0.2,0.1l35,14c0.6,0.2,1.5,0.2,1.9-0.2C553.2,110.7,553.1,110.3,552.7,110"/>
						<path class="st31" d="M549.8,112.5c-0.1,0-0.1-0.1-0.2-0.1l-35-14c-0.6-0.2-1.5-0.2-1.9,0.2c-0.4,0.3-0.3,0.7,0.2,1
							c0.1,0,0.1,0.1,0.2,0.1l35,14c0.6,0.2,1.5,0.2,1.9-0.2C550.3,113.1,550.2,112.7,549.8,112.5"/>
						<path class="st31" d="M532.7,109.3c-0.1,0-0.1-0.1-0.2-0.1l-21-8.4c-0.5-0.2-1.3-0.1-1.6,0.2l-0.2,0.2
							c-0.3,0.3-0.3,0.6,0.1,0.9c0,0,0.1,0.1,0.2,0.1l21,8.4c0.5,0.2,1.3,0.1,1.6-0.2l0.2-0.2C533.2,109.9,533.2,109.5,532.7,109.3"
							/>
						<path class="st31" d="M575.7,119.2c-0.1,0-0.1-0.1-0.2-0.1l-5.4-2.2c-0.6-0.2-1.4-0.1-1.8,0.2l-0.1,0.1
							c-0.3,0.3-0.3,0.7,0.2,0.9c0.1,0,0.1,0.1,0.2,0.1l5.4,2.2c0.6,0.2,1.4,0.2,1.8-0.2l0.1-0.1
							C576.2,119.9,576.1,119.5,575.7,119.2"/>
						<path class="st31" d="M572.8,121.6c-0.1,0-0.1-0.1-0.2-0.1l-5.4-2.2c-0.6-0.2-1.4-0.1-1.8,0.2l-0.1,0.1
							c-0.3,0.3-0.3,0.7,0.2,0.9c0.1,0,0.1,0.1,0.2,0.1l5.4,2.2c0.6,0.2,1.4,0.1,1.8-0.2l0.1-0.1
							C573.3,122.3,573.2,121.9,572.8,121.6"/>
						<path class="st31" d="M569.9,124.1c-0.1,0-0.1-0.1-0.2-0.1l-5.4-2.2c-0.6-0.2-1.4-0.1-1.8,0.2l-0.1,0.1
							c-0.3,0.3-0.3,0.7,0.2,0.9c0.1,0,0.1,0.1,0.2,0.1l5.4,2.2c0.6,0.2,1.4,0.1,1.8-0.2l0.1-0.1
							C570.4,124.7,570.4,124.3,569.9,124.1"/>
						<path class="st45" d="M562.2,130.2c-0.2-0.1-0.5-0.3-0.8-0.4L504,106.9c-2.6-1-6.2-0.7-8,0.9l-17.1,14.4
							c-1.6,1.3-1.2,3.1,0.7,4.2c0.2,0.1,0.5,0.3,0.8,0.4l57.4,22.9c2.6,1,6.2,0.7,8-0.9l17.1-14.4
							C564.5,133.1,564.2,131.3,562.2,130.2"/>
						<path class="st31" d="M513.8,142.8c-0.1,0-0.1-0.1-0.2-0.1l-35-14c-0.6-0.2-1.5-0.2-1.9,0.2c-0.4,0.3-0.3,0.7,0.2,1
							c0.1,0,0.1,0.1,0.2,0.1l35,14c0.6,0.2,1.5,0.2,1.9-0.2C514.3,143.5,514.2,143.1,513.8,142.8"/>
						<path class="st31" d="M510.9,145.3c-0.1,0-0.1-0.1-0.2-0.1l-35-14c-0.6-0.2-1.5-0.2-1.9,0.2c-0.4,0.3-0.3,0.7,0.2,1
							c0.1,0,0.1,0.1,0.2,0.1l35,14c0.6,0.2,1.5,0.2,1.9-0.2C511.4,145.9,511.3,145.5,510.9,145.3"/>
						<path class="st31" d="M493.9,142.1c0,0-0.1-0.1-0.2-0.1l-21-8.4c-0.5-0.2-1.3-0.1-1.6,0.2l-0.2,0.2c-0.3,0.3-0.3,0.6,0.1,0.9
							c0,0,0.1,0.1,0.2,0.1l21,8.4c0.5,0.2,1.3,0.1,1.7-0.2l0.2-0.2C494.3,142.7,494.3,142.3,493.9,142.1"/>
						<path class="st31" d="M536.8,152c-0.1,0-0.1-0.1-0.2-0.1l-5.4-2.2c-0.6-0.2-1.4-0.1-1.8,0.2l-0.1,0.1
							c-0.3,0.3-0.3,0.7,0.2,0.9c0.1,0,0.1,0.1,0.2,0.1l5.4,2.2c0.6,0.2,1.4,0.1,1.8-0.2l0.1-0.1C537.3,152.7,537.2,152.3,536.8,152
							"/>
						<path class="st31" d="M533.9,154.5c-0.1,0-0.1-0.1-0.2-0.1l-5.4-2.2c-0.6-0.2-1.4-0.1-1.8,0.2l-0.1,0.1
							c-0.3,0.3-0.3,0.7,0.2,0.9c0.1,0,0.1,0.1,0.2,0.1l5.4,2.2c0.6,0.2,1.4,0.1,1.8-0.2l0.1-0.1
							C534.4,155.1,534.4,154.7,533.9,154.5"/>
						<path class="st31" d="M531,156.9c-0.1,0-0.1-0.1-0.2-0.1l-5.4-2.2c-0.6-0.2-1.4-0.1-1.8,0.2l-0.1,0.1
							c-0.3,0.3-0.3,0.7,0.2,0.9c0.1,0,0.1,0.1,0.2,0.1l5.4,2.2c0.6,0.2,1.4,0.1,1.8-0.2l0.1-0.1C531.5,157.5,531.5,157.1,531,156.9
							"/>
						<path class="st19" d="M491.4,151c-4.7-2.7-12.4-2.7-17.1,0s-4.7,7.2,0.1,9.9s12.4,2.7,17.1,0S496.2,153.7,491.4,151"/>
					</g>
				</g>
			</g>
		</g>
	</g>
	<path class="st46" d="M900.8,330.1c1-1.4,1.9-2.8,2.8-4.4c9.9-16.9,1.1-30.7-19.7-30.8c-20.8-0.1-32.4,4-42.3,20.9
		c-3.1,5.3-4.4,10.4-4,14.8c-9.7,1.2-20.2,7.5-24.7,15.1c-5,8.5-0.9,16.9,9.6,17s23.8-4.7,28.8-13.2c0.1-0.2,0.2-0.4,0.3-0.6
		c2.9,0.9,6.3,1.3,10.1,1.4c4,0,7.6-0.1,10.9-0.5c3.1,5.3,11.7,8.9,23.2,8.9c14,0,26.1-9,26.1-16.1
		C922,336.3,912.8,331.1,900.8,330.1z"/>
	<ellipse class="st30" cx="875.7" cy="302.5" rx="42.3" ry="38.9"/>
	
		<linearGradient id="SVGID_13_" gradientUnits="userSpaceOnUse" x1="845.7514" y1="371.9453" x2="868.3323" y2="382.2093" gradientTransform="matrix(1 0 0 -1 0 688)">
		<stop  offset="0" style="stop-color:#000000"/>
		<stop  offset="1" style="stop-color:#000000;stop-opacity:0.7"/>
	</linearGradient>
	<path class="st47" d="M896.6,321c-0.9,0-1.8,0-2.7-0.1l12.5-6.4c-12.6-1.9-20.1,3.3-24.5,7c-10.4-5.4-19.2-20-19.2-31.7
		c0-9,4.2-17.1,10.8-22.9c-20.4,1-36.6,16.6-36.6,35.6c0,19.7,17.3,35.6,38.7,35.6c15.2,0,28.3-8,34.7-19.7
		C906,320.1,901.4,321,896.6,321z"/>
	<ellipse class="st30" cx="909.7" cy="331.5" rx="20.9" ry="18.1"/>
	
		<linearGradient id="SVGID_14_" gradientUnits="userSpaceOnUse" x1="899.8547" y1="348.014" x2="910.4119" y2="357.0316" gradientTransform="matrix(1 0 0 -1 0 688)">
		<stop  offset="0" style="stop-color:#000000"/>
		<stop  offset="1" style="stop-color:#000000;stop-opacity:0.7"/>
	</linearGradient>
	<path class="st48" d="M918.2,337.8c-7.7,0-14-5.4-14-12.1c0-4,2.2-7.5,5.6-9.7l0,0c-9.9,0-17.9,6.9-17.9,15.5s8,15.5,17.9,15.5
		c8.5,0,15.6-5.1,17.4-12C924.7,336.7,921.6,337.8,918.2,337.8z"/>
	<ellipse class="st30" cx="837.4" cy="336.5" rx="16.4" ry="14.2"/>
	
		<linearGradient id="SVGID_15_" gradientUnits="userSpaceOnUse" x1="826.6037" y1="345.7785" x2="836.0612" y2="350.8372" gradientTransform="matrix(1 0 0 -1 0 688)">
		<stop  offset="0" style="stop-color:#000000"/>
		<stop  offset="1" style="stop-color:#000000;stop-opacity:0.7"/>
	</linearGradient>
	<path class="st49" d="M845.1,341c-6.6,0-11.9-4.6-11.9-10.3c0-2.3,0.9-4.5,2.4-6.2c-6.9,0.7-12.3,5.8-12.3,12
		c0,6.7,6.3,12.1,14,12.1c6.5,0,11.9-3.8,13.5-9C849.2,340.5,847.2,341,845.1,341z"/>
	<g>
		<path class="st27" d="M778.2,446c-0.4-0.8-1.4-1-2.1-0.6l-42.6,24.8c-0.7,0.4-1,1.4-0.6,2.1c0.3,0.5,0.8,0.8,1.4,0.8
			c0.3,0,0.5-0.1,0.8-0.2l42.6-24.8C778.4,447.7,778.7,446.8,778.2,446z"/>
		<path class="st27" d="M783.7,450.2c-0.4-0.8-1.4-1-2.1-0.6L739,474.4c-0.7,0.4-1,1.4-0.6,2.1c0.3,0.5,0.8,0.8,1.4,0.8
			c0.3,0,0.5-0.1,0.8-0.2l42.6-24.8C783.8,451.9,784.1,450.9,783.7,450.2z"/>
		<path class="st27" d="M790.4,454.4c-0.4-0.7-1.4-1-2.1-0.6l-42.6,24.8c-0.7,0.4-1,1.4-0.6,2.1c0.3,0.5,0.8,0.8,1.4,0.8
			c0.3,0,0.5-0.1,0.8-0.2l42.6-24.8C790.6,456.1,790.8,455.1,790.4,454.4z"/>
		<path class="st27" d="M778.3,467.6l-25.8,15c-0.7,0.4-1,1.4-0.6,2.1c0.3,0.5,0.8,0.8,1.4,0.8c0.3,0,0.5-0.1,0.8-0.2l25.8-15
			c0.7-0.4,1-1.4,0.6-2.1C780,467.4,779,467.2,778.3,467.6z"/>
	</g>
	<g>
		<path class="st27" d="M741.7,424.1c-0.4-0.8-1.4-1-2.1-0.6L697,448.3c-0.7,0.4-1,1.4-0.6,2.1c0.3,0.5,0.8,0.8,1.4,0.8
			c0.3,0,0.5-0.1,0.8-0.2l42.6-24.8C741.9,425.8,742.1,424.8,741.7,424.1z"/>
		<path class="st27" d="M748.6,427.8c-0.4-0.8-1.4-1-2.1-0.6L703.9,452c-0.7,0.4-1,1.4-0.6,2.1c0.3,0.5,0.8,0.8,1.4,0.8
			c0.3,0,0.5-0.1,0.8-0.2l42.6-24.8C748.8,429.5,749.1,428.6,748.6,427.8z"/>
		<path class="st27" d="M755.4,432c-0.4-0.7-1.4-1-2.1-0.6l-42.6,24.8c-0.7,0.4-1,1.4-0.6,2.1c0.3,0.5,0.8,0.8,1.4,0.8
			c0.3,0,0.5-0.1,0.8-0.2l42.6-24.8C755.6,433.7,755.8,432.7,755.4,432z"/>
		<path class="st27" d="M743.3,445.2l-25.8,15c-0.7,0.4-1,1.4-0.6,2.1c0.3,0.5,0.8,0.8,1.4,0.8c0.3,0,0.5-0.1,0.8-0.2l25.8-15
			c0.7-0.4,1-1.4,0.6-2.1C745,445,744,444.8,743.3,445.2z"/>
	</g>
</g>
</svg>
