<?xml version="1.0" encoding="utf-8"?>
<!-- Generator: Adobe Illustrator 21.1.0, SVG Export Plug-In . SVG Version: 6.00 Build 0)  -->
<svg version="1.1" id="Web_devp" xmlns="http://www.w3.org/2000/svg" xmlns:xlink="http://www.w3.org/1999/xlink" x="0px" y="0px"
	 viewBox="0 0 823.6 562.5" style="enable-background:new 0 0 823.6 562.5;" xml:space="preserve">
<style type="text/css">
	.st0{opacity:0.9;enable-background:new    ;}
	.st1{fill:#A7C3D6;}
	.st2{fill:#9DCC4A;}
	.st3{opacity:0.13;fill:url(#SVGID_1_);enable-background:new    ;}
	.st4{fill:url(#SVGID_2_);}
	.st5{opacity:0.7;fill:url(#SVGID_3_);enable-background:new    ;}
	.st6{fill:#2A3C67;}
	.st7{fill:#FFFFFF;}
	.st8{fill:#FFE269;}
	.st9{opacity:0.13;fill:url(#SVGID_4_);enable-background:new    ;}
	.st10{fill:#D7E6F2;}
	.st11{opacity:0.7;}
	.st12{enable-background:new    ;}
	.st13{opacity:0.9;}
	.st14{fill:url(#SVGID_5_);}
	.st15{opacity:0.52;fill:#2A3C67;enable-background:new    ;}
	.st16{fill:#BFD2E2;}
	.st17{fill:#EEF6FF;}
	.st18{fill:url(#SVGID_6_);}
	.st19{fill:url(#SVGID_7_);}
	.st20{fill:#F8FCFF;}
	.st21{opacity:0.9;fill:#2A3C67;enable-background:new    ;}
	.st22{fill:none;stroke:#E9F0FF;stroke-width:3;stroke-linecap:round;stroke-miterlimit:10;}
	.st23{opacity:0.4;enable-background:new    ;}
	.st24{fill:#e53b51;}
	.st25{fill:url(#SVGID_8_);}
	.st26{opacity:0.13;enable-background:new    ;}
	.st27{fill:url(#SVGID_9_);}
	.st28{fill:none;}
	.st29{opacity:0.13;fill:#7E9DAA;enable-background:new    ;}
	.st30{fill:url(#SVGID_10_);}
	.st31{clip-path:url(#SVGID_12_);}
</style>
<g class="st0">
	<path class="st1" d="M311.5,277.7L200.9,214c-9.4-5.4-21-5.5-30.4-0.3l-112.1,62l-1.5-2.6l112.1-62c10.3-5.7,23.1-5.6,33.4,0.3
		l110.6,63.7L311.5,277.7z"/>
</g>
<g class="st0">
	<path class="st1" d="M408,547.7c-5.5,0-11.1-1.4-16-4.3l-61.1-35.7c-6.1-3.6-9.8-9.9-9.7-17c0-7.1,3.7-13.4,9.8-16.9l315.1-183.2
		c5.1-3,8.2-8.3,8.3-14.3c0-6-3-11.4-8.2-14.4l-142.2-84l1.5-2.6l142.2,84c6.1,3.6,9.7,10,9.7,17c0,7-3.7,13.3-9.8,16.8L332.4,476.4
		c-5.2,3-8.2,8.3-8.3,14.3c0,6,3.1,11.4,8.3,14.4l61.1,35.7c8.9,5.2,20,5.2,29,0l115.8-67.6l1.5,2.6L424,543.4
		C419,546.3,413.5,547.7,408,547.7z"/>
</g>
<g class="st0">
	<polygon class="st1" points="681.3,415.3 679.9,412.7 778.1,360.6 651.8,287.9 653.2,285.3 784.3,360.8 	"/>
</g>
<polygon class="st2" points="36.4,357.2 135.3,414.4 129.6,384.2 110.8,392.5 107.4,367.4 85.3,378.6 80.6,353.1 61.1,364.8 
	58.1,345.3 "/>
<linearGradient id="SVGID_1_" gradientUnits="userSpaceOnUse" x1="250.9483" y1="195.3287" x2="399.9507" y2="585.4908" gradientTransform="matrix(1 0 0 -1 0 564)">
	<stop  offset="0" style="stop-color:#000000"/>
	<stop  offset="0.9958" style="stop-color:#000000;stop-opacity:0"/>
</linearGradient>
<path class="st3" d="M223.5,402.2l240.3-138.6c2.9-1.7,2.9-5.8,0.1-7.5L344,182.4c-1.3-0.8-3-0.8-4.3-0.1l-244,140.8
	c-3,1.6-3,5.9-0.1,7.6l123.6,71.4C220.5,403,222.2,403,223.5,402.2z"/>
<linearGradient id="SVGID_2_" gradientUnits="userSpaceOnUse" x1="523.7004" y1="379.7635" x2="868.2134" y2="328.4938" gradientTransform="matrix(1 0 0 -1 -330.3748 564)">
	<stop  offset="0" style="stop-color:#C7D1E0"/>
	<stop  offset="1" style="stop-color:#B3CADE"/>
</linearGradient>
<path class="st4" d="M484.1,15.2l-7.9-3.2l0,0c-1.5-0.8-3.4-0.8-5.1,0.2L213.6,165.1c-1.6,1-2.6,2.7-2.6,4.5v227.2
	c0,1.1,0.6,1.9,1.4,2.3l0,0l8.1,3.8l4.3-9.6L479,247.4V25.9l1.6,1L484.1,15.2z"/>
<linearGradient id="SVGID_3_" gradientUnits="userSpaceOnUse" x1="541.3748" y1="356.8885" x2="814.4748" y2="356.8885" gradientTransform="matrix(1 0 0 -1 -330.3748 564)">
	<stop  offset="0" style="stop-color:#9ABED8"/>
	<stop  offset="1" style="stop-color:#9ABED8;stop-opacity:0.7"/>
</linearGradient>
<path class="st5" d="M484.1,15.2l-7.9-3.2l0,0c-1.5-0.8-3.4-0.8-5.1,0.2L213.6,165.1c-1.6,1-2.6,2.7-2.6,4.5v227.2
	c0,1.1,0.6,1.9,1.4,2.3l0,0l9.2,3.7l3.2-9.4L479,247.5V25.9l1.6,1L484.1,15.2z"/>
<path class="st6" d="M487.3,247.6c0,2-1.1,3.8-2.8,4.8l-261.3,150c-1.8,1-4-0.3-4-2.3V173c0-1.9,1-3.6,2.6-4.5l257.5-153
	c3.5-2.1,8,0.4,8,4.5V247.6z"/>
<path class="st7" d="M476.1,244L239.6,379.5c-1.6,0.9-3.5-0.2-3.5-2V181.1c0-1.9,1-3.6,2.6-4.5L469,40c3.1-1.9,7.1,0.4,7.1,4V244z"
	/>
<path class="st8" d="M476.1,244l-240-63c0-1.8,1-3.5,2.5-4.5L469,40c3.1-1.9,7.1,0.4,7.1,4V244z"/>
<path class="st8" d="M632.8,141.8L589.4,167c-1.7,1-3.8-0.2-3.8-2.2v-46.3c0-0.9,0.5-1.7,1.3-2.2l43.4-25.2c1.7-1,3.8,0.2,3.8,2.2
	v46.3C634.1,140.5,633.6,141.4,632.8,141.8z"/>
<polygon class="st2" points="488.5,327.8 593.5,268.4 578.8,250.2 568.3,281.3 553.2,266.2 541,295.5 526.2,281.1 514.5,310.9 
	499.1,297.5 "/>
<g>
	<linearGradient id="SVGID_4_" gradientUnits="userSpaceOnUse" x1="441.0862" y1="473.719" x2="700.55" y2="473.719">
		<stop  offset="0" style="stop-color:#000000"/>
		<stop  offset="0.9958" style="stop-color:#000000;stop-opacity:0"/>
	</linearGradient>
	<path class="st9" d="M599.3,397.4l-155.8,93.8c-3.3,2-3.2,6.9,0.2,8.7l93.3,50.3c1.5,0.8,3.4,0.8,4.9-0.1L698,460.6
		c3.4-1.9,3.4-6.8,0-8.7l-93.6-54.5C602.8,396.4,600.8,396.4,599.3,397.4z"/>
	<path class="st10" d="M574.9,498.9v29.7c0,1.3,1.4,2.2,2.6,1.5L702,457.7c0.5-0.3,0.9-0.9,0.9-1.5v-29.5c0-1.3-1.4-2.2-2.6-1.5
		l-124.5,72.1C575.2,497.7,574.9,498.3,574.9,498.9z"/>
	<g class="st11">
		<g class="st12">
			<g>
				<g class="st13">
					<path class="st6" d="M583.9,504.7c-1,0.6-1.8,2.1-1.8,3.3c0,1.2,0.9,1.7,1.9,1c1-0.6,1.8-2.1,1.8-3.3
						C585.7,504.5,584.9,504,583.9,504.7"/>
					<path class="st6" d="M591.3,500.1c-1,0.6-1.8,2.1-1.8,3.3c0,1.2,0.9,1.7,1.9,1c1-0.6,1.8-2.1,1.8-3.3
						C593.2,500,592.4,499.5,591.3,500.1"/>
					<path class="st8" d="M598.8,495.6c-1,0.6-1.8,2.1-1.8,3.3c0,1.2,0.9,1.7,1.9,1c1-0.6,1.8-2.1,1.8-3.3
						C600.7,495.4,599.9,494.9,598.8,495.6"/>
					<path class="st6" d="M606.3,491c-1,0.6-1.8,2.1-1.8,3.3c0,1.2,0.9,1.7,1.9,1c1-0.6,1.8-2.1,1.8-3.3
						C608.2,490.9,607.4,490.4,606.3,491"/>
					<path class="st6" d="M613.8,486.5c-1,0.6-1.8,2.1-1.8,3.3c0,1.2,0.9,1.7,1.9,1c1-0.6,1.8-2.1,1.8-3.3
						C615.7,486.3,614.9,485.9,613.8,486.5"/>
					
						<linearGradient id="SVGID_5_" gradientUnits="userSpaceOnUse" x1="619.5153" y1="79.9184" x2="623.2415" y2="79.9184" gradientTransform="matrix(1 0 0 -1 0 564)">
						<stop  offset="0" style="stop-color:#5fcece"/>
						<stop  offset="1" style="stop-color:#5fcece"/>
					</linearGradient>
					<path class="st14" d="M621.3,481.9c-1,0.6-1.8,2.1-1.8,3.3c0,1.2,0.9,1.7,1.9,1c1-0.6,1.8-2.1,1.8-3.3
						C623.2,481.8,622.4,481.3,621.3,481.9"/>
					<path class="st6" d="M628.8,477.4c-1,0.6-1.8,2.1-1.8,3.3c0,1.2,0.9,1.7,1.9,1c1-0.6,1.8-2.1,1.8-3.3S629.9,476.8,628.8,477.4"
						/>
					<path class="st6" d="M584,512.3c-1,0.6-1.8,2.1-1.8,3.3s0.9,1.7,1.9,1c1-0.6,1.8-2.1,1.8-3.3
						C585.9,512.2,585.1,511.7,584,512.3"/>
					<path class="st2" d="M591.5,507.8c-1,0.6-1.8,2.1-1.8,3.3c0,1.2,0.9,1.7,1.9,1c1-0.6,1.8-2.1,1.8-3.3S592.6,507.2,591.5,507.8"
						/>
					<path class="st6" d="M599,503.2c-1,0.6-1.8,2.1-1.8,3.3c0,1.2,0.9,1.7,1.9,1c1-0.6,1.8-2.1,1.8-3.3
						C600.9,503.1,600.1,502.6,599,503.2"/>
					<path class="st6" d="M606.5,498.7c-1,0.6-1.8,2.1-1.8,3.3c0,1.2,0.9,1.7,1.9,1c1-0.6,1.8-2.1,1.8-3.3
						C608.4,498.5,607.5,498.1,606.5,498.7"/>
					<path class="st6" d="M614,494.1c-1,0.6-1.8,2.1-1.8,3.3c0,1.2,0.9,1.7,1.9,1c1-0.6,1.8-2.1,1.8-3.3
						C615.9,494,615,493.5,614,494.1"/>
					<path class="st6" d="M621.5,489.6c-1,0.6-1.8,2.1-1.8,3.3c0,1.2,0.9,1.7,1.9,1c1-0.6,1.8-2.1,1.8-3.3
						C623.4,489.4,622.5,489,621.5,489.6"/>
					<path class="st8" d="M629,485.1c-1,0.6-1.8,2.1-1.8,3.3c0,1.2,0.9,1.7,1.9,1c1-0.6,1.8-2.1,1.8-3.3
						C630.9,484.9,630,484.4,629,485.1"/>
				</g>
			</g>
		</g>
	</g>
	<path class="st15" d="M654.2,462.2v14.4c0,0.4,0.4,0.6,0.7,0.4l39.1-22.2c0.2-0.1,0.3-0.3,0.3-0.4v-15c0-0.4-0.4-0.6-0.8-0.4
		l-39.1,22.8C654.3,461.8,654.2,462,654.2,462.2z"/>
	<path class="st16" d="M475.6,438.9v27c0,4.2,2.3,8.1,6,10.2l93.3,54.3l0.9-33L475.6,438.9z"/>
	<path class="st17" d="M475.6,438.9l128.4-74l95.5,55.8c1.8,1.1,1.8,3.7,0,4.8l-123.8,71.9L475.6,438.9z"/>
	<path class="st10" d="M574.9,454.9v29.7c0,1.3,1.4,2.2,2.6,1.5L702,413.7c0.5-0.3,0.9-0.9,0.9-1.5v-29.5c0-1.3-1.4-2.2-2.6-1.5
		l-124.5,72.1C575.2,453.7,574.9,454.3,574.9,454.9z"/>
	<g class="st11">
		<g class="st12">
			<g>
				<g class="st13">
					<path class="st6" d="M583.9,460.6c-1,0.6-1.8,2.1-1.8,3.3c0,1.2,0.9,1.7,1.9,1c1-0.6,1.8-2.1,1.8-3.3
						C585.7,460.5,584.9,460,583.9,460.6"/>
					<path class="st6" d="M591.3,456.1c-1,0.6-1.8,2.1-1.8,3.3c0,1.2,0.9,1.7,1.9,1c1-0.6,1.8-2.1,1.8-3.3
						C593.2,455.9,592.4,455.5,591.3,456.1"/>
					
						<linearGradient id="SVGID_6_" gradientUnits="userSpaceOnUse" x1="597.0297" y1="110.3184" x2="600.7558" y2="110.3184" gradientTransform="matrix(1 0 0 -1 0 564)">
						<stop  offset="0" style="stop-color:#5fcece"/>
						<stop  offset="1" style="stop-color:#5fcece"/>
					</linearGradient>
					<path class="st18" d="M598.8,451.5c-1,0.6-1.8,2.1-1.8,3.3c0,1.2,0.9,1.7,1.9,1c1-0.6,1.8-2.1,1.8-3.3
						C600.7,451.4,599.9,450.9,598.8,451.5"/>
					<path class="st6" d="M606.3,447c-1,0.6-1.8,2.1-1.8,3.3c0,1.2,0.9,1.7,1.9,1c1-0.6,1.8-2.1,1.8-3.3
						C608.2,446.8,607.4,446.4,606.3,447"/>
					<path class="st6" d="M613.8,442.5c-1,0.6-1.8,2.1-1.8,3.3c0,1.2,0.9,1.7,1.9,1c1-0.6,1.8-2.1,1.8-3.3
						C615.7,442.3,614.9,441.8,613.8,442.5"/>
					<path class="st6" d="M621.3,437.9c-1,0.6-1.8,2.1-1.8,3.3c0,1.2,0.9,1.7,1.9,1c1-0.6,1.8-2.1,1.8-3.3
						C623.2,437.8,622.4,437.3,621.3,437.9"/>
					<path class="st2" d="M628.8,433.4c-1,0.6-1.8,2.1-1.8,3.3c0,1.2,0.9,1.7,1.9,1c1-0.6,1.8-2.1,1.8-3.3S629.9,432.7,628.8,433.4"
						/>
					<path class="st6" d="M584,468.3c-1,0.6-1.8,2.1-1.8,3.3c0,1.2,0.9,1.7,1.9,1c1-0.6,1.8-2.1,1.8-3.3S585.1,467.7,584,468.3"/>
					<path class="st2" d="M591.5,463.8c-1,0.6-1.8,2.1-1.8,3.3c0,1.2,0.9,1.7,1.9,1c1-0.6,1.8-2.1,1.8-3.3S592.6,463.1,591.5,463.8"
						/>
					<path class="st6" d="M599,459.2c-1,0.6-1.8,2.1-1.8,3.3c0,1.2,0.9,1.7,1.9,1c1-0.6,1.8-2.1,1.8-3.3
						C600.9,459.1,600.1,458.6,599,459.2"/>
					<path class="st6" d="M606.5,454.7c-1,0.6-1.8,2.1-1.8,3.3c0,1.2,0.9,1.7,1.9,1c1-0.6,1.8-2.1,1.8-3.3
						C608.4,454.5,607.5,454,606.5,454.7"/>
					<path class="st6" d="M614,450.1c-1,0.6-1.8,2.1-1.8,3.3c0,1.2,0.9,1.7,1.9,1c1-0.6,1.8-2.1,1.8-3.3
						C615.9,450,615,449.5,614,450.1"/>
					<path class="st6" d="M621.5,445.6c-1,0.6-1.8,2.1-1.8,3.3c0,1.2,0.9,1.7,1.9,1c1-0.6,1.8-2.1,1.8-3.3
						C623.4,445.4,622.5,445,621.5,445.6"/>
					<path class="st6" d="M629,441c-1,0.6-1.8,2.1-1.8,3.3c0,1.2,0.9,1.7,1.9,1c1-0.6,1.8-2.1,1.8-3.3
						C630.9,440.9,630,440.4,629,441"/>
				</g>
			</g>
		</g>
	</g>
	<path class="st15" d="M654.2,418.2v14.4c0,0.4,0.4,0.6,0.7,0.4l39.1-22.2c0.2-0.1,0.3-0.3,0.3-0.4v-15c0-0.4-0.4-0.6-0.8-0.4
		l-39.1,22.8C654.3,417.8,654.2,418,654.2,418.2z"/>
	<path class="st16" d="M475.6,394.8v27c0,4.2,2.3,8.1,6,10.2l93.3,54.3l0.9-33L475.6,394.8z"/>
	<path class="st17" d="M475.6,394.8L604,320.9l95.5,55.8c1.8,1.1,1.8,3.7,0,4.8l-123.8,71.9L475.6,394.8z"/>
	<path class="st10" d="M574.9,411.9v29.7c0,1.3,1.4,2.2,2.6,1.5L702,370.7c0.5-0.3,0.9-0.9,0.9-1.5v-29.5c0-1.3-1.4-2.2-2.6-1.5
		l-124.5,72.1C575.2,410.7,574.9,411.3,574.9,411.9z"/>
	<g class="st11">
		<g class="st12">
			<g>
				<g class="st13">
					<path class="st6" d="M583.9,417.6c-1,0.6-1.8,2.1-1.8,3.3c0,1.2,0.9,1.7,1.9,1c1-0.6,1.8-2.1,1.8-3.3
						C585.7,417.5,584.9,417,583.9,417.6"/>
					<path class="st6" d="M591.3,413.1c-1,0.6-1.8,2.1-1.8,3.3c0,1.2,0.9,1.7,1.9,1c1-0.6,1.8-2.1,1.8-3.3
						C593.2,412.9,592.4,412.5,591.3,413.1"/>
					<path class="st8" d="M598.8,408.5c-1,0.6-1.8,2.1-1.8,3.3c0,1.2,0.9,1.7,1.9,1s1.8-2.1,1.8-3.3
						C600.7,408.4,599.9,407.9,598.8,408.5"/>
					<path class="st6" d="M606.3,404c-1,0.6-1.8,2.1-1.8,3.3c0,1.2,0.9,1.7,1.9,1c1-0.6,1.8-2.1,1.8-3.3
						C608.2,403.8,607.4,403.4,606.3,404"/>
					<path class="st6" d="M613.8,399.4c-1,0.6-1.8,2.1-1.8,3.3c0,1.2,0.9,1.7,1.9,1c1-0.6,1.8-2.1,1.8-3.3
						C615.7,399.3,614.9,398.8,613.8,399.4"/>
					<path class="st6" d="M621.3,394.9c-1,0.6-1.8,2.1-1.8,3.3c0,1.2,0.9,1.7,1.9,1s1.8-2.1,1.8-3.3S622.4,394.3,621.3,394.9"/>
					<path class="st2" d="M628.8,390.4c-1,0.6-1.8,2.1-1.8,3.3c0,1.2,0.9,1.7,1.9,1c1-0.6,1.8-2.1,1.8-3.3S629.9,389.7,628.8,390.4"
						/>
					<path class="st2" d="M584,425.3c-1,0.6-1.8,2.1-1.8,3.3c0,1.2,0.9,1.7,1.9,1c1-0.6,1.8-2.1,1.8-3.3S585.1,424.7,584,425.3"/>
					<path class="st6" d="M591.5,420.7c-1,0.6-1.8,2.1-1.8,3.3c0,1.2,0.9,1.7,1.9,1c1-0.6,1.8-2.1,1.8-3.3
						C593.4,420.6,592.6,420.1,591.5,420.7"/>
					<path class="st6" d="M599,416.2c-1,0.6-1.8,2.1-1.8,3.3c0,1.2,0.9,1.7,1.9,1c1-0.6,1.8-2.1,1.8-3.3
						C600.9,416,600.1,415.6,599,416.2"/>
					<path class="st6" d="M606.5,411.7c-1,0.6-1.8,2.1-1.8,3.3c0,1.2,0.9,1.7,1.9,1c1-0.6,1.8-2.1,1.8-3.3
						C608.4,411.5,607.5,411,606.5,411.7"/>
					<path class="st6" d="M614,407.1c-1,0.6-1.8,2.1-1.8,3.3c0,1.2,0.9,1.7,1.9,1c1-0.6,1.8-2.1,1.8-3.3
						C615.9,406.9,615,406.5,614,407.1"/>
					
						<linearGradient id="SVGID_7_" gradientUnits="userSpaceOnUse" x1="619.7" y1="159.25" x2="623.4261" y2="159.25" gradientTransform="matrix(1 0 0 -1 0 564)">
						<stop  offset="0" style="stop-color:#5fcece"/>
						<stop  offset="1" style="stop-color:#5fcece"/>
					</linearGradient>
					<path class="st19" d="M621.5,402.6c-1,0.6-1.8,2.1-1.8,3.3c0,1.2,0.9,1.7,1.9,1c1-0.6,1.8-2.1,1.8-3.3
						C623.4,402.4,622.5,401.9,621.5,402.6"/>
					<path class="st6" d="M629,398c-1,0.6-1.8,2.1-1.8,3.3c0,1.2,0.9,1.7,1.9,1c1-0.6,1.8-2.1,1.8-3.3
						C630.9,397.9,630,397.4,629,398"/>
				</g>
			</g>
		</g>
	</g>
	<path class="st15" d="M654.2,375.2v14.4c0,0.4,0.4,0.6,0.7,0.4l39.1-22.2c0.2-0.1,0.3-0.3,0.3-0.4v-15c0-0.4-0.4-0.6-0.8-0.4
		l-39.1,22.8C654.3,374.8,654.2,375,654.2,375.2z"/>
	<path class="st16" d="M475.6,351.8v27c0,4.2,2.3,8.1,6,10.2l93.3,54.3l0.9-33L475.6,351.8z"/>
	<g>
		<path class="st20" d="M475.6,351.8L604,277.9l95.5,55.8c1.8,1.1,1.8,3.7,0,4.8l-123.8,71.9L475.6,351.8z"/>
	</g>
</g>
<path class="st21" d="M273.9,195.4v214c0,2.3,2.5,3.8,4.5,2.6l256.2-147.3c0.9-0.5,1.5-1.5,1.5-2.6V48.2c0-2.3-2.5-3.8-4.5-2.6
	L275.4,192.8C274.5,193.3,273.9,194.3,273.9,195.4z"/>
<path class="st22" d="M516,84.8"/>
<path class="st22" d="M516,106.5"/>
<path class="st22" d="M518.7,153.1"/>
<path class="st22" d="M402.4,219.6"/>
<path class="st22" d="M518.7,176.9"/>
<g>
	<line class="st22" x1="486.8" y1="186.8" x2="514.9" y2="170.8"/>
	<line class="st22" x1="443.4" y1="211.7" x2="464.7" y2="199.5"/>
	<polyline class="st22" points="376.5,249.9 398.5,237.3 418.3,226 	"/>
	<polyline class="st22" points="287.5,300.8 321.1,281.6 338.4,271.7 358,260.5 	"/>
</g>
<g>
	<line class="st22" x1="489.6" y1="204.8" x2="516" y2="189.8"/>
	<polyline class="st22" points="433,237.2 454,225.2 471.7,215.1 	"/>
	<line class="st22" x1="385.6" y1="264.3" x2="408.9" y2="251"/>
	<polyline class="st22" points="288.7,319.8 317.4,303.4 337,292.1 364.6,276.4 	"/>
</g>
<g>
	<polyline class="st22" points="468.1,112.2 485.6,102.2 501,93.4 	"/>
	<polyline class="st22" points="413.2,143.7 433.2,132.2 448.3,123.6 	"/>
	<polyline class="st22" points="340.6,185.1 364.4,171.5 383.5,160.6 	"/>
	<g>
		<line class="st22" x1="288.7" y1="214.8" x2="320.8" y2="196.5"/>
		<g>
			<polyline class="st22" points="464.6,146.9 480.5,137.8 498,127.8 516,117.5 			"/>
			<polyline class="st22" points="405,181 428.5,167.6 448.6,156.1 			"/>
			<line class="st22" x1="349.5" y1="212.8" x2="377.7" y2="196.6"/>
			<line class="st22" x1="288.7" y1="247.5" x2="335.5" y2="220.8"/>
		</g>
		<g>
			<line class="st22" x1="469.3" y1="160.3" x2="489.5" y2="148.7"/>
			<line class="st22" x1="419.7" y1="188.6" x2="447.4" y2="172.8"/>
			<line class="st22" x1="348.4" y1="229.4" x2="371.7" y2="216.1"/>
			<polyline class="st22" points="290.3,262.6 317,247.3 329.2,240.4 			"/>
			<line class="st22" x1="384.3" y1="209.5" x2="405.1" y2="197.6"/>
		</g>
		<g>
			<polyline class="st22" points="449.4,139.2 470.6,127.1 484.6,119 			"/>
			<line class="st22" x1="412" y1="160.5" x2="435" y2="147.4"/>
			<polyline class="st22" points="335.1,204.5 345,198.8 372.6,183.1 375.1,181.6 			"/>
			<line class="st22" x1="289.1" y1="230.8" x2="312.1" y2="217.7"/>
			<line class="st22" x1="383.9" y1="176.6" x2="397.4" y2="169.2"/>
		</g>
	</g>
</g>
<g>
	<polyline class="st22" points="468.1,257.6 485.6,247.6 501,238.7 	"/>
	<polyline class="st22" points="413.2,289 433.2,277.5 448.3,268.9 	"/>
	<polyline class="st22" points="340.6,330.5 364.4,316.9 383.5,306 	"/>
	<g>
		<line class="st22" x1="288.7" y1="360.2" x2="320.8" y2="341.8"/>
		<g>
			<polyline class="st22" points="449.4,284.5 470.6,272.4 484.6,264.4 			"/>
			<line class="st22" x1="412" y1="305.9" x2="435" y2="292.7"/>
			<polyline class="st22" points="335.1,349.9 345,344.2 372.6,328.4 375.1,327 			"/>
			<line class="st22" x1="289.1" y1="376.1" x2="312.1" y2="363"/>
			<line class="st22" x1="383.9" y1="321.9" x2="397.4" y2="314.5"/>
		</g>
	</g>
</g>
<g>
	<line class="st22" x1="451.1" y1="248.5" x2="474.1" y2="235.3"/>
	<g>
		<line class="st22" x1="498.9" y1="221.1" x2="516" y2="211.4"/>
		<line class="st22" x1="390.3" y1="283.3" x2="425.8" y2="262.9"/>
		<line class="st22" x1="337" y1="313.7" x2="369.4" y2="295.2"/>
		<line class="st22" x1="288.7" y1="341.4" x2="313.7" y2="327"/>
		<line class="st22" x1="481.3" y1="230.8" x2="489.6" y2="225.8"/>
	</g>
</g>
<g>
	<line class="st22" x1="459.4" y1="182.9" x2="488" y2="166.5"/>
	<line class="st22" x1="405.8" y1="213.5" x2="424.2" y2="203"/>
	<polyline class="st22" points="289.3,280.1 317.2,264.2 333.1,255.1 358.5,240.5 380.4,228 387.8,223.8 	"/>
	<line class="st22" x1="436.1" y1="196.6" x2="449.6" y2="188.7"/>
	<line class="st22" x1="498.4" y1="160.6" x2="510.6" y2="154"/>
</g>
<g>
	<path class="st23" d="M530.6,123.7c3.3,26.4-8.9,59-27.2,72.9c-18.3,13.9-35.9,3.8-39.2-22.6c-3.3-26.4,8.9-59,27.2-72.9
		C509.8,87.2,527.3,97.4,530.6,123.7z"/>
	<path class="st24" d="M544.8,123.4c3.3,26.4-8.9,59-27.2,72.9c-18.3,13.9-35.9,3.8-39.2-22.6c-3.3-26.4,8.9-59,27.2-72.9
		C524,86.9,541.5,97,544.8,123.4z"/>
	<path class="st7" d="M531.3,130.3c0.6,5.2-1.7,11.5-5.3,14.3c-3.6,2.7-7,0.7-7.7-4.4c-0.6-5.2,1.7-11.5,5.3-14.3
		C527.2,123.1,530.7,125.1,531.3,130.3z"/>
</g>
<path class="st23" d="M389.1,212.3l-83.7,49.5c-0.8,0.5-1.4,1.4-1.4,2.4V397l88.8-51.1V214.4C392.8,212.5,390.7,211.4,389.1,212.3z"
	/>
<g>
	
		<linearGradient id="SVGID_8_" gradientUnits="userSpaceOnUse" x1="342.7" y1="254.2906" x2="438.5" y2="254.2906" gradientTransform="matrix(1 0 0 -1 0 564)">
		<stop  offset="0" style="stop-color:#5fcece"/>
		<stop  offset="1" style="stop-color:#5fcece"/>
	</linearGradient>
	<path class="st25" d="M438.5,349.7c0,2.1-1.1,4.1-3,5.1l-91,51.2c-0.8,0.5-1.8-0.1-1.8-1.1V269.4c0-1,0.5-1.9,1.4-2.4l90.7-53.4
		c1.6-1,3.7,0.2,3.7,2.1V349.7z"/>
	<g>
		<g>
			<path class="st7" d="M397.9,273.5c3.8-2.1,5.7,0.1,5.7,6.4v14.5c0,6.8,1.8,9.8,5.5,9.2v0.2c-3.7,3.5-5.5,8.6-5.5,15.4v14.3
				c0,3.7-0.4,6.6-1.3,8.6s-2.4,3.7-4.4,4.9v6c7.3-4.4,10.9-11.4,10.9-21.2V317c0-6.6,1.9-11.2,5.7-13.7v-5.5
				c-3.8,1.9-5.7-0.5-5.7-7.3V276c0-10-3.6-12.9-10.9-8.8L397.9,273.5L397.9,273.5z"/>
			<path class="st7" d="M371.1,326.3L371.1,326.3c3.8-1.9,5.7,0.5,5.7,7.1v14.8c0,9.8,3.6,12.7,10.9,8.6v-6
				c-2.1,1.2-3.6,1.3-4.5,0.2c-0.9-1.1-1.3-3.4-1.3-7.1v-14.3c0-6.8-1.8-9.9-5.4-9.2v-0.2c3.6-3.6,5.4-8.7,5.4-15.5v-14.6
				c0-6.3,2-10.7,5.9-13.1v-6.1c-7.3,4.3-10.9,11.5-10.9,21.4V307c0,6.7-1.9,11.3-5.7,13.8v5.5H371.1z"/>
		</g>
	</g>
</g>
<g class="st26">
	<g>
		<linearGradient id="SVGID_9_" gradientUnits="userSpaceOnUse" x1="9.3867" y1="286.9375" x2="81.6133" y2="286.9375">
			<stop  offset="0" style="stop-color:#000000"/>
			<stop  offset="0.9958" style="stop-color:#000000;stop-opacity:0"/>
		</linearGradient>
		<path class="st27" d="M48.5,308L9.8,285.7c-0.5-0.3-0.6-1.1,0-1.4l31.8-18.5c0.3-0.1,0.6-0.1,0.8,0L81.2,288
			c0.5,0.3,0.6,1.1,0,1.4L49.3,308C49.1,308.2,48.8,308.2,48.5,308z"/>
	</g>
</g>
<g>
	<g>
		<g>
			<polygon class="st16" points="59.3,290.3 18.9,267 52.4,247.5 92.8,270.8 			"/>
		</g>
		<g>
			<polygon class="st16" points="67.1,277.3 67.1,280.2 41.4,265.4 28.9,272.7 28.9,267 18.9,267 18.9,278.4 19,278.4 18.9,278.4 
				59.3,301.7 92.8,282.3 92.8,270.8 			"/>
		</g>
	</g>
</g>
<polygon class="st28" points="67.1,277.3 67.1,280.2 41.4,265.4 28.9,272.7 28.9,267 18.9,267 18.9,278.4 19,278.4 18.9,278.4 
	59.3,301.7 92.8,282.3 92.8,270.8 "/>
<polygon class="st17" points="59.3,290.3 18.9,267 52.4,247.5 92.8,270.8 "/>
<polygon class="st28" points="59.3,290.3 18.9,267 52.4,247.5 92.8,270.8 "/>
<g>
	<path class="st29" d="M361,481.5l-38.7-22.4c-0.5-0.3-0.6-1.1,0-1.4l31.8-18.5c0.3-0.1,0.6-0.1,0.8,0l38.7,22.4
		c0.5,0.3,0.6,1.1,0,1.4l-31.8,18.5C361.6,481.6,361.3,481.6,361,481.5z"/>
</g>
<g>
	<g>
		<g>
			<polygon class="st16" points="371.8,463.8 331.4,440.5 364.9,421 405.3,444.3 			"/>
		</g>
		<g>
			<polygon class="st16" points="379.6,450.8 379.6,453.7 353.9,438.9 341.4,446.1 341.4,440.5 331.4,440.5 331.4,451.9 
				331.5,451.9 331.4,451.9 371.8,475.2 405.3,455.7 405.3,444.3 			"/>
		</g>
	</g>
</g>
<polygon class="st17" points="371.8,463.8 331.4,440.5 364.9,421 405.3,444.3 "/>
<polygon class="st28" points="377.6,470.6 337.2,447.3 370.7,427.8 411.1,451.1 "/>
<g class="st26">
	<g>
		<linearGradient id="SVGID_10_" gradientUnits="userSpaceOnUse" x1="729.0867" y1="367.75" x2="801.2133" y2="367.75">
			<stop  offset="0" style="stop-color:#000000"/>
			<stop  offset="0.9958" style="stop-color:#000000;stop-opacity:0"/>
		</linearGradient>
		<path class="st30" d="M768.2,388.9l-38.7-22.4c-0.5-0.3-0.6-1.1,0-1.4l31.8-18.5c0.3-0.1,0.6-0.1,0.8,0l38.7,22.4
			c0.5,0.3,0.6,1.1,0,1.4L769,388.9C768.8,389,768.4,389,768.2,388.9z"/>
	</g>
</g>
<g>
	<g>
		<g>
			<polygon class="st16" points="779,371.2 738.6,347.8 772.1,328.4 812.5,351.7 			"/>
		</g>
		<g>
			<polygon class="st16" points="786.7,358.2 786.7,361.1 761.1,346.3 748.6,353.5 748.6,347.8 738.6,347.8 738.6,359.3 
				738.6,359.3 738.6,359.3 779,382.6 812.5,363.1 812.5,351.7 			"/>
		</g>
	</g>
</g>
<polygon class="st28" points="786.7,358.2 786.7,361.1 761.1,346.3 748.6,353.5 748.6,347.8 738.6,347.8 738.6,359.3 738.6,359.3 
	738.6,359.3 779,382.6 812.5,363.1 812.5,351.7 "/>
<polygon class="st17" points="779,371.2 738.6,347.8 772.1,328.4 812.5,351.7 "/>
<polygon class="st28" points="779,371.2 738.6,347.8 772.1,328.4 812.5,351.7 "/>
<path class="st26" d="M696.9,416.8l4.2-2.5c1.1-0.6,1.8-1.8,1.8-3.1V396l-32,18.8c-1.4,0.8-2.2,2.3-2.2,4l1.1,58l33.1-20.6v-29.5
	c0-1.1-1.6-1.8-2.6-1.5l0.5-1.6c0.1-1.7-1.2-2.5-2.6-3.5l-3.5-2.2L696.9,416.8z"/>
<path class="st8" d="M757.9,451.6l-61.2,35.5c-2.4,1.4-5.3-0.3-5.3-3.1v-65.2c0-1.3,0.7-2.4,1.8-3.1l61.2-35.5
	c2.4-1.4,5.3,0.3,5.3,3.1v65.2C759.7,449.8,759,451,757.9,451.6z"/>
<g>
	<g class="st12">
		<g>
			<defs>
				<polygon id="SVGID_11_" points="709.4,457.7 709.3,432.5 748.7,409.7 748.8,434.9 				"/>
			</defs>
			<clipPath id="SVGID_12_">
				<use xlink:href="#SVGID_11_"  style="overflow:visible;"/>
			</clipPath>
			<g class="st31">
				<polyline class="st7" points="720.6,430.6 709.3,443.1 709.4,446.1 720.7,445.6 720.7,442.4 712.2,442.9 720.6,433.7 
					720.6,430.6 				"/>
				<polyline class="st7" points="735.4,417.4 733,418.8 722.3,450.2 724.8,448.8 735.4,417.4 				"/>
				<polyline class="st7" points="737.4,420.9 737.4,424.1 745.9,423.5 737.4,432.8 737.4,435.9 748.7,423.3 748.7,420.4 
					737.4,420.9 				"/>
			</g>
		</g>
	</g>
</g>
</svg>
