<?xml version="1.0" encoding="utf-8"?>
<!-- Generator: Adobe Illustrator 21.1.0, SVG Export Plug-In . SVG Version: 6.00 Build 0)  -->
<svg version="1.1" id="App" xmlns="http://www.w3.org/2000/svg" xmlns:xlink="http://www.w3.org/1999/xlink" x="0px" y="0px"
	 viewBox="0 0 957.3 530.3" style="enable-background:new 0 0 957.3 530.3;" xml:space="preserve">
<style type="text/css">
	.st0{opacity:7.000000e-02;fill:#2A3C67;enable-background:new    ;}
	.st1{fill:#2A3C67;stroke:#2A3C67;stroke-width:7;stroke-linecap:round;stroke-miterlimit:10;}
	.st2{opacity:0.13;fill:url(#SVGID_1_);enable-background:new    ;}
	.st3{fill:url(#SVGID_2_);}
	.st4{fill:#2A3C67;}
	.st5{fill:#FFE269;}
	.st6{opacity:0.3;fill:#969696;enable-background:new    ;}
	.st7{fill:#556B99;}
	.st8{fill:#FFFFFF;}
	.st9{opacity:9.000000e-02;fill:#2A3C67;enable-background:new    ;}
	.st10{fill:#e53b51;}
	.st11{opacity:0.13;fill:url(#SVGID_3_);enable-background:new    ;}
	.st12{fill:url(#SVGID_4_);}
	.st13{opacity:0.3;fill:url(#SVGID_5_);enable-background:new    ;}
	.st14{opacity:0.9;fill:#2A3C67;enable-background:new    ;}
	.st15{fill:url(#SVGID_6_);}
	.st16{opacity:0.17;fill:#0F0F0F;enable-background:new    ;}
	.st17{enable-background:new    ;}
	.st18{fill:#9DCC4A;}
	.st19{fill:#28B4E5;}
	.st20{opacity:0.4;fill:url(#SVGID_7_);enable-background:new    ;}
	.st21{opacity:0.97;fill:#556B99;enable-background:new    ;}
	.st22{fill:none;}
	.st23{opacity:0.56;fill:#C8D4E8;enable-background:new    ;}
	.st24{opacity:0.56;}
	.st25{fill:#C8D4E8;}
	.st26{opacity:0.5;fill:#FFFFFF;enable-background:new    ;}
	.st27{opacity:0.13;fill:url(#SVGID_8_);enable-background:new    ;}
	.st28{fill:#C6AC91;}
	.st29{fill:#5B5B2E;}
	.st30{fill:#C6CC48;}
	.st31{opacity:0.13;fill:url(#SVGID_9_);enable-background:new    ;}
	.st32{opacity:0.13;fill:url(#SVGID_10_);enable-background:new    ;}
	.st33{opacity:0.13;fill:url(#SVGID_11_);enable-background:new    ;}
</style>
<path class="st0" d="M825.6,366.5c0.2,0,0.4-0.1,0.5-0.3l84.9-48.5L726,210.9c-0.1-0.2-0.3-0.3-0.5-0.3L683,186.1V186
	c-0.2-0.4-0.6-0.5-1-0.5l-19.4-11.2c0-0.1,0-0.3-0.1-0.4c-0.3-0.5-0.8-0.6-1.3-0.4L620.4,150c-0.1-0.1-0.3-0.2-0.5-0.3l-40.7-23.5
	l0,0c-0.2-0.3-0.5-0.5-0.9-0.5L559.7,115v-0.1c-0.2-0.4-0.6-0.6-1-0.5l-20.8-12l0,0c-0.2-0.3-0.5-0.5-0.9-0.5l-19.8-11.4
	c0,0,0,0,0-0.1c-0.2-0.3-0.6-0.5-0.9-0.5l-83.5-48.2L410,54.8l-0.4-0.2c-0.5-0.3-1.1-0.1-1.4,0.4c-0.2,0.3-0.2,0.6,0,0.9l-17.9,10.3
	c-0.5-0.2-1-0.1-1.3,0.4c-0.1,0.1-0.1,0.3-0.1,0.4l-62.3,35.9l0,0c-0.5-0.3-1.1-0.1-1.4,0.4c-0.1,0.2-0.1,0.3-0.1,0.5L305.7,115
	c-0.4-0.1-0.9,0.1-1.1,0.5c0,0.1-0.1,0.2-0.1,0.2L286.3,126l0,0c-0.5-0.3-1.1-0.1-1.4,0.4c-0.1,0.2-0.1,0.3-0.1,0.5L265,138.2
	c-0.4-0.2-1,0-1.2,0.4c-0.1,0.1-0.1,0.2-0.1,0.3l-19.6,11.3l-0.3-0.1c-0.5-0.3-1.1-0.1-1.4,0.4c-0.1,0.2-0.2,0.5-0.1,0.8l-19.7,11.4
	c-0.4-0.1-0.8,0.1-1.1,0.5c0,0.1,0,0.1-0.1,0.2l-18.5,10.7l-1.2-0.7c-0.5-0.3-1.1-0.1-1.4,0.4c-0.3,0.5-0.1,1.1,0.4,1.4l0.1,0.1
	L182.2,186l-1.2-0.7c-0.5-0.3-1.1-0.1-1.4,0.4c-0.3,0.5-0.1,1.1,0.4,1.4l0.2,0.1l-20.1,11.5l-0.7-0.4c-0.5-0.3-1.1-0.1-1.4,0.4
	c-0.2,0.4-0.1,0.9,0.2,1.2l-17.4,10l-0.7-0.4c-0.5-0.3-1.1-0.1-1.4,0.4c-0.2,0.4-0.1,0.9,0.2,1.2l-18.6,10.7l-0.6-0.4
	c-0.5-0.3-1.1-0.1-1.4,0.4c-0.2,0.4-0.2,0.8,0.1,1.1l-18.9,10.9h-0.1c-0.5-0.3-1.1-0.1-1.4,0.4c-0.1,0.2-0.1,0.4-0.1,0.6l-21.7,12.5
	l43.6,25.3l0,0l19.6,11.4c-0.2,0.3-0.2,0.7,0,1s0.5,0.5,0.9,0.5c0.2,0,0.3,0,0.5-0.1l0.5-0.3L242,342.7c0,0.2,0,0.3,0.1,0.5
	c0.2,0.3,0.5,0.5,0.9,0.5c0.2,0,0.3,0,0.5-0.1l0,0l39.1,22.6c0.1,0.1,0.3,0.2,0.5,0.3l62.5,36.2c0,0.1,0.1,0.3,0.1,0.4
	c0.2,0.3,0.5,0.5,0.9,0.5c0.1,0,0.3,0,0.4-0.1l40.5,23.4c-0.1,0.3-0.2,0.6,0,0.9s0.5,0.5,0.9,0.5c0.2,0,0.3,0,0.5-0.1l0.5-0.3
	l120.3,69.7c0.1,0.1,0.3,0.2,0.5,0.3l42,24.3l0.5,0.3l24-13.7l0,0L825.6,366.5z M532.2,508.5L512.4,497l21.3-12.2l19.8,11.4l-21,12
	C532.4,508.3,532.3,508.4,532.2,508.5z M492.9,485.7l21.2-12.1l17.6,10.1l-21.3,12.2L492.9,485.7z M473.1,474.3l21.1-12.1l17.8,10.2
	l-20.9,11.9c-0.1,0.1-0.2,0.2-0.3,0.3L473.1,474.3z M452.5,462.3l21-12l18.7,10.8l-21.1,12.1L452.5,462.3z M431.5,450.1l20.9-12
	l19.1,11l-21,12L431.5,450.1z M410.9,438.2l20.9-11.9l18.7,10.7l-20.9,12L410.9,438.2z M370.9,415.1l20.7-11.8l18.4,10.6l-20.8,11.9
	L370.9,415.1z M349,402.4l20.6-11.8l20,11.5l-20.4,11.6c-0.1,0.1-0.2,0.1-0.2,0.2L349,402.4z M327.7,390.1l20.5-11.7l19.4,11.1
	L347,401.2L327.7,390.1z M265.6,354.1l20.2-11.5l17.8,10.2l-20.3,11.6L265.6,354.1z M224.2,330.1l20-11.4l19.4,11.2l-20.1,11.5
	L224.2,330.1z M204.6,318.8l19.9-11.4l17.6,10.1l-19.8,11.3c-0.1,0-0.1,0.1-0.1,0.1L204.6,318.8z M183,306.2l19.8-11.3l19.8,11.3
	l-19.7,11.2c-0.1,0-0.1,0.1-0.2,0.2L183,306.2z M162.3,294.3L182,283l18.7,10.7L181,305c0,0,0,0-0.1,0.1L162.3,294.3z M122.5,271.2
	l19.6-11.2l19.1,11l-19.6,11.2L122.5,271.2z M100.7,258.6l19.5-11.1l19.8,11.4l-19.5,11.2L100.7,258.6z M244.2,152.5l19.1,10.9
	l-19.5,11.1l-19-10.9L244.2,152.5z M265.3,164.6l19.8,11.4l-19.5,11.1l-19.8-11.4L265.3,164.6z M286.3,128.3l19.2,11l-19.3,11
	l-19.2-11L286.3,128.3z M307.6,140.5l19.8,11.4l-19.3,11l-19.8-11.4L307.6,140.5z M326.6,105.1l19.4,11.1L327.1,127l-19.4-11
	L326.6,105.1z M348,117.4l19.8,11.4l-18.9,10.8l-19.8-11.4L348,117.4z M368.5,81L388,92.2l-18.6,10.6L350,91.6L368.5,81z
	 M390.3,68.4L410,79.7L390.1,91l-19.6-11.2L390.3,68.4z M410,57.1l19.7,11.3L412,78.5l-19.6-11.3L410,57.1z M474.4,67.9l-20.8,11.9
	l-19.8-11.4l20.9-11.9L474.4,67.9z M495.4,80.1L474.6,92l-19.1-11l20.8-11.9L495.4,80.1z M534.9,102.9l-20.7,11.8L495.5,104
	l20.7-11.8L534.9,102.9z M556.6,115.4L536,127.2l-19.8-11.3l20.7-11.8L556.6,115.4z M576.2,126.7l-20.5,11.7L538,128.3l20.6-11.8
	L576.2,126.7z M597.6,139.1l-20.5,11.7l-19.4-11.2l20.5-11.7L597.6,139.1z M637.5,162.1l-20.4,11.6l-17.8-10.2l20.4-11.7
	L637.5,162.1z M659.2,174.6l-20.3,11.6l-19.8-11.3l20.2-11.5l0.1-0.1L659.2,174.6z M679.9,186.6l-20.2,11.6l-18.8-10.8l20.3-11.6
	L679.9,186.6z M701.2,198.9L681,210.4l-19.4-11.1l20.2-11.6L701.2,198.9z M743.6,223.4c-0.1,0-0.2,0-0.3,0.1l-19.8,11.3l-18.4-10.6
	l20.1-11.5L743.6,223.4z M783.8,246.6L763.9,258l-18.7-10.7l19.9-11.4c0,0,0,0,0.1,0L783.8,246.6z M804.9,258.7L785,270.1l-19.1-11
	l19.6-11.2c0.1,0,0.2-0.1,0.2-0.2L804.9,258.7z M825.6,270.7L805.8,282L787,271.2l19.7-11.2c0.1,0,0.1-0.1,0.1-0.1L825.6,270.7z
	 M845.4,282.1l-19.7,11.3l-17.8-10.2l19.4-11.1c0.1-0.1,0.2-0.2,0.3-0.3L845.4,282.1z M864.9,293.4l-19.7,11.2l-17.6-10.1l19.7-11.3
	L864.9,293.4z M867.7,340.1c-0.1-0.1-0.1-0.1-0.2-0.2l-18.1-10.4l17.7-10.1l18.4,10.6L867.7,340.1z M845.9,352.6L827.5,342
	l19.9-11.3l18.4,10.6L845.9,352.6z M825.3,364.4l-18.4-10.6l18.6-10.6l18.4,10.6L825.3,364.4z M803.8,376.7l-0.1-0.1l-18.3-10.5
	l19.5-11.2l18.4,10.6L803.8,376.7z M782.9,388.6L764.4,378l18.9-10.8l18.4,10.6L782.9,388.6z M763.4,399.8
	C763.4,399.7,763.4,399.7,763.4,399.8L745,389.2l17.5-10l18.5,10.6L763.4,399.8z M742.1,411.9l-18.5-10.6l19.3-11l18.5,10.6
	L742.1,411.9z M721.1,424l-0.1-0.1l-18.3-10.5l19-10.8l18.5,10.6L721.1,424z M699.7,436.2l-18.5-10.6l19.5-11.1l18.5,10.6
	L699.7,436.2z M637,472.1c-0.1-0.1-0.2-0.2-0.3-0.3l-18.2-10.4l20.1-11.5l18.5,10.6L637,472.1z M617.6,483.1
	c-0.1-0.1-0.1-0.2-0.2-0.2l-18.2-10.5l17.4-9.9l18.5,10.6L617.6,483.1z M597,494.9C597,494.9,597,494.8,597,494.9l-18.5-10.7
	l18.6-10.6l18.5,10.6L597,494.9z M433.8,93.4l19.1,11L433,115.7l-19.1-11L433.8,93.4z M411.9,103.6l-19.8-11.4L412,80.8l19.8,11.4
	L411.9,103.6z M557.7,306.1l-20-11.5l19.3-11l20,11.5L557.7,306.1z M579,296.2l18.4,10.6l-19.3,11l-18.4-10.6L579,296.2z
	 M535.7,293.5l-19.4-11.1l19.3-11l19.4,11.1L535.7,293.5z M514.3,281.2l-18.8-10.8l19.3-11l18.8,10.8L514.3,281.2z M493.5,269.3
	L473.7,258l19.3-11l19.8,11.3L493.5,269.3z M471.7,256.8l-17.8-10.2l19.3-11l17.8,10.2L471.7,256.8z M451.8,245.4L433.7,235l19.3-11
	l18.1,10.4L451.8,245.4z M449.8,246.5l-19,10.8L412.7,247l19-10.8L449.8,246.5z M451.8,247.7l17.8,10.2l-19,10.8l-17.8-10.2
	L451.8,247.7z M471.7,259.1l19.8,11.3l-19,10.8l-19.8-11.3L471.7,259.1z M493.5,271.6l18.8,10.8l-19,10.8l-18.8-10.8L493.5,271.6z
	 M514.3,283.5l19.4,11.1l-19,10.8l-19.4-11.1L514.3,283.5z M535.6,295.8l20,11.5l-19,10.8l-20-11.5L535.6,295.8z M557.7,308.4
	l18.4,10.6l-19,10.8l-18.4-10.6L557.7,308.4z M578.1,320.2l17.7,10.1l-19,10.8L559.2,331L578.1,320.2z M597.8,331.5l18.7,10.7
	l-19,10.8l-18.7-10.7L597.8,331.5z M599.8,330.3l19.3-11l18.7,10.7l-19.3,11L599.8,330.3z M597.8,329.1L580.2,319l19.3-11l17.7,10.1
	L597.8,329.1z M601.5,306.8l17.5-10l17.7,10.1l-17.5,10L601.5,306.8z M599.5,305.7l-18.4-10.6l17.5-10l18.4,10.6L599.5,305.7z
	 M579,293.9l-20-11.5l17.5-10l20,11.5L579,293.9z M557,281.3l-19.4-11.1l17.5-10l19.4,11.1L557,281.3z M535.6,269l-18.8-10.8
	l17.5-10l18.8,10.8L535.6,269z M514.8,257.1L495,245.8l17.5-10l19.8,11.3L514.8,257.1z M493,244.6l-17.8-10.2l17.5-10l17.8,10.2
	L493,244.6z M473.2,233.2l-18.1-10.4l17.5-10l18.1,10.4L473.2,233.2z M453,221.6l-19.4-11.2l17.5-10l19.4,11.2L453,221.6z
	 M451,222.8l-19.3,11l-19.4-11.2l19.3-11L451,222.8z M429.7,235l-19,10.8l-19.4-11.2l19-10.8L429.7,235z M408.7,247l-19.5,11.1
	l-19.4-11.2l19.5-11.1L408.7,247z M410.7,248.1l18.1,10.4l-19.5,11.1l-18.1-10.4L410.7,248.1z M430.8,259.7l17.8,10.2L429.2,281
	l-17.8-10.2L430.8,259.7z M450.7,271.1l19.8,11.3L451,293.5l-19.8-11.3L450.7,271.1z M472.5,283.6l18.8,10.8l-19.5,11.1L453,294.7
	L472.5,283.6z M493.3,295.5l19.4,11.1l-19.5,11.1l-19.4-11.1L493.3,295.5z M514.7,307.8l20,11.5l-19.5,11.1l-20-11.5L514.7,307.8z
	 M536.7,320.4l18.4,10.6l-19.5,11.1l-18.4-10.6L536.7,320.4z M557.1,332.1l17.7,10.1l-19.5,11.1l-17.7-10.1L557.1,332.1z
	 M576.8,343.4l18.7,10.7L576,365.3l-18.7-10.7L576.8,343.4z M597.5,355.3l19.1,11l-19.5,11.1l-19.1-11L597.5,355.3z M599.5,354.2
	l19-10.8l19.1,11l-19,10.8L599.5,354.2z M620.5,342.2l19.3-11l19.1,11l-19.3,11L620.5,342.2z M641.9,330l17.5-10l19.1,11L661,341
	L641.9,330z M639.8,328.8l-18.7-10.7l17.5-10l18.7,10.7L639.8,328.8z M640.6,307l18.9-10.8l18.7,10.7l-18.9,10.8L640.6,307z
	 M638.6,305.8L621,295.7l18.9-10.8l17.7,10.1L638.6,305.8z M618.9,294.5L600.5,284l18.9-10.8l18.4,10.6L618.9,294.5z M598.5,282.8
	l-20-11.5l18.9-10.8l20,11.5L598.5,282.8z M576.5,270.2L557.1,259l18.9-10.8l19.4,11.1L576.5,270.2z M555.1,257.9l-18.8-10.8
	l18.9-10.8l18.8,10.8L555.1,257.9z M534.3,246l-19.8-11.3l18.9-10.8l19.8,11.3L534.3,246z M512.5,233.5l-17.8-10.2l18.9-10.8
	l17.8,10.2L512.5,233.5z M492.7,222.1l-18.1-10.4l18.9-10.8l18.1,10.4L492.7,222.1z M472.5,210.5l-19.4-11.2l18.9-10.8l19.4,11.2
	L472.5,210.5z M451.1,198.2l-17.6-10.1l18.9-10.8l17.6,10.1L451.1,198.2z M449,199.3l-17.5,10L414,199.2l17.5-10L449,199.3z
	 M429.6,210.5l-19.3,11l-17.6-10.1l19.3-11L429.6,210.5z M408.2,222.7l-19,10.8l-17.6-10.1l19-10.8L408.2,222.7z M387.2,234.6
	l-19.5,11.1l-17.6-10.1l19.5-11.1L387.2,234.6z M365.8,246.9L348,257.1L330.4,247l17.8-10.1L365.8,246.9z M367.8,248.1l19.4,11.2
	l-17.8,10.1L350,258.2L367.8,248.1z M389.2,260.4l18.1,10.4l-17.8,10.1l-18.1-10.4L389.2,260.4z M409.4,271.9l17.8,10.2l-17.8,10.1
	L391.6,282L409.4,271.9z M429.2,283.3l19.8,11.3l-17.8,10.1l-19.8-11.3L429.2,283.3z M451,295.8l18.8,10.8L452,316.8L433.3,306
	L451,295.8z M471.8,307.8l19.4,11.1L473.4,329L454,317.9L471.8,307.8z M493.2,320l20,11.5l-17.8,10.1l-20-11.5L493.2,320z
	 M515.2,332.7l18.4,10.6l-17.8,10.1l-18.4-10.6L515.2,332.7z M535.7,344.4l17.7,10.1l-17.8,10.1l-17.7-10.1L535.7,344.4z
	 M555.4,355.7l18.7,10.7l-17.8,10.1l-18.7-10.7L555.4,355.7z M576,367.6l19.1,11l-17.8,10.1l-19.1-11L576,367.6z M597.1,379.7
	l18.7,10.8L598,400.6l-18.7-10.8L597.1,379.7z M599.2,378.5l19.5-11.1l18.7,10.8l-19.5,11.1L599.2,378.5z M620.6,366.3l19-10.8
	l18.7,10.8l-19,10.8L620.6,366.3z M641.6,354.3l19.3-11l18.7,10.8l-19.3,11L641.6,354.3z M663,342.1l17.5-10l18.7,10.8l-17.5,10
	L663,342.1z M682.4,331l18.9-10.8L720,331l-18.9,10.8L682.4,331z M680.4,329.8l-19.1-11l18.9-10.8l19.1,11L680.4,329.8z
	 M682.2,306.9l19.5-11.2l19.1,11l-19.5,11.2L682.2,306.9z M680.2,305.8l-18.7-10.7l19.5-11.2l18.7,10.7L680.2,305.8z M659.5,293.9
	l-17.7-10.1l19.5-11.2l17.7,10.1L659.5,293.9z M639.9,282.6L621.4,272l19.5-11.2l18.4,10.6L639.9,282.6z M619.4,270.9l-20-11.5
	l19.5-11.2l20,11.5L619.4,270.9z M597.4,258.2L578,247.1l19.5-11.2l19.4,11.1L597.4,258.2z M576,246l-18.8-10.8l19.5-11.2l18.8,10.8
	L576,246z M555.2,234l-19.8-11.3l19.5-11.2l19.8,11.3L555.2,234z M533.4,221.5l-17.8-10.2l19.5-11.2l17.8,10.2L533.4,221.5z
	 M513.6,210.1l-18.1-10.4l19.5-11.2l18.1,10.4L513.6,210.1z M493.4,198.6L474,187.4l19.5-11.2l19.4,11.2L493.4,198.6z M472,186.3
	l-17.6-10.1l19.5-11.2l17.6,10.1L472,186.3z M452.3,175l-19.8-11.3l19.5-11.2l19.8,11.3L452.3,175z M450.3,176.1l-18.9,10.8
	l-19.8-11.3l18.9-10.8L450.3,176.1z M429.4,188.1l-17.5,10l-19.8-11.3l17.5-10L429.4,188.1z M409.9,199.2l-19.3,11l-19.8-11.3
	l19.3-11L409.9,199.2z M388.6,211.4l-19,10.8l-19.8-11.3l19-10.8L388.6,211.4z M367.6,223.4l-19.5,11.1l-19.8-11.3l19.5-11.1
	L367.6,223.4z M346.1,235.6l-17.8,10.1l-19.8-11.3l17.8-10.1L346.1,235.6z M326.4,246.9l-18.7,10.7l-19.8-11.3l18.7-10.7
	L326.4,246.9z M328.4,248.1l17.6,10.1l-18.7,10.7l-17.6-10.1L328.4,248.1z M348,259.4l19.4,11.2l-18.7,10.7L329.3,270L348,259.4z
	 M369.5,271.7l18.1,10.4l-18.7,10.7l-18.1-10.4L369.5,271.7z M389.6,283.2l17.8,10.2l-18.7,10.7l-17.8-10.2L389.6,283.2z
	 M409.5,294.6l19.8,11.3l-18.7,10.7l-19.8-11.3L409.5,294.6z M431.2,307.1l18.8,10.8l-18.7,10.7l-18.8-10.8L431.2,307.1z M452,319.1
	l19.4,11.1l-18.7,10.7l-19.4-11.1L452,319.1z M473.4,331.3l20,11.5l-18.7,10.7l-20-11.5L473.4,331.3z M495.5,344l18.4,10.6
	l-18.7,10.7l-18.4-10.6L495.5,344z M515.9,355.7l17.7,10.1l-18.7,10.7l-17.7-10.1L515.9,355.7z M535.6,367l18.7,10.7l-18.7,10.7
	l-18.7-10.7L535.6,367z M556.3,378.9l19.1,11l-18.7,10.7l-19.1-11L556.3,378.9z M577.4,391l18.7,10.8l-18.7,10.7l-18.7-10.8
	L577.4,391z M598.1,402.9l17.8,10.2l-18.7,10.7l-17.8-10.2L598.1,402.9z M600.1,401.7l17.8-10.1l17.8,10.2L618,412L600.1,401.7z
	 M619.9,390.4l19.5-11.1l17.8,10.2l-19.5,11.1L619.9,390.4z M641.4,378.2l19-10.8l17.8,10.2l-19,10.8L641.4,378.2z M662.4,366.2
	l19.3-11l17.8,10.2l-19.3,11L662.4,366.2z M683.7,354l17.5-10l17.8,10.2l-17.5,10L683.7,354z M703.2,342.9l18.9-10.8l17.8,10.2
	L721,353.1L703.2,342.9z M724.1,330.9l19.5-11.2l17.8,10.2l-19.5,11.2L724.1,330.9z M722.1,329.8L703.3,319l19.5-11.2l18.7,10.8
	L722.1,329.8z M724.9,306.7l18.6-10.6l18.7,10.8l-18.6,10.6L724.9,306.7z M722.9,305.6l-19.1-11l18.6-10.6l19.1,11L722.9,305.6z
	 M701.8,293.4l-18.7-10.7l18.6-10.6l18.7,10.7L701.8,293.4z M681.1,281.6l-17.7-10.1l18.6-10.6l17.7,10.1L681.1,281.6z M661.4,270.3
	L643,259.7l18.6-10.6l18.4,10.6L661.4,270.3z M641,258.6l-20-11.5l18.6-10.6l20,11.5L641,258.6z M618.9,245.9l-19.4-11.1l18.6-10.6
	l19.4,11.1L618.9,245.9z M597.5,233.6l-18.8-10.8l18.6-10.6l18.8,10.8L597.5,233.6z M576.7,221.7L557,210.4l18.6-10.6l19.8,11.3
	L576.7,221.7z M555,209.2L537.1,199l18.6-10.6l17.8,10.2L555,209.2z M535.1,197.8L517,187.4l18.6-10.6l18.1,10.4L535.1,197.8z
	 M515,186.3l-19.4-11.2l18.6-10.6l19.4,11.2L515,186.3z M493.5,173.9l-17.6-10.1l18.6-10.6l17.6,10.1L493.5,173.9z M473.9,162.7
	l-19.8-11.3l18.6-10.6l19.8,11.3L473.9,162.7z M452.1,150.2l-18.7-10.7l18.6-10.6l18.7,10.7L452.1,150.2z M450.1,151.3l-19.5,11.2
	l-18.7-10.7l19.5-11.2L450.1,151.3z M428.6,163.7l-18.9,10.8L391,163.8l18.9-10.8L428.6,163.7z M407.7,175.6l-17.5,10l-18.7-10.7
	l17.5-10L407.7,175.6z M388.2,186.7l-19.3,11L350.1,187l19.3-11L388.2,186.7z M366.8,198.9l-19,10.8L329.1,199l19-10.8L366.8,198.9z
	 M345.8,210.9L326.4,222l-18.7-10.7l19.5-11.1L345.8,210.9z M324.4,223.2l-17.8,10.1l-18.7-10.7l17.8-10.1L324.4,223.2z
	 M304.6,234.5l-18.7,10.7l-18.7-10.7l18.7-10.7L304.6,234.5z M283.9,246.3l-20.1,11.5L245,247l20.1-11.5L283.9,246.3z M285.9,247.4
	l19.8,11.3l-20.1,11.5l-19.8-11.3L285.9,247.4z M307.7,259.9l17.6,10.1l-20.1,11.5l-17.6-10.1L307.7,259.9z M327.3,271.2l19.4,11.2
	l-20.1,11.5l-19.4-11.2L327.3,271.2z M348.7,283.5l18.1,10.4l-20.1,11.5L328.6,295L348.7,283.5z M368.9,295.1l17.8,10.2l-20.1,11.5
	l-17.8-10.2L368.9,295.1z M388.7,306.5l19.8,11.3l-20.1,11.5L368.6,318L388.7,306.5z M410.5,319l18.8,10.8l-20.1,11.5l-18.8-10.8
	L410.5,319z M431.3,330.9l19.4,11.1l-20.1,11.5l-19.4-11.1L431.3,330.9z M452.7,343.2l20,11.5l-20.1,11.5l-20-11.5L452.7,343.2z
	 M474.7,355.8l18.4,10.6L473,377.9l-18.4-10.6L474.7,355.8z M495.2,367.5l17.7,10.1l-20.1,11.5L475,379L495.2,367.5z M514.9,378.8
	l18.7,10.7L513.4,401l-18.7-10.7L514.9,378.8z M535.5,390.7l19.1,11l-20.1,11.5l-19.1-11L535.5,390.7z M556.7,402.8l18.7,10.8
	l-20.1,11.5l-18.7-10.8L556.7,402.8z M577.4,414.7l17.8,10.2l-20.1,11.5l-17.8-10.2L577.4,414.7z M597.2,426.1l17.6,10.1l-20.1,11.5
	l-17.6-10.1L597.2,426.1z M599.3,425l18.7-10.7l17.6,10.1L616.8,435L599.3,425z M620,413.1l17.8-10.1l17.6,10.1l-17.8,10.1
	L620,413.1z M639.8,401.8l19.5-11.1l17.6,10.1l-19.5,11.1L639.8,401.8z M661.2,389.6l19-10.8l17.6,10.1l-19,10.8L661.2,389.6z
	 M682.2,377.6l19.3-11l17.6,10.1l-19.3,11L682.2,377.6z M703.6,365.4l17.5-10l17.6,10.1l-17.5,10L703.6,365.4z M723,354.3l18.9-10.8
	l17.6,10.1l-18.9,10.8L723,354.3z M743.9,342.3l19.5-11.2l17.6,10.1l-19.5,11.2L743.9,342.3z M765.5,330l18.6-10.6l17.6,10.1
	l-18.6,10.6L765.5,330z M763.5,328.9l-17.8-10.2l18.6-10.6l17.8,10.2L763.5,328.9z M766.2,306.9l19.9-11.3l17.8,10.2L784,317.1
	L766.2,306.9z M764.2,305.7L745.5,295l19.9-11.3l18.7,10.8L764.2,305.7z M743.5,293.8l-19.1-11l19.9-11.3l19.1,11L743.5,293.8z
	 M722.3,281.7L703.7,271l19.9-11.3l18.7,10.7L722.3,281.7z M701.7,269.8L684,259.7l19.9-11.3l17.7,10.1L701.7,269.8z M682,258.5
	L663.6,248l19.9-11.3l18.4,10.6L682,258.5z M661.5,246.8l-20-11.5l19.9-11.3l20,11.5L661.5,246.8z M639.5,234.1L620.1,223l19.9-11.3
	l19.4,11.1L639.5,234.1z M618.1,221.9l-18.8-10.8l19.9-11.3l18.8,10.8L618.1,221.9z M597.3,210l-19.8-11.3l19.9-11.3l19.8,11.3
	L597.3,210z M575.5,197.5l-17.8-10.2l19.9-11.3l17.8,10.2L575.5,197.5z M555.7,186.1l-18.1-10.4l19.9-11.3l18.1,10.4L555.7,186.1z
	 M535.5,174.5l-19.4-11.2L536,152l19.4,11.2L535.5,174.5z M514.1,162.2l-17.6-10.1l19.9-11.3l17.6,10.1L514.1,162.2z M494.5,150.9
	l-19.8-11.3l19.9-11.3l19.8,11.3L494.5,150.9z M472.7,138.4L454,127.7l19.9-11.3l18.7,10.7L472.7,138.4z M452,126.5l-16.9-9.7
	l19.9-11.3l16.9,9.7L452,126.5z M449.9,127.7l-18.6,10.6l-16.9-9.7L433,118L449.9,127.7z M429.4,139.4l-19.5,11.2l-16.9-9.7
	l19.5-11.2L429.4,139.4z M407.8,151.7l-18.9,10.8l-16.9-9.7l18.9-10.8L407.8,151.7z M386.9,163.7l-17.5,10l-16.9-9.7l17.5-10
	L386.9,163.7z M367.4,174.8l-19.3,11l-16.9-9.7l19.3-11L367.4,174.8z M346.1,187l-19,10.8l-16.9-9.7l19-10.8L346.1,187z M325.1,199
	l-19.5,11.1l-16.9-9.7l19.5-11.1L325.1,199z M303.6,211.3l-17.8,10.1l-16.9-9.7l17.8-10.1L303.6,211.3z M283.9,222.5l-18.7,10.7
	l-16.9-9.7l18.7-10.7L283.9,222.5z M263.1,234.4L243,245.9l-16.9-9.7l20.1-11.5L263.1,234.4z M241,247l-17.4,9.9l-16.9-9.7l17.4-9.9
	L241,247z M243,248.2l18.7,10.7l-17.4,9.9l-18.7-10.7L243,248.2z M263.8,260.1l19.8,11.3l-17.4,9.9L246.4,270L263.8,260.1z
	 M285.5,272.6l17.6,10.1l-17.4,9.9l-17.6-10.1L285.5,272.6z M305.1,283.8l19.4,11.2l-17.4,9.9l-19.4-11.2L305.1,283.8z M326.6,296.2
	l18.1,10.4l-17.4,9.9l-18.1-10.4L326.6,296.2z M346.7,307.7l17.8,10.2l-17.4,9.9l-17.8-10.2L346.7,307.7z M366.6,319.1l19.8,11.3
	l-17.4,9.9L349.2,329L366.6,319.1z M388.4,331.6l18.8,10.8l-17.4,9.9L371,341.5L388.4,331.6z M387.7,353.5l-18.6,10.6l-18.8-10.8
	l18.6-10.6L387.7,353.5z M389.8,354.6l19.4,11.1l-18.6,10.6l-19.4-11.1L389.8,354.6z M391.8,353.5l17.4-9.9l19.4,11.1l-17.4,9.9
	L391.8,353.5z M430.5,355.8l20,11.5l-17.4,9.9l-20-11.5L430.5,355.8z M452.6,368.5L471,379l-17.4,9.9l-18.4-10.6L452.6,368.5z
	 M473,380.2l17.7,10.1l-17.4,9.9l-17.7-10.1L473,380.2z M492.7,391.5l18.7,10.7l-17.4,9.9l-18.7-10.7L492.7,391.5z M513.4,403.3
	l19.1,11l-17.4,9.9l-19.1-11L513.4,403.3z M534.5,415.5l18.7,10.8l-17.4,9.9l-18.7-10.8L534.5,415.5z M533.8,437.3l-18.6,10.6
	l-18.7-10.8l18.6-10.6L533.8,437.3z M535.8,438.5l17.8,10.2L535,459.3l-17.8-10.2L535.8,438.5z M537.9,437.3l17.4-9.9l17.8,10.2
	l-17.4,9.9L537.9,437.3z M575.1,438.8l17.6,10.1l-17.4,9.9l-17.6-10.1L575.1,438.8z M594.7,450l19.8,11.4l-17.4,9.9l-19.8-11.4
	L594.7,450z M596.7,448.8l20.1-11.5l19.8,11.4l-20.1,11.5L596.7,448.8z M618.8,436.2l18.7-10.7l19.8,11.4l-18.7,10.7L618.8,436.2z
	 M639.6,424.4l17.8-10.1l19.8,11.4l-17.8,10.1L639.6,424.4z M659.3,413.1l19.5-11.1l19.8,11.4l-19.5,11.1L659.3,413.1z M680.8,400.8
	l19-10.8l19.8,11.4l-19,10.8L680.8,400.8z M701.8,388.8l19.3-11l19.8,11.4l-19.3,11L701.8,388.8z M723.1,376.6l17.5-10l19.8,11.4
	L743,388L723.1,376.6z M742.6,365.5l18.9-10.8l19.8,11.4l-18.9,10.8L742.6,365.5z M763.5,353.6l19.5-11.2l19.8,11.4L783.3,365
	L763.5,353.6z M785.1,341.3l18.6-10.6l19.8,11.4l-18.6,10.6L785.1,341.3z M805.6,329.5l19.9-11.3l19.8,11.4l-19.9,11.3L805.6,329.5z
	 M803.6,328.3L786,318.2l19.9-11.3l17.6,10.1L803.6,328.3z M807.9,305.8l17.7-10.1l17.6,10.1l-17.7,10.1L807.9,305.8z M805.9,304.6
	l-17.8-10.2l17.7-10.1l17.8,10.2L805.9,304.6z M786.1,293.2l-18.7-10.8l17.7-10.1l18.7,10.8L786.1,293.2z M765.3,281.3l-19.1-11
	l17.7-10.1l19.1,11L765.3,281.3z M744.2,269.2l-18.7-10.7l17.7-10.1l18.7,10.7L744.2,269.2z M723.5,257.3l-17.7-10.1l17.7-10.1
	l17.7,10.1L723.5,257.3z M703.9,246l-18.4-10.6l17.7-10.1l18.4,10.6L703.9,246z M683.4,234.3l-20-11.5l17.7-10.1l20,11.5
	L683.4,234.3z M661.4,221.7L642,210.5l17.7-10.1l19.4,11.1L661.4,221.7z M640,209.4l-18.8-10.8l17.7-10.1l18.8,10.8L640,209.4z
	 M619.2,197.5l-19.8-11.3l17.7-10.1l19.8,11.3L619.2,197.5z M597.4,185l-17.8-10.2l17.7-10.1l17.8,10.2L597.4,185z M577.6,173.6
	l-18.1-10.4l17.7-10.1l18.1,10.4L577.6,173.6z M557.4,162L538,150.9l17.7-10.1l19.4,11.2L557.4,162z M536,149.7l-17.6-10.1
	l17.7-10.1l17.6,10.1L536,149.7z M516.3,138.4l-19.8-11.3l17.7-10.1l19.8,11.3L516.3,138.4z M494.6,125.9l-18.7-10.7l17.7-10.1
	l18.7,10.7L494.6,125.9z M473.8,114l-16.9-9.7l17.7-10.1l16.9,9.7L473.8,114z M454.9,103.2l-19.1-11l17.7-10.1l19.1,11L454.9,103.2z
	 M431.1,116.8l-18.6,10.6l-19.1-11l18.6-10.6L431.1,116.8z M410.5,128.6L391,139.8l-19.1-11l19.5-11.2L410.5,128.6z M388.9,140.9
	L370,151.7l-19.1-11l18.9-10.8L388.9,140.9z M368,152.9l-17.5,10l-19.1-11l17.5-10L368,152.9z M348.6,164l-19.3,11l-19.1-11l19.3-11
	L348.6,164z M327.2,176.2l-19,10.8l-19.1-11l19-10.8L327.2,176.2z M306.2,188.2l-19.5,11.1l-19.1-11l19.5-11.1L306.2,188.2z
	 M284.8,200.4L267,210.6l-19.1-11l17.8-10.1L284.8,200.4z M265,211.7l-18.7,10.7l-19.1-11l18.7-10.7L265,211.7z M244.3,223.5
	L224.1,235L205,224l20.1-11.5L244.3,223.5z M222.1,236.2l-17.4,9.9l-19.1-11l17.4-9.9L222.1,236.2z M202.7,247.3l-18.6,10.6
	l-19.1-11l18.6-10.6L202.7,247.3z M204.7,248.4l16.9,9.7L203,268.7l-16.9-9.7L204.7,248.4z M223.6,259.3l18.7,10.7l-18.6,10.6
	L205,269.9L223.6,259.3z M244.3,271.2l19.8,11.3l-18.6,10.6l-19.8-11.3L244.3,271.2z M243.5,294.3l-18.9,10.8l-19.8-11.3l18.9-10.8
	L243.5,294.3z M245.5,295.4l17.6,10.1l-18.9,10.8l-17.6-10.1L245.5,295.4z M247.5,294.3l18.6-10.6l17.6,10.1l-18.6,10.6L247.5,294.3
	z M285.7,294.9l19.4,11.2l-18.6,10.6l-19.4-11.2L285.7,294.9z M307.2,307.2l18.1,10.4l-18.6,10.6l-18.1-10.4L307.2,307.2z
	 M327.3,318.8l17.8,10.2l-18.6,10.6l-17.8-10.2L327.3,318.8z M347.2,330.2l19.8,11.3l-18.6,10.6l-19.8-11.3L347.2,330.2z
	 M346.3,353.3l-18.9,10.8l-19.8-11.3l18.9-10.8L346.3,353.3z M348.3,354.5l18.8,10.8l-18.9,10.8l-18.8-10.8L348.3,354.5z
	 M369.1,366.4l19.4,11.1l-18.9,10.8l-19.4-11.1L369.1,366.4z M390.5,378.7l20,11.5L391.6,401l-20-11.5L390.5,378.7z M392.5,377.5
	l18.6-10.6l20,11.5L412.6,389L392.5,377.5z M433.2,379.5l18.4,10.6L433,400.7l-18.4-10.6L433.2,379.5z M453.6,391.3l17.7,10.1
	L452.7,412L435,401.9L453.6,391.3z M473.3,402.6l18.7,10.7l-18.6,10.6l-18.7-10.7L473.3,402.6z M494,414.4l19.1,11L494.5,436
	l-19.1-11L494,414.4z M492.5,437.2l-19,10.8l-19.1-11l18.9-10.8L492.5,437.2z M494.5,438.3l18.7,10.8l-18.9,10.8l-18.7-10.8
	L494.5,438.3z M515.2,450.2l17.8,10.2l-18.9,10.8L496.3,461L515.2,450.2z M535.1,461.6l17.6,10.1l-18.9,10.8l-17.6-10.1L535.1,461.6
	z M537.1,460.5l18.6-10.6l17.6,10.1l-18.6,10.6L537.1,460.5z M575.3,461.1l19.8,11.4l-18.6,10.6l-19.8-11.4L575.3,461.1z
	 M658.3,458.8l-17.6-10.1l18.7-10.7l18.5,10.6l-19.1,10.9C658.8,459.3,658.6,459,658.3,458.8z M679,447l-17.6-10.1l17.8-10.1
	l18.5,10.6l-18.2,10.4C679.4,447.4,679.3,447.2,679,447z M847.3,328.4L827.5,317l17.7-10.1l19.8,11.4L847.3,328.4z M847.2,305.8
	l19.2-10.9c0.2-0.1,0.3-0.2,0.4-0.4l19.9,11.5L867,317.1L847.2,305.8z M743.2,246.1L725.5,236l18.8-10.7c0.4-0.2,0.6-0.7,0.4-1.1
	l18.4,10.6L743.2,246.1z M703.1,223.1l-20-11.5l19.5-11.2c0.2-0.1,0.3-0.3,0.4-0.5l20.2,11.7L703.1,223.1z M597.3,162.3l-18.1-10.4
	l19.9-11.4c0.2-0.1,0.3-0.3,0.4-0.4l18.3,10.5L597.3,162.3z M493.5,102.8l-16.9-9.7l19.8-11.3c0.3-0.2,0.5-0.5,0.5-0.8l17.3,10
	L493.5,102.8z M451.5,81l-17.7,10.1L414,79.7l17.7-10.1L451.5,81z M390.1,93.3l19.8,11.4l-18.6,10.6l-19.8-11.4L390.1,93.3z
	 M389.3,116.5l-19.5,11.2L350,116.3l19.5-11.2L389.3,116.5z M346.9,140.7l-17.5,10l-19.8-11.4l17.5-10L346.9,140.7z M306.1,164
	l-19,10.8l-19.8-11.4l19-10.8L306.1,164z M263.6,188.3l-17.8,10.1L226,187.1l17.8-10.1L263.6,188.3z M243.8,199.6l-18.7,10.7
	l-19.8-11.4l18.7-10.7L243.8,199.6z M223.1,211.4L203,222.9l-19.8-11.4l20.1-11.5L223.1,211.4z M201,224.1l-17.4,9.9l-19.8-11.4
	l17.4-9.9L201,224.1z M181.6,235.2L163,245.8l-19.8-11.4l18.6-10.6L181.6,235.2z M161,246.9l-19,10.8l-19.8-11.4l18.9-10.8
	L161,246.9z M144,258.9l18.9-10.8l19.1,11l-18.9,10.8L144,258.9z M184.1,260.2l16.9,9.7l-19,10.8l-16.9-9.7L184.1,260.2z M203,271.1
	l18.7,10.7l-18.9,10.8L184,281.9L203,271.1z M246.2,317.5l18.9-10.8l19.4,11.2l-18.9,10.8L246.2,317.5z M286.6,319l18.1,10.4
	l-18.9,10.8l-18.1-10.4L286.6,319z M306.7,330.6l17.8,10.2l-18.9,10.8l-17.8-10.2L306.7,330.6z M305.6,353.9l19.8,11.3l-19.8,11.3
	c-0.2,0.1-0.3,0.3-0.4,0.4l-19.9-11.5L305.6,353.9z M327.4,366.4l18.8,10.8l-20.1,11.5c-0.1,0.1-0.2,0.2-0.3,0.3L307,378.1
	L327.4,366.4z M393.6,402.1l18.9-10.8l18.4,10.6L412,412.7L393.6,402.1z M433,403.1l17.7,10.1L431.8,424l-17.7-10.1L433,403.1z
	 M452.7,414.4l18.7,10.7l-18.9,10.8l-18.7-10.7L452.7,414.4z M535.7,483.7l18.9-10.8l19.8,11.4l-18.9,10.8L535.7,483.7z
	 M576.5,485.4L595,496l-18.9,10.8l-18.6-10.7L576.5,485.4z M887.1,329c-0.1-0.3-0.2-0.5-0.5-0.6L869,318.3l19.6-11.2l18.3,10.6
	L887.1,329z M432.9,44l19.7,11.4l-20.9,11.9L412,56L432.9,44z M348,92.8l19.5,11.2L348,115.1L328.6,104L348,92.8z M305.7,117.1
	l19.3,11.1l-17.5,10l-19.2-11L305.7,117.1z M265.1,140.5l19.2,11l-19,10.8l-19.1-11L265.1,140.5z M222.8,164.9l19,10.9L224,185.9
	L205.1,175L222.8,164.9z M203.1,176.2l18.9,10.9l-18.7,10.7L184.4,187L203.1,176.2z M182.4,188.1l18.9,10.8l-20.1,11.5l-18.8-10.8
	L182.4,188.1z M160.4,200.8l18.8,10.8l-17.4,9.9L143,210.7L160.4,200.8z M141,211.9l18.7,10.7l-18.6,10.6l-18.6-10.7L141,211.9z
	 M120.5,223.7l18.6,10.7l-18.9,10.8l-18.6-10.6L120.5,223.7z M99.6,235.7l18.5,10.6l-19.4,11.1l-18.4-10.6L99.6,235.7z M163.2,272.2
	l16.9,9.7l-19.6,11.2c0,0-0.1,0-0.1,0.1l-16.8-9.7L163.2,272.2z M265.6,331l18.1,10.4l-20.1,11.5l-0.1,0.1l-18.1-10.5L265.6,331z
	 M412.1,415l17.7,10.1L409,437l-17.6-10.2L412.1,415z M534.1,509.6l21.4-12.2l18.6,10.7l-21.5,12.3L534.1,509.6z"/>
<path class="st1" d="M226.3,127.7"/>
<linearGradient id="SVGID_1_" gradientUnits="userSpaceOnUse" x1="357.8594" y1="129.6252" x2="658.8594" y2="363.6252" gradientTransform="matrix(1 0 0 -1 0 532)">
	<stop  offset="0" style="stop-color:#000000"/>
	<stop  offset="0.9958" style="stop-color:#000000;stop-opacity:0"/>
</linearGradient>
<path class="st2" d="M585.9,458.1l123.5-71.3c12.2-7,10.7-19.4-3.4-27.5L395,179.5c-14.1-8.1-35.4-9-47.6-2l-123.5,71.3
	c-12.2,7-10.7,19.4,3.4,27.5l311,179.8C552.4,464.3,573.7,465.2,585.9,458.1z"/>
<linearGradient id="SVGID_2_" gradientUnits="userSpaceOnUse" x1="233.1685" y1="280.7" x2="735.5023" y2="280.7" gradientTransform="matrix(1 0 0 -1 0 532)">
	<stop  offset="0" style="stop-color:#5fcece"/>
	<stop  offset="1" style="stop-color:#5fcece"/>
</linearGradient>
<path class="st3" d="M735.5,291.7l-24.5-5.9L413.1,113.6c-14-8.1-35.3-9-47.4-2l-119.4,68.9l-12.9-3.1c0,0-3,22.2,12.6,32.6
	l309.7,179c14,8.1,35.3,9,47.4,2l123-71C735.9,314.1,735.5,291.7,735.5,291.7z"/>
<path class="st4" d="M603.7,374.7l123.5-71.3c12.2-7,10.7-19.4-3.4-27.5l-311-179.8c-14.1-8.1-35.4-9-47.6-2l-123.5,71.3
	c-12.2,7-10.7,19.4,3.4,27.5l311,179.8C570.2,380.8,591.5,381.7,603.7,374.7z"/>
<polygon class="st5" points="279.7,195.2 416.8,116.1 673,264.2 535.9,343.3 "/>
<path class="st6" d="M423.8,312.9c-7.9-4.6-3.1-18.4-3.1-18.4l-12.6-7.3l-14,8.5L423.8,312.9z"/>
<path class="st7" d="M622.6,328.3c10.5,6,26.3,6.7,35.3,1.5c9.1-5.2,7.9-14.4-2.5-20.4c-10.5-6-26.3-6.7-35.3-1.5
	C611,313.2,612.1,322.3,622.6,328.3z"/>
<path class="st8" d="M838.3,239.4l56.5-34.3c1.8-1.1,1.8-3.8,0-4.8l-54.1-31.1c-1.4-0.8-3.1-0.8-4.4,0l-56,33.9
	c-2.1,1.2-2,4.2,0,5.4l53.6,30.8C835.2,240.2,836.9,240.2,838.3,239.4z"/>
<g>
	<path class="st9" d="M847.5,341.5l95.8-58.1c3.1-1.8,3.1-6.4-0.1-8.2l-78.7-44.7c-2.3-1.3-5.2-1.3-7.5,0.1l-94.9,57.5
		c-3.5,2.1-3.5,7.2,0.1,9.2l77.8,44.2C842.3,342.9,845.2,342.9,847.5,341.5z"/>
	<path class="st10" d="M847.5,274.7l95.8-58.1c3.1-1.8,3.1-6.4-0.1-8.2l-78.7-44.7c-2.3-1.3-5.2-1.3-7.5,0.1l-94.9,57.5
		c-3.5,2.1-3.5,7.2,0.1,9.2l77.8,44.2C842.3,276.1,845.2,276.1,847.5,274.7z"/>
	<linearGradient id="SVGID_3_" gradientUnits="userSpaceOnUse" x1="814.5001" y1="190.5061" x2="912.1" y2="190.5061">
		<stop  offset="0" style="stop-color:#000000"/>
		<stop  offset="0.9958" style="stop-color:#000000;stop-opacity:0"/>
	</linearGradient>
	<path class="st11" d="M863.2,217.5c1.6,0.9,3.5,0.9,5,0l43.9-26.6l-47.6-27.1c-2.3-1.3-5.2-1.3-7.5,0.1l-42.5,25.8L863.2,217.5z"/>
	
		<linearGradient id="SVGID_4_" gradientUnits="userSpaceOnUse" x1="800.8873" y1="367.6" x2="933.575" y2="367.6" gradientTransform="matrix(1 0 0 -1 0 532)">
		<stop  offset="4.237290e-03" style="stop-color:#FFEC5E"/>
		<stop  offset="1" style="stop-color:#FFCE4A"/>
	</linearGradient>
	<path class="st12" d="M868.2,204l63.8-38.7c2.1-1.2,2.1-4.3,0-5.4l-61.2-35.1c-1.6-0.9-3.5-0.9-5,0l-63.2,38.3
		c-2.3,1.4-2.3,4.8,0.1,6.1l60.6,34.8C864.7,204.9,866.6,204.9,868.2,204z"/>
	<path class="st8" d="M844.4,253.7l18.5-11.2c0.6-0.4,0.6-1.2,0-1.6l-17.7-10.2c-0.5-0.3-1-0.3-1.5,0l-18.3,11.1
		c-0.7,0.4-0.7,1.4,0,1.8l17.5,10.1C843.4,254,844,254,844.4,253.7z"/>
</g>
<linearGradient id="SVGID_5_" gradientUnits="userSpaceOnUse" x1="299.975" y1="213.75" x2="681.6" y2="213.75">
	<stop  offset="0" style="stop-color:#000000"/>
	<stop  offset="0.9958" style="stop-color:#000000;stop-opacity:0"/>
</linearGradient>
<path class="st13" d="M681.6,251.3L425.5,103.2L302,174.7c-2.7,1.6-2.7,5.4,0,7l63.6,36.8l15.3-9.3c1.8-1.1,4.1-1.1,5.9-0.1
	l71.6,41.1c2.5,1.4,2.5,4.9,0.1,6.4l-7.2,4.4l-64.5-37c-1.8-1-4.1-1-5.9,0.1l-40,24.3l79.8,46.1l37.2-22.6l87.5,50.6
	c4.1,2.4,9.2,2.4,13.3,0L681.6,251.3z"/>
<path class="st14" d="M301.4,144.7l137.9-80.9c1.2-0.7,2.6-0.7,3.7,0l248.8,143.8c2.5,1.4,2.5,5,0,6.4L554,294.9
	c-1.2,0.7-2.6,0.7-3.7,0L301.5,151.1C299,149.7,299,146.1,301.4,144.7z"/>
<linearGradient id="SVGID_6_" gradientUnits="userSpaceOnUse" x1="381.6145" y1="277.0352" x2="671.8879" y2="28.2295" gradientTransform="matrix(1 0 0 -1 0 532)">
	<stop  offset="0" style="stop-color:#5fcece"/>
	<stop  offset="1" style="stop-color:#5fcece"/>
</linearGradient>
<path class="st15" d="M383.7,302l74.8-45.3c2.4-1.4,2.4-5-0.1-6.4l-71.6-41.1c-1.8-1-4.1-1-5.9,0.1l-74.1,44.9
	c-2.7,1.6-2.7,5.6,0.1,7.2l70.9,40.7C379.6,303.1,381.9,303.1,383.7,302z"/>
<path class="st8" d="M371.9,272.6l18.5-11.2c0.6-0.4,0.6-1.2,0-1.6l-17.7-10.2c-0.5-0.3-1-0.3-1.5,0L353,260.8
	c-0.7,0.4-0.7,1.4,0,1.8l17.5,10.1C370.9,272.9,371.5,272.9,371.9,272.6z"/>
<path class="st16" d="M458.4,250.3l-71.6-41.1c-1.8-1-4.1-1-5.9,0.1l-15.3,9.3l79.8,46.1l13.1-8
	C460.9,255.2,460.9,251.7,458.4,250.3z"/>
<path d="M75.6,257.9"/>
<g>
	<g class="st17">
		<g>
			<path class="st4" d="M386,119l60.4-34.9c1.2-0.7,3.1-0.7,4.3,0c1.2,0.7,1.2,1.8,0,2.5l-60.4,34.9c-1.2,0.7-3.1,0.7-4.3,0
				C384.8,120.8,384.8,119.7,386,119"/>
			<path class="st4" d="M338.3,161.2l30.5-17.6c1.2-0.7,3.1-0.7,4.3,0s1.2,1.8,0,2.5l-30.5,17.6c-1.2,0.7-3.1,0.7-4.3,0
				S337.1,161.9,338.3,161.2"/>
			<path class="st4" d="M387.8,132.7l18.6-10.7c1.2-0.7,3.1-0.7,4.3,0c1.2,0.7,1.2,1.8,0,2.5l-18.6,10.7c-1.2,0.7-3.1,0.7-4.3,0
				S386.6,133.4,387.8,132.7"/>
			<path class="st4" d="M429.4,108.6l29.7-17.1c1.2-0.7,3.1-0.7,4.3,0s1.2,1.8,0,2.5l-29.7,17.1c-1.2,0.7-3.1,0.7-4.3,0
				S428.2,109.3,429.4,108.6"/>
			<path class="st4" d="M373.7,155.5l19.4-11.2c1.2-0.7,3.1-0.7,4.3,0c1.2,0.7,1.2,1.8,0,2.5L378,158c-1.2,0.7-3.1,0.7-4.3,0
				C372.5,157.3,372.5,156.2,373.7,155.5"/>
			<path class="st4" d="M414.1,132.2l57.7-33.3c1.2-0.7,3.1-0.7,4.3,0s1.2,1.8,0,2.5l-57.7,33.3c-1.2,0.7-3.1,0.7-4.3,0
				C412.9,134,412.9,132.9,414.1,132.2"/>
			<path class="st4" d="M363.7,176l40.8-23.6c1.2-0.7,3.1-0.7,4.3,0c1.2,0.7,1.2,1.8,0,2.5L368,178.5c-1.2,0.7-3.1,0.7-4.3,0
				S362.5,176.7,363.7,176"/>
			<path class="st4" d="M425.9,140.1l21.9-12.6c1.2-0.7,3.1-0.7,4.3,0c1.2,0.7,1.2,1.8,0,2.5l-21.9,12.6c-1.2,0.7-3.1,0.7-4.3,0
				C424.7,141.9,424.8,140.7,425.9,140.1"/>
			<path class="st4" d="M466.3,116.7l18.1-10.5c1.2-0.7,3.1-0.7,4.3,0c1.2,0.7,1.2,1.8,0,2.5l-18.1,10.5c-1.2,0.7-3.1,0.7-4.3,0
				S465.2,117.4,466.3,116.7"/>
			<path class="st4" d="M376.4,183.4l76.3-44c1.2-0.7,3.1-0.7,4.3,0c1.2,0.7,1.2,1.8,0,2.5l-76.3,44c-1.2,0.7-3.1,0.7-4.3,0
				C375.2,185.2,375.2,184.1,376.4,183.4"/>
			<path class="st4" d="M477,125.3l20.2-11.7c1.2-0.7,3.1-0.7,4.3,0c1.2,0.7,1.2,1.8,0,2.5l-20.2,11.7c-1.2,0.7-3.1,0.7-4.3,0
				C475.8,127.1,475.8,126,477,125.3"/>
			<path class="st4" d="M389.1,190.8l23.5-13.6c1.2-0.7,3.1-0.7,4.3,0c1.2,0.7,1.2,1.8,0,2.5l-23.5,13.6c-1.2,0.7-3.1,0.7-4.3,0
				C387.9,192.6,387.9,191.4,389.1,190.8"/>
			<path class="st4" d="M434.4,164.6l75.5-43.6c1.2-0.7,3.1-0.7,4.3,0s1.2,1.8,0,2.5l-75.5,43.6c-1.2,0.7-3.1,0.7-4.3,0
				C433.2,166.4,433.2,165.3,434.4,164.6"/>
			<path class="st4" d="M425.3,184.6l35-20.2c1.2-0.7,3.1-0.7,4.3,0c1.2,0.7,1.2,1.8,0,2.5l-35,20.2c-1.2,0.7-3.1,0.7-4.3,0
				S424.1,185.3,425.3,184.6"/>
			<path class="st4" d="M484.2,150.5l38.3-22.1c1.2-0.7,3.1-0.7,4.3,0s1.2,1.8,0,2.5L488.5,153c-1.2,0.7-3.1,0.7-4.3,0
				C483,152.3,483,151.2,484.2,150.5"/>
			<path class="st4" d="M414.5,205.5l63.5-36.7c1.2-0.7,3.1-0.7,4.3,0c1.2,0.7,1.2,1.8,0,2.5L418.8,208c-1.2,0.7-3.1,0.7-4.3,0
				C413.3,207.3,413.3,206.2,414.5,205.5"/>
			<path class="st4" d="M502.3,154.8l33-19c1.2-0.7,3.1-0.7,4.3,0s1.2,1.8,0,2.5l-33,19c-1.2,0.7-3.1,0.7-4.3,0
				S501.1,155.5,502.3,154.8"/>
			<path class="st4" d="M427.2,212.9l21-12.1c1.2-0.7,3.1-0.7,4.3,0s1.2,1.8,0,2.5l-21,12.1c-1.2,0.7-3.1,0.7-4.3,0
				C426,214.7,426,213.6,427.2,212.9"/>
			<path class="st4" d="M463.5,191.9l27.2-15.7c1.2-0.7,3.1-0.7,4.3,0c1.2,0.7,1.2,1.8,0,2.5l-27.2,15.7c-1.2,0.7-3.1,0.7-4.3,0
				C462.3,193.8,462.3,192.6,463.5,191.9"/>
			<path class="st4" d="M512.5,163.6l21.9-12.6c1.2-0.7,3.1-0.7,4.3,0s1.2,1.8,0,2.5l-21.9,12.6c-1.2,0.7-3.1,0.7-4.3,0
				C511.3,165.4,511.3,164.3,512.5,163.6"/>
			<path class="st4" d="M455.5,211.2l37.9-21.9c1.2-0.7,3.1-0.7,4.3,0c1.2,0.7,1.2,1.8,0,2.5l-37.9,21.9c-1.2,0.7-3.1,0.7-4.3,0
				C454.3,213,454.3,211.9,455.5,211.2"/>
			<path class="st4" d="M510.8,179.3l21.9-12.6c1.2-0.7,3.1-0.7,4.3,0s1.2,1.8,0,2.5l-21.9,12.6c-1.2,0.7-3.1,0.7-4.3,0
				S509.6,180,510.8,179.3"/>
			<path class="st4" d="M549.1,157.2l11.5-6.7c1.2-0.7,3.1-0.7,4.3,0s1.2,1.8,0,2.5l-11.5,6.7c-1.2,0.7-3.1,0.7-4.3,0
				C547.9,159,547.9,157.9,549.1,157.2"/>
			<path class="st4" d="M473.6,215.5l29.7-17.1c1.2-0.7,3.1-0.7,4.3,0c1.2,0.7,1.2,1.8,0,2.5L477.9,218c-1.2,0.7-3.1,0.7-4.3,0
				C472.4,217.3,472.4,216.2,473.6,215.5"/>
			<path class="st4" d="M530.1,182.9l43.3-25c1.2-0.7,3.1-0.7,4.3,0s1.2,1.8,0,2.5l-43.3,25c-1.2,0.7-3.1,0.7-4.3,0
				C528.9,184.7,528.9,183.6,530.1,182.9"/>
			<path class="st4" d="M484.2,224.1l38.3-22.1c1.2-0.7,3.1-0.7,4.3,0s1.2,1.8,0,2.5l-38.3,22.1c-1.2,0.7-3.1,0.7-4.3,0
				C483,225.9,483,224.8,484.2,224.1"/>
			<path class="st4" d="M543.6,189.8l42.5-24.5c1.2-0.7,3.1-0.7,4.3,0s1.2,1.8,0,2.5l-42.5,24.5c-1.2,0.7-3.1,0.7-4.3,0
				C542.4,191.6,542.4,190.5,543.6,189.8"/>
			<path class="st4" d="M514.3,221.5l24.1-13.9c1.2-0.7,3.1-0.7,4.3,0s1.2,1.8,0,2.5L518.6,224c-1.2,0.7-3.1,0.7-4.3,0
				S513.1,222.2,514.3,221.5"/>
			<path class="st4" d="M560.4,194.8l22.7-13.1c1.2-0.7,3.1-0.7,4.3,0s1.2,1.8,0,2.5l-22.7,13.1c-1.2,0.7-3.1,0.7-4.3,0
				S559.2,195.5,560.4,194.8"/>
			<path class="st4" d="M490.7,249.8l20.2-11.7c1.2-0.7,3.1-0.7,4.3,0s1.2,1.8,0,2.5L495,252.3c-1.2,0.7-3.1,0.7-4.3,0
				S489.5,250.5,490.7,249.8"/>
			<path class="st4" d="M536.8,223.1l17.3-10c1.2-0.7,3.1-0.7,4.3,0s1.2,1.8,0,2.5l-17.3,10c-1.2,0.7-3.1,0.7-4.3,0
				C535.6,224.9,535.6,223.8,536.8,223.1"/>
			<path class="st4" d="M579.3,198.6l32.2-18.6c1.2-0.7,3.1-0.7,4.3,0s1.2,1.8,0,2.5l-32.2,18.6c-1.2,0.7-3.1,0.7-4.3,0
				C578.1,200.4,578.1,199.3,579.3,198.6"/>
			<path class="st4" d="M520.3,247.4l40-23.1c1.2-0.7,3.1-0.7,4.3,0s1.2,1.8,0,2.5l-40,23.1c-1.2,0.7-3.1,0.7-4.3,0
				S519.1,248.1,520.3,247.4"/>
			<path class="st4" d="M582.9,211.2l23.1-13.3c1.2-0.7,3.1-0.7,4.3,0s1.2,1.8,0,2.5l-23.1,13.3c-1.2,0.7-3.1,0.7-4.3,0
				S581.7,211.9,582.9,211.2"/>
			<path class="st4" d="M545.3,247.6l19.8-11.4c1.2-0.7,3.1-0.7,4.3,0s1.2,1.8,0,2.5l-19.8,11.4c-1.2,0.7-3.1,0.7-4.3,0
				C544.1,249.5,544.1,248.3,545.3,247.6"/>
			<path class="st4" d="M585.7,224.3l51.1-29.5c1.2-0.7,3.1-0.7,4.3,0s1.2,1.8,0,2.5L590,226.8c-1.2,0.7-3.1,0.7-4.3,0
				S584.5,225,585.7,224.3"/>
			<path class="st4" d="M528.8,271.9l19.4-11.2c1.2-0.7,3.1-0.7,4.3,0s1.2,1.8,0,2.5l-19.4,11.2c-1.2,0.7-3.1,0.7-4.3,0
				S527.6,272.6,528.8,271.9"/>
			<path class="st4" d="M579.1,242.9l15.7-9c1.2-0.7,3.1-0.7,4.3,0s1.2,1.8,0,2.5l-15.7,9c-1.2,0.7-3.1,0.7-4.3,0
				S577.9,243.6,579.1,242.9"/>
			<path class="st4" d="M610.4,224.8l39.2-22.6c1.2-0.7,3.1-0.7,4.3,0s1.2,1.8,0,2.5l-39.2,22.6c-1.2,0.7-3.1,0.7-4.3,0
				S609.2,225.5,610.4,224.8"/>
		</g>
	</g>
</g>
<g>
	<g class="st17">
		<g>
			<path class="st8" d="M385.8,115.9c-1.2,0.7-1.2,1.8,0,2.5s3.1,0.7,4.3,0l60.4-34.9c1.2-0.7,1.2-1.8,0-2.5s-3.1-0.7-4.3,0
				L385.8,115.9"/>
			<path class="st5" d="M338.1,158.2l30.5-17.6c1.2-0.7,3.1-0.7,4.3,0c1.2,0.7,1.2,1.8,0,2.5l-30.5,17.6c-1.2,0.7-3.1,0.7-4.3,0
				C336.9,160,336.9,158.9,338.1,158.2"/>
			<path class="st8" d="M387.6,129.6l18.6-10.7c1.2-0.7,3.1-0.7,4.3,0s1.2,1.8,0,2.5l-18.6,10.7c-1.2,0.7-3.1,0.7-4.3,0
				S386.4,130.3,387.6,129.6"/>
			<path class="st10" d="M429.3,105.6L459,88.5c1.2-0.7,3.1-0.7,4.3,0c1.2,0.7,1.2,1.8,0,2.5l-29.7,17.1c-1.2,0.7-3.1,0.7-4.3,0
				S428.1,106.2,429.3,105.6"/>
			<path class="st18" d="M373.5,152.5l19.4-11.2c1.2-0.7,3.1-0.7,4.3,0s1.2,1.8,0,2.5L377.8,155c-1.2,0.7-3.1,0.7-4.3,0
				S372.3,153.1,373.5,152.5"/>
			<path class="st18" d="M413.9,129.1l57.7-33.3c1.2-0.7,3.1-0.7,4.3,0c1.2,0.7,1.2,1.8,0,2.5l-57.7,33.3c-1.2,0.7-3.1,0.7-4.3,0
				C412.7,130.9,412.7,129.8,413.9,129.1"/>
			<path class="st8" d="M363.5,172.9l40.8-23.6c1.2-0.7,3.1-0.7,4.3,0c1.2,0.7,1.2,1.8,0,2.5l-40.8,23.6c-1.2,0.7-3.1,0.7-4.3,0
				C362.3,174.7,362.3,173.6,363.5,172.9"/>
			<path class="st5" d="M425.8,137l21.9-12.6c1.2-0.7,3.1-0.7,4.3,0s1.2,1.8,0,2.5l-21.9,12.6c-1.2,0.7-3.1,0.7-4.3,0
				S424.6,137.7,425.8,137"/>
			<path class="st10" d="M466.2,113.6l18.1-10.5c1.2-0.7,3.1-0.7,4.3,0s1.2,1.8,0,2.5l-18.1,10.5c-1.2,0.7-3.1,0.7-4.3,0
				C465,115.5,465,114.3,466.2,113.6"/>
			<path class="st18" d="M376.2,180.3l76.3-44c1.2-0.7,3.1-0.7,4.3,0c1.2,0.7,1.2,1.8,0,2.5l-76.3,44c-1.2,0.7-3.1,0.7-4.3,0
				C375,182.1,375,181,376.2,180.3"/>
			<path class="st5" d="M476.8,122.2l20.2-11.7c1.2-0.7,3.1-0.7,4.3,0c1.2,0.7,1.2,1.8,0,2.5l-20.2,11.7c-1.2,0.7-3.1,0.7-4.3,0
				S475.6,122.9,476.8,122.2"/>
			<path class="st5" d="M388.9,187.7l23.5-13.6c1.2-0.7,3.1-0.7,4.3,0c1.2,0.7,1.2,1.8,0,2.5l-23.5,13.6c-1.2,0.7-3.1,0.7-4.3,0
				S387.7,188.4,388.9,187.7"/>
			<path class="st8" d="M434.3,161.5l75.5-43.6c1.2-0.7,3.1-0.7,4.3,0s1.2,1.8,0,2.5L438.6,164c-1.2,0.7-3.1,0.7-4.3,0
				S433.1,162.2,434.3,161.5"/>
			<path class="st18" d="M425.1,181.5l35-20.2c1.2-0.7,3.1-0.7,4.3,0s1.2,1.8,0,2.5l-35,20.2c-1.2,0.7-3.1,0.7-4.3,0
				S423.9,182.2,425.1,181.5"/>
			<path class="st19" d="M484.1,147.5l38.3-22.1c1.2-0.7,3.1-0.7,4.3,0s1.2,1.8,0,2.5L488.4,150c-1.2,0.7-3.1,0.7-4.3,0
				S482.9,148.1,484.1,147.5"/>
			<path class="st8" d="M414.3,202.4l63.5-36.7c1.2-0.7,3.1-0.7,4.3,0c1.2,0.7,1.2,1.8,0,2.5l-63.5,36.7c-1.2,0.7-3.1,0.7-4.3,0
				S413.1,203.1,414.3,202.4"/>
			<path class="st18" d="M502.1,151.7l33-19c1.2-0.7,3.1-0.7,4.3,0s1.2,1.8,0,2.5l-33,19c-1.2,0.7-3.1,0.7-4.3,0
				S500.9,152.4,502.1,151.7"/>
			<path class="st10" d="M427,209.8l21-12.1c1.2-0.7,3.1-0.7,4.3,0c1.2,0.7,1.2,1.8,0,2.5l-21,12.1c-1.2,0.7-3.1,0.7-4.3,0
				C425.8,211.6,425.8,210.5,427,209.8"/>
			<path class="st18" d="M463.3,188.9l27.2-15.7c1.2-0.7,3.1-0.7,4.3,0c1.2,0.7,1.2,1.8,0,2.5l-27.2,15.7c-1.2,0.7-3.1,0.7-4.3,0
				S462.1,189.6,463.3,188.9"/>
			<path class="st19" d="M512.4,160.5l21.9-12.6c1.2-0.7,3.1-0.7,4.3,0s1.2,1.8,0,2.5L516.7,163c-1.2,0.7-3.1,0.7-4.3,0
				C511.2,162.4,511.2,161.2,512.4,160.5"/>
			<path class="st8" d="M455.4,208.2l37.9-21.9c1.2-0.7,3.1-0.7,4.3,0c1.2,0.7,1.2,1.8,0,2.5l-37.9,21.9c-1.2,0.7-3.1,0.7-4.3,0
				S454.2,208.8,455.4,208.2"/>
			<path class="st10" d="M510.6,176.3l21.9-12.6c1.2-0.7,3.1-0.7,4.3,0s1.2,1.8,0,2.5l-21.9,12.6c-1.2,0.7-3.1,0.7-4.3,0
				S509.4,176.9,510.6,176.3"/>
			<path class="st19" d="M549,154.1l11.5-6.7c1.2-0.7,3.1-0.7,4.3,0s1.2,1.8,0,2.5l-11.5,6.7c-1.2,0.7-3.1,0.7-4.3,0
				C547.8,155.9,547.8,154.8,549,154.1"/>
			<path class="st18" d="M473.4,212.4l29.7-17.1c1.2-0.7,3.1-0.7,4.3,0c1.2,0.7,1.2,1.8,0,2.5l-29.7,17.1c-1.2,0.7-3.1,0.7-4.3,0
				S472.3,213.1,473.4,212.4"/>
			<path class="st8" d="M529.9,179.8l43.3-25c1.2-0.7,3.1-0.7,4.3,0s1.2,1.8,0,2.5l-43.3,25c-1.2,0.7-3.1,0.7-4.3,0
				S528.7,180.5,529.9,179.8"/>
			<path class="st8" d="M484.1,221l38.3-22.1c1.2-0.7,3.1-0.7,4.3,0s1.2,1.8,0,2.5l-38.3,22.1c-1.2,0.7-3.1,0.7-4.3,0
				C482.9,222.8,482.9,221.7,484.1,221"/>
			<path class="st8" d="M543.4,186.7l42.5-24.5c1.2-0.7,3.1-0.7,4.3,0s1.2,1.8,0,2.5l-42.5,24.5c-1.2,0.7-3.1,0.7-4.3,0
				S542.3,187.4,543.4,186.7"/>
			<path class="st18" d="M514.1,218.4l24.1-13.9c1.2-0.7,3.1-0.7,4.3,0s1.2,1.8,0,2.5l-24.1,13.9c-1.2,0.7-3.1,0.7-4.3,0
				C512.9,220.2,512.9,219.1,514.1,218.4"/>
			<path class="st18" d="M560.3,191.7l22.7-13.1c1.2-0.7,3.1-0.7,4.3,0s1.2,1.8,0,2.5l-22.7,13.1c-1.2,0.7-3.1,0.7-4.3,0
				S559.1,192.4,560.3,191.7"/>
			<path class="st19" d="M490.5,246.7l20.2-11.7c1.2-0.7,3.1-0.7,4.3,0s1.2,1.8,0,2.5l-20.2,11.7c-1.2,0.7-3.1,0.7-4.3,0
				C489.3,248.5,489.3,247.4,490.5,246.7"/>
			<path class="st19" d="M536.7,220.1l17.3-10c1.2-0.7,3.1-0.7,4.3,0s1.2,1.8,0,2.5l-17.3,10c-1.2,0.7-3.1,0.7-4.3,0
				C535.5,221.9,535.5,220.7,536.7,220.1"/>
			<path class="st19" d="M579.1,195.5l32.2-18.6c1.2-0.7,3.1-0.7,4.3,0s1.2,1.8,0,2.5L583.5,198c-1.2,0.7-3.1,0.7-4.3,0
				C577.9,197.3,578,196.2,579.1,195.5"/>
			<path class="st5" d="M520.1,244.3l40-23.1c1.2-0.7,3.1-0.7,4.3,0s1.2,1.8,0,2.5l-40,23.1c-1.2,0.7-3.1,0.7-4.3,0
				C518.9,246.1,518.9,245,520.1,244.3"/>
			<path class="st10" d="M582.8,208.2l23.1-13.3c1.2-0.7,3.1-0.7,4.3,0s1.2,1.8,0,2.5l-23.1,13.3c-1.2,0.7-3.1,0.7-4.3,0
				S581.6,208.8,582.8,208.2"/>
			<path class="st19" d="M545.2,244.6l19.8-11.4c1.2-0.7,3.1-0.7,4.3,0s1.2,1.8,0,2.5l-19.8,11.4c-1.2,0.7-3.1,0.7-4.3,0
				C544,246.4,544,245.3,545.2,244.6"/>
			<path class="st19" d="M585.6,221.2l51.1-29.5c1.2-0.7,3.1-0.7,4.3,0s1.2,1.8,0,2.5l-51.1,29.5c-1.2,0.7-3.1,0.7-4.3,0
				C584.4,223.1,584.4,221.9,585.6,221.2"/>
			<path class="st19" d="M528.6,268.8l19.4-11.2c1.2-0.7,3.1-0.7,4.3,0s1.2,1.8,0,2.5l-19.4,11.2c-1.2,0.7-3.1,0.7-4.3,0
				C527.4,270.7,527.4,269.5,528.6,268.8"/>
			<path class="st10" d="M578.9,239.8l15.7-9c1.2-0.7,3.1-0.7,4.3,0s1.2,1.8,0,2.5l-15.7,9c-1.2,0.7-3.1,0.7-4.3,0
				S577.7,240.5,578.9,239.8"/>
			<path class="st19" d="M610.2,221.7l39.2-22.6c1.2-0.7,3.1-0.7,4.3,0s1.2,1.8,0,2.5l-39.2,22.6c-1.2,0.7-3.1,0.7-4.3,0
				S609,222.4,610.2,221.7"/>
		</g>
	</g>
</g>
<linearGradient id="SVGID_7_" gradientUnits="userSpaceOnUse" x1="322.2" y1="374.85" x2="716.275" y2="374.85" gradientTransform="matrix(1 0 0 -1 0 532)">
	<stop  offset="0" style="stop-color:#000000"/>
	<stop  offset="0.9958" style="stop-color:#000000;stop-opacity:0"/>
</linearGradient>
<path class="st20" d="M324,122.5l137.9-80.9c1.2-0.7,2.6-0.7,3.7,0l248.8,143.8c2.5,1.4,2.5,5,0,6.4l-137.9,80.9
	c-1.2,0.7-2.6,0.7-3.7,0L324,128.9C321.6,127.5,321.6,123.9,324,122.5z"/>
<path class="st21" d="M324,89.2l137.9-81c1.2-0.7,2.6-0.7,3.7,0L714.4,152c2.5,1.4,2.5,5,0,6.4l-137.9,80.9c-1.2,0.7-2.6,0.7-3.7,0
	L324,95.6C321.6,94.2,321.6,90.6,324,89.2z"/>
<polygon class="st22" points="635.9,123.3 478,31.5 355.7,102.2 513.6,193.9 "/>
<path class="st23" d="M364.5,90.5c0.6-0.3,1.6-0.4,2.3,0l14.1,8.2c0.7,0.4,0.6,1,0,1.4c-0.3,0.2-0.7,0.3-1.2,0.3h-14.2
	c-0.9,0-1.6-0.4-1.6-1v-8.2C364.1,90.9,364.3,90.7,364.5,90.5"/>
<g class="st24">
	<path class="st25" d="M460.6,38.3l17-9.8c0.8-0.5,2.1-0.5,2.9,0l0.1,0.1c0.8,0.5,0.8,1.2,0,1.7l-17,9.8c-0.8,0.5-2.1,0.5-2.9,0
		l-0.1-0.1C459.8,39.5,459.8,38.8,460.6,38.3"/>
	<path class="st25" d="M467,42l17-9.8c0.8-0.5,2.1-0.5,2.9,0l0.1,0.1c0.8,0.5,0.8,1.2,0,1.7l-17,9.8c-0.8,0.5-2.1,0.5-2.9,0
		l-0.1-0.1C466.2,43.2,466.2,42.4,467,42"/>
	<path class="st25" d="M473.3,45.7l17-9.8c0.8-0.5,2.1-0.5,2.9,0l0.1,0.1c0.8,0.5,0.8,1.2,0,1.7l-17,9.8c-0.8,0.5-2.1,0.5-2.9,0
		l-0.1-0.1C472.5,46.9,472.5,46.1,473.3,45.7"/>
</g>
<g>
	<path class="st23" d="M555,198.7c4.3-2.5,11.2-2.5,15.4,0s4.2,6.5-0.1,8.9c-4.3,2.5-11.2,2.5-15.4,0
		C550.7,205.2,550.7,201.2,555,198.7"/>
	<path class="st23" d="M657.4,139.6c4.3-2.5,11.2-2.5,15.4,0s4.2,6.5-0.1,8.9c-4.3,2.5-11.2,2.5-15.4,0
		C653.1,146,653.1,142,657.4,139.6"/>
	<path class="st23" d="M607.2,168.6c4.3-2.5,11.2-2.5,15.4,0s4.2,6.5-0.1,8.9c-4.3,2.5-11.2,2.5-15.4,0S602.9,171,607.2,168.6"/>
</g>
<path class="st26" d="M483.3,97c18.2-10.5,47.7-10.5,65.8,0s18,27.6-0.2,38.1s-47.7,10.5-65.8,0S465.1,107.5,483.3,97"/>
<linearGradient id="SVGID_8_" gradientUnits="userSpaceOnUse" x1="9.5" y1="266.5004" x2="173.9678" y2="266.5004">
	<stop  offset="0" style="stop-color:#000000"/>
	<stop  offset="0.9958" style="stop-color:#000000;stop-opacity:0"/>
</linearGradient>
<path class="st27" d="M95.2,226.3c-3.8,2.3-6,5.3-6.7,8.6l0,0l0,0c0,0.2,0,0.3-0.1,0.5c0,0.1,0,0.3-0.1,0.4
	c-3.9,0.7-7.3,1.9-10.1,3.6c-3.7,2.3-5.8,5.2-6.4,8.4l0,0c0,0.2,0,0.4-0.1,0.6h-0.1c-0.1,0-0.1,0-0.2,0c-0.4,0.1-0.9,0.1-1.3,0.2
	c-0.3,0.1-0.6,0.1-0.9,0.2l0,0l0,0c-0.7,0.1-1.3,0.3-2,0.4c-1.9,0.5-3.7,1.1-5.3,1.9c-0.8,0.4-1.6,0.8-2.3,1.2
	c-2,1.2-3.5,2.6-4.6,4.1l0,0l-45.5,60l0,0l0,0l101.4-29.5l0,0c1.9-0.5,3.7-1.2,5.3-2c0.5-0.3,1.1-0.6,1.5-0.9c3.3-2,5.3-4.5,6.3-7.2
	c0.2,0,0.3,0,0.5,0c0.7-0.1,1.3-0.1,2-0.2c0.3,0,0.6-0.1,0.8-0.1c0.7-0.1,1.4-0.2,2-0.3c0.2,0,0.4-0.1,0.6-0.1
	c3.3-0.7,6.2-1.7,8.7-3.1l0,0l0,0c0.2-0.1,0.4-0.2,0.5-0.3c1.2-0.7,2.2-1.6,3.1-2.5c0.2-0.2,0.4-0.3,0.5-0.5
	c0.3-0.4,0.6-0.7,0.9-1.1c0.1-0.2,0.3-0.3,0.4-0.5c0.3-0.4,0.5-0.9,0.7-1.3c0-0.1,0.1-0.1,0.1-0.2c0.7-0.1,1.4-0.1,2.1-0.2h0.1
	c1.6-0.2,3.2-0.4,4.7-0.8l0,0c0.7-0.2,1.4-0.3,2.1-0.5c0.1,0,0.2-0.1,0.3-0.1c2.5-0.7,4.7-1.6,6.7-2.8c7.7-4.7,8.8-12,4.1-19.2
	c-0.5-0.7-1-1.4-1.6-2.2c-1.6-2-3.7-4-6.2-5.9l13.6-8.3c4-2.4,4.4-6,0.8-7.9l-1.6-0.9c-3.6-1.9-9.7-1.5-13.7,0.9l-13.6,8.3
	C125.7,220.3,105.8,219.8,95.2,226.3z"/>
<path class="st28" d="M164.9,226.6h-0.4c-5.4,0-9.9-4.4-9.9-9.9v-15.3c0-5.4,4.4-9.9,9.9-9.9h0.4c5.4,0,9.9,4.4,9.9,9.9v15.3
	C174.8,222.2,170.4,226.6,164.9,226.6z"/>
<path class="st29" d="M164.9,226.6h-0.4c-5.4,0-9.9-4.4-9.9-9.9v-15.3c0-5.4,4.4-9.9,9.9-9.9h0.4c5.4,0,9.9,4.4,9.9,9.9v15.3
	C174.8,222.2,170.4,226.6,164.9,226.6z"/>
<ellipse class="st30" cx="164.8" cy="174" rx="45.3" ry="27.6"/>
<linearGradient id="SVGID_9_" gradientUnits="userSpaceOnUse" x1="156.465" y1="346.6245" x2="151.5382" y2="330.6847" gradientTransform="matrix(1 0 0 -1 0 532)">
	<stop  offset="0" style="stop-color:#000000"/>
	<stop  offset="0.9958" style="stop-color:#000000;stop-opacity:0"/>
</linearGradient>
<path class="st31" d="M204.7,160.9c-7.6-8.7-22.7-14.6-39.9-14.6c-1.5,0-3.1,0-4.6,0.1c-0.6,0-1.1,0.1-1.7,0.2
	c-0.9,0.1-1.9,0.1-2.8,0.3c-0.7,0.1-1.4,0.2-2.1,0.3c-0.7,0.1-1.5,0.2-2.2,0.3c-0.8,0.1-1.5,0.3-2.3,0.5c-0.6,0.1-1.2,0.3-1.8,0.4
	c-0.9,0.2-1.7,0.5-2.5,0.7c-0.5,0.1-0.9,0.3-1.4,0.4c-0.9,0.3-1.8,0.6-2.6,1c-0.3,0.1-0.7,0.2-1,0.4c-0.9,0.4-1.8,0.8-2.7,1.2
	c-0.2,0.1-0.5,0.2-0.7,0.3c-1,0.5-1.9,1-2.7,1.5c-0.1,0.1-0.3,0.2-0.4,0.2c-0.9,0.6-1.8,1.1-2.7,1.7c-0.1,0-0.1,0.1-0.2,0.1
	c-0.9,0.6-1.7,1.3-2.5,2l0,0c-4.9,4.2-7.9,9.4-8.2,14.9l0,0l0,0c0,0.3-0.1,0.7-0.1,1c0,15.2,20.3,27.6,45.3,27.6
	c1.1,0,2.3-0.1,3.4-0.1c-7.8-3.1-13.3-8.2-14.4-14.2c1.9,0.1,3.8,0.2,5.7,0.2C183.9,187.5,203.8,175.7,204.7,160.9z"/>
<ellipse class="st22" cx="164.8" cy="174" rx="45.3" ry="27.6"/>
<ellipse class="st30" cx="164.8" cy="150.2" rx="42.1" ry="26"/>
<linearGradient id="SVGID_10_" gradientUnits="userSpaceOnUse" x1="157.5013" y1="376.4165" x2="149.0966" y2="354.3906" gradientTransform="matrix(1 0 0 -1 0 532)">
	<stop  offset="0" style="stop-color:#000000"/>
	<stop  offset="0.9958" style="stop-color:#000000;stop-opacity:0"/>
</linearGradient>
<path class="st32" d="M201.5,137.5c-7.2-7.9-20.9-13.3-36.7-13.3c-1.4,0-2.9,0-4.3,0.1c-0.5,0-1.1,0.1-1.6,0.2
	c-0.8,0.1-1.7,0.1-2.5,0.2c-0.7,0.1-1.3,0.2-2,0.3c-0.7,0.1-1.4,0.2-2,0.3c-0.8,0.1-1.5,0.3-2.2,0.5c-0.5,0.1-1.1,0.2-1.6,0.4
	c-0.8,0.2-1.6,0.5-2.4,0.7c-0.4,0.1-0.8,0.2-1.2,0.4c-0.9,0.3-1.7,0.6-2.6,1c-0.3,0.1-0.6,0.2-0.9,0.3c-0.9,0.4-1.8,0.8-2.7,1.2
	c-0.2,0.1-0.4,0.2-0.5,0.2c-0.9,0.5-1.8,1-2.7,1.5c-0.1,0.1-0.2,0.1-0.3,0.2c-0.9,0.6-1.8,1.1-2.6,1.7c0,0,0,0-0.1,0
	c-6,4.4-9.7,10-9.9,16.2l0,0l0,0c0,0.2,0,0.4,0,0.6c0,14.3,18.8,26,42,26c-6.8-3.3-11.5-8.1-12.6-13.7c2.4,0.3,4.9,0.4,7.4,0.4
	C182.4,162.9,201,151.6,201.5,137.5z"/>
<path class="st30" d="M203.3,118.6L203.3,118.6l-38.6-90.4l-38.6,90.4l0,0c-1,2.2-1.5,4.6-1.5,7c0,14.4,17.9,26,40.1,26
	c22.1,0,40.1-11.6,40.1-26C204.8,123.1,204.3,120.8,203.3,118.6z"/>
<linearGradient id="SVGID_11_" gradientUnits="userSpaceOnUse" x1="155.6044" y1="404.9143" x2="141.1137" y2="381.1495" gradientTransform="matrix(1 0 0 -1 0 532)">
	<stop  offset="0" style="stop-color:#000000"/>
	<stop  offset="0.9958" style="stop-color:#000000;stop-opacity:0"/>
</linearGradient>
<path class="st33" d="M194.5,137.2c-21.6,4.9-41.7-2.6-44.8-16.6c-0.5-2.4-0.5-4.8-0.1-7.2l0,0l15.5-84.3l-0.4-1l-38.6,90.4l0,0
	c-1,2.2-1.5,4.6-1.5,7c0,14.4,17.9,26,40.1,26c17.1,0,31.6-6.9,37.4-16.6C199.7,135.8,197.2,136.6,194.5,137.2z"/>
</svg>
