<?xml version="1.0" encoding="utf-8"?>
<!-- Generator: Adobe Illustrator 21.1.0, SVG Export Plug-In . SVG Version: 6.00 Build 0)  -->
<svg version="1.1" id="Startups" xmlns="http://www.w3.org/2000/svg" xmlns:xlink="http://www.w3.org/1999/xlink" x="0px" y="0px"
	 viewBox="0 0 891.5 510.3" style="enable-background:new 0 0 891.5 510.3;" xml:space="preserve">
<style type="text/css">
	.st0{opacity:0.9;enable-background:new    ;}
	.st1{fill:#A7C3D6;}
	.st2{opacity:0.17;fill:#7E9DAA;enable-background:new    ;}
	.st3{opacity:0.33;fill:url(#SVGID_1_);enable-background:new    ;}
	.st4{fill:url(#SVGID_2_);}
	.st5{fill:#BFD2E2;}
	.st6{opacity:0.2;fill:#3B4754;enable-background:new    ;}
	.st7{fill:url(#SVGID_3_);}
	.st8{fill:#EEF6FF;}
	.st9{opacity:0.33;fill:url(#SVGID_4_);enable-background:new    ;}
	.st10{fill:none;stroke:url(#SVGID_5_);stroke-miterlimit:10;}
	.st11{fill:#7289A3;}
	.st12{fill:none;stroke:#7289A3;stroke-width:2;stroke-miterlimit:10;}
	.st13{fill:#BAD3E4;}
	.st14{fill:#2A3C67;}
	.st15{opacity:0.5;fill:#324A7C;enable-background:new    ;}
	.st16{opacity:0.33;}
	.st17{fill:url(#SVGID_6_);}
	.st18{fill:url(#SVGID_7_);}
	.st19{fill:url(#SVGID_8_);}
	.st20{fill:url(#SVGID_9_);}
	.st21{fill:url(#SVGID_10_);}
	.st22{fill:url(#SVGID_11_);}
	.st23{fill:#FFE269;}
	.st24{fill:#e53b51;}
	.st25{fill:#FFFFFF;}
	.st26{fill:url(#SVGID_12_);}
	.st27{fill:url(#SVGID_13_);}
	.st28{opacity:0.3;fill:#C48551;enable-background:new    ;}
	.st29{opacity:0.33;fill:url(#SVGID_14_);enable-background:new    ;}
	.st30{fill:#9DCC4A;}
	.st31{opacity:0.2;fill:url(#SVGID_15_);enable-background:new    ;}
	.st32{fill:url(#SVGID_16_);}
	.st33{fill:none;stroke:#D8DFE5;stroke-linecap:round;stroke-miterlimit:10;}
	.st34{opacity:0.2;fill:url(#SVGID_17_);enable-background:new    ;}
	.st35{fill:url(#SVGID_18_);}
	.st36{opacity:0.7;}
	.st37{enable-background:new    ;}
	.st38{opacity:0.25;}
	.st39{fill:#7E9DAA;}
	.st40{fill:#C6AC91;}
	.st41{fill:#5B5B2E;}
	.st42{fill:#ACC447;}
	.st43{opacity:0.2;fill:url(#SVGID_19_);enable-background:new    ;}
	.st44{fill:none;}
	.st45{opacity:0.2;fill:url(#SVGID_20_);enable-background:new    ;}
	.st46{opacity:0.2;fill:url(#SVGID_21_);enable-background:new    ;}
	.st47{opacity:0.7;fill:#FFFFFF;enable-background:new    ;}
</style>
<g>
	<g class="st0">
		<path class="st1" d="M757.5,400.3l-1.5-2.6l118.7-66.3c5-2.8,7.9-7.8,8-13.5c0-5.7-2.9-10.7-7.8-13.5L554,120.5
			c-17.7-10.1-39.7-10-57.3,0.3L278.5,249.3l-1.5-2.6l218.2-128.5c18.5-10.9,41.6-11,60.3-0.3l321,183.9c5.8,3.3,9.3,9.3,9.3,16.1
			c0,6.8-3.6,12.8-9.5,16.1L757.5,400.3z"/>
	</g>
	<g class="st0">
		<path class="st1" d="M178.1,424.5l-162.7-92c-5.3-3-8.6-8.5-8.6-14.6c-0.1-6.2,3.1-11.7,8.4-14.9l123.3-72.7
			c10.1-5.9,22.6-5.9,32.6,0.1l86.2,51.3l-1.5,2.6L169.5,233c-9.1-5.4-20.4-5.4-29.6-0.1L16.7,305.6c-4.4,2.6-7,7.2-6.9,12.3
			c0,5,2.7,9.6,7.1,12.1l162.7,92L178.1,424.5z"/>
	</g>
	<g class="st0">
		<path class="st1" d="M394.1,465.3l-1.4-2.6l64-34.9c5.4-2.9,8.7-8.3,8.8-14.5c0.1-6.1-3-11.6-8.2-14.7l-123.3-73.1l1.5-2.6
			L458.8,396c6.2,3.7,9.8,10.1,9.7,17.4c-0.1,7.2-4,13.6-10.3,17.1L394.1,465.3z"/>
	</g>
	<path class="st2" d="M452.2,371.1l55.5,35.8c2.1,1.4,4.8,1.4,6.9,0.1l193.1-116.5c4.3-2.6,4.2-8.7-0.1-11.2l-52-30.3
		c-2-1.2-4.5-1.2-6.5,0L452.5,359.9C448.2,362.3,448,368.4,452.2,371.1z"/>

		<linearGradient id="SVGID_1_" gradientUnits="userSpaceOnUse" x1="71.5703" y1="74.5901" x2="362.7159" y2="262.6453" gradientTransform="matrix(1 0 0 -1 0 512)">
		<stop  offset="0" style="stop-color:#A5BDCB"/>
		<stop  offset="0.259" style="stop-color:#B2C8D6;stop-opacity:0.741"/>
		<stop  offset="0.9958" style="stop-color:#D8E9F4;stop-opacity:0"/>
	</linearGradient>
	<path class="st3" d="M406.8,299.2l-147.4-84.6c-3.8-2.1-8.4-2.1-12.1,0.1l-142.9,86.9c-5.6,3.3-5.6,11.5,0.1,14.8l145.9,83.8
		c1.5,0.9,3.2,1.4,5,1.5l0,0h0.3c0.5,0,0.9,0,1.4,0h47.2v-22.1h-8.1l110.7-67.3C411.9,309.4,411.8,302.1,406.8,299.2z"/>

		<linearGradient id="SVGID_2_" gradientUnits="userSpaceOnUse" x1="147.3" y1="204.6" x2="457.7" y2="204.6" gradientTransform="matrix(1 0 0 -1 0 512)">
		<stop  offset="0" style="stop-color:#C7D1E0"/>
		<stop  offset="1" style="stop-color:#B3CADE"/>
	</linearGradient>
	<path class="st4" d="M457.7,274.8h-46.3l-104.9-60.2c-3.8-2.1-8.4-2.1-12.1,0.1l-98.8,60.1h-48.3v32.6h0.2c-0.6,3.4,0.7,7.1,4.1,9
		l145.9,83.8c3.8,2.1,8.4,2.1,12.1-0.1l144.3-87.8c2-1.2,3.1-3,3.5-4.9h0.2L457.7,274.8L457.7,274.8z"/>
	<path class="st5" d="M457.7,274.8h-46.3l-104.9-60.2c-3.8-2.1-8.4-2.1-12.1,0.1l-98.8,60.1h-48.3v32.6h0.2c-0.6,3.4,0.7,7.1,4.1,9
		l145.9,83.8c3.8,2.1,8.4,2.1,12.1-0.1l144.3-87.8c2-1.2,3.1-3,3.5-4.9h0.2L457.7,274.8L457.7,274.8z"/>
	<path class="st6" d="M401.2,324.4l-18,1.8l2.9,27l22.7,20.4l1-1.1L392.5,357l13.1-7.6l17.5,15.4l1-1.1L401.8,344L401.2,324.4z"/>
	<g>

			<linearGradient id="SVGID_3_" gradientUnits="userSpaceOnUse" x1="147.2124" y1="237.7" x2="457.625" y2="237.7" gradientTransform="matrix(1 0 0 -1 0 512)">
			<stop  offset="0" style="stop-color:#D7E6F2"/>
			<stop  offset="1" style="stop-color:#DEE2F3"/>
		</linearGradient>
		<path class="st7" d="M453.8,266.1l-147.4-84.6c-3.8-2.1-8.4-2.1-12.1,0.1l-142.9,86.9c-5.6,3.3-5.6,11.5,0.1,14.8l145.9,83.8
			c3.8,2.1,8.4,2.1,12.1-0.1l67.7-41.2l12,7.1h0.1l15.8-8.5c0.1-0.1,0.1-0.2,0-0.3l-13-7.4l61.7-37.5
			C458.9,276.2,458.9,269,453.8,266.1z"/>
		<path class="st8" d="M453.8,266.1l-147.4-84.6c-3.8-2.1-8.4-2.1-12.1,0.1l-142.9,86.9c-5.6,3.3-5.6,11.5,0.1,14.8l145.9,83.8
			c3.8,2.1,8.4,2.1,12.1-0.1l67.7-41.2l11.5,6.8c0.4,0,0.7,0,1.1,0l13.7-7.4c0.8-0.4,0.8-1.6,0-2l-11.4-6.5l61.7-37.5
			C458.9,276.2,458.9,269,453.8,266.1z"/>

			<linearGradient id="SVGID_4_" gradientUnits="userSpaceOnUse" x1="271.537" y1="233.7026" x2="-61.9819" y2="213.6741" gradientTransform="matrix(1 0 0 -1 0 512)">
			<stop  offset="0" style="stop-color:#A5BDCB"/>
			<stop  offset="0.259" style="stop-color:#B2C8D6;stop-opacity:0.741"/>
			<stop  offset="0.9958" style="stop-color:#D8E9F4;stop-opacity:0"/>
		</linearGradient>
		<path class="st9" d="M151.6,283.3l45.7,26.2l101.4,8.5l11.2-17.5c8.7-2.6,2.3-5.7,8.7-9.1l55-7.7l-35.3-24.4
			c-9.1-21-58-18.6-117.1-18.6c-8.7,0-17,0.3-25.2,0.8l-44.4,27C145.8,271.8,145.8,280,151.6,283.3z"/>
	</g>
	<path class="st6" d="M422.1,274.8l0.6-1.4l-19-9.1v-0.1l0,0l-15.3-7.3l-0.3-0.4l-0.2,0.2L335,231.3l-0.6,1.4l35.8,17.2l-12.7,8.5
		L331,246.3l-0.6,1.4l59.2,27.1l0.3,0.5l0.3-0.2l17.5,8l0.6-1.4l-16.6-7.6l12-8L422.1,274.8z M371.8,250.7l14.7,7l-12.4,8.3
		l-14.9-6.8L371.8,250.7z M390.2,273.4l-14.5-6.6l12.4-8.3l14.2,6.8L390.2,273.4z"/>

		<linearGradient id="SVGID_5_" gradientUnits="userSpaceOnUse" x1="389.5" y1="179.1" x2="389.5" y2="179.1" gradientTransform="matrix(1 0 0 -1 0 512)">
		<stop  offset="0" style="stop-color:#D7E6F2"/>
		<stop  offset="1" style="stop-color:#DEE2F3"/>
	</linearGradient>
	<path class="st10" d="M389.5,332.9"/>
	<g>
		<path class="st11" d="M334.8,173.9l15-8.3h0.1l29.4,15.1c0.1,0,0.1,1.8,0,1.9l-15.3,8.3c0,0,0.7-0.3,0,0l-29.2-16.6
			C334.7,174.1,334.7,173.9,334.8,173.9z"/>
		<path class="st8" d="M334.8,171.7l14.9-8.3h0.1l29.3,16.7c0.1,0.1,0.1,0.2,0,0.3l-15.8,8.5h-0.1L334.8,172
			C334.7,171.9,334.7,171.8,334.8,171.7z"/>
		<path class="st11" d="M423.1,273.1l-5.9-12.4c0-0.1,0-0.2-0.1-0.2l-0.1-0.1l-31.7-65.9c0-0.2,0-0.4-0.1-0.5s-0.2-0.2-0.3-0.3
			l-5.6-11.7c-0.2-0.4-0.6-0.5-0.9-0.3c-0.4,0.2-0.5,0.6-0.3,0.9l5.5,11.5l-13.1,7.5l-5.5-11.4c-0.2-0.4-0.6-0.5-0.9-0.3
			c-0.4,0.2-0.5,0.6-0.3,0.9l12.3,25.6c0,0.1,0,0.2,0.1,0.3c0,0.1,0.1,0.1,0.1,0.2l18.7,38.8c0,0.1,0,0.2,0.1,0.3
			c0,0.1,0.1,0.1,0.1,0.2l12.4,25.8c0.1,0.3,0.4,0.4,0.6,0.4c0.1,0,0.2,0,0.3-0.1c0.4-0.2,0.5-0.6,0.3-0.9l-5.8-12l13.2-7.4
			l5.7,11.9c0.1,0.3,0.4,0.4,0.6,0.4c0.1,0,0.2,0,0.3-0.1C423.1,273.9,423.3,273.5,423.1,273.1z M377.7,216.7l13.2-7.4l5.6,11.7
			l-13.1,7.5L377.7,216.7z M397.1,222.4l5.6,11.7l-13.1,7.5l-5.6-11.7L397.1,222.4z M403.3,235.3l5.7,12l-13.2,7.4l-5.7-11.8
			L403.3,235.3z M390.2,208l-13.2,7.4l-6-12.4l13.1-7.5L390.2,208z M396.5,256l13.2-7.4l5.8,12l-13.2,7.4L396.5,256z"/>
	</g>
	<path class="st12" d="M347.5,152.2l26,13.1c3.5,1.8,5.6,5.4,5.3,9.4l-0.5,7.1"/>
	<path class="st13" d="M497.9,216.9l0.9,181.2c0,8.4,9.1,13.6,16.4,9.4L716,292c3.4-2,5.5-5.6,5.5-9.5V96.4c0-8.4-9.1-13.7-16.4-9.5
		L507.6,200.1C501.6,203.6,497.9,210,497.9,216.9z"/>
	<path class="st14" d="M503.5,221.8l0.9,181.2c0,8.4,9.1,13.6,16.4,9.4l200.8-115.5c3.4-2,5.5-5.6,5.5-9.5V101.3
		c0-8.4-9.1-13.7-16.4-9.5L513.2,204.9C507.2,208.4,503.5,214.8,503.5,221.8z"/>
	<path class="st15" d="M727.2,101.3c0-8.4-9.1-13.7-16.4-9.5L513.2,204.9c-6,3.4-9.7,9.9-9.7,16.8l0.9,181.2
		c0,8.4,9.1,13.6,16.4,9.4"/>
	<g class="st16">
		<g>

				<linearGradient id="SVGID_6_" gradientUnits="userSpaceOnUse" x1="667.9362" y1="451.5721" x2="968.5018" y2="482.7685" gradientTransform="matrix(-1 0 0 -1 808.1852 512)">
				<stop  offset="0" style="stop-color:#A5BDCB"/>
				<stop  offset="0.9958" style="stop-color:#D8E9F4;stop-opacity:0"/>
			</linearGradient>
			<path class="st17" d="M30.2,70h112.6c0,0-2.2-18.8-17.9-18.9c-9.8-0.1-14,6.7-14,6.7s-3-23.9-26.5-24
				c-15.6-0.1-20.6,23.5-20.6,23.5S36,45.6,30.2,70z"/>
		</g>
		<g>

				<linearGradient id="SVGID_7_" gradientUnits="userSpaceOnUse" x1="667.9362" y1="451.5721" x2="968.5018" y2="482.7685" gradientTransform="matrix(-1 0 0 -1 808.1852 512)">
				<stop  offset="0" style="stop-color:#A5BDCB"/>
				<stop  offset="0.9958" style="stop-color:#D8E9F4;stop-opacity:0"/>
			</linearGradient>
			<path class="st18" d="M30.2,70h112.6c0,0-2.2-18.8-17.9-18.9c-9.8-0.1-14,6.7-14,6.7s-3-23.9-26.5-24
				c-15.6-0.1-20.6,23.5-20.6,23.5S36,45.6,30.2,70z"/>
		</g>
	</g>
	<g class="st16">
		<g>

				<linearGradient id="SVGID_8_" gradientUnits="userSpaceOnUse" x1="158.5727" y1="445.9419" x2="331.4949" y2="463.89" gradientTransform="matrix(-1 0 0 -1 808.1852 512)">
				<stop  offset="0" style="stop-color:#A5BDCB"/>
				<stop  offset="0.9958" style="stop-color:#D8E9F4;stop-opacity:0"/>
			</linearGradient>
			<path class="st19" d="M586.3,71.6h64.8c0,0-1.3-10.8-10.3-10.9c-5.6,0-8.1,3.8-8.1,3.8s-1.7-13.7-15.2-13.8
				c-9,0-11.8,13.5-11.8,13.5S589.6,57.6,586.3,71.6z"/>
		</g>
		<g>

				<linearGradient id="SVGID_9_" gradientUnits="userSpaceOnUse" x1="158.5727" y1="445.9419" x2="331.4949" y2="463.89" gradientTransform="matrix(-1 0 0 -1 808.1852 512)">
				<stop  offset="0" style="stop-color:#A5BDCB"/>
				<stop  offset="0.9958" style="stop-color:#D8E9F4;stop-opacity:0"/>
			</linearGradient>
			<path class="st20" d="M586.3,71.6h64.8c0,0-1.3-10.8-10.3-10.9c-5.6,0-8.1,3.8-8.1,3.8s-1.7-13.7-15.2-13.8
				c-9,0-11.8,13.5-11.8,13.5S589.6,57.6,586.3,71.6z"/>
		</g>
	</g>
	<g class="st16">

			<linearGradient id="SVGID_10_" gradientUnits="userSpaceOnUse" x1="468.3846" y1="410.8528" x2="682.6625" y2="380.1633" gradientTransform="matrix(-1 0 0 -1 915.7437 512)">
			<stop  offset="0" style="stop-color:#A5BDCB"/>
			<stop  offset="0.9958" style="stop-color:#D8E9F4;stop-opacity:0"/>
		</linearGradient>
		<path class="st21" d="M329.3,124.8h88.3c0,0-2.1-17.4-16.6-17.6c-9.1-0.1-13,6.2-13,6.2s-7.7-18.7-28.3-18.7
			C331,94.7,329.3,124.8,329.3,124.8z"/>

			<linearGradient id="SVGID_11_" gradientUnits="userSpaceOnUse" x1="468.3846" y1="410.8528" x2="682.6625" y2="380.1633" gradientTransform="matrix(-1 0 0 -1 915.7437 512)">
			<stop  offset="0" style="stop-color:#A5BDCB"/>
			<stop  offset="0.9958" style="stop-color:#D8E9F4;stop-opacity:0"/>
		</linearGradient>
		<path class="st22" d="M329.3,124.8h88.3c0,0-2.1-17.4-16.6-17.6c-9.1-0.1-13,6.2-13,6.2s-7.7-18.7-28.3-18.7
			C331,94.7,329.3,124.8,329.3,124.8z"/>
	</g>
	<path class="st14" d="M255.6,263.6c0.8-0.8,57.6-54.4,13-54.4c-45,0-45.6,60.5-45.6,60.5v8.7c0,4.3,4.3,7.3,8.3,5.9l24.1-8.5
		c3.4,0,6.1-2.8,6.1-6.2l0,0C261.6,266.4,258.9,263.7,255.6,263.6z"/>
	<path class="st14" d="M346.3,263.6c-0.8-0.8-57.7-54.3-13.1-54.3c45,0,45.7,60.4,45.7,60.4v8.7c0,4.3-4.3,7.3-8.3,5.9l-24.1-8.4
		c-3.4,0-6.2-2.7-6.2-6.1l0,0C340.3,266.4,343,263.7,346.3,263.6z"/>
	<path class="st23" d="M357.1,138.2c0-50.8-33.3-106-49.7-126.1c-3.5-4.3-9.9-4.2-13.4,0c-16.4,20.2-49.5,71.6-49.5,122.4
		c0.1,63.6,12.8,141.1,12.8,141.1l0,0c1.9,13.1,20.6,23.4,43.5,23.4c22.8,0,41.5-10.3,43.5-23.3l0,0
		C344.4,275.7,357.1,201.8,357.1,138.2z"/>
	<path class="st24" d="M294,12.1c-7,8.6-17.1,23-26.3,40.6c9.3,3.7,20.6,6,32.8,5.9c12.1,0,23.3-2.2,32.5-5.9
		c-9-17.7-18.8-32.2-25.6-40.6C303.9,7.8,297.4,7.8,294,12.1z"/>
	<g>
		<circle class="st25" cx="300.9" cy="120.6" r="26.7"/>

			<linearGradient id="SVGID_12_" gradientUnits="userSpaceOnUse" x1="256.5832" y1="390.8458" x2="293.2909" y2="390.8458" gradientTransform="matrix(1 -9.037722e-04 -9.037722e-04 -1 26.27 511.6943)">
			<stop  offset="0" style="stop-color:#5fcece"/>
			<stop  offset="1" style="stop-color:#5fcece"/>
		</linearGradient>
		<circle class="st26" cx="300.9" cy="120.6" r="18.4"/>
		<circle class="st25" cx="305.6" cy="115.9" r="6.1"/>
	</g>
	<g>

			<linearGradient id="SVGID_13_" gradientUnits="userSpaceOnUse" x1="256.6" y1="228.25" x2="345.2" y2="228.25" gradientTransform="matrix(1 0 0 -1 0 512)">
			<stop  offset="0" style="stop-color:#5fcece"/>
			<stop  offset="1" style="stop-color:#5fcece"/>
		</linearGradient>
		<path class="st27" d="M300.9,281.1c-18,0-34-5-44.3-12.7c0.5,4.6,0.8,7.3,0.8,7.3l0,0c1.9,13.1,20.6,23.4,43.5,23.4
			c22.8,0,41.5-10.3,43.5-23.3l0,0c0,0,0.3-2.7,0.8-7.4C334.9,276.1,318.9,281.1,300.9,281.1z"/>
	</g>
	<path class="st28" d="M295.5,294.3l-3.7-41.7l-16.3,11.5c-2.9-19-11-76.3-11-129.5c0-48.5,19.3-101.4,32.4-124.7
		c-1.1,0.5-2,1.3-2.8,2.3c-16.4,20.2-49.5,71.6-49.5,122.4c0.1,63.6,12.8,141.1,12.8,141.1l0,0c1.9,13.1,20.6,23.4,43.5,23.4
		c3.4,0,6.8-0.3,10-0.7C305.2,297.6,300,296.2,295.5,294.3z"/>
	<path class="st14" d="M295.8,251.4h8.4c4.5,0,8,3.8,7.6,8.3l-3.8,51.5c-0.4,3.8-3.6,6.8-7.4,6.8l0,0c-3.8,0.1-7.1-2.8-7.6-6.6
		l-4.6-51.5C287.8,255.4,291.3,251.4,295.8,251.4z"/>
	<g>

			<linearGradient id="SVGID_14_" gradientUnits="userSpaceOnUse" x1="804.0779" y1="246.887" x2="996.8796" y2="261.9106" gradientTransform="matrix(1 0 0 -1 0 512)">
			<stop  offset="0" style="stop-color:#A5BDCB"/>
			<stop  offset="0.259" style="stop-color:#B2C8D6;stop-opacity:0.741"/>
			<stop  offset="0.9958" style="stop-color:#D8E9F4;stop-opacity:0"/>
		</linearGradient>
		<path class="st29" d="M828.8,252.7C828.8,252.7,828.8,252.6,828.8,252.7c-0.1-0.1-0.2-0.1-0.3-0.1c-0.2-0.1-0.4-0.2-0.7-0.3
			c-0.1,0-0.1,0-0.2-0.1c-0.2-0.1-0.5-0.2-0.7-0.3c0,0-0.1,0-0.1-0.1c-0.3-0.1-0.5-0.2-0.8-0.3h-0.1c-0.3-0.1-0.6-0.2-0.8-0.3
			c0,0,0,0-0.1,0c-0.3-0.1-0.6-0.2-0.9-0.2l0,0c-0.3-0.1-0.6-0.2-0.9-0.2l0,0c-7.2-1.5-15.8-0.9-22.4,2.2
			c-18.7,8.8-22.4,20.8-23.1,25.2c-0.2,1,1,1.8,2.8,1.9c1.5,0.1,3.6,0.2,6.1,0.2c0.1,0,0.2,0,0.4,0s0.4,0,0.6,0c0.2,0,0.3,0,0.5,0
			s0.4,0,0.6,0c0.2,0,0.4,0,0.5,0c0.2,0,0.4,0,0.6,0c0.2,0,0.4,0,0.6,0c0.2,0,0.4,0,0.6,0c0.2,0,0.4,0,0.7,0c0.2,0,0.4,0,0.6,0
			c0.3,0,0.7,0,1.1-0.1c0.2,0,0.4,0,0.6,0c0.3,0,0.7,0,1-0.1c0.2,0,0.4,0,0.5,0c0.3,0,0.6,0,0.9-0.1c0.2,0,0.4,0,0.6-0.1
			c0.3,0,0.6,0,0.8-0.1c0.2,0,0.4,0,0.6-0.1c0.3,0,0.6-0.1,0.9-0.1c0.2,0,0.4,0,0.6-0.1c0.3,0,0.6-0.1,0.9-0.1c0.2,0,0.4,0,0.6-0.1
			c0.4,0,0.7-0.1,1.1-0.1c0.1,0,0.3,0,0.4-0.1c0.5-0.1,1-0.1,1.6-0.2c0.1,0,0.2,0,0.3-0.1c0.4-0.1,0.8-0.1,1.3-0.2
			c0.2,0,0.4-0.1,0.5-0.1c0.3-0.1,0.7-0.1,1.1-0.2c0.2,0,0.4-0.1,0.6-0.1c0.3-0.1,0.7-0.1,1-0.2c0.2,0,0.4-0.1,0.6-0.1
			c0.3-0.1,0.7-0.1,1-0.2c0.2,0,0.4-0.1,0.6-0.1c0.4-0.1,0.7-0.2,1.1-0.3c0.2,0,0.4-0.1,0.6-0.1c0.5-0.1,0.9-0.2,1.4-0.4
			c0.1,0,0.2,0,0.3-0.1c0.6-0.1,1.1-0.3,1.7-0.5c0.1,0,0.3-0.1,0.4-0.1c0.4-0.1,0.8-0.2,1.2-0.4c0.2-0.1,0.4-0.1,0.6-0.2
			c0.4-0.1,0.7-0.2,1.1-0.3c0.2-0.1,0.4-0.1,0.6-0.2c0.3-0.1,0.7-0.2,1-0.4c0.2-0.1,0.4-0.2,0.7-0.2c0.3-0.1,0.7-0.3,1-0.4
			c0.2-0.1,0.4-0.2,0.6-0.2c0.4-0.1,0.7-0.3,1.1-0.4c0.2-0.1,0.4-0.1,0.5-0.2c0.5-0.2,1.1-0.5,1.6-0.7c0.6-0.3,1.2-0.6,1.8-0.9
			c1.1-0.6,2.2-1.3,3.1-2c5.4-4.4,6.1-10.1,0.9-14.5"/>
		<path class="st30" d="M820.4,196.4c-5.2,5-18.4,19.6-18.9,41.4c-0.3,12,9.1,22.2,21.1,22.2c11.5-0.1,20.8-9.4,20.8-21
			c0-22.5-13.5-37.6-18.9-42.6C823.4,195.3,821.6,195.3,820.4,196.4z"/>

			<linearGradient id="SVGID_15_" gradientUnits="userSpaceOnUse" x1="811.9656" y1="258.4202" x2="824.1218" y2="280.4531" gradientTransform="matrix(1 0 0 -1 0 512)">
			<stop  offset="3.584226e-03" style="stop-color:#000000"/>
			<stop  offset="1" style="stop-color:#000000;stop-opacity:0.7"/>
		</linearGradient>
		<path class="st31" d="M833.3,243.7c-12,0.1-21.4-10.2-21.1-22.2c0.2-8.3,2.2-15.6,4.9-21.7c-6.1,6.8-15.2,19.9-15.6,38
			c-0.3,12,9.1,22.2,21.1,22.2c10.9-0.1,19.8-8.4,20.7-19C840.4,242.7,836.9,243.7,833.3,243.7z"/>
	</g>
	<g>
		<circle class="st25" cx="300.7" cy="190.8" r="20"/>

			<linearGradient id="SVGID_16_" gradientUnits="userSpaceOnUse" x1="260.9198" y1="320.6461" x2="288.469" y2="320.6461" gradientTransform="matrix(1 -9.037722e-04 -9.037722e-04 -1 26.27 511.6943)">
			<stop  offset="0" style="stop-color:#5fcece"/>
			<stop  offset="1" style="stop-color:#5fcece"/>
		</linearGradient>
		<circle class="st32" cx="300.7" cy="190.8" r="13.8"/>
		<circle class="st25" cx="304.2" cy="187.3" r="4.6"/>
	</g>
	<path class="st11" d="M423.7,364.2l-18.1-39.3c-0.2-0.4-0.6-0.5-1-0.4c-0.4,0.2-0.5,0.6-0.4,1L410,338l-13.3,6.9l-5.5-11.9
		c-0.2-0.4-0.6-0.5-1-0.4c-0.4,0.2-0.5,0.6-0.4,1l18.4,39.9c0.1,0.3,0.4,0.4,0.7,0.4c0.1,0,0.2,0,0.3-0.1c0.4-0.2,0.5-0.6,0.4-1
		l-5.8-12.5l13.3-6.9l5.2,11.4c0.1,0.3,0.4,0.4,0.7,0.4c0.1,0,0.2,0,0.3-0.1C423.7,365,423.8,364.5,423.7,364.2z M403.2,359
		l-5.9-12.7l13.3-6.9l5.9,12.7L403.2,359z"/>
	<line class="st33" x1="389.5" y1="332.9" x2="405.2" y2="324.4"/>

		<linearGradient id="SVGID_17_" gradientUnits="userSpaceOnUse" x1="525.2" y1="243.7567" x2="635.4" y2="243.7567" gradientTransform="matrix(1 0 0 -1 0 512)">
		<stop  offset="3.584226e-03" style="stop-color:#000000"/>
		<stop  offset="1" style="stop-color:#000000;stop-opacity:0.7"/>
	</linearGradient>
	<path class="st34" d="M525.2,221.9v149.9c0,5.3,5.7,8.7,10.4,6l96.3-54.7c2.2-1.2,3.5-3.5,3.5-6V164.7c0-5.4-5.9-8.7-10.5-6
		l-96.3,57.2C526.5,217.2,525.2,219.5,525.2,221.9z"/>

		<linearGradient id="SVGID_18_" gradientUnits="userSpaceOnUse" x1="542.2" y1="239.7567" x2="652.4" y2="239.7567" gradientTransform="matrix(1 0 0 -1 0 512)">
		<stop  offset="0" style="stop-color:#5fcece"/>
		<stop  offset="1" style="stop-color:#5fcece"/>
	</linearGradient>
	<path class="st35" d="M542.2,225.9v149.9c0,5.3,5.7,8.7,10.4,6l96.3-54.7c2.2-1.2,3.5-3.5,3.5-6V168.7c0-5.4-5.9-8.7-10.5-6
		l-96.3,57.2C543.5,221.2,542.2,223.5,542.2,225.9z"/>
	<g class="st36">
		<g>
			<g class="st37">
				<g>
					<g>
						<g>
							<g>
								<g>
									<path class="st25" d="M585.4,335.3c0.1,0.5,0.1,0.9,0.2,1.2l0,0C585.5,336.2,585.5,335.8,585.4,335.3 M580.6,312.7
										c-9.7,12.4-9.9,30.2-10,31v3.8c0,1.2,0.5,2.1,1.4,2.3c0.6,0.1,1.3,0,1.9-0.4c0.4-0.2,0.8-0.5,1.1-0.9l8.9-8.7
										c0-0.1,0-0.1,0-0.2l0,0l-0.2-0.8c0-0.1-0.1-0.6-0.2-1.6c0,0.2,0.1,0.4,0.1,0.6l-9.2,9c-0.2,0.2-0.3,0.3-0.5,0.4
										c-0.3,0.2-0.6,0.2-0.8,0.2c-0.4-0.1-0.6-0.5-0.6-1v-3.8c0-0.3,0.2-16.4,8.3-27.5c0.1,1.3,0.3,2.5,0.4,3.7
										c-0.2-1.7-0.4-3.5-0.6-5.4C580.6,313.1,580.6,312.9,580.6,312.7 M582.4,310.7c0,0.5,0.1,0.9,0.1,1.4L582.4,310.7"/>
									<path class="st25" d="M620.3,290.3c-0.9,10.8-2,20.1-2.6,25C618.3,310.3,619.4,301,620.3,290.3 M622.2,288.7
										c0,0.2,0,0.5-0.1,0.7c-0.3,3.8-0.7,7.5-1,10.8c0.3-2.8,0.6-5.8,0.8-8.9c8,1.9,8.4,17.5,8.4,17.9v3.8c0,0.5-0.2,1.2-0.6,1.7
										c-0.2,0.3-0.5,0.6-0.8,0.8c-0.2,0.1-0.3,0.2-0.5,0.2l-9.2,1.6l0,0c-0.1,0.7-0.1,1.1-0.2,1.2l-0.1,1h-0.1c0,0.1,0,0.1,0,0.2
										l9-1.6c0.4-0.1,0.7-0.2,1.1-0.4c0.7-0.4,1.4-1,1.9-1.8c0.9-1.2,1.4-2.7,1.4-4v-3.8C632.3,307.3,632,289.9,622.2,288.7
										 M620.4,288.6l-0.1,1.7C620.3,289.7,620.4,289.1,620.4,288.6L620.4,288.6"/>
									<polyline class="st25" points="597.2,214.8 596.9,215.3 596.9,215.3 597.2,214.8 									"/>
									<polyline class="st25" points="596.6,216 596.3,216.7 596.3,216.7 596.6,216 596.6,216 									"/>
									<polyline class="st25" points="604.9,210.3 605.2,210.6 605.2,210.6 604.9,210.3 									"/>
									<path class="st25" d="M604.3,213.4L604.3,213.4L604.3,213.4L604.3,213.4 M605.5,210.9L605.5,210.9l0.2,0.2L605.5,210.9
										L605.5,210.9"/>
									<path class="st25" d="M596,217.3c-0.1,0.3-0.3,0.6-0.4,0.9l0,0l0,0l0,0L596,217.3L596,217.3"/>
									<path class="st25" d="M596.5,220c-0.1,0.2-0.2,0.4-0.3,0.7l0,0L596.5,220L596.5,220 M594.7,220.1l-0.1,0.2l0,0
										C594.6,220.3,594.7,220.2,594.7,220.1 M594.9,219.6l-0.2,0.4C594.8,219.9,594.9,219.7,594.9,219.6L594.9,219.6"/>
									<path class="st25" d="M597.6,323.6l1.5,17.6l0,0L597.6,323.6 M602.7,315.9L602.7,315.9c1-0.6,1.9-0.7,2.6-0.3
										C604.7,315.2,603.7,315.3,602.7,315.9 M594.7,293.7c-0.1,0.5-0.1,0.9-0.1,1.4C594.6,294.6,594.6,294.1,594.7,293.7
										 M594.7,293.5v0.1C594.7,293.6,594.7,293.6,594.7,293.5 M594.7,293.4L594.7,293.4L594.7,293.4 M594.7,293.2L594.7,293.2
										L594.7,293.2 M596.8,288.1c-0.2,0.3-0.4,0.7-0.6,1c0.1-0.2,0.2-0.4,0.3-0.6S596.7,288.2,596.8,288.1 M600.7,283.8
										L600.7,283.8L600.7,283.8 M600.9,283.6C600.9,283.7,600.9,283.7,600.9,283.6C600.9,283.7,600.9,283.7,600.9,283.6
										 M601.1,283.5C601.1,283.6,601.1,283.6,601.1,283.5C601.1,283.6,601.1,283.6,601.1,283.5 M600.6,234.3
										c0.1-0.1,0.3-0.2,0.4-0.2l0,0c0.1-0.1,0.3-0.2,0.4-0.2c-0.1,0.1-0.3,0.2-0.4,0.2l0,0C600.9,234.2,600.7,234.3,600.6,234.3
										 M601.9,233.6c-0.1,0-0.2,0.1-0.2,0.1C601.7,233.7,601.8,233.6,601.9,233.6 M600.2,234.6c0.1-0.1,0.2-0.1,0.3-0.2
										C600.4,234.5,600.3,234.5,600.2,234.6 M602.3,233.4c-0.1,0-0.1,0.1-0.2,0.1C602.2,233.4,602.2,233.4,602.3,233.4
										 M599.8,234.8c0.1,0,0.2-0.1,0.2-0.1C599.9,234.7,599.9,234.8,599.8,234.8 M602.7,233.1c-0.1,0-0.1,0.1-0.2,0.1
										C602.6,233.2,602.6,233.1,602.7,233.1 M599.4,235c0.1,0,0.2-0.1,0.2-0.1C599.5,234.9,599.4,235,599.4,235 M603.1,232.9
										L603,233C603,232.9,603,232.9,603.1,232.9 M598.9,235.2c0.1,0,0.2-0.1,0.2-0.1C599.1,235.2,599,235.2,598.9,235.2
										 M603.5,232.6c0,0-0.1,0-0.1,0.1C603.4,232.6,603.4,232.6,603.5,232.6 M598.5,235.4c0.1,0,0.2-0.1,0.2-0.1
										C598.7,235.4,598.6,235.4,598.5,235.4 M603.9,232.3C603.8,232.4,603.8,232.4,603.9,232.3
										C603.8,232.4,603.8,232.4,603.9,232.3 M598.1,235.7c0.1,0,0.1-0.1,0.2-0.1C598.3,235.6,598.2,235.6,598.1,235.7
										 M604.2,232.1L604.2,232.1L604.2,232.1 M597.7,235.9c0.1,0,0.1-0.1,0.2-0.1C597.9,235.8,597.8,235.8,597.7,235.9
										 M597.3,236c0.1,0,0.1-0.1,0.2-0.1C597.4,236,597.4,236,597.3,236 M596.9,236.2c0.1,0,0.1-0.1,0.2-0.1
										C597,236.2,597,236.2,596.9,236.2 M596.5,236.4c0.1,0,0.1-0.1,0.2-0.1C596.6,236.3,596.6,236.4,596.5,236.4 M596.1,236.6
										c0.1,0,0.1-0.1,0.2-0.1C596.2,236.5,596.2,236.5,596.1,236.6 M595.8,236.7L595.8,236.7
										C595.9,236.7,595.8,236.7,595.8,236.7 M594.7,237.1C594.7,237.1,594.8,237.1,594.7,237.1
										C594.8,237.1,594.7,237.1,594.7,237.1 M594.3,237.3C594.4,237.3,594.4,237.3,594.3,237.3
										C594.4,237.3,594.4,237.3,594.3,237.3 M594,237.4L594,237.4L594,237.4 M593.6,237.6C593.6,237.6,593.6,237.5,593.6,237.6
										C593.6,237.5,593.6,237.6,593.6,237.6 M593.2,237.7L593.2,237.7L593.2,237.7 M592.8,237.8
										C592.8,237.8,592.9,237.8,592.8,237.8C592.9,237.8,592.8,237.8,592.8,237.8 M592.5,237.9L592.5,237.9L592.5,237.9
										 M592.1,238L592.1,238L592.1,238 M587.1,239c-4.3,12.2-8.4,27.4-8.4,40.4c0,9.8,0.7,21,1.9,33.3c0,0.2,0,0.4,0.1,0.7
										c0.2,1.9,0.4,3.6,0.6,5.4c1,8.8,1.9,15.6,2.4,18.5c0.1,0.9,0.2,1.5,0.2,1.6l0.2,0.8l0,0c0,0.1,0,0.1,0,0.2
										c1.2,4.1,6.3,5,13.1,2.2l-1.4-17.1c0-0.2,0-0.4,0-0.6c0,0.2,0,0.4,0,0.6l1.3,14.9c-6.1,2.3-10.7,1.4-11.2-2.5l-0.1-0.9l0,0
										l0,0c0-0.3-0.1-0.7-0.2-1.2c-0.6-3.8-1.8-12.5-2.8-23.3c0-0.5-0.1-0.9-0.1-1.4c-1.2-12-1.8-22.9-1.8-32.4
										c0-12.7,4-27.6,8.3-39.5c-0.3,0-0.5,0.1-0.8,0.1L587.1,239 M590,235.8c-0.1,0.1-0.1,0.3-0.2,0.4
										C589.9,236.1,589.9,236,590,235.8 M611.9,223c0.1,0.1,0.2,0.2,0.2,0.4C612.1,223.3,612,223.1,611.9,223 M590.2,235.3
										c0,0.1-0.1,0.3-0.1,0.4C590.1,235.6,590.1,235.5,590.2,235.3 M590.3,234.9c-0.1,0.1-0.1,0.3-0.2,0.4
										C590.2,235.2,590.3,235,590.3,234.9 M590.5,234.4c-0.1,0.1-0.1,0.3-0.2,0.4C590.4,234.6,590.5,234.5,590.5,234.4
										 M590.9,233.4c-0.1,0.3-0.2,0.6-0.3,0.9C590.7,234,590.8,233.7,590.9,233.4 M589,234c-0.6,1.5-1.1,3-1.7,4.6l0.3-0.9
										C588.1,236.4,588.5,235.2,589,234 M589.1,233.7C589.1,233.7,589,233.7,589.1,233.7C589,233.7,589.1,233.7,589.1,233.7
										 M591.3,232.4c-0.1,0.3-0.2,0.6-0.4,0.9C591,233.1,591.1,232.8,591.3,232.4 M591.4,232c-0.1,0.1-0.1,0.3-0.2,0.4
										C591.3,232.3,591.4,232.1,591.4,232 M591.6,231.6c0,0.1-0.1,0.2-0.1,0.3C591.5,231.8,591.6,231.7,591.6,231.6 M591.7,231.3
										L591.7,231.3L591.7,231.3 M609.5,219.4c0.8,1.1,1.6,2.2,2.4,3.6C611.1,221.7,610.3,220.5,609.5,219.4 M609.4,219.3
										C609.4,219.3,609.4,219.4,609.4,219.3C609.4,219.4,609.4,219.3,609.4,219.3 M609.3,219.2L609.3,219.2L609.3,219.2
										 M596,221.1L596,221.1L596,221.1L596,221.1 M607.9,213.4c2.2,2.5,4.5,5.6,6.4,8.8l0.5,0.8l-1,1c-0.4,0.5-0.9,0.9-1.4,1.4
										c0.2-0.2,0.4-0.4,0.6-0.6c4.9,8.3,8.7,19.2,8.8,31.2c0,9.2-0.5,20.1-1.5,32.5c0,0.6-0.1,1.2-0.1,1.7
										c-0.9,10.8-2,20.1-2.6,25c-0.2,1.3-0.3,2.3-0.4,2.9l-0.1,1c-0.5,4.6-5.2,10.9-11.6,15.7l-0.1,2.3
										c6.9-5.1,12.2-12,13.4-17.6c0-0.1,0-0.1,0-0.2h0.1l0.1-1c0-0.1,0.1-0.5,0.2-1.2c0.3-2.5,1.1-8.8,1.9-17.1
										c0.3-3.3,0.7-7,1-10.8c0-0.2,0-0.5,0.1-0.7c1.1-12.9,1.6-24.2,1.5-33.7C623.7,237.2,615.7,222.1,607.9,213.4 M605.5,214.6
										L605.5,214.6L605.5,214.6L605.5,214.6 M594.4,220.7L594.4,220.7L594.4,220.7L594.4,220.7"/>
									<path class="st25" d="M596.2,220.7c-0.1,0.1-0.1,0.3-0.2,0.4l0,0L596.2,220.7L596.2,220.7L596.2,220.7"/>
									<path class="st25" d="M596.7,219.5c-0.1,0.2-0.2,0.3-0.2,0.5v-0.1C596.6,219.8,596.7,219.6,596.7,219.5 M597,218.9
										c-0.1,0.1-0.1,0.3-0.2,0.4C596.9,219.2,596.9,219,597,218.9 M594.9,219.6L594.9,219.6L594.9,219.6L594.9,219.6
										 M595.1,219.2c0,0.1-0.1,0.1-0.1,0.2C595.1,219.4,595.1,219.3,595.1,219.2"/>
									<path class="st25" d="M604.7,213.8c0.1,0.1,0.2,0.2,0.2,0.2S604.8,213.9,604.7,213.8"/>
									<path class="st25" d="M605.4,214.5L605.4,214.5L605.4,214.5C605.5,214.5,605.4,214.5,605.4,214.5"/>
									<path class="st25" d="M605.1,214.2l0.3,0.3l0,0C605.3,214.4,605.2,214.3,605.1,214.2"/>
									<polyline class="st25" points="596.9,215.3 596.6,216 596.6,216 596.9,215.3 596.9,215.3 									"/>
									<polyline class="st25" points="596.3,216.7 596,217.3 596,217.3 596.3,216.7 596.3,216.7 									"/>
									<polyline class="st25" points="595.6,218.2 595.6,218.2 595.4,218.5 595.6,218.2 595.6,218.2 									"/>
									<path class="st25" d="M597.8,213.7c-0.2,0.4-0.4,0.8-0.6,1.1l0,0C597.4,214.4,597.6,214.1,597.8,213.7"/>
									<polyline class="st25" points="604.4,213.5 604.5,213.6 604.5,213.6 604.5,213.6 604.4,213.5 									"/>
									<path class="st25" d="M603.1,212.3L603.1,212.3c0.1,0.1,0.2,0.2,0.3,0.3C603.3,212.5,603.2,212.4,603.1,212.3 M604.4,209.9
										l0.1,0.1C604.5,209.9,604.4,209.9,604.4,209.9"/>
									<polyline class="st25" points="605.2,210.6 605.2,210.6 605.5,210.9 605.5,210.9 605.2,210.6 									"/>
									<path class="st25" d="M597,218.9l1.7-3.6c0.2-0.4,0.4-0.7,0.5-1.1c0.5-0.9,1.1-1.6,1.8-2.1c0.7-0.4,1.4-0.4,1.8-0.1
										c0.1,0.1,0.1,0.1,0.2,0.2c0.1,0.1,0.2,0.2,0.3,0.3l0.9,0.8l0.1,0.1l0.1,0.1l0.1,0.1l0,0c0.1,0.1,0.1,0.1,0.2,0.2
										c0.1,0.1,0.2,0.2,0.2,0.2l0.1,0.1c0.1,0.1,0.2,0.2,0.3,0.3l0.1,0.1l0,0l0,0c1,1.1,2.3,2.6,3.8,4.6l0,0l0.1,0.1
										c0,0,0,0,0,0.1c0,0,0,0,0,0.1c0.8,1.1,1.6,2.2,2.4,3.6l0,0c0.1,0.1,0.2,0.2,0.2,0.4c-3.3,3.3-7.2,6.2-11.1,8.5l0,0
										c-4,2.3-7.8,3.8-11.2,4.4c0.1-0.1,0.1-0.3,0.2-0.4v-0.1c0-0.1,0.1-0.3,0.1-0.4l0,0c0.1-0.1,0.1-0.3,0.2-0.4v-0.1
										c0.1-0.1,0.1-0.3,0.2-0.4l0,0c0.1-0.3,0.2-0.6,0.3-0.9c0,0,0,0,0-0.1c0.1-0.3,0.2-0.6,0.4-0.9l0,0c0.1-0.1,0.1-0.3,0.2-0.4
										v-0.1c0-0.1,0.1-0.2,0.1-0.3s0.1-0.2,0.1-0.2v-0.1c1.6-4,3-7.4,4.3-10.2l0,0c0.1-0.1,0.1-0.3,0.2-0.4
										c0.1-0.2,0.2-0.5,0.3-0.7l0,0c0.1-0.2,0.2-0.3,0.2-0.5c0-0.1,0.1-0.1,0.1-0.2C596.9,219.2,596.9,219,597,218.9 M601.1,210
										c-1.3,0.7-2.5,2.1-3.3,3.7c-0.2,0.4-0.4,0.7-0.6,1.1l0,0l-0.2,0.5l-0.3,0.7l-0.3,0.7l-0.2,0.5l-0.4,0.9l-0.1,0.3
										c-0.1,0.2-0.2,0.5-0.3,0.7c0,0.1-0.1,0.1-0.1,0.2c0,0.1-0.1,0.1-0.1,0.2l0,0c-0.1,0.1-0.1,0.2-0.2,0.4c0,0,0,0.1-0.1,0.1
										c0,0.1-0.1,0.1-0.1,0.2c-0.1,0.1-0.1,0.3-0.2,0.4l0,0c-1.5,3.4-3.4,7.9-5.4,13l0,0c0,0.1-0.1,0.1-0.1,0.2
										c-0.4,1.2-0.9,2.4-1.3,3.6l-0.3,0.9l-0.1,0.4l1-0.1c0.3,0,0.5-0.1,0.8-0.1c1-0.2,2.1-0.4,3.2-0.7l0,0
										c0.1,0,0.2-0.1,0.4-0.1l0,0c0.1,0,0.2-0.1,0.3-0.1l0,0c0.1,0,0.2-0.1,0.3-0.1c0,0,0,0,0.1,0s0.2-0.1,0.3-0.1c0,0,0,0,0.1,0
										s0.2-0.1,0.3-0.1c0,0,0,0,0.1,0s0.2-0.1,0.3-0.1l0,0c0.1,0,0.2-0.1,0.3-0.1l0,0c0.3-0.1,0.7-0.3,1-0.4h0.1
										c0.1,0,0.2-0.1,0.2-0.1c0.1,0,0.1-0.1,0.2-0.1c0.1,0,0.1-0.1,0.2-0.1c0.1,0,0.1-0.1,0.2-0.1c0.1,0,0.1-0.1,0.2-0.1
										c0.1,0,0.1-0.1,0.2-0.1c0.1,0,0.1-0.1,0.2-0.1c0.1,0,0.1-0.1,0.2-0.1c0.1,0,0.1-0.1,0.2-0.1c0.1,0,0.1-0.1,0.2-0.1
										c0.1,0,0.1-0.1,0.2-0.1c0.1,0,0.1-0.1,0.2-0.1c0.1,0,0.1-0.1,0.2-0.1c0.1,0,0.2-0.1,0.2-0.1c0.1,0,0.1-0.1,0.2-0.1
										c0.1,0,0.2-0.1,0.2-0.1c0.1,0,0.1-0.1,0.2-0.1c0.1,0,0.2-0.1,0.2-0.1c0.1,0,0.1-0.1,0.2-0.1c0.1,0,0.2-0.1,0.2-0.1
										c0.1,0,0.1-0.1,0.2-0.1c0.1-0.1,0.2-0.1,0.3-0.2c0,0,0.1,0,0.1-0.1c0.1-0.1,0.3-0.2,0.4-0.2l0,0c0.1-0.1,0.3-0.2,0.4-0.2
										c0.1,0,0.1-0.1,0.2-0.1c0.1,0,0.2-0.1,0.2-0.1c0.1,0,0.1-0.1,0.2-0.1c0.1,0,0.1-0.1,0.2-0.1c0.1,0,0.2-0.1,0.2-0.1
										c0.1,0,0.1-0.1,0.2-0.1c0.1-0.1,0.2-0.1,0.3-0.2l0.1-0.1c0.1-0.1,0.2-0.1,0.3-0.2c0,0,0.1,0,0.1-0.1
										c0.1-0.1,0.2-0.1,0.3-0.2c0,0,0,0,0.1,0c0.1-0.1,0.2-0.2,0.4-0.2l0,0c2.9-2,5.7-4.2,8.3-6.7c0.5-0.4,0.9-0.9,1.4-1.4l1-1
										l-0.5-0.8c-2-3.3-4.2-6.3-6.4-8.8c-0.6-0.7-1.2-1.4-1.9-2l-0.4-0.4l-0.2-0.2l-0.3-0.3l-0.2-0.2c-0.1-0.1-0.3-0.2-0.4-0.4
										l-0.1-0.1C603.6,209.2,602.3,209.2,601.1,210"/>
									<path class="st25" d="M601.3,270.9c-5.1,2.9-9.3,0.6-9.3-5.3s4.1-13.1,9.2-16l0,0c2.5-1.4,4.8-1.7,6.6-0.7s2.7,3.1,2.7,6
										c0,2.8-0.9,6.1-2.7,9.1C606.1,267,603.8,269.4,601.3,270.9L601.3,270.9 M601.2,247.4L601.2,247.4
										C595,251,590,259.6,590,266.7c0,7.1,5.1,9.9,11.2,6.4l0,0V272v1.1c3-1.7,5.8-4.7,7.9-8.3c2.1-3.7,3.3-7.6,3.2-11
										c0-3.4-1.2-6-3.3-7.2C607,245.4,604.2,245.6,601.2,247.4"/>
									<path class="st25" d="M597.6,323.6c-0.1-0.6,0.1-1.3,0.5-2s0.9-1.3,1.4-1.6l3.2-1.9l0,0c0.6-0.3,1.1-0.4,1.4-0.1
										c0.4,0.3,0.6,0.8,0.5,1.5l-1.4,23.5c-0.1,1.2-0.9,2.5-1.9,3.1l0,0c-1,0.6-1.8,0.2-1.9-0.8l-0.3-4.1L597.6,323.6
										 M602.7,315.9L602.7,315.9l-3.3,1.9c-1.1,0.6-2.1,1.8-2.9,3.2c-0.6,1.2-0.9,2.4-0.9,3.4c0,0.2,0,0.4,0,0.6l1.4,17.1
										l0.4,4.6c0.3,2.1,1.9,2.8,3.8,1.7h0.1c2-1.2,3.6-3.8,3.8-6.2l0.3-4.8l0.1-2.3l1-16.4c0.1-1.3-0.3-2.3-1-2.8
										c-0.1,0-0.1-0.1-0.2-0.1C604.7,315.2,603.7,315.3,602.7,315.9"/>
									<path class="st25" d="M601.1,283.5c0.1,0,0.1-0.1,0.2-0.1l0,0c3.7-2.1,6.7-0.4,6.7,3.8c0,4.3-3,9.5-6.7,11.6l0,0
										c-1.8,1-3.5,1.2-4.8,0.5s-2-2.3-2-4.3c0-0.4,0-0.9,0.1-1.4l0,0v-0.1v-0.1c0,0,0,0,0-0.1v-0.1l0,0c0.2-1.4,0.8-2.8,1.4-4.1
										c0.2-0.3,0.4-0.7,0.6-1c1.1-1.7,2.5-3.3,4-4.3l0,0l0.1-0.1l0,0C601,283.6,601,283.6,601.1,283.5
										C601.1,283.6,601.1,283.6,601.1,283.5 M601.3,281.2L601.3,281.2c-4.8,2.8-8.6,9.5-8.6,14.9c0,2.6,0.9,4.6,2.6,5.6
										c1.6,0.9,3.8,0.7,6.1-0.6l0,0c4.8-2.8,8.6-9.5,8.6-14.9c0-2.6-0.9-4.6-2.6-5.6C605.7,279.7,603.6,279.9,601.3,281.2"/>
								</g>
							</g>
						</g>
					</g>
				</g>
			</g>
		</g>
	</g>
	<g class="st38">
		<g>
			<path class="st39" d="M731.6,437l-31.1-18c-3.1-1.8-3.1-6.2,0-8l24.3-14.1c1.4-0.8,3.2-0.8,4.7,0l31.1,18c3.1,1.8,3.1,6.2,0,8
				L736.2,437C734.8,437.8,733,437.8,731.6,437z"/>
		</g>
	</g>
	<g>
		<g>
			<g>
				<polygon class="st5" points="752.1,407.4 752.1,410.3 726.4,395.5 713.9,402.7 713.9,397 703.9,397 703.9,408.5 703.9,408.5
					703.9,408.5 744.3,431.8 777.8,412.3 777.8,400.9 				"/>
			</g>
		</g>
	</g>
	<polygon class="st8" points="744.3,420.4 703.9,397 737.4,377.5 777.8,400.9 	"/>
	<g class="st38">
		<g>
			<path class="st39" d="M376.7,502l-31.1-18c-3.1-1.8-3.1-6.2,0-8l24.3-14.1c1.4-0.8,3.2-0.8,4.7,0l31.1,18c3.1,1.8,3.1,6.2,0,8
				L381.4,502C380,502.8,378.2,502.8,376.7,502z"/>
		</g>
	</g>
	<g>
		<g>
			<g>
				<polygon class="st5" points="397.2,472.4 397.2,475.3 371.6,460.5 359,467.7 359,462.1 349.1,462.1 349.1,473.5 349.1,473.5
					349.1,473.5 389.5,496.8 423,477.3 423,465.9 				"/>
			</g>
		</g>
	</g>
	<polygon class="st8" points="389.5,485.4 349.1,462.1 382.6,442.6 423,465.9 	"/>
	<g class="st38">
		<g>
			<path class="st39" d="M169.6,461.2l-31.1-18c-3.1-1.8-3.1-6.2,0-8l24.3-14.1c1.4-0.8,3.2-0.8,4.7,0l31.1,18c3.1,1.8,3.1,6.2,0,8
				l-24.3,14.1C172.8,462.1,171,462.1,169.6,461.2z"/>
		</g>
	</g>
	<g>
		<g>
			<g>
				<polygon class="st5" points="190.1,431.6 190.1,434.5 164.4,419.7 151.9,427 151.9,421.3 141.9,421.3 141.9,432.7 141.9,432.7
					141.9,432.7 182.3,456.1 215.8,436.5 215.8,425.1 				"/>
			</g>
		</g>
	</g>
	<polygon class="st8" points="182.3,444.6 141.9,421.3 175.4,401.8 215.8,425.1 	"/>
	<path class="st2" d="M483,149.1c-2.7,1.6-4.2,3.7-4.7,6l0,0l0,0c0,0.1,0,0.2,0,0.3s0,0.2,0,0.3c-2.7,0.5-5.2,1.3-7.1,2.5
		c-2.6,1.6-4.1,3.6-4.5,5.9l0,0c0,0.1,0,0.3-0.1,0.4c0,0,0,0-0.1,0h-0.1c-0.3,0-0.6,0.1-0.9,0.1c-0.2,0-0.4,0.1-0.7,0.1l0,0l0,0
		c-0.5,0.1-0.9,0.2-1.4,0.3c-1.3,0.3-2.6,0.8-3.7,1.3c-0.6,0.3-1.1,0.6-1.6,0.9c-1.4,0.9-2.5,1.8-3.2,2.9l0,0l-32,42.2l0,0l0,0
		l71.3-20.7l0,0c1.3-0.4,2.6-0.9,3.7-1.4c0.4-0.2,0.7-0.4,1.1-0.6c2.3-1.4,3.7-3.1,4.4-5c0.1,0,0.2,0,0.3,0c0.5,0,0.9-0.1,1.4-0.1
		c0.2,0,0.4-0.1,0.6-0.1c0.5-0.1,1-0.1,1.4-0.2c0.1,0,0.3-0.1,0.4-0.1c2.3-0.5,4.4-1.2,6.1-2.2l0,0l0,0c0.1-0.1,0.3-0.1,0.4-0.2
		c0.9-0.5,1.6-1.1,2.2-1.7c0.1-0.1,0.3-0.2,0.4-0.3c0.2-0.3,0.4-0.5,0.6-0.8c0.1-0.1,0.2-0.2,0.3-0.4c0.2-0.3,0.3-0.6,0.5-0.9
		c0,0,0-0.1,0.1-0.1c0.5,0,1-0.1,1.5-0.1h0.1c1.1-0.1,2.2-0.3,3.3-0.5l0,0c0.5-0.1,1-0.2,1.5-0.4c0.1,0,0.1,0,0.2-0.1
		c1.7-0.5,3.3-1.2,4.7-2c5.4-3.3,6.2-8.4,2.9-13.5c-0.3-0.5-0.7-1-1.1-1.5c-1.1-1.4-2.6-2.8-4.4-4.1l9.6-5.8
		c2.8-1.7,3.1-4.2,0.6-5.6l-1.1-0.6c-2.5-1.4-6.8-1.1-9.6,0.6l-9.6,5.8C504.5,144.9,490.5,144.5,483,149.1z"/>
	<path class="st40" d="M534.8,137.4h-0.2c-3.5,0-6.3-2.8-6.3-6.3v-9.8c0-3.5,2.8-6.3,6.3-6.3h0.2c3.5,0,6.3,2.8,6.3,6.3v9.8
		C541.1,134.5,538.3,137.4,534.8,137.4z"/>
	<path class="st41" d="M532.1,149.3h-0.3c-3.8,0-6.9-3.1-6.9-6.9v-10.7c0-3.8,3.1-6.9,6.9-6.9h0.3c3.8,0,6.9,3.1,6.9,6.9v10.7
		C539,146.2,535.9,149.3,532.1,149.3z"/>
	<ellipse class="st42" cx="531.9" cy="112.3" rx="31.9" ry="19.4"/>

		<linearGradient id="SVGID_19_" gradientUnits="userSpaceOnUse" x1="526.0582" y1="391.6722" x2="522.595" y2="380.468" gradientTransform="matrix(1 0 0 -1 0 512)">
		<stop  offset="3.584226e-03" style="stop-color:#000000"/>
		<stop  offset="1" style="stop-color:#000000;stop-opacity:0.7"/>
	</linearGradient>
	<path class="st43" d="M560,103.2c-5.4-6.1-15.9-10.2-28.1-10.2c-1.1,0-2.2,0-3.2,0.1c-0.4,0-0.8,0.1-1.2,0.1
		c-0.7,0.1-1.3,0.1-1.9,0.2c-0.5,0.1-1,0.1-1.4,0.2c-0.5,0.1-1.1,0.1-1.6,0.2c-0.6,0.1-1.1,0.2-1.6,0.4c-0.4,0.1-0.8,0.2-1.3,0.3
		c-0.6,0.2-1.2,0.3-1.8,0.5c-0.3,0.1-0.7,0.2-1,0.3c-0.6,0.2-1.2,0.4-1.9,0.7c-0.2,0.1-0.5,0.2-0.7,0.3c-0.7,0.3-1.3,0.6-1.9,0.8
		c-0.2,0.1-0.3,0.1-0.5,0.2c-0.7,0.3-1.3,0.7-1.9,1c-0.1,0.1-0.2,0.1-0.3,0.2c-0.7,0.4-1.3,0.8-1.9,1.2l-0.1,0.1
		c-0.6,0.4-1.2,0.9-1.8,1.4l0,0c-3.5,3-5.6,6.6-5.8,10.5l0,0l0,0c0,0.2-0.1,0.5-0.1,0.7c0,10.7,14.3,19.4,31.9,19.4
		c0.8,0,1.6,0,2.4-0.1c-5.5-2.2-9.3-5.8-10.1-10c1.3,0.1,2.7,0.2,4,0.2C545.4,121.9,559.4,113.5,560,103.2z"/>
	<ellipse class="st44" cx="531.9" cy="112.3" rx="31.9" ry="19.4"/>
	<ellipse class="st42" cx="531.9" cy="95.6" rx="29.6" ry="18.3"/>

		<linearGradient id="SVGID_20_" gradientUnits="userSpaceOnUse" x1="526.8983" y1="412.5745" x2="520.9905" y2="397.0924" gradientTransform="matrix(1 0 0 -1 0 512)">
		<stop  offset="3.584226e-03" style="stop-color:#000000"/>
		<stop  offset="1" style="stop-color:#000000;stop-opacity:0.7"/>
	</linearGradient>
	<path class="st45" d="M557.8,86.7c-5.1-5.6-14.7-9.4-25.8-9.4c-1,0-2,0-3,0.1c-0.4,0-0.8,0.1-1.1,0.1c-0.6,0.1-1.2,0.1-1.8,0.2
		c-0.5,0.1-0.9,0.1-1.4,0.2s-1,0.1-1.4,0.2c-0.5,0.1-1,0.2-1.6,0.3c-0.4,0.1-0.8,0.2-1.1,0.3c-0.6,0.2-1.1,0.3-1.7,0.5
		c-0.3,0.1-0.6,0.2-0.8,0.3c-0.6,0.2-1.2,0.4-1.8,0.7c-0.2,0.1-0.4,0.1-0.6,0.2c-0.6,0.3-1.3,0.6-1.9,0.8c-0.1,0.1-0.3,0.1-0.4,0.2
		c-0.7,0.3-1.3,0.7-1.9,1c-0.1,0-0.1,0.1-0.2,0.1c-0.6,0.4-1.3,0.8-1.8,1.2l0,0c-4.2,3.1-6.8,7-7,11.4l0,0l0,0c0,0.1,0,0.3,0,0.4
		c0,10.1,13.2,18.3,29.5,18.3c-4.8-2.3-8.1-5.7-8.9-9.6c1.7,0.2,3.4,0.3,5.2,0.3C544.3,104.6,557.4,96.6,557.8,86.7z"/>
	<path class="st42" d="M559,73.4L559,73.4L531.9,9.8l-27.1,63.5l0,0c-0.7,1.6-1.1,3.2-1.1,5c0,10.1,12.6,18.3,28.2,18.3
		c15.6,0,28.2-8.2,28.2-18.3C560.1,76.6,559.7,74.9,559,73.4z"/>

		<linearGradient id="SVGID_21_" gradientUnits="userSpaceOnUse" x1="525.6372" y1="432.5487" x2="515.4516" y2="415.8443" gradientTransform="matrix(1 0 0 -1 0 512)">
		<stop  offset="3.584226e-03" style="stop-color:#000000"/>
		<stop  offset="1" style="stop-color:#000000;stop-opacity:0.7"/>
	</linearGradient>
	<path class="st46" d="M552.9,86.5c-15.2,3.4-29.3-1.8-31.5-11.6c-0.4-1.7-0.4-3.4,0-5.1l0,0l10.9-59.2L532,9.9l-27.1,63.5l0,0
		c-0.7,1.6-1.1,3.2-1.1,5c0,10.1,12.6,18.3,28.2,18.3c12,0,22.2-4.9,26.3-11.7C556.5,85.5,554.7,86,552.9,86.5z"/>
	<polygon class="st30" points="30.2,264.6 95.2,227.9 86.1,216.6 79.6,235.8 70.3,226.5 62.7,244.6 53.5,235.7 46.3,254.1
		36.8,245.9 	"/>
	<polygon class="st30" points="509.7,478.7 574.7,441.9 565.6,430.7 559.1,449.9 549.8,440.6 542.2,458.7 533.1,449.8 525.8,468.2
		516.3,459.9 	"/>
	<path class="st47" d="M659.7,175.9L659.7,175.9c0,1.3,1.4,2.1,2.5,1.5l49.8-29c0.5-0.3,0.8-0.9,0.8-1.5l0,0c0-1.3-1.4-2.1-2.5-1.5
		l-49.8,29C660,174.7,659.7,175.3,659.7,175.9z"/>
	<path class="st47" d="M659.7,187.1L659.7,187.1c0,1.3,1.4,2.1,2.5,1.5l49.8-29c0.5-0.3,0.8-0.9,0.8-1.5l0,0c0-1.3-1.4-2.1-2.5-1.5
		l-49.8,29C660,186,659.7,186.5,659.7,187.1z"/>
	<path class="st47" d="M659.7,198.4L659.7,198.4c0,1.3,1.4,2.1,2.5,1.5l49.8-29c0.5-0.3,0.8-0.9,0.8-1.5l0,0c0-1.3-1.4-2.1-2.5-1.5
		l-49.8,29C660,197.2,659.7,197.8,659.7,198.4z"/>
	<path class="st47" d="M659.7,209.6L659.7,209.6c0,1.3,1.4,2.1,2.5,1.5l49.8-29c0.5-0.3,0.8-0.9,0.8-1.5l0,0c0-1.3-1.4-2.1-2.5-1.5
		l-49.8,29C660,208.4,659.7,209,659.7,209.6z"/>
	<path class="st47" d="M659.7,220.8L659.7,220.8c0,1.3,1.4,2.1,2.5,1.5l49.8-29c0.5-0.3,0.8-0.9,0.8-1.5l0,0c0-1.3-1.4-2.1-2.5-1.5
		l-49.8,29C660,219.7,659.7,220.2,659.7,220.8z"/>
	<path class="st47" d="M659.7,245.6L659.7,245.6c0,1.3,1.4,2.1,2.5,1.5l49.8-29c0.5-0.3,0.8-0.9,0.8-1.5l0,0c0-1.3-1.4-2.1-2.5-1.5
		l-49.8,29C660,244.5,659.7,245,659.7,245.6z"/>
	<path class="st47" d="M659.7,256.9L659.7,256.9c0,1.3,1.4,2.1,2.5,1.5l49.8-29c0.5-0.3,0.8-0.9,0.8-1.5l0,0c0-1.3-1.4-2.1-2.5-1.5
		l-49.8,29C660,255.7,659.7,256.3,659.7,256.9z"/>
	<path class="st47" d="M659.7,268.1L659.7,268.1c0,1.3,1.4,2.1,2.5,1.5l49.8-29c0.5-0.3,0.8-0.9,0.8-1.5l0,0c0-1.3-1.4-2.1-2.5-1.5
		l-49.8,29C660,266.9,659.7,267.5,659.7,268.1z"/>
	<path class="st47" d="M659.7,279.3L659.7,279.3c0,1.3,1.4,2.1,2.5,1.5l49.8-29c0.5-0.3,0.8-0.9,0.8-1.5l0,0c0-1.3-1.4-2.1-2.5-1.5
		l-49.8,29C660,278.2,659.7,278.7,659.7,279.3z"/>
	<path class="st47" d="M659.7,290.6L659.7,290.6c0,1.3,1.4,2.1,2.5,1.5l49.8-29c0.5-0.3,0.8-0.9,0.8-1.5l0,0c0-1.3-1.4-2.1-2.5-1.5
		l-49.8,29C660,289.4,659.7,290,659.7,290.6z"/>
</g>
</svg>
