<?xml version="1.0" encoding="utf-8"?>
<!-- Generator: Adobe Illustrator 21.1.0, SVG Export Plug-In . SVG Version: 6.00 Build 0)  -->
<svg version="1.1" id="Layer_1" xmlns="http://www.w3.org/2000/svg" xmlns:xlink="http://www.w3.org/1999/xlink" x="0px" y="0px"
	 viewBox="0 0 125.3 114.6" style="enable-background:new 0 0 125.3 114.6;" xml:space="preserve">
<style type="text/css">
	.st0{opacity:0.4;fill:url(#SVGID_1_);enable-background:new    ;}
	.st1{fill:url(#SVGID_2_);}
	.st2{fill:#2A3C67;}
	.st3{fill:#FFE269;}
	.st4{fill:#556B99;}
	.st5{opacity:0.2;enable-background:new    ;}
	.st6{fill:url(#SVGID_3_);}
	.st7{fill:#FFFFFF;}
	.st8{fill:#e53b51;}
	.st9{fill:url(#SVGID_4_);}
	.st10{opacity:0.3;fill:url(#SVGID_5_);enable-background:new    ;}
	.st11{fill:#C6AC91;}
	.st12{fill:#5B5B2E;}
	.st13{fill:#C6CC48;}
	.st14{opacity:0.2;fill:url(#SVGID_6_);enable-background:new    ;}
	.st15{fill:none;}
	.st16{opacity:0.2;fill:url(#SVGID_7_);enable-background:new    ;}
	.st17{opacity:0.2;fill:url(#SVGID_8_);enable-background:new    ;}
</style>
<title>app</title>
<linearGradient id="SVGID_1_" gradientUnits="userSpaceOnUse" x1="679.8323" y1="-973.79" x2="680.0823" y2="-833.29" gradientTransform="matrix(1 0 0 -1 -619.22 -862.97)">
	<stop  offset="0" style="stop-color:#A5BDCB"/>
	<stop  offset="1" style="stop-color:#D8E9F4;stop-opacity:0"/>
</linearGradient>
<path class="st0" d="M118.6,90.8l-76-43.9c-3.2-1.9-8.2-2.1-11-0.5l-2.3,1.3c-2.4-0.4-4.8,0-7,1.1c-0.9,0.5-1.5,1.3-1.7,2.2v0.1v0.1
	c-0.9,0.2-1.8,0.5-2.6,0.9c-0.8,0.4-1.5,1.2-1.7,2.2v0.1h-0.1h-0.3h-0.3l0,0l-0.5,0.1c-0.5,0.1-0.9,0.3-1.4,0.5
	c-0.2,0.1-0.4,0.2-0.6,0.3c-0.5,0.3-0.9,0.6-1.2,1.1l0,0l-1.6,2.1l-7.1,4.1c-2.5,1.4-2.5,3.8-0.3,5.6L0,72.3l0,0l6.3-1.8L80,113
	c3.2,1.9,8.2,2.1,11,0.5L119.5,97C122.2,95.5,121.9,92.7,118.6,90.8z"/>
<linearGradient id="SVGID_2_" gradientUnits="userSpaceOnUse" x1="623.0692" y1="-932.5699" x2="744.5206" y2="-932.5699" gradientTransform="matrix(1 0 0 -1 -619.22 -862.97)">
	<stop  offset="0" style="stop-color:#5fcece"/>
	<stop  offset="1" style="stop-color:#5fcece"/>
</linearGradient>
<path class="st1" d="M125.3,79.3l-5.9-1.4l-72-41.6c-3.4-2-8.5-2.2-11.5-0.5L7,52.5l-3.1-0.8c0,0-0.7,5.4,3.1,7.9l74.8,43.3
	c3.4,2,8.5,2.2,11.5,0.5L123,86.2C125.4,84.7,125.3,79.3,125.3,79.3z"/>
<path class="st2" d="M93.4,99.4l29.8-17.2c3-1.7,2.6-4.7-0.8-6.6L47.3,32c-3.4-2-8.6-2.2-11.5-0.5L6,48.8c-3,1.7-2.6,4.7,0.8,6.6
	L82,98.8C85.3,100.9,90.5,101,93.4,99.4z"/>
<polygon class="st3" points="15.1,56 48.3,36.9 110.2,72.7 77,91.8 "/>
<path class="st4" d="M98,88.2c2.5,1.5,6.3,1.6,8.5,0.4s1.9-3.5-0.6-4.9s-6.3-1.6-8.5-0.4S95.4,86.7,98,88.2z"/>
<path class="st5" d="M58.3,72.9L41,63c-0.4-0.3-1-0.3-1.4,0l-9.7,5.9L49.2,80l9.1-5.5c0.4-0.2,0.6-0.8,0.4-1.2
	C58.6,73.1,58.5,73,58.3,72.9z"/>
<linearGradient id="SVGID_3_" gradientUnits="userSpaceOnUse" x1="658.9932" y1="-933.4045" x2="729.1232" y2="-993.5146" gradientTransform="matrix(1 0 0 -1 -619.22 -862.97)">
	<stop  offset="0" style="stop-color:#5fcece"/>
	<stop  offset="1" style="stop-color:#5fcece"/>
</linearGradient>
<path class="st6" d="M40.3,81.8l18.1-11c0.4-0.2,0.6-0.8,0.3-1.2c-0.1-0.1-0.2-0.2-0.3-0.3L41,59.3c-0.4-0.3-1-0.3-1.4,0L21.7,70.2
	c-0.5,0.3-0.6,0.9-0.4,1.4c0.1,0.2,0.2,0.3,0.4,0.4l17.1,9.8C39.3,82,39.8,82.1,40.3,81.8z"/>
<path class="st7" d="M37.4,74.7l4.5-2.7c0.1,0,0.1-0.2,0.1-0.3c0,0,0-0.1-0.1-0.1l-4.3-2.5c-0.1-0.1-0.2-0.1-0.3,0l-4.5,2.7
	c-0.1,0.1-0.2,0.2-0.1,0.3l0.1,0.1l4.2,2.4C37.1,74.8,37.3,74.8,37.4,74.7z"/>
<path class="st7" d="M77.4,84l13.7-8.3c0.3-0.2,0.4-0.6,0.2-0.9c-0.1-0.1-0.1-0.2-0.2-0.2L78,67c-0.3-0.2-0.7-0.2-1.1,0l-13.5,8.2
	c-0.4,0.2-0.5,0.7-0.3,1c0.1,0.1,0.2,0.2,0.3,0.3l13,7.4C76.7,84.2,77.1,84.1,77.4,84z"/>
<path class="st5" d="M73.5,47.3l-18.1,11c-0.6,0.4-0.8,1.2-0.5,1.8c0.1,0.2,0.3,0.3,0.5,0.5l18.8,10.7c0.6,0.3,1.3,0.3,1.8,0
	l19-11.5L73.5,47.3z"/>
<path class="st8" d="M76,63.6l23.1-14c0.6-0.3,0.8-1,0.5-1.5c-0.1-0.2-0.3-0.3-0.5-0.5l-19-10.8c-0.6-0.3-1.3-0.3-1.8,0L55.4,50.7
	c-0.6,0.4-0.8,1.2-0.5,1.8c0.1,0.2,0.3,0.3,0.5,0.5l18.8,10.7C74.7,63.9,75.4,63.9,76,63.6z"/>
<path class="st5" d="M79.8,49.8c0.4,0.2,0.8,0.2,1.2,0l10.6-6.4l-11.5-6.5c-0.6-0.3-1.3-0.3-1.8,0L68,43L79.8,49.8z"/>
<linearGradient id="SVGID_4_" gradientUnits="userSpaceOnUse" x1="683.92" y1="-899.87" x2="715.9853" y2="-899.87" gradientTransform="matrix(1 0 0 -1 -619.22 -862.97)">
	<stop  offset="0" style="stop-color:#FFEC5E"/>
	<stop  offset="1" style="stop-color:#FFCE4A"/>
</linearGradient>
<path class="st9" d="M81,46.5l15.4-9.4c0.4-0.2,0.5-0.7,0.3-1c-0.1-0.1-0.2-0.2-0.3-0.3l-14.8-8.5c-0.4-0.2-0.8-0.2-1.2,0l-15.3,9.3
	c-0.4,0.2-0.5,0.8-0.3,1.2c0.1,0.1,0.2,0.2,0.3,0.3l14.6,8.4C80.1,46.7,80.6,46.7,81,46.5z"/>
<path class="st5" d="M49.9,84.4C48,83.3,49.2,80,49.2,80l-3-1.8l-3.4,2.1L49.9,84.4z"/>
<path class="st7" d="M75.2,58.5l4.5-2.7c0.1-0.1,0.1-0.2,0.1-0.3c0,0,0-0.1-0.1-0.1L75.4,53c-0.1-0.1-0.2-0.1-0.3,0l-4.4,2.7
	c-0.1,0.1-0.2,0.2-0.1,0.3l0.1,0.1l4.2,2.4C75,58.6,75.1,58.6,75.2,58.5z"/>
<linearGradient id="SVGID_5_" gradientUnits="userSpaceOnUse" x1="629.7401" y1="-920.6099" x2="658.0101" y2="-920.6099" gradientTransform="matrix(1 0 0 -1 -619.22 -862.97)">
	<stop  offset="0" style="stop-color:#000000"/>
	<stop  offset="1" style="stop-color:#000000;stop-opacity:0.7"/>
</linearGradient>
<path class="st10" d="M25.8,64.6h0.1h0.5h0.2l0.5-0.1h0.2c0.8-0.2,1.6-0.4,2.3-0.8l0.1-0.1c0.3-0.2,0.6-0.4,0.8-0.6l0.1-0.1
	c0.1-0.1,0.2-0.2,0.2-0.3l0.1-0.1c0.1-0.1,0.1-0.2,0.2-0.3l0,0h0.5l0,0c0.4,0,0.8-0.1,1.2-0.2l0,0l0.5-0.1h0.1
	c0.6-0.2,1.2-0.4,1.7-0.7c2-1.2,2.3-3.1,1.1-5c-0.1-0.2-0.3-0.4-0.4-0.6c-0.5-0.6-1-1.1-1.6-1.5l3.5-2.2c1-0.6,1.1-1.6,0.2-2.1
	l-0.4-0.2c-1.2-0.5-2.5-0.4-3.6,0.2L30.4,52c-4.4-1.7-9.5-1.9-12.3-0.2c-0.9,0.5-1.5,1.3-1.7,2.2v0.1v0.1c-0.9,0.2-1.8,0.5-2.6,0.9
	s-1.5,1.2-1.7,2.2v0.1H12h-0.3h-0.3l0,0l-0.5,0.1l-0.5,0.2L24.9,66C25.3,65.6,25.6,65.2,25.8,64.6z"/>
<path class="st11" d="M36.4,42.5L36.4,42.5c1.5,0,2.7,1.1,2.7,2.6v4c0,1.4-1.1,2.6-2.6,2.6h-0.1c-1.4,0-2.6-1.1-2.6-2.6v-4
	C33.8,43.6,35,42.5,36.4,42.5z"/>
<path class="st12" d="M36.4,42.5L36.4,42.5c1.5,0,2.7,1.1,2.7,2.6v4c0,1.4-1.1,2.6-2.6,2.6h-0.1c-1.4,0-2.6-1.1-2.6-2.6v-4
	C33.8,43.6,35,42.5,36.4,42.5z"/>
<ellipse class="st13" cx="36.4" cy="37.9" rx="11.8" ry="7.2"/>
<linearGradient id="SVGID_6_" gradientUnits="userSpaceOnUse" x1="653.385" y1="-903.9684" x2="652.0951" y2="-908.1185" gradientTransform="matrix(1 0 0 -1 -619.22 -862.97)">
	<stop  offset="0" style="stop-color:#000000"/>
	<stop  offset="1" style="stop-color:#000000;stop-opacity:0.7"/>
</linearGradient>
<path class="st14" d="M46.7,34.7c-2-2.3-5.9-3.8-10.4-3.8c-0.4,0-0.8,0-1.2,0h-0.4L34,31h-0.6l-0.6,0.1l-0.6,0.1l-0.5,0.1L31,31.5
	l-0.4,0.1l-0.7,0.3L29.8,32l-0.7,0.3l-0.2,0.1c-0.3,0.1-0.5,0.3-0.7,0.4l-0.1,0.1c-0.2,0.1-0.5,0.3-0.7,0.5l0,0
	c-0.2,0.2-0.5,0.3-0.7,0.5l0,0c-1.2,0.9-2,2.3-2.1,3.9l0,0c0,0.1,0,0.2,0,0.3c0,4,5.3,7.2,11.8,7.2h0.9c-2-0.8-3.5-2.1-3.8-3.7
	c0.5,0,1,0.1,1.5,0.1C41.3,41.6,46.5,38.5,46.7,34.7z"/>
<ellipse class="st15" cx="35.5" cy="37.4" rx="11.8" ry="7.2"/>
<ellipse class="st13" cx="36.4" cy="31.7" rx="10.9" ry="6.8"/>
<linearGradient id="SVGID_7_" gradientUnits="userSpaceOnUse" x1="653.7504" y1="-896.0344" x2="651.5704" y2="-901.7645" gradientTransform="matrix(1 0 0 -1 -619.22 -862.97)">
	<stop  offset="0" style="stop-color:#000000"/>
	<stop  offset="1" style="stop-color:#000000;stop-opacity:0.7"/>
</linearGradient>
<path class="st16" d="M45.9,28.3c-1.9-2.1-5.4-3.5-9.5-3.5c-0.4,0-0.7,0-1.1,0h-0.4L34.2,25h-0.5l-0.5,0.1l-0.6,0.1l-0.4,0.1
	l-0.6,0.2l-0.3,0.1L30.6,26l-0.2,0.1c-0.2,0.1-0.5,0.2-0.7,0.3l-0.1,0.1c-0.2,0.1-0.5,0.3-0.7,0.4h-0.1c-0.2,0.1-0.5,0.3-0.7,0.5
	l0,0c-1.5,0.9-2.4,2.5-2.6,4.2l0,0c0,0,0,0.1,0,0.2c0,3.7,4.9,6.8,10.9,6.8c-1.6-0.6-2.8-1.9-3.3-3.6c0.6,0.1,1.3,0.1,1.9,0.1
	C40.9,35,45.7,32,45.9,28.3z"/>
<path class="st13" d="M46.5,23.5L46.5,23.5L36.5,0l-10,23.5l0,0c-0.3,0.6-0.4,1.2-0.4,1.8c0,3.7,4.7,6.8,10.4,6.8s10.4-3,10.4-6.8
	C46.9,24.7,46.7,24.1,46.5,23.5z"/>
<linearGradient id="SVGID_8_" gradientUnits="userSpaceOnUse" x1="653.3398" y1="-888.722" x2="649.5697" y2="-894.9021" gradientTransform="matrix(1 0 0 -1 -619.22 -862.97)">
	<stop  offset="0" style="stop-color:#000000"/>
	<stop  offset="1" style="stop-color:#000000;stop-opacity:0.7"/>
</linearGradient>
<path class="st17" d="M44.2,28.4c-5.6,1.3-10.8-0.7-11.7-4.3c-0.1-0.6-0.1-1.3,0-1.9l0,0l4-21.9V0l-10,23.5l0,0
	c-0.3,0.6-0.4,1.2-0.4,1.8c0,3.7,4.7,6.8,10.4,6.8c4.4,0,8.2-1.8,9.7-4.3C45.5,28,44.9,28.2,44.2,28.4z"/>
</svg>
