<svg id="Layer_1" data-name="Layer 1" xmlns="http://www.w3.org/2000/svg" xmlns:xlink="http://www.w3.org/1999/xlink" viewBox="0 0 138.01 97.1"><defs><style>.cls-1{fill:url(#Градієнт_без_назви_105);}.cls-2,.cls-4{opacity:0.33;}.cls-3{fill:url(#Градієнт_без_назви_83);}.cls-4{fill:url(#Градієнт_без_назви_83-2);}.cls-5{fill:#e53b51;}.cls-6{fill:#fff;}.cls-7{opacity:0.2;}.cls-8{fill:#ffe269;}.cls-9{fill:#c48551;opacity:0.3;}.cls-10{fill:#2a3c67;}.cls-11{fill:url(#Градієнт_без_назви_78);}.cls-12{fill:#93c01f;}.cls-13{opacity:0.1;}.cls-14{fill:url(#Градієнт_без_назви_78-2);}.cls-15{fill:#fc9e48;}.cls-16{fill:#efcca3;}.cls-17{fill:#d67729;}.cls-18{fill:#666;}.cls-19{fill:url(#Градієнт_без_назви_78-3);}.cls-20{fill:url(#Градієнт_без_назви_78-4);}</style><linearGradient id="Градієнт_без_назви_105" x1="690.28" y1="343.3" x2="714.9" y2="343.3" gradientUnits="userSpaceOnUse"><stop offset="0" stop-color="#ffec5e"/><stop offset="1" stop-color="#ffce4a"/></linearGradient><linearGradient id="Градієнт_без_назви_83" x1="692.91" y1="367.23" x2="726.23" y2="331.93" gradientUnits="userSpaceOnUse"><stop offset="0" stop-color="#a5bdcb"/><stop offset="1" stop-color="#d8e9f4" stop-opacity="0"/></linearGradient><linearGradient id="Градієнт_без_назви_83-2" x1="664.96" y1="418.49" x2="738.09" y2="307.23" xlink:href="#Градієнт_без_назви_83"/><linearGradient id="Градієнт_без_назви_78" x1="655.95" y1="378.82" x2="667.18" y2="378.82" gradientUnits="userSpaceOnUse"><stop offset="0" stop-color="#5fcece"/><stop offset="1" stop-color="#5fcece"/></linearGradient><linearGradient id="Градієнт_без_назви_78-2" x1="635.51" y1="359.2" x2="663.78" y2="359.2" xlink:href="#Градієнт_без_назви_78"/><linearGradient id="Градієнт_без_назви_78-3" x1="214.12" y1="388.61" x2="228.52" y2="388.61" gradientTransform="matrix(-1, 0, 0, 1, 944.94, 0)" xlink:href="#Градієнт_без_назви_78"/><linearGradient id="Градієнт_без_назви_78-4" x1="218.32" y1="388.44" x2="240.57" y2="388.44" gradientTransform="matrix(-1, 0, 0, 1, 944.94, 0)" xlink:href="#Градієнт_без_назви_78"/></defs><title>branding</title><path class="cls-1" d="M702.78,350.65l11.84-7.18a.58.58,0,0,0,0-1L703.26,336a.93.93,0,0,0-.93,0l-11.73,7.11a.66.66,0,0,0,0,1.14l11.23,6.45A.93.93,0,0,0,702.78,350.65Z" transform="translate(-613.42 -335.83)"/><g class="cls-2"><path class="cls-3" d="M698.63,369.22l12.61-7.64a.62.62,0,0,0,0-1.08l-12.08-6.93a1,1,0,0,0-1,0l-12.49,7.57a.7.7,0,0,0,0,1.21l12,6.87A1,1,0,0,0,698.63,369.22Z" transform="translate(-613.42 -335.83)"/></g><path class="cls-4" d="M746.28,396.48l-72.93-40.92a2.43,2.43,0,0,0-2.4,0l-55.27,31.91a2.43,2.43,0,0,0,0,4.22l33.59,18.85-7.4,4.35a1,1,0,0,0,0,1.77L667.53,431a1.44,1.44,0,0,0,1.45,0l8.19-4.81,11.48,6.44a2.43,2.43,0,0,0,2.4,0l14.16-8.17,27.56-15.91,13.55-7.82A2.43,2.43,0,0,0,746.28,396.48Z" transform="translate(-613.42 -335.83)"/><path class="cls-5" d="M669,424.48l17.12-10.06a.91.91,0,0,0,0-1.57L660.3,398.41a1.44,1.44,0,0,0-1.45,0l-16.95,10a1,1,0,0,0,0,1.77l25.61,14.34A1.44,1.44,0,0,0,669,424.48Z" transform="translate(-613.42 -335.83)"/><polygon class="cls-6" points="77.85 85.89 138.01 51.16 60.16 7.48 0 42.21 77.85 85.89"/><path class="cls-7" d="M686.08,412.85,660.3,398.41a1.44,1.44,0,0,0-1.45,0l-7.36,4.33,27.86,15.63,6.75-4A.91.91,0,0,0,686.08,412.85Z" transform="translate(-613.42 -335.83)"/><path class="cls-8" d="M692.17,421.2l56.46-32.6a1.83,1.83,0,0,0,0-3.19l-74.13-41.59a1.83,1.83,0,0,0-1.82,0l-56.46,32.6a1.83,1.83,0,0,0,0,3.19l74.13,41.59A1.83,1.83,0,0,0,692.17,421.2Z" transform="translate(-613.42 -335.83)"/><path class="cls-9" d="M724.09,371.69l-4.32-2.43-32.92,4.31-.05-.06v.06l-5.71,2.24h0l1.16.13,4.93.57h0Z" transform="translate(-613.42 -335.83)"/><path class="cls-9" d="M693.34,414.23l45-26a1.46,1.46,0,0,0,0-2.54L673.8,350a1.46,1.46,0,0,0-1.45,0l-45,24.93a1.46,1.46,0,0,0,0,2.54l64.52,36.73A1.46,1.46,0,0,0,693.34,414.23Z" transform="translate(-613.42 -335.83)"/><path class="cls-6" d="M693.34,412.61l45-26a1.46,1.46,0,0,0,0-2.54L673.8,348.4a1.46,1.46,0,0,0-1.45,0l-45,26a1.46,1.46,0,0,0,0,2.54l64.52,35.69A1.46,1.46,0,0,0,693.34,412.61Z" transform="translate(-613.42 -335.83)"/><path class="cls-10" d="M682.18,385.3c7.39,0,12.84-3.27,12.29-7.62-.56-4.53-7.38-8.46-15.22-8.79-7.54-.31-13.27,2.83-13.2,7.1l-10.24-.42c-.47-7.53,9.52-13.12,22.71-12.57,13.49.56,25.21,7.32,26.17,15.11.95,7.61-8.74,13.38-21.78,13.11Z" transform="translate(-613.42 -335.83)"/><path class="cls-5" d="M673.41,389.95l3.24-5.3a25,25,0,0,0,3.75.57l.74,5.91a43.06,43.06,0,0,1-7.73-1.19" transform="translate(-613.42 -335.83)"/><path class="cls-11" d="M658,381a10.78,10.78,0,0,1-2.05-4.46l10.24.42a6.24,6.24,0,0,0,1,2.17Z" transform="translate(-613.42 -335.83)"/><path class="cls-8" d="M664.95,386.72l6.72-3.88a20.48,20.48,0,0,0,3.29,1.34l-3.24,5.3a35.28,35.28,0,0,1-6.77-2.76" transform="translate(-613.42 -335.83)"/><path class="cls-12" d="M668,380.16a12.37,12.37,0,0,0,2.32,1.9l-6.72,3.88a21.32,21.32,0,0,1-4.78-3.91Z" transform="translate(-613.42 -335.83)"/><path class="cls-13" d="M643,367.84a2.46,2.46,0,0,0,2.18-.18l16.47-10a1.19,1.19,0,0,0,0-2.07l-4.74-2.67-21.85,12.62Z" transform="translate(-613.42 -335.83)"/><path class="cls-14" d="M645.13,367.69l18.06-10.84a1.19,1.19,0,0,0,0-2.07l-7.27-4.08a1.9,1.9,0,0,0-1.9,0l-17.84,10.71a1.34,1.34,0,0,0,0,2.33l7,4A1.9,1.9,0,0,0,645.13,367.69Z" transform="translate(-613.42 -335.83)"/><path class="cls-7" d="M716.59,372.07l-4.37-2.42L686,373.08,686,373v.06l-5.71,2.24h0l1.16.13,4.93.13Z" transform="translate(-613.42 -335.83)"/><rect class="cls-15" x="710.09" y="337.07" width="2.97" height="54.47" transform="translate(204.94 -763.77) rotate(70.57)"/><path class="cls-5" d="M737.91,356.57l-1-2.75,2.3-.81a1.48,1.48,0,0,1,1.88.9h0a1.44,1.44,0,0,1-.88,1.84Z" transform="translate(-613.42 -335.83)"/><path class="cls-16" d="M685.37,371.91s1,.64.51,1.46a.93.93,0,0,1,.49,1.4l-6.1.58,5.12-3.38" transform="translate(-613.42 -335.83)"/><path class="cls-10" d="M682.19,374.08l-1.92,1.27,2.41-.23A1.45,1.45,0,0,0,682.19,374.08Z" transform="translate(-613.42 -335.83)"/><polygon class="cls-17" points="72.5 37.62 72.96 38.93 124.33 20.81 122.64 19.87 72.5 37.62"/><rect class="cls-18" x="734.45" y="354.19" width="3.78" height="2.69" rx="0.46" ry="0.46" transform="translate(213.21 -792.97) rotate(70.57)"/><path class="cls-18" d="M736.59,353.45a1.76,1.76,0,0,1,1.93,1.44c.45,1.61-.66,2.11-.66,2.11L736,355.35" transform="translate(-613.42 -335.83)"/><path class="cls-15" d="M734.6,354.64a1.2,1.2,0,0,1,1.47,1.06c.27,1.34-.52,1.63-.52,1.63l-1.92-1.19" transform="translate(-613.42 -335.83)"/><path class="cls-17" d="M735.55,357.33s.79-.29.52-1.63h0l-2,.71Z" transform="translate(-613.42 -335.83)"/><path class="cls-19" d="M716.77,391.34l11.59-6.69a2.2,2.2,0,0,1,2,.08h0c.59.34.65.85.14,1.14l-11.59,6.69a2.2,2.2,0,0,1-2-.08h0C716.32,392.14,716.26,391.63,716.77,391.34Z" transform="translate(-613.42 -335.83)"/><path class="cls-20" d="M704.71,393.42l19.44-11.2a2.2,2.2,0,0,1,2,.08h0c.59.34.65.85.14,1.14l-19.44,11.2a2.2,2.2,0,0,1-2-.08h0C704.26,394.23,704.2,393.72,704.71,393.42Z" transform="translate(-613.42 -335.83)"/><path class="cls-6" d="M668.45,421.16l4.06-2.46a.2.2,0,0,0,0-.35l-3.89-2.23a.32.32,0,0,0-.32,0l-4,2.44a.23.23,0,0,0,0,.39l3.85,2.21A.32.32,0,0,0,668.45,421.16Z" transform="translate(-613.42 -335.83)"/></svg>