<svg id="Layer_1" data-name="Layer 1" xmlns="http://www.w3.org/2000/svg" xmlns:xlink="http://www.w3.org/1999/xlink" viewBox="0 0 83.48 113.19"><defs><style>.cls-1{opacity:0.33;fill:url(#Градієнт_без_назви_83);}.cls-2{fill:#2a3c67;}.cls-3{fill:#ffe269;}.cls-4{fill:#c48551;}.cls-11,.cls-4{opacity:0.3;}.cls-5{fill:#fc9e48;}.cls-6{fill:url(#Градієнт_без_назви_78);}.cls-7{fill:#e53b51;}.cls-8{fill:#9dcc4a;}.cls-9{fill:url(#Градієнт_без_назви_78-2);}.cls-10{fill:#fff;}.cls-11{fill:#262422;}.cls-12{fill:url(#Градієнт_без_назви_78-3);}</style><linearGradient id="Градієнт_без_назви_83" x1="664.13" y1="421.24" x2="572.1" y2="415.66" gradientUnits="userSpaceOnUse"><stop offset="0" stop-color="#a5bdcb"/><stop offset="1" stop-color="#d8e9f4" stop-opacity="0"/></linearGradient><linearGradient id="Градієнт_без_назви_78" x1="34.98" y1="59.55" x2="48.79" y2="59.55" gradientUnits="userSpaceOnUse"><stop offset="0" stop-color="#5fcece"/><stop offset="1" stop-color="#5fcece"/></linearGradient><linearGradient id="Градієнт_без_назви_78-2" x1="694.33" y1="341.99" x2="701.97" y2="341.99" xlink:href="#Градієнт_без_назви_78"/><linearGradient id="Градієнт_без_назви_78-3" x1="692.86" y1="403.53" x2="722.59" y2="403.53" xlink:href="#Градієнт_без_назви_78"/></defs><title>games</title><path class="cls-1" d="M675.95,412.43a68.34,68.34,0,0,0-12.47,1.1l-6.2-3.56a.77.77,0,0,0-.77,0l-9.68,5.87a.54.54,0,0,0,0,.94l3.53,2a5.24,5.24,0,0,0-2,3.79c0,5.61,12.34,10.16,27.57,10.16s27.57-4.55,27.57-10.16S691.17,412.43,675.95,412.43Z" transform="translate(-642.14 -329.21)"/><path class="cls-2" d="M703.85,418h0l-3.67-11.61L684,408.28l-16.17-1.91L664.18,418h0a7.22,7.22,0,0,0-.34,2.17c0,6.56,9,11.88,20.17,11.88s20.17-5.32,20.17-11.88A7.22,7.22,0,0,0,703.85,418Z" transform="translate(-642.14 -329.21)"/><ellipse class="cls-3" cx="41.88" cy="79.08" rx="16.49" ry="9.71"/><path class="cls-4" d="M667.52,408.28c0,3.91,3.93,7.27,9.59,8.81,2.09-6.52,6.9-7.5,6.9-7.5l3.49-8.9-.76-2c-.89-.09-1.79-.14-2.72-.14C674.91,398.58,667.52,402.92,667.52,408.28Z" transform="translate(-642.14 -329.21)"/><path class="cls-3" d="M690.92,388.75H677.11v16.78h0c0,2.24,3.09,4.06,6.9,4.06s6.9-1.82,6.9-4.06h0Z" transform="translate(-642.14 -329.21)"/><path class="cls-5" d="M690.92,388.75H677.11v16.78h0c0,2.24,3.09,4.06,6.9,4.06s6.9-1.82,6.9-4.06h0Z" transform="translate(-642.14 -329.21)"/><path class="cls-3" d="M650.46,364.16s.21,19,14.36,19-4.1-17.1-4.1-17.1" transform="translate(-642.14 -329.21)"/><path class="cls-3" d="M717.59,364.16s-.21,19-14.36,19,4.08-17.09,4.08-17.09" transform="translate(-642.14 -329.21)"/><path class="cls-5" d="M650.46,364.16s.21,19,14.36,19-4.1-17.1-4.1-17.1" transform="translate(-642.14 -329.21)"/><path class="cls-5" d="M717.59,364.16s-.21,19-14.36,19,4.08-17.09,4.08-17.09" transform="translate(-642.14 -329.21)"/><ellipse class="cls-6" cx="41.88" cy="59.55" rx="6.9" ry="4.06"/><path class="cls-3" d="M660.71,364.16s-1.22,30.49,23.31,30.49,23.31-30.49,23.31-30.49Z" transform="translate(-642.14 -329.21)"/><path class="cls-4" d="M660.71,364.16s-1.22,30.49,23.31,30.49c6.23,0,10.79-2,14.14-4.9a19,19,0,0,1-5.68.83C673,390.57,674,366.42,674,366.42" transform="translate(-642.14 -329.21)"/><ellipse class="cls-3" cx="41.88" cy="34.95" rx="23.31" ry="13.72"/><ellipse class="cls-5" cx="41.95" cy="34.95" rx="19.26" ry="10.88"/><path class="cls-7" d="M667.45,369.63c3.34,3.23,9.53,5.41,16.63,5.41s13.29-2.18,16.63-5.41c-3.34-3.23-9.53-5.41-16.63-5.41S670.79,366.4,667.45,369.63Z" transform="translate(-642.14 -329.21)"/><rect class="cls-3" x="8.33" y="33.02" width="12.14" height="3.87" rx="1.93" ry="1.93"/><rect class="cls-3" x="705.45" y="362.22" width="12.14" height="3.87" rx="1.93" ry="1.93" transform="translate(780.91 399.11) rotate(-180)"/><path class="cls-8" d="M718.58,428.44A8.68,8.68,0,0,0,720,433.2a8.7,8.7,0,0,0,0-9.52A8.68,8.68,0,0,0,718.58,428.44Z" transform="translate(-642.14 -329.21)"/><path class="cls-8" d="M722.67,429.34a7,7,0,0,0-1,3.86,7,7,0,0,0,3.93-6.54A7,7,0,0,0,722.67,429.34Z" transform="translate(-642.14 -329.21)"/><path class="cls-8" d="M717.25,429.34a7,7,0,0,1,1,3.86,7,7,0,0,1-3.93-6.54A7,7,0,0,1,717.25,429.34Z" transform="translate(-642.14 -329.21)"/><path class="cls-8" d="M646.86,437.13a9.58,9.58,0,0,0,1.57,5.26,9.61,9.61,0,0,0,0-10.52A9.58,9.58,0,0,0,646.86,437.13Z" transform="translate(-642.14 -329.21)"/><path class="cls-8" d="M651.37,438.13a7.68,7.68,0,0,0-1.09,4.26,7.7,7.7,0,0,0,4.34-7.23A7.68,7.68,0,0,0,651.37,438.13Z" transform="translate(-642.14 -329.21)"/><path class="cls-8" d="M645.39,438.13a7.68,7.68,0,0,1,1.09,4.26,7.7,7.7,0,0,1-4.34-7.23A7.68,7.68,0,0,1,645.39,438.13Z" transform="translate(-642.14 -329.21)"/><path class="cls-9" d="M697.06,335.18s2.34,7-2.73,11.88l3.85,1.74s5.7-6.66,3.11-13.62Z" transform="translate(-642.14 -329.21)"/><path class="cls-7" d="M669.34,332.41s5.84,0,8.27,5.07l2.29-2.46s-3.58-6-9.48-5.8Z" transform="translate(-642.14 -329.21)"/><path class="cls-2" d="M674.61,358.79s-4.74-3.74-3.45-9.4l-3.43.53s-.94,7.14,4,10.77Z" transform="translate(-642.14 -329.21)"/><ellipse class="cls-10" cx="700.72" cy="378.91" rx="3.33" ry="1.87" transform="translate(-553.14 559.98) rotate(-68.24)"/><ellipse class="cls-10" cx="690.18" cy="414.38" rx="2.37" ry="1.33" transform="translate(-740.69 -75.95) rotate(-19.43)"/><circle class="cls-10" cx="55.72" cy="55.8" r="1.38"/><path class="cls-11" d="M701,409c0-.27-.49-.44-.49-.72a6.92,6.92,0,0,0-2.18-4.81l-5.08,3.08a.79.79,0,0,0,0,1.37l1.67,1c1.21.78,3.34,2.57,2.43,5.11-1.24,3.47,5.64,1,5.64,1Z" transform="translate(-642.14 -329.21)"/><path class="cls-12" d="M707.95,412.4l14.3-8.67a.7.7,0,0,0,0-1.22l-13.7-7.86a1.12,1.12,0,0,0-1.12,0l-14.17,8.59a.79.79,0,0,0,0,1.37l13.56,7.79A1.12,1.12,0,0,0,707.95,412.4Z" transform="translate(-642.14 -329.21)"/><path class="cls-7" d="M655.87,412.14l9.77-5.92a.48.48,0,0,0,0-.83L656.27,400a.77.77,0,0,0-.77,0l-9.68,5.87a.54.54,0,0,0,0,.94l9.27,5.32A.77.77,0,0,0,655.87,412.14Z" transform="translate(-642.14 -329.21)"/></svg>