<svg id="Layer_1" data-name="Layer 1" xmlns="http://www.w3.org/2000/svg" xmlns:xlink="http://www.w3.org/1999/xlink" viewBox="0 0 117.54 138.98"><defs><style>.cls-1{opacity:0.33;fill:url(#Градієнт_без_назви_83);}.cls-2{fill:url(#Градієнт_без_назви_69);}.cls-3,.cls-6{opacity:0.7;}.cls-3{fill:url(#Градієнт_без_назви_31);}.cls-4{fill:url(#Градієнт_без_назви_32);}.cls-5{fill:url(#Градієнт_без_назви_69-2);}.cls-6{fill:url(#Градієнт_без_назви_31-2);}.cls-7{fill:none;}.cls-8{fill:url(#Градієнт_без_назви_69-3);}.cls-9{fill:url(#Градієнт_без_назви_69-4);}.cls-10{fill:#2a3c67;}.cls-11{fill:#fff;}.cls-12{fill:#ffe269;}.cls-13{fill:#a56f46;opacity:0.3;}.cls-14{fill:url(#Градієнт_без_назви_78);}.cls-15{fill:#e53b51;}.cls-16,.cls-19,.cls-20{opacity:0.2;}.cls-16{fill:url(#linear-gradient);}.cls-17{fill:#6b8791;opacity:0.35;}.cls-18{fill:#9dcc4a;}.cls-19{fill:url(#linear-gradient-2);}.cls-20{fill:url(#linear-gradient-3);}</style><linearGradient id="Градієнт_без_назви_83" x1="675.56" y1="286.95" x2="718.38" y2="174.82" gradientUnits="userSpaceOnUse"><stop offset="0" stop-color="#a5bdcb"/><stop offset="1" stop-color="#d8e9f4" stop-opacity="0"/></linearGradient><linearGradient id="Градієнт_без_назви_69" x1="668.3" y1="278.71" x2="713.76" y2="199.16" gradientUnits="userSpaceOnUse"><stop offset="0" stop-color="#c7d1e0"/><stop offset="1" stop-color="#b3cade"/></linearGradient><linearGradient id="Градієнт_без_назви_31" x1="626.06" y1="252.77" x2="741.59" y2="252.77" gradientUnits="userSpaceOnUse"><stop offset="0" stop-color="#9abed8"/><stop offset="1" stop-color="#9abed8" stop-opacity="0.7"/></linearGradient><linearGradient id="Градієнт_без_назви_32" x1="667.5" y1="256.95" x2="725.24" y2="230.93" gradientUnits="userSpaceOnUse"><stop offset="0" stop-color="#d7e6f2"/><stop offset="1" stop-color="#dee2f3"/></linearGradient><linearGradient id="Градієнт_без_назви_69-2" x1="620.01" y1="201.57" x2="707.87" y2="214.65" xlink:href="#Градієнт_без_назви_69"/><linearGradient id="Градієнт_без_назви_31-2" x1="624.05" y1="207.4" x2="694.59" y2="207.4" xlink:href="#Градієнт_без_назви_31"/><linearGradient id="Градієнт_без_назви_69-3" x1="683.98" y1="261.87" x2="716.31" y2="254.78" xlink:href="#Градієнт_без_назви_69"/><linearGradient id="Градієнт_без_назви_69-4" x1="666.29" y1="250.67" x2="759.16" y2="218.41" xlink:href="#Градієнт_без_назви_69"/><linearGradient id="Градієнт_без_назви_78" x1="648.86" y1="218.69" x2="761.54" y2="176.37" gradientUnits="userSpaceOnUse"><stop offset="0" stop-color="#5fcece"/><stop offset="1" stop-color="#5fcece"/></linearGradient><linearGradient id="linear-gradient" x1="693.62" y1="196.69" x2="702.54" y2="196.69" gradientUnits="userSpaceOnUse"><stop offset="0"/><stop offset="1" stop-opacity="0.7"/></linearGradient><linearGradient id="linear-gradient-2" x1="670.76" y1="274.94" x2="673.97" y2="269.13" xlink:href="#linear-gradient"/><linearGradient id="linear-gradient-3" x1="726.09" y1="243.22" x2="729.3" y2="237.41" xlink:href="#linear-gradient"/></defs><title>ui-design</title><path class="cls-1" d="M674,299l67-38.66a1.21,1.21,0,0,0,0-2.08L695.95,231a1.21,1.21,0,0,0-1.2,0l-68.06,39.29a1.21,1.21,0,0,0,0,2.11L672.75,299A1.21,1.21,0,0,0,674,299Z" transform="translate(-624.05 -160.18)"/><path class="cls-2" d="M739.19,243.6v1.33l-43.24-26.14a1.21,1.21,0,0,0-1.2,0l-67.08,38.57-.21-1.65-1.4,0v3.42h0a1.19,1.19,0,0,0,.6,1l46.09,26.61a1.21,1.21,0,0,0,1.21,0l67-38.66a1.2,1.2,0,0,0,.6-1v-3.43Z" transform="translate(-624.05 -160.18)"/><path class="cls-3" d="M739.19,243.6v1.33l-43.24-26.14a1.21,1.21,0,0,0-1.2,0l-66,37.25-1.33-.33-1.4,0v3.42h0a1.19,1.19,0,0,0,.6,1l46.09,26.61a1.21,1.21,0,0,0,1.21,0l67-38.66a1.2,1.2,0,0,0,.6-1v-3.43Z" transform="translate(-624.05 -160.18)"/><path class="cls-4" d="M674,283.36l67-38.66a1.21,1.21,0,0,0,0-2.08l-45.05-27.24a1.21,1.21,0,0,0-1.2,0l-68.06,39.29a1.21,1.21,0,0,0,0,2.11l46.09,26.61A1.21,1.21,0,0,0,674,283.36Z" transform="translate(-624.05 -160.18)"/><path class="cls-5" d="M694.67,161.35l-1.93-1h0a1.19,1.19,0,0,0-1.16,0l-66.94,39.76a1.21,1.21,0,0,0-.59,1v52.09a.6.6,0,0,0,.33.54h0l1.86.87,1-2.19L693.4,214.3V163.51l.37.24Z" transform="translate(-624.05 -160.18)"/><path class="cls-6" d="M694.59,161.26l-1.86-1h0a1.19,1.19,0,0,0-1.16,0l-66.94,39.76a1.21,1.21,0,0,0-.59,1v52.09a.6.6,0,0,0,.33.54h0l2.1.84.74-2.16L693.4,214.3V163.51l.37.24Z" transform="translate(-624.05 -160.18)"/><path class="cls-7" d="M674,283.36l67-38.66a1.21,1.21,0,0,0,0-2.08l-45.05-27.24a1.21,1.21,0,0,0-1.2,0l-68.06,39.29a1.21,1.21,0,0,0,0,2.11l46.09,26.61A1.21,1.21,0,0,0,674,283.36Z" transform="translate(-624.05 -160.18)"/><path class="cls-8" d="M711.44,257.68l-16,9.34a1.21,1.21,0,0,1-1.2,0l-9.49-5.26a1.21,1.21,0,0,1,0-2.1l15.39-9a1.21,1.21,0,0,1,1.19,0l10.11,5.54A.85.85,0,0,1,711.44,257.68Z" transform="translate(-624.05 -160.18)"/><path class="cls-9" d="M715.78,237.56l-52.05,30.58a1.21,1.21,0,0,1-1.23,0l-19.32-11.46a1.21,1.21,0,0,1,0-2.08l52-30.55a1.21,1.21,0,0,1,1.23,0l19.4,11.43A1.21,1.21,0,0,1,715.78,237.56Z" transform="translate(-624.05 -160.18)"/><path class="cls-10" d="M689.15,221.49,637.1,252.07a1.21,1.21,0,0,1-1.23,0l-2.44-1.34c-.79-.47.48-.93,1.28-1.39l52-30.55a1.21,1.21,0,0,1,1.23,0l1.25.63A1.21,1.21,0,0,1,689.15,221.49Z" transform="translate(-624.05 -160.18)"/><path class="cls-10" d="M695.27,215.07l-68.45,39.46a.6.6,0,0,1-.91-.52V201.92a1.21,1.21,0,0,1,.59-1l66.94-39.76a1.21,1.21,0,0,1,1.83,1Z" transform="translate(-624.05 -160.18)"/><path class="cls-11" d="M692.71,213.51,630.6,249.29a.54.54,0,0,1-.8-.46v-45a1.21,1.21,0,0,1,.59-1l60.71-36a1.07,1.07,0,0,1,1.62.92Z" transform="translate(-624.05 -160.18)"/><path class="cls-12" d="M692.71,191.6l-62.92,36.33V203.75a1.19,1.19,0,0,1,.58-1l60.71-36a1.07,1.07,0,0,1,1.62.92Z" transform="translate(-624.05 -160.18)"/><path class="cls-13" d="M661.25,219.51l-16.77,9.72a1,1,0,0,1-1.46-.84V210.53a1,1,0,0,1,.49-.84L660.28,200a1,1,0,0,1,1.46.84v17.86A1,1,0,0,1,661.25,219.51Z" transform="translate(-624.05 -160.18)"/><path class="cls-14" d="M665.4,220.72l-16.77,9.72a1,1,0,0,1-1.46-.84V211.74a1,1,0,0,1,.49-.84l16.77-9.72a1,1,0,0,1,1.46.84v17.86A1,1,0,0,1,665.4,220.72Z" transform="translate(-624.05 -160.18)"/><path class="cls-13" d="M695.27,174.3l-.15.06L674.78,186.1a1.92,1.92,0,0,0-1,1.66v21.16a1.92,1.92,0,0,0,2.88,1.66l18.57-10.72Z" transform="translate(-624.05 -160.18)"/><path class="cls-15" d="M699.66,176.26,679.32,188a1.92,1.92,0,0,0-1,1.66v21.16a1.92,1.92,0,0,0,2.88,1.66l20.34-11.74a1.92,1.92,0,0,0,1-1.66V177.92A1.92,1.92,0,0,0,699.66,176.26Z" transform="translate(-624.05 -160.18)"/><path class="cls-11" d="M686.62,189.69l-3.23,1.87a.3.3,0,0,0-.15.26v3.36a.3.3,0,0,0,.46.26l3.23-1.87a.3.3,0,0,0,.15-.26V190A.3.3,0,0,0,686.62,189.69Z" transform="translate(-624.05 -160.18)"/><path class="cls-11" d="M662.71,215.25l-3.23,1.87a.3.3,0,0,0-.15.26v3.36a.3.3,0,0,0,.46.26l3.23-1.87a.3.3,0,0,0,.15-.26v-3.36A.3.3,0,0,0,662.71,215.25Z" transform="translate(-624.05 -160.18)"/><path class="cls-16" d="M701.58,200.74a1.92,1.92,0,0,0,1-1.66v-11l-8.07,4.66a1.69,1.69,0,0,0-.85,1.47v11.16Z" transform="translate(-624.05 -160.18)"/><path class="cls-12" d="M712.28,185l-13.44,7.76a1.69,1.69,0,0,0-.85,1.47v13.9a1.69,1.69,0,0,0,2.54,1.47L714,201.78a1.69,1.69,0,0,0,.85-1.47v-13.9A1.69,1.69,0,0,0,712.28,185Z" transform="translate(-624.05 -160.18)"/><path class="cls-17" d="M674.35,280.14l.43-.19.48-.24a5.53,5.53,0,0,0,.81-.53c1.43-1.15,1.61-2.67.24-3.81l-1.1-.68h0l-.05,0-.18-.07,0,0-.19-.07h0l-.2-.07h0l-.22-.07h0l-.24-.06h0l-.25-.06h0a9.72,9.72,0,0,0-5.89.59,12.67,12.67,0,0,0-4.37,3.19l6.12,3.53h.08l.16,0,.27-.05.17,0,.27-.06.16,0,.29-.07.15,0,.37-.09.07,0L672,281l.12,0,.32-.1.16,0,.28-.09.17-.06.27-.09.17-.06.27-.1.17-.06.29-.12Z" transform="translate(-624.05 -160.18)"/><path class="cls-18" d="M673,259.87a15.91,15.91,0,0,0-5,10.92,5.64,5.64,0,0,0,5.56,5.84,5.53,5.53,0,0,0,5.5-5.53,15.86,15.86,0,0,0-5-11.24A.81.81,0,0,0,673,259.87Z" transform="translate(-624.05 -160.18)"/><path class="cls-19" d="M676.37,272.33a5.64,5.64,0,0,1-5.56-5.84,14.71,14.71,0,0,1,1.3-5.72,15.66,15.66,0,0,0-4.1,10,5.64,5.64,0,0,0,5.56,5.84,5.53,5.53,0,0,0,5.47-5A5.5,5.5,0,0,1,676.37,272.33Z" transform="translate(-624.05 -160.18)"/><path class="cls-17" d="M730.54,243h0l-.05,0-.18-.07,0,0-.19-.07h0l-.2-.07h0l-.22-.07h0l-.24-.06h0l-.25-.06h0a9.72,9.72,0,0,0-5.89.59c-4.93,2.31-5.9,5.48-6.09,6.64,0,.26.27.48.73.51s1,0,1.61,0h2l.26,0h.14l.23,0h.16l.22,0,.16,0,.23,0,.16,0,.25,0,.15,0,.29,0h.11l.41-.06h.08l.33-.05.14,0,.28,0,.16,0,.27-.05.17,0,.27-.06.16,0,.29-.07.15,0,.37-.09.07,0,.44-.12.12,0,.32-.1.16,0,.28-.09.17-.06.27-.09.17-.06.27-.1.17-.06.29-.12.14-.06.43-.19.48-.24a5.53,5.53,0,0,0,.81-.53c1.43-1.15,1.61-2.67.24-3.81" transform="translate(-624.05 -160.18)"/><path class="cls-18" d="M728.31,228.15a15.91,15.91,0,0,0-5,10.92,5.64,5.64,0,0,0,5.56,5.84,5.53,5.53,0,0,0,5.5-5.53,15.86,15.86,0,0,0-5-11.24A.81.81,0,0,0,728.31,228.15Z" transform="translate(-624.05 -160.18)"/><path class="cls-20" d="M731.7,240.61a5.64,5.64,0,0,1-5.56-5.84,14.71,14.71,0,0,1,1.3-5.72,15.66,15.66,0,0,0-4.1,10,5.64,5.64,0,0,0,5.56,5.84,5.53,5.53,0,0,0,5.47-5A5.5,5.5,0,0,1,731.7,240.61Z" transform="translate(-624.05 -160.18)"/></svg>