<svg id="Layer_1" data-name="Layer 1" xmlns="http://www.w3.org/2000/svg" xmlns:xlink="http://www.w3.org/1999/xlink" viewBox="0 0 113.71 108.01"><defs><style>.cls-1{fill:#9dcc4a;}.cls-2,.cls-3{opacity:0.33;}.cls-2{fill:url(#linear-gradient);}.cls-3{fill:url(#Градієнт_без_назви_83);}.cls-4{fill:url(#Градієнт_без_назви_69);}.cls-5{fill:url(#Градієнт_без_назви_31);}.cls-6{fill:#2a3c67;}.cls-7{fill:#fff;}.cls-8{fill:#ffe269;}.cls-9{fill:#3d322b;opacity:0.25;}.cls-10{fill:url(#Градієнт_без_назви_78);}.cls-11{fill:#e53b51;}</style><linearGradient id="linear-gradient" x1="669.34" y1="311.85" x2="710.45" y2="204.21" gradientUnits="userSpaceOnUse"><stop offset="0" stop-color="#a5bdcb"/><stop offset="1" stop-color="#d8e9f4" stop-opacity="0"/></linearGradient><linearGradient id="Градієнт_без_назви_83" x1="704.15" y1="289.73" x2="721.36" y2="244.68" gradientUnits="userSpaceOnUse"><stop offset="0" stop-color="#a5bdcb"/><stop offset="1" stop-color="#d8e9f4" stop-opacity="0"/></linearGradient><linearGradient id="Градієнт_без_назви_69" x1="983.82" y1="260.97" x2="1078.87" y2="275.11" gradientTransform="translate(-330.37)" gradientUnits="userSpaceOnUse"><stop offset="0" stop-color="#c7d1e0"/><stop offset="1" stop-color="#b3cade"/></linearGradient><linearGradient id="Градієнт_без_назви_31" x1="988.71" y1="267.27" x2="1064.05" y2="267.27" gradientTransform="translate(-330.37)" gradientUnits="userSpaceOnUse"><stop offset="0" stop-color="#9abed8"/><stop offset="1" stop-color="#9abed8" stop-opacity="0.7"/></linearGradient><linearGradient id="Градієнт_без_назви_78" x1="713.15" y1="272.05" x2="739.58" y2="272.05" gradientUnits="userSpaceOnUse"><stop offset="0" stop-color="#5fcece"/><stop offset="1" stop-color="#5fcece"/></linearGradient></defs><title>web-dev</title><polygon class="cls-1" points="11.57 69.66 38.86 85.41 37.29 77.11 32.11 79.37 31.16 72.45 25.07 75.56 23.76 68.52 18.4 71.74 17.55 66.37 11.57 69.66"/><path class="cls-2" d="M661.78,321.1l66.29-38.23a1.2,1.2,0,0,0,0-2.06L695,260.48a1.2,1.2,0,0,0-1.19,0L626.5,299.31a1.2,1.2,0,0,0,0,2.08l34.11,19.7A1.2,1.2,0,0,0,661.78,321.1Z" transform="translate(-625.88 -213.29)"/><path class="cls-3" d="M714.33,298.42l21.38-12.47a1.2,1.2,0,0,0,0-2.06l-33.08-20.32a1.2,1.2,0,0,0-1.19,0l-22.4,13.1a1.2,1.2,0,0,0,0,2.08l34.11,19.7A1.2,1.2,0,0,0,714.33,298.42Z" transform="translate(-625.88 -213.29)"/><path class="cls-4" d="M733.67,214.33l-2.19-.89h0a1.44,1.44,0,0,0-1.39,0l-71,42.19a1.45,1.45,0,0,0-.71,1.25V319.6a.72.72,0,0,0,.4.64h0l2.24,1,1.18-2.64,70.13-40.26V217.3l.45.29Z" transform="translate(-625.88 -213.29)"/><path class="cls-5" d="M733.67,214.33l-2.19-.89h0a1.44,1.44,0,0,0-1.39,0l-71,42.19a1.45,1.45,0,0,0-.71,1.25V319.6a.72.72,0,0,0,.4.64h0l2.53,1,.89-2.6,70.13-40.26V217.3l.45.29Z" transform="translate(-625.88 -213.29)"/><path class="cls-6" d="M734.54,278.45a1.52,1.52,0,0,1-.76,1.32l-72.09,41.39a.73.73,0,0,1-1.09-.63V257.86a1.45,1.45,0,0,1,.71-1.25l71-42.19a1.45,1.45,0,0,1,2.2,1.25Z" transform="translate(-625.88 -213.29)"/><path class="cls-7" d="M731.46,277.45l-65.24,37.4a.65.65,0,0,1-1-.56v-54.2a1.45,1.45,0,0,1,.71-1.25l63.54-37.67a1.29,1.29,0,0,1,1.95,1.11Z" transform="translate(-625.88 -213.29)"/><path class="cls-8" d="M731.46,277.45l-66.2-17.39a1.43,1.43,0,0,1,.7-1.23l63.55-37.67a1.29,1.29,0,0,1,1.95,1.11Z" transform="translate(-625.88 -213.29)"/><path class="cls-9" d="M732.52,243.06l-23.1,13.65a.76.76,0,0,0-.37.66V294l24.49-14.09V243.64A.68.68,0,0,0,732.52,243.06Z" transform="translate(-625.88 -213.29)"/><path class="cls-10" d="M739.58,283.08a1.62,1.62,0,0,1-.82,1.41l-25.1,14.13a.34.34,0,0,1-.51-.29V260.92a.76.76,0,0,1,.37-.66l25-14.74a.68.68,0,0,1,1,.58Z" transform="translate(-625.88 -213.29)"/><path class="cls-7" d="M728.36,262.06q1.59-.85,1.59,1.76v4q0,2.8,1.51,2.55v.06a5.62,5.62,0,0,0-1.51,4.26v4a6.28,6.28,0,0,1-.36,2.38,2.87,2.87,0,0,1-1.23,1.36V284a6.3,6.3,0,0,0,3-5.86v-4.08q0-2.75,1.58-3.78V268.8q-1.58.79-1.58-2v-4q0-4.12-3-2.43Z" transform="translate(-625.88 -213.29)"/><path class="cls-7" d="M721,276.64h0q1.57-.78,1.57,2v4.09q0,4.06,3,2.38v-1.64q-.88.49-1.25.05a3.37,3.37,0,0,1-.37-1.95v-3.94q0-2.81-1.49-2.53V275a5.76,5.76,0,0,0,1.49-4.27v-4a3.89,3.89,0,0,1,1.61-3.61v-1.68q-3,1.79-3,5.91v4q0,2.77-1.57,3.82Z" transform="translate(-625.88 -213.29)"/><path class="cls-8" d="M686.23,291.11l-12,6.95a.69.69,0,0,1-1-.6V284.69a.69.69,0,0,1,.35-.6l12-6.95a.69.69,0,0,1,1,.6V290.5A.69.69,0,0,1,686.23,291.11Z" transform="translate(-625.88 -213.29)"/><path class="cls-9" d="M695.74,264.13c.91,7.27-2.46,16.27-7.52,20.1s-9.9,1-10.81-6.23,2.46-16.27,7.52-20.1S694.83,256.86,695.74,264.13Z" transform="translate(-625.88 -213.29)"/><path class="cls-11" d="M699.66,264c.91,7.27-2.46,16.27-7.52,20.1s-9.9,1-10.81-6.23,2.46-16.27,7.52-20.1S698.75,256.76,699.66,264Z" transform="translate(-625.88 -213.29)"/><path class="cls-7" d="M695.94,265.93a4.66,4.66,0,0,1-1.47,3.93c-1,.75-1.94.2-2.11-1.22a4.66,4.66,0,0,1,1.47-3.93C694.81,264,695.76,264.51,695.94,265.93Z" transform="translate(-625.88 -213.29)"/><polygon class="cls-1" points="70.13 106.38 99.1 90 95.04 84.97 92.15 93.55 88 89.4 84.61 97.47 80.53 93.5 77.31 101.72 73.07 98.03 70.13 106.38"/></svg>