<svg id="Layer_1" data-name="Layer 1" xmlns="http://www.w3.org/2000/svg" xmlns:xlink="http://www.w3.org/1999/xlink" viewBox="0 0 114.04 112.01"><defs><style>.cls-1,.cls-18,.cls-5,.cls-6{opacity:0.33;}.cls-1{fill:url(#linear-gradient);}.cls-2{fill:url(#Градієнт_без_назви_69);}.cls-3{opacity:0.7;fill:url(#Градієнт_без_назви_31);}.cls-4{fill:url(#Градієнт_без_назви_32);}.cls-5{fill:url(#linear-gradient-2);}.cls-7{fill:url(#Градієнт_без_назви_83);}.cls-8{fill:url(#Градієнт_без_назви_83-3);}.cls-9{fill:#2a3c67;}.cls-10{fill:#ffe269;}.cls-11{fill:#e53b51;}.cls-12{fill:#fff;}.cls-13{fill:url(#Градієнт_без_назви_78);}.cls-14,.cls-22{opacity:0.1;}.cls-14{fill:url(#linear-gradient-3);}.cls-15{fill:url(#Градієнт_без_назви_78-2);}.cls-16{fill:url(#Градієнт_без_назви_78-3);}.cls-17{fill:#c48551;opacity:0.3;}.cls-18{fill:url(#linear-gradient-4);}.cls-19{fill:#9dcc4a;}.cls-20,.cls-24{opacity:0.17;}.cls-20{fill:url(#linear-gradient-5);}.cls-21{fill:url(#Градієнт_без_назви_78-4);}.cls-22{fill:url(#linear-gradient-6);}.cls-23{fill:#c3cc4c;}.cls-24{fill:url(#linear-gradient-7);}.cls-25{fill:#75643c;}</style><linearGradient id="linear-gradient" x1="617.72" y1="465.3" x2="700.72" y2="411.69" gradientUnits="userSpaceOnUse"><stop offset="0" stop-color="#a5bdcb"/><stop offset="0.26" stop-color="#b2c8d6" stop-opacity="0.74"/><stop offset="1" stop-color="#d8e9f4" stop-opacity="0"/></linearGradient><linearGradient id="Градієнт_без_назви_69" x1="639.29" y1="428.23" x2="727.78" y2="428.23" gradientUnits="userSpaceOnUse"><stop offset="0" stop-color="#c7d1e0"/><stop offset="1" stop-color="#b3cade"/></linearGradient><linearGradient id="Градієнт_без_назви_31" x1="639.29" y1="428.23" x2="727.78" y2="428.23" gradientUnits="userSpaceOnUse"><stop offset="0" stop-color="#9abed8"/><stop offset="1" stop-color="#9abed8" stop-opacity="0.7"/></linearGradient><linearGradient id="Градієнт_без_назви_32" x1="639.29" y1="418.78" x2="727.78" y2="418.78" gradientUnits="userSpaceOnUse"><stop offset="0" stop-color="#d7e6f2"/><stop offset="1" stop-color="#dee2f3"/></linearGradient><linearGradient id="linear-gradient-2" x1="674.72" y1="419.92" x2="579.64" y2="425.63" xlink:href="#linear-gradient"/><linearGradient id="Градієнт_без_назви_83" x1="901.56" y1="373.74" x2="1042.18" y2="359.14" gradientTransform="matrix(-1, 0, 0, 1, 1588.68, 0)" gradientUnits="userSpaceOnUse"><stop offset="0" stop-color="#a5bdcb"/><stop offset="1" stop-color="#d8e9f4" stop-opacity="0"/></linearGradient><linearGradient id="Градієнт_без_назви_83-3" x1="965.31" y1="351.83" x2="1044.03" y2="363.1" gradientTransform="matrix(-1, 0, 0, 1, 1696.23, 0)" xlink:href="#Градієнт_без_назви_83"/><linearGradient id="Градієнт_без_назви_78" x1="653.81" y1="395.54" x2="661.66" y2="395.54" gradientTransform="matrix(1, 0, 0, 1, -600.93, -343.08)" gradientUnits="userSpaceOnUse"><stop offset="0" stop-color="#5fcece"/><stop offset="1" stop-color="#5fcece"/></linearGradient><linearGradient id="linear-gradient-3" x1="715.41" y1="416.9" x2="693.85" y2="426.67" gradientUnits="userSpaceOnUse"><stop offset="0"/><stop offset="1" stop-opacity="0.7"/></linearGradient><linearGradient id="Градієнт_без_назви_78-2" x1="652.57" y1="375.53" x2="663.03" y2="375.53" xlink:href="#Градієнт_без_назви_78"/><linearGradient id="Градієнт_без_назви_78-3" x1="670.44" y1="421.47" x2="695.72" y2="421.47" gradientTransform="matrix(1, 0, 0, 1, 0, 0)" xlink:href="#Градієнт_без_назви_78"/><linearGradient id="linear-gradient-4" x1="713.99" y1="448.49" x2="762.35" y2="444.72" xlink:href="#linear-gradient"/><linearGradient id="linear-gradient-5" x1="715.98" y1="445.6" x2="719.03" y2="440.07" xlink:href="#linear-gradient-3"/><linearGradient id="Градієнт_без_назви_78-4" x1="707.78" y1="409.48" x2="739.92" y2="409.48" gradientTransform="matrix(1, 0, 0, 1, 0, 0)" xlink:href="#Градієнт_без_назви_78"/><linearGradient id="linear-gradient-6" x1="718.39" y1="410.6" x2="694.22" y2="432.76" xlink:href="#linear-gradient-3"/><linearGradient id="linear-gradient-7" x1="715.73" y1="395.14" x2="720.65" y2="391.84" xlink:href="#linear-gradient-3"/></defs><title>startup</title><path class="cls-1" d="M713.28,425.89l-42-24.12a3.44,3.44,0,0,0-3.45,0l-40.74,24.78a2.44,2.44,0,0,0,0,4.22l41.6,23.89a3.43,3.43,0,0,0,1.41.43h14v-6.3h-2.32l31.56-19.19A2.16,2.16,0,0,0,713.28,425.89Z" transform="translate(-625.88 -343.13)"/><path class="cls-2" d="M727.78,418.94H714.57l-29.9-17.17a3.44,3.44,0,0,0-3.45,0L653,418.94H639.29v9.29h.05a2.41,2.41,0,0,0,1.18,2.57l41.6,23.89a3.44,3.44,0,0,0,3.45,0l41.15-25a2.12,2.12,0,0,0,1-1.41h.05Z" transform="translate(-625.88 -343.13)"/><path class="cls-3" d="M727.78,418.94H714.57l-29.9-17.17a3.44,3.44,0,0,0-3.45,0L653,418.94H639.29v9.29h.05a2.41,2.41,0,0,0,1.18,2.57l41.6,23.89a3.44,3.44,0,0,0,3.45,0l41.15-25a2.12,2.12,0,0,0,1-1.41h.05Z" transform="translate(-625.88 -343.13)"/><path class="cls-4" d="M685.57,445.21l41.15-25a2.16,2.16,0,0,0,0-3.74l-42-24.12a3.44,3.44,0,0,0-3.45,0l-40.74,24.78a2.44,2.44,0,0,0,0,4.22l41.6,23.89A3.44,3.44,0,0,0,685.57,445.21Z" transform="translate(-625.88 -343.13)"/><path class="cls-5" d="M640.52,421.35l13,7.47,28.91,2.42,3.19-5c2.47-.75.66-1.62,2.47-2.59l15.67-2.21-10.07-7c-2.58-6-16.54-5.3-33.38-5.3-2.47,0-4.85.09-7.17.23l-12.67,7.71A2.44,2.44,0,0,0,640.52,421.35Z" transform="translate(-625.88 -343.13)"/><g class="cls-6"><path class="cls-7" d="M635.63,378.23h52.69s-1-8.79-8.38-8.85a7.72,7.72,0,0,0-6.55,3.12S672,361.32,661,361.27c-7.29,0-9.62,11-9.62,11S638.36,366.8,635.63,378.23Z" transform="translate(-625.88 -343.13)"/><path class="cls-7" d="M635.63,378.23h52.69s-1-8.79-8.38-8.85a7.72,7.72,0,0,0-6.55,3.12S672,361.32,661,361.27c-7.29,0-9.62,11-9.62,11S638.36,366.8,635.63,378.23Z" transform="translate(-625.88 -343.13)"/></g><g class="cls-6"><path class="cls-8" d="M687.56,360.51H720s-.76-6.41-6.11-6.45a5.63,5.63,0,0,0-4.78,2.27s-2.83-6.87-10.38-6.87C688.17,349.47,687.56,360.51,687.56,360.51Z" transform="translate(-625.88 -343.13)"/><path class="cls-8" d="M687.56,360.51H720s-.76-6.41-6.11-6.45a5.63,5.63,0,0,0-4.78,2.27s-2.83-6.87-10.38-6.87C688.17,349.47,687.56,360.51,687.56,360.51Z" transform="translate(-625.88 -343.13)"/></g><path class="cls-9" d="M670.18,415.74c.24-.22,16.43-15.51,3.69-15.5s-13,17.25-13,17.25V420a1.78,1.78,0,0,0,2.37,1.68l6.88-2.41a1.75,1.75,0,0,0,1.75-1.75h0A1.75,1.75,0,0,0,670.18,415.74Z" transform="translate(-625.88 -343.13)"/><path class="cls-9" d="M696,415.74c-.24-.22-16.45-15.48-3.72-15.49s13,17.23,13,17.23V420a1.78,1.78,0,0,1-2.37,1.68l-6.88-2.4a1.75,1.75,0,0,1-1.75-1.75h0A1.75,1.75,0,0,1,696,415.74Z" transform="translate(-625.88 -343.13)"/><path class="cls-10" d="M699.11,380c0-14.48-9.49-30.21-14.17-36a2.46,2.46,0,0,0-3.82,0c-4.67,5.75-14.12,20.42-14.11,34.9,0,18.12,3.65,40.23,3.65,40.23h0c.54,3.74,5.88,6.68,12.41,6.68s11.84-2.93,12.4-6.65h0S699.13,398.11,699.11,380Z" transform="translate(-625.88 -343.13)"/><path class="cls-11" d="M681.12,344a72.9,72.9,0,0,0-7.49,11.56,26.59,26.59,0,0,0,18.63,0A69.68,69.68,0,0,0,684.94,344,2.46,2.46,0,0,0,681.12,344Z" transform="translate(-625.88 -343.13)"/><circle class="cls-12" cx="57.16" cy="51.86" r="5.71"/><circle class="cls-13" cx="57.16" cy="51.86" r="3.93"/><circle class="cls-12" cx="58.16" cy="50.85" r="1.31"/><path class="cls-14" d="M726.69,416.45l-12.77-7.33a16.49,16.49,0,0,0-4.08,1.51c-4.92,2.69-5.54,6.92-1.4,9.44,3.45,2.1,9.11,2.35,13.75.83l1.73,1,2.79-1.7A2.16,2.16,0,0,0,726.69,416.45Z" transform="translate(-625.88 -343.13)"/><circle class="cls-12" cx="57.21" cy="31.86" r="7.61"/><circle class="cls-15" cx="57.21" cy="31.86" r="5.23"/><circle class="cls-12" cx="58.55" cy="30.51" r="1.74"/><path class="cls-16" d="M683.08,420.72c-5.14,0-9.7-1.42-12.64-3.63.14,1.32.22,2.08.22,2.08h0c.54,3.74,5.88,6.68,12.41,6.68s11.84-2.93,12.4-6.65h0s.09-.76.23-2.11C692.79,419.29,688.22,420.72,683.08,420.72Z" transform="translate(-625.88 -343.13)"/><path class="cls-17" d="M681.54,424.49l-1.05-11.89-4.64,3.28a268.89,268.89,0,0,1-3.15-36.93c0-13.83,5.5-28.92,9.23-35.54a2.45,2.45,0,0,0-.81.64c-4.67,5.75-14.12,20.42-14.11,34.9,0,18.12,3.65,40.23,3.65,40.23h0c.54,3.74,5.88,6.68,12.41,6.68a20.9,20.9,0,0,0,2.84-.2A17.62,17.62,0,0,1,681.54,424.49Z" transform="translate(-625.88 -343.13)"/><path class="cls-9" d="M681.64,412.25H684a2.15,2.15,0,0,1,2.16,2.37l-1.1,14.69a2.15,2.15,0,0,1-2.11,1.94h0a2.15,2.15,0,0,1-2.17-1.88l-1.31-14.69A2.15,2.15,0,0,1,681.64,412.25Z" transform="translate(-625.88 -343.13)"/><path class="cls-18" d="M720.2,445.37h0l0,0-.17-.07,0,0-.18-.07h0l-.19-.07h0l-.21-.06h0L719,445h0l-.24-.06h0a9.25,9.25,0,0,0-5.61.56c-4.69,2.2-5.62,5.22-5.8,6.32,0,.25.26.46.69.48s.91,0,1.53,0h1.87l.25,0h.14l.21,0h.15l.21,0h.15l.22,0,.15,0,.24,0,.14,0,.28,0h.1l.39-.06h.08l.32-.05.14,0,.26,0,.15,0,.25,0,.16,0,.26-.05.16,0,.27-.06.14,0,.35-.09.07,0,.42-.11.11,0,.3-.09.15,0,.27-.09.16-.05.26-.09.16-.06.26-.1.16-.06.28-.11.13-.05.41-.18.45-.23a5.27,5.27,0,0,0,.77-.51c1.37-1.09,1.54-2.54.23-3.63" transform="translate(-625.88 -343.13)"/><path class="cls-19" d="M718.08,431.26a15.14,15.14,0,0,0-4.73,10.39,5.36,5.36,0,0,0,5.29,5.56,5.26,5.26,0,0,0,5.23-5.26,15.09,15.09,0,0,0-4.73-10.69A.77.77,0,0,0,718.08,431.26Z" transform="translate(-625.88 -343.13)"/><path class="cls-20" d="M721.31,443.11a5.36,5.36,0,0,1-5.29-5.56,14,14,0,0,1,1.24-5.44,14.9,14.9,0,0,0-3.9,9.54,5.36,5.36,0,0,0,5.29,5.56,5.26,5.26,0,0,0,5.2-4.77A5.23,5.23,0,0,1,721.31,443.11Z" transform="translate(-625.88 -343.13)"/><path class="cls-21" d="M724.08,419.06l15.46-9.37a.76.76,0,0,0,0-1.32l-14.79-8.47a1.21,1.21,0,0,0-1.22,0l-15.32,9.29a.86.86,0,0,0,0,1.48l14.65,8.39A1.21,1.21,0,0,0,724.08,419.06Z" transform="translate(-625.88 -343.13)"/><path class="cls-22" d="M724.75,407.49a2.51,2.51,0,0,0-2.26,0l-3.37,1.84a19,19,0,0,0-10.91-.19h0a.86.86,0,0,0,0,1.48l13.43,7.69c2.91-2.52,2.93-5.72-.23-7.86l3.15-1.72C725.24,408.42,725.32,407.84,724.75,407.49Z" transform="translate(-625.88 -343.13)"/><circle class="cls-23" cx="96.93" cy="47.24" r="12.24"/><path class="cls-24" d="M728,395.62a10.58,10.58,0,0,1-9.7-14.8,10.58,10.58,0,1,0,14.11,13.84A10.54,10.54,0,0,1,728,395.62Z" transform="translate(-625.88 -343.13)"/><path class="cls-25" d="M723.91,387.52a1.69,1.69,0,0,0-1.69,1.69v5.65l-3.3-2.31a1.42,1.42,0,0,0-1.63,2.33l4.65,3.26a1.42,1.42,0,0,0,.27.15v8.63a1.69,1.69,0,0,0,3.37,0V389.2A1.69,1.69,0,0,0,723.91,387.52Z" transform="translate(-625.88 -343.13)"/></svg>