<?xml version="1.0" encoding="utf-8"?>
<!-- Generator: Adobe Illustrator 21.1.0, SVG Export Plug-In . SVG Version: 6.00 Build 0)  -->
<svg version="1.1" id="Layer_1" xmlns="http://www.w3.org/2000/svg" xmlns:xlink="http://www.w3.org/1999/xlink" x="0px" y="0px"
	 viewBox="0 0 322.1 204.3" style="enable-background:new 0 0 322.1 204.3;" xml:space="preserve">
<style type="text/css">
	.st0{opacity:0.2;fill:#969696;enable-background:new    ;}
	.st1{fill:#C7D6E2;}
	.st2{fill:#F4F7F9;}
	.st3{fill:#FFFFFF;}
	.st4{fill:#FFE269;}
	.st5{fill:#e53b51;}
	.st6{opacity:0.5;fill:#e53b51;enable-background:new    ;}
	.st7{opacity:0.5;fill:#68BDFB;enable-background:new    ;}
	.st8{fill:#68BDFB;}
	.st9{fill:#5874A0;}
	.st10{opacity:0.5;fill:#FFE269;enable-background:new    ;}
	.st11{opacity:0.15;fill:#2B2B2B;enable-background:new    ;}
	.st12{fill:#FC818D;}
	.st13{fill:#ED6471;}
	.st14{enable-background:new    ;}
	.st15{clip-path:url(#SVGID_2_);}
	.st16{clip-path:url(#SVGID_4_);}
	.st17{clip-path:url(#SVGID_6_);}
	.st18{fill:#F2EBEE;}
	.st19{opacity:0.2;fill:#5B5B5B;enable-background:new    ;}
	.st20{opacity:0.2;}
	.st21{fill:#969696;}
	.st22{opacity:0.61;}
	.st23{clip-path:url(#SVGID_8_);}
	.st24{fill:#97B1CC;}
	.st25{opacity:0.61;fill:#97B1CC;enable-background:new    ;}
	.st26{opacity:0.71;fill:#97B1CC;enable-background:new    ;}
	.st27{opacity:0.33;fill:url(#SVGID_9_);enable-background:new    ;}
	.st28{opacity:0.33;fill:url(#SVGID_10_);enable-background:new    ;}
	.st29{opacity:0.33;fill:url(#SVGID_11_);enable-background:new    ;}
	.st30{opacity:0.33;fill:url(#SVGID_12_);enable-background:new    ;}
	.st31{fill:#2A3C67;}
	.st32{fill:url(#SVGID_13_);}
	.st33{opacity:0.3;fill:#C48551;enable-background:new    ;}
	.st34{fill:#FC9E48;}
	.st35{fill:url(#SVGID_14_);}
	.st36{fill:#9DCC4A;}
	.st37{fill:url(#SVGID_15_);}
	.st38{fill:url(#SVGID_16_);}
	.st39{opacity:0.3;fill:#2B2B2B;enable-background:new    ;}
	.st40{fill:url(#SVGID_17_);}
	.st41{fill:url(#SVGID_18_);}
	.st42{fill:#90ABBF;}
	.st43{fill:url(#SVGID_19_);}
	.st44{opacity:0.28;fill:url(#SVGID_20_);enable-background:new    ;}
	.st45{fill:url(#SVGID_21_);}
	.st46{opacity:0.1;fill:#97B1CC;enable-background:new    ;}
	.st47{fill:url(#SVGID_22_);}
	.st48{opacity:0.28;fill:url(#SVGID_23_);enable-background:new    ;}
</style>
<path class="st0" d="M4.7,146.9l47.5,25.9l119.2-69.4l-30.2-40.6L4.6,141.4C2.5,142.6,2.5,145.7,4.7,146.9z"/>
<polyline class="st1" points="48.9,169.5 53.2,172.8 55.4,169.2 54.4,166.2 51.4,166.2 50.4,167.2 "/>
<path class="st1" d="M172,6.2l1.6-1.3l4.3,3.1c0,0,0,1.7-0.4,1.8c-0.3,0.1-2.6,0-2.6,0L173,10l-1.1-1.1c0,0-0.8-0.5-0.4-0.2
	c0.4,0.2-0.1,2.2-0.1,2.2"/>
<path class="st1" d="M51.2,72.6L171.8,4.7c1.2-0.7,2.6,0.2,2.6,1.5v92.1c0,0.6-0.3,1.2-0.9,1.5L51,169.9c-1.2,0.7-2.6-0.2-2.6-1.5
	V77.5C48.4,75.5,49.5,73.6,51.2,72.6z"/>
<path class="st2" d="M56.3,75L175.8,7.7c1.2-0.7,2.6,0.2,2.6,1.5v92.1c0,0.6-0.3,1.2-0.9,1.5L55,172.9c-1.2,0.7-2.6-0.2-2.6-1.5
	V81.8C52.4,79,53.9,76.4,56.3,75z"/>
<path class="st3" d="M60.3,81.9l-0.1,77.8c0,0.5,0.5,0.8,1,0.6l109-63.3c0.2-0.1,0.3-0.3,0.3-0.6l0.1-75.6c0-0.5-0.5-0.8-1-0.6
	l-109,61.1C60.4,81.5,60.3,81.7,60.3,81.9z"/>
<path class="st4" d="M123.6,53.6v5.9c0,0.6,0.6,0.9,1.1,0.6l5.5-3.2c0.5-0.3,0.8-0.8,0.8-1.4v-6.2c0-0.6-0.6-0.9-1.1-0.6l-5.3,3.2
	C124,52.2,123.6,52.9,123.6,53.6z"/>
<path class="st5" d="M123.6,64.9v5.9c0,0.6,0.6,0.9,1.1,0.6l5.5-3.2c0.5-0.3,0.8-0.8,0.8-1.4v-6.2c0-0.6-0.6-0.9-1.1-0.6l-5.3,3.2
	C124,63.6,123.6,64.2,123.6,64.9z"/>
<path class="st6" d="M123.6,76.3v5.9c0,0.6,0.6,0.9,1.1,0.6l5.5-3.2c0.5-0.3,0.8-0.8,0.8-1.4V72c0-0.6-0.6-0.9-1.1-0.6l-5.3,3.2
	C124,74.9,123.6,75.6,123.6,76.3z"/>
<path class="st6" d="M123.6,87.7v5.9c0,0.6,0.6,0.9,1.1,0.6l5.5-3.2c0.5-0.3,0.8-0.8,0.8-1.4v-6.2c0-0.6-0.6-0.9-1.1-0.6l-5.3,3.2
	C124,86.3,123.6,87,123.6,87.7z"/>
<path class="st7" d="M123.6,98.7v5.9c0,0.6,0.6,0.9,1.1,0.6l5.5-3.2c0.5-0.3,0.8-0.8,0.8-1.4v-6.2c0-0.6-0.6-0.9-1.1-0.6l-5.3,3.2
	C124,97.4,123.6,98,123.6,98.7z"/>
<path class="st8" d="M123.6,109.6v5.9c0,0.6,0.6,0.9,1.1,0.6l5.5-3.2c0.5-0.3,0.8-0.8,0.8-1.4v-6.2c0-0.6-0.6-0.9-1.1-0.6l-5.3,3.2
	C124,108.2,123.6,108.9,123.6,109.6z"/>
<path class="st7" d="M133.2,48.3v5.9c0,0.6,0.6,0.9,1.1,0.6l5.5-3.2c0.5-0.3,0.8-0.8,0.8-1.4V44c0-0.6-0.6-0.9-1.1-0.6l-5.3,3.2
	C133.6,47,133.2,47.6,133.2,48.3z"/>
<path class="st7" d="M133.2,59.7v5.9c0,0.6,0.6,0.9,1.1,0.6l5.5-3.2c0.5-0.3,0.8-0.8,0.8-1.4v-6.2c0-0.6-0.6-0.9-1.1-0.6l-5.3,3.2
	C133.6,58.3,133.2,59,133.2,59.7z"/>
<path class="st4" d="M133.2,71v5.9c0,0.6,0.6,0.9,1.1,0.6l5.5-3.2c0.5-0.3,0.8-0.8,0.8-1.4v-6.2c0-0.6-0.6-0.9-1.1-0.6l-5.3,3.2
	C133.6,69.7,133.2,70.3,133.2,71z"/>
<path class="st9" d="M133.2,82.4v5.9c0,0.6,0.6,0.9,1.1,0.6l5.5-3.2c0.5-0.3,0.8-0.8,0.8-1.4v-6.2c0-0.6-0.6-0.9-1.1-0.6l-5.3,3.2
	C133.6,81,133.2,81.7,133.2,82.4z"/>
<path class="st4" d="M133.2,93.5v5.9c0,0.6,0.6,0.9,1.1,0.6l5.5-3.2c0.5-0.3,0.8-0.8,0.8-1.4v-6.2c0-0.6-0.6-0.9-1.1-0.6l-5.3,3.2
	C133.6,92.1,133.2,92.8,133.2,93.5z"/>
<path class="st7" d="M133.2,104.3v5.9c0,0.6,0.6,0.9,1.1,0.6l5.5-3.2c0.5-0.3,0.8-0.8,0.8-1.4V100c0-0.6-0.6-0.9-1.1-0.6l-5.3,3.2
	C133.6,102.9,133.2,103.6,133.2,104.3z"/>
<path class="st8" d="M143,43.3v5.9c0,0.6,0.6,0.9,1.1,0.6l5.5-3.2c0.5-0.3,0.8-0.8,0.8-1.4V39c0-0.6-0.6-0.9-1.1-0.6l-5.3,3.2
	C143.4,41.9,143,42.6,143,43.3z"/>
<path class="st9" d="M143,53.9v5.9c0,0.6,0.6,0.9,1.1,0.6l5.5-3.2c0.5-0.3,0.8-0.8,0.8-1.4v-6.2c0-0.6-0.6-0.9-1.1-0.6l-5.3,3.2
	C143.4,52.5,143,53.2,143,53.9z"/>
<path class="st10" d="M143,65.2v5.9c0,0.6,0.6,0.9,1.1,0.6l5.5-3.2c0.5-0.3,0.8-0.8,0.8-1.4V61c0-0.6-0.6-0.9-1.1-0.6l-5.3,3.2
	C143.4,63.9,143,64.5,143,65.2z"/>
<path class="st4" d="M143,76.6v5.9c0,0.6,0.6,0.9,1.1,0.6l5.5-3.2c0.5-0.3,0.8-0.8,0.8-1.4v-6.2c0-0.6-0.6-0.9-1.1-0.6l-5.3,3.2
	C143.4,75.2,143,75.9,143,76.6z"/>
<path class="st7" d="M143,87.7v5.9c0,0.6,0.6,0.9,1.1,0.6l5.5-3.2c0.5-0.3,0.8-0.8,0.8-1.4v-6.2c0-0.6-0.6-0.9-1.1-0.6L144,86
	C143.4,86.3,143,87,143,87.7z"/>
<path class="st7" d="M143,98.5v5.9c0,0.6,0.6,0.9,1.1,0.6l5.5-3.2c0.5-0.3,0.8-0.8,0.8-1.4v-6.2c0-0.6-0.6-0.9-1.1-0.6l-5.3,3.2
	C143.4,97.1,143,97.8,143,98.5z"/>
<path class="st10" d="M94.3,71v6c0,0.6,0.6,0.9,1.1,0.6l5.5-3.2c0.5-0.3,0.8-0.8,0.8-1.4v-6.2c0-0.6-0.6-0.9-1.1-0.6l-5.3,3.2
	C94.7,69.7,94.3,70.3,94.3,71z"/>
<path class="st9" d="M94.3,82.4v5.9c0,0.6,0.6,0.9,1.1,0.6l5.5-3.2c0.5-0.3,0.8-0.8,0.8-1.4v-6.2c0-0.6-0.6-0.9-1.1-0.6l-5.3,3.2
	C94.7,81,94.3,81.7,94.3,82.4z"/>
<path class="st5" d="M94.3,93.8v5.9c0,0.6,0.6,0.9,1.1,0.6l5.5-3.2c0.5-0.3,0.8-0.8,0.8-1.4v-6.2c0-0.6-0.6-0.9-1.1-0.6L95.3,92
	C94.7,92.4,94.3,93,94.3,93.8z"/>
<path class="st5" d="M94.3,105.1v5.9c0,0.6,0.6,0.9,1.1,0.6l5.5-3.2c0.5-0.3,0.8-0.8,0.8-1.4v-6.2c0-0.6-0.6-0.9-1.1-0.6l-5.3,3.2
	C94.7,103.8,94.3,104.4,94.3,105.1z"/>
<path class="st10" d="M94.3,116.2v5.9c0,0.6,0.6,0.9,1.1,0.6l5.5-3.2c0.5-0.3,0.8-0.8,0.8-1.4v-6.2c0-0.6-0.6-0.9-1.1-0.6l-5.3,3.2
	C94.7,114.8,94.3,115.5,94.3,116.2z"/>
<path class="st8" d="M94.3,127v5.9c0,0.6,0.6,0.9,1.1,0.6l5.5-3.2c0.5-0.3,0.8-0.8,0.8-1.4v-6.2c0-0.6-0.6-0.9-1.1-0.6l-5.3,3.2
	C94.7,125.6,94.3,126.3,94.3,127z"/>
<path class="st5" d="M103.9,65.8v5.9c0,0.6,0.6,0.9,1.1,0.6l5.5-3.2c0.5-0.3,0.8-0.8,0.8-1.4v-6.2c0-0.6-0.6-0.9-1.1-0.6l-5.3,3.2
	C104.3,64.4,103.9,65.1,103.9,65.8z"/>
<path class="st7" d="M103.9,77.1V83c0,0.6,0.6,0.9,1.1,0.6l5.5-3.2c0.5-0.3,0.8-0.8,0.8-1.4v-6.2c0-0.6-0.6-0.9-1.1-0.6l-5.3,3.2
	C104.3,75.8,103.9,76.4,103.9,77.1z"/>
<path class="st5" d="M103.9,88.5v5.9c0,0.6,0.6,0.9,1.1,0.6l5.5-3.2c0.5-0.3,0.8-0.8,0.8-1.4v-6.2c0-0.6-0.6-0.9-1.1-0.6l-5.3,3.2
	C104.3,87.1,103.9,87.8,103.9,88.5z"/>
<path class="st8" d="M103.9,99.8v5.9c0,0.6,0.6,0.9,1.1,0.6l5.5-3.2c0.5-0.3,0.8-0.8,0.8-1.4v-6.2c0-0.6-0.6-0.9-1.1-0.6l-5.3,3.2
	C104.3,98.5,103.9,99.1,103.9,99.8z"/>
<path class="st9" d="M103.9,110.9v5.9c0,0.6,0.6,0.9,1.1,0.6l5.5-3.2c0.5-0.3,0.8-0.8,0.8-1.4v-6.2c0-0.6-0.6-0.9-1.1-0.6l-5.3,3.2
	C104.3,109.6,103.9,110.2,103.9,110.9z"/>
<path class="st8" d="M103.9,121.7v5.9c0,0.6,0.6,0.9,1.1,0.6l5.5-3.2c0.5-0.3,0.8-0.8,0.8-1.4v-6.2c0-0.6-0.6-0.9-1.1-0.6l-5.3,3.2
	C104.3,120.4,103.9,121,103.9,121.7z"/>
<path class="st5" d="M114,60.2v5.9c0,0.6,0.6,0.9,1.1,0.6l5.5-3.2c0.5-0.3,0.8-0.8,0.8-1.4v-6.2c0-0.6-0.6-0.9-1.1-0.6l-5.3,3.2
	C114.3,58.8,114,59.4,114,60.2z"/>
<path class="st7" d="M113.8,71.3v5.9c0,0.6,0.6,0.9,1.1,0.6l5.5-3.2c0.5-0.3,0.8-0.8,0.8-1.4V67c0-0.6-0.6-0.9-1.1-0.6l-5.3,3.2
	C114.1,70,113.8,70.6,113.8,71.3z"/>
<path class="st8" d="M113.8,82.7v5.9c0,0.6,0.6,0.9,1.1,0.6l5.5-3.2c0.5-0.3,0.8-0.8,0.8-1.4v-6.2c0-0.6-0.6-0.9-1.1-0.6l-5.3,3.2
	C114.1,81.3,113.8,82,113.8,82.7z"/>
<path class="st8" d="M113.8,82.7v5.9c0,0.6,0.6,0.9,1.1,0.6l5.5-3.2c0.5-0.3,0.8-0.8,0.8-1.4v-6.2c0-0.6-0.6-0.9-1.1-0.6l-5.3,3.2
	C114.1,81.3,113.8,82,113.8,82.7z"/>
<path class="st4" d="M113.8,94v5.9c0,0.6,0.6,0.9,1.1,0.6l5.5-3.2c0.5-0.3,0.8-0.8,0.8-1.4v-6.2c0-0.6-0.6-0.9-1.1-0.6l-5.3,3.2
	C114.1,92.7,113.8,93.3,113.8,94z"/>
<path class="st5" d="M113.8,105.1v5.9c0,0.6,0.6,0.9,1.1,0.6l5.5-3.2c0.5-0.3,0.8-0.8,0.8-1.4v-6.2c0-0.6-0.6-0.9-1.1-0.6l-5.3,3.2
	C114.1,103.7,113.8,104.4,113.8,105.1z"/>
<path class="st5" d="M113.8,115.9v5.9c0,0.6,0.6,0.9,1.1,0.6l5.5-3.2c0.5-0.3,0.8-0.8,0.8-1.4v-6.2c0-0.6-0.6-0.9-1.1-0.6l-5.3,3.2
	C114.1,114.6,113.8,115.2,113.8,115.9z"/>
<path class="st7" d="M65.1,87.7v5.9c0,0.6,0.6,0.9,1.1,0.6l5.5-3.2c0.5-0.3,0.8-0.8,0.8-1.4v-6.2c0-0.6-0.6-0.9-1.1-0.6L66,85.9
	C65.4,86.3,65.1,87,65.1,87.7z"/>
<path class="st5" d="M65.1,99v5.9c0,0.6,0.6,0.9,1.1,0.6l5.5-3.2c0.5-0.3,0.8-0.8,0.8-1.4v-6.2c0-0.6-0.6-0.9-1.1-0.6L66,97.3
	C65.4,97.7,65.1,98.3,65.1,99z"/>
<path class="st8" d="M65.1,110.4v5.9c0,0.6,0.6,0.9,1.1,0.6l5.5-3.2c0.5-0.3,0.8-0.8,0.8-1.4v-6.2c0-0.6-0.6-0.9-1.1-0.6l-5.3,3.2
	C65.4,109,65.1,109.7,65.1,110.4z"/>
<path class="st7" d="M65.1,121.7v5.9c0,0.6,0.6,0.9,1.1,0.6l5.5-3.2c0.5-0.3,0.8-0.8,0.8-1.4v-6.2c0-0.6-0.6-0.9-1.1-0.6L66,120
	C65.4,120.4,65.1,121,65.1,121.7z"/>
<path class="st7" d="M65.1,132.8v5.9c0,0.6,0.6,0.9,1.1,0.6l5.5-3.2c0.5-0.3,0.8-0.8,0.8-1.4v-6.2c0-0.6-0.6-0.9-1.1-0.6l-5.3,3.2
	C65.4,131.5,65.1,132.1,65.1,132.8z"/>
<path class="st5" d="M65.1,142.7v5.9c0,0.6,0.6,0.9,1.1,0.6l5.5-3.2c0.5-0.3,0.8-0.8,0.8-1.4v-6.2c0-0.6-0.6-0.9-1.1-0.6L66,141
	C65.4,141.4,65.1,142,65.1,142.7z"/>
<path class="st5" d="M74.7,82.4v5.9c0,0.6,0.6,0.9,1.1,0.6l5.5-3.2c0.5-0.3,0.8-0.8,0.8-1.4v-6.2c0-0.6-0.6-0.9-1.1-0.6l-5.3,3.2
	C75,81,74.7,81.7,74.7,82.4z"/>
<path class="st10" d="M74.7,93.8v5.9c0,0.6,0.6,0.9,1.1,0.6l5.5-3.2c0.5-0.3,0.8-0.8,0.8-1.4v-6.2c0-0.6-0.6-0.9-1.1-0.6L75.6,92
	C75,92.4,74.7,93,74.7,93.8z"/>
<path class="st10" d="M74.7,105.1v5.9c0,0.6,0.6,0.9,1.1,0.6l5.5-3.2c0.5-0.3,0.8-0.8,0.8-1.4v-6.2c0-0.6-0.6-0.9-1.1-0.6l-5.3,3.2
	C75,103.8,74.7,104.4,74.7,105.1z"/>
<path class="st9" d="M74.7,116.5v5.9c0,0.6,0.6,0.9,1.1,0.6l5.5-3.2c0.5-0.3,0.8-0.8,0.8-1.4v-6.2c0-0.6-0.6-0.9-1.1-0.6l-5.3,3.2
	C75,115.1,74.7,115.8,74.7,116.5z"/>
<path class="st6" d="M74.7,127.5v5.9c0,0.6,0.6,0.9,1.1,0.6l5.5-3.2c0.5-0.3,0.8-0.8,0.8-1.4v-6.2c0-0.6-0.6-0.9-1.1-0.6l-5.3,3.2
	C75,126.2,74.7,126.8,74.7,127.5z"/>
<path class="st4" d="M74.7,138.4v5.9c0,0.6,0.6,0.9,1.1,0.6l5.5-3.2c0.5-0.3,0.8-0.8,0.8-1.4v-6.2c0-0.6-0.6-0.9-1.1-0.6l-5.3,3.2
	C75,137,74.7,137.7,74.7,138.4z"/>
<path class="st10" d="M84.5,76.6v5.9c0,0.6,0.6,0.9,1.1,0.6l5.5-3.2c0.5-0.3,0.8-0.8,0.8-1.4v-6.2c0-0.6-0.6-0.9-1.1-0.6l-5.3,3.2
	C84.9,75.2,84.5,75.9,84.5,76.6z"/>
<path class="st10" d="M84.5,87.9v5.9c0,0.6,0.6,0.9,1.1,0.6l5.5-3.2c0.5-0.3,0.8-0.8,0.8-1.4v-6.2c0-0.6-0.6-0.9-1.1-0.6l-5.3,3.2
	C84.9,86.6,84.5,87.2,84.5,87.9z"/>
<path class="st5" d="M84.5,99.3v5.9c0,0.6,0.6,0.9,1.1,0.6l5.5-3.2c0.5-0.3,0.8-0.8,0.8-1.4V95c0-0.6-0.6-0.9-1.1-0.6l-5.3,3.2
	C84.9,97.9,84.5,98.6,84.5,99.3z"/>
<path class="st10" d="M84.5,110.6v5.9c0,0.6,0.6,0.9,1.1,0.6l5.5-3.2c0.5-0.3,0.8-0.8,0.8-1.4v-6.2c0-0.6-0.6-0.9-1.1-0.6l-5.3,3.2
	C84.9,109.3,84.5,109.9,84.5,110.6z"/>
<path class="st5" d="M84.5,121.7v5.9c0,0.6,0.6,0.9,1.1,0.6l5.5-3.2c0.5-0.3,0.8-0.8,0.8-1.4v-6.2c0-0.6-0.6-0.9-1.1-0.6l-5.3,3.2
	C84.9,120.4,84.5,121,84.5,121.7z"/>
<path class="st5" d="M84.5,131.6v5.9c0,0.6,0.6,0.9,1.1,0.6l5.5-3.2c0.5-0.3,0.8-0.8,0.8-1.4v-6.2c0-0.6-0.6-0.9-1.1-0.6l-5.3,3.2
	C84.9,130.3,84.5,130.9,84.5,131.6z"/>
<path class="st11" d="M76.4,160.6L69.3,144c-1-2.3-0.4-4.9,1.3-6.6l12-11.6c2-1.9,5.1-1.7,6.8,0.5l13.7,19.3L76.4,160.6z"/>
<path class="st11" d="M76.4,160.6l7.4-4.2l24.1,7.4L106,166c-0.9,1-2.2,1.5-3.6,1.2l-19.1-3.6c-0.3-0.1-0.6-0.2-0.9-0.3L76.4,160.6z
	"/>
<path class="st5" d="M89.1,123.4l-11.6,15.1c-0.7,0.9-0.9,2.2-0.4,3.3l7.4,18.1c0.5,1.1,1.5,1.9,2.7,2.1l18.8,2.5
	c1.2,0.2,2.3-0.3,3-1.2l11.8-15.2c0.7-0.9,0.9-2.2,0.4-3.3l-7.3-17.9c-0.5-1.1-1.5-1.9-2.6-2.1l-19-2.7
	C91,122,89.8,122.5,89.1,123.4z"/>
<path class="st12" d="M101.4,145.3l6.1,15c0.3,0.7,1.2,0.8,1.7,0.2l10.6-13.7c0.2-0.3,0.3-0.6,0.1-1l-6.6-16.2
	c-0.3-0.7-1.2-0.8-1.7-0.2l-9.9,12.9C101.1,143.2,101,144.3,101.4,145.3z"/>
<path class="st5" d="M81.1,136.4l9.1-11.8c0.5-0.7,1.4-1.1,2.3-0.9l14.9,2.1c1.3,0.2,2,1.8,1.2,2.9L99.2,141c-0.4,0.5-1,0.8-1.6,0.7
	l-15.2-2.3C80.9,139.1,80.3,137.5,81.1,136.4z"/>
<path class="st13" d="M98.8,146.7l5.8,14.3c0.4,0.9-0.4,1.9-1.4,1.8l-16.3-2.2c-0.5-0.1-0.9-0.4-1-0.8l-6.1-15.1
	c-0.4-0.9,0.4-1.9,1.4-1.8l15.5,2.2C97.6,145.1,98.4,145.8,98.8,146.7z"/>
<g>
	<g class="st14">
		<g>
			<defs>
				<polygon id="SVGID_1_" points="82.9,137.1 92.1,125.1 107.2,127.3 98,139.4 				"/>
			</defs>
			<clipPath id="SVGID_2_">
				<use xlink:href="#SVGID_1_"  style="overflow:visible;"/>
			</clipPath>
			<g class="st15">
				<path class="st3" d="M93.7,125.3c-0.9-0.1-2.1,0.3-2.6,1.1c-0.6,0.7-0.3,1.4,0.6,1.6c0.9,0.1,2.1-0.3,2.7-1.1
					C94.9,126.1,94.7,125.4,93.7,125.3"/>
				<path class="st3" d="M86.6,134.7c-0.9-0.1-2.1,0.4-2.7,1.1c-0.6,0.7-0.3,1.4,0.6,1.6c0.9,0.1,2.1-0.3,2.7-1.1
					C87.8,135.6,87.5,134.9,86.6,134.7"/>
				<path class="st3" d="M105.5,127c-0.9-0.1-2.1,0.3-2.7,1.1c-0.6,0.7-0.3,1.4,0.6,1.6s2.1-0.3,2.7-1.1
					C106.7,127.9,106.4,127.2,105.5,127"/>
				<path class="st3" d="M96,130.9c-0.9-0.1-2.1,0.3-2.6,1.1c-0.6,0.7-0.3,1.4,0.6,1.6c0.9,0.1,2.1-0.4,2.7-1.1
					C97.2,131.7,97,131,96,130.9"/>
				<path class="st3" d="M98.4,136.5c-0.9-0.1-2.1,0.4-2.7,1.1c-0.6,0.7-0.3,1.4,0.6,1.6s2.1-0.3,2.6-1.1
					C99.5,137.3,99.3,136.6,98.4,136.5"/>
			</g>
		</g>
	</g>
</g>
<g>
	<g class="st14">
		<g>
			<defs>
				<polygon id="SVGID_3_" points="108.7,159.3 102.6,144.6 112.5,132 118.5,146.7 				"/>
			</defs>
			<clipPath id="SVGID_4_">
				<use xlink:href="#SVGID_3_"  style="overflow:visible;"/>
			</clipPath>
			<g class="st16">
				<path class="st3" d="M103.7,143.2c-0.6,0.8-0.8,2.1-0.4,3s1.1,1,1.7,0.2s0.8-2.1,0.4-3C105.1,142.6,104.3,142.5,103.7,143.2"/>
				<path class="st3" d="M111.4,133.3c-0.6,0.8-0.8,2.1-0.4,3s1.1,1,1.7,0.2s0.8-2.1,0.4-3C112.8,132.7,112,132.6,111.4,133.3"/>
				<path class="st3" d="M116.1,144.9c-0.6,0.8-0.8,2.1-0.4,3s1.1,1,1.7,0.2s0.8-2.1,0.4-3C117.5,144.2,116.7,144.1,116.1,144.9"/>
				<path class="st3" d="M109,153.9c-0.6,0.8-0.8,2.1-0.4,3s1.1,1,1.7,0.2s0.8-2.1,0.4-3C110.4,153.2,109.6,153.1,109,153.9"/>
			</g>
		</g>
	</g>
</g>
<g>
	<g class="st14">
		<g>
			<defs>
				<polygon id="SVGID_5_" points="87.4,158.9 81.6,144.5 96.8,146.7 102.6,161.1 				"/>
			</defs>
			<clipPath id="SVGID_6_">
				<use xlink:href="#SVGID_5_"  style="overflow:visible;"/>
			</clipPath>
			<g class="st17">
				<path class="st18" d="M87.8,156c-0.9-0.1-1.4,0.5-1,1.3c0.3,0.9,1.4,1.7,2.3,1.8s1.4-0.5,1-1.3C89.8,156.9,88.7,156.1,87.8,156"
					/>
				<path class="st18" d="M95.2,146.5c-0.9-0.1-1.4,0.5-1,1.3c0.3,0.9,1.4,1.7,2.3,1.8s1.4-0.5,1-1.3
					C97.1,147.4,96.1,146.6,95.2,146.5"/>
				<path class="st18" d="M91.5,151.2c-0.9-0.1-1.4,0.5-1,1.3c0.3,0.9,1.4,1.7,2.3,1.8s1.4-0.5,1-1.3S92.4,151.4,91.5,151.2"/>
			</g>
		</g>
	</g>
</g>
<path class="st19" d="M155.3,41.3v36.9c0,1,1.1,1.7,2,1.1l20.7-12c0.4-0.2,0.7-0.7,0.7-1.1V29.3c0-1-1.1-1.7-2-1.2l-20.7,12
	C155.6,40.4,155.3,40.8,155.3,41.3z"/>
<g class="st20">
	<g>
		<path class="st21" d="M155.1,199.5l19.1-11.6c0.6-0.4,0.6-1.3,0-1.6l-18.3-10.5c-0.5-0.3-1-0.3-1.5,0l-18.9,11.5
			c-0.7,0.4-0.7,1.4,0,1.8l18.1,10.4C154,199.7,154.6,199.7,155.1,199.5z"/>
	</g>
</g>
<g class="st22">
	<g class="st14">
		<g>
			<defs>
				<polygon id="SVGID_7_" points="117.1,158.1 173.5,125.3 233,159.7 176.6,192.4 				"/>
			</defs>
			<clipPath id="SVGID_8_">
				<use xlink:href="#SVGID_7_"  style="overflow:visible;"/>
			</clipPath>
			<g class="st23">
				<path class="st24" d="M171.5,133.7l-6.3-3.6l-5.7,3.3l6.3,3.6L171.5,133.7 M221.6,166.3l-6.3-3.6l-5.7,3.3l6.3,3.6L221.6,166.3
					 M160.2,140.3l-6.3-3.6l-5.7,3.3l6.3,3.6L160.2,140.3 M210.2,172.9l-6.3-3.6l-5.7,3.3l6.3,3.6L210.2,172.9 M148.8,146.9
					l-6.3-3.6l-5.7,3.3l6.3,3.6L148.8,146.9 M198.9,179.5l-6.3-3.6l-5.7,3.3l6.3,3.6L198.9,179.5 M137.8,153.4l-6.9-3.2
					c-2.1,1.5-3.6,3.3-4.3,5.2l8.7,1.1C135.7,155.3,136.6,154.3,137.8,153.4 M181.6,182.1c-1.4,0.6-3.1,1-4.9,1l0.2,5.1
					c3.7,0,7.1-0.7,10-2L181.6,182.1 M135.4,159.9l-8.6,1.2c0.8,1.9,2.4,3.7,4.6,5.2l6.7-3.3C136.8,162.1,135.9,161.1,135.4,159.9
					 M171.7,182.3c-0.5-0.2-0.9-0.4-1.3-0.6l-4-2.3l-6.2,3.6l4,2.3c0.8,0.5,1.6,0.9,2.6,1.2L171.7,182.3 M160.7,176.1l-5.7-3.3
					l-6.2,3.6l5.7,3.3L160.7,176.1 M149.3,169.5l-5.7-3.3l-6.2,3.6l5.7,3.3L149.3,169.5 M233,159.7l-6.3-3.6l-5.7,3.3l6.3,3.6
					L233,159.7"/>
			</g>
		</g>
	</g>
</g>
<path class="st25" d="M218,98.4l-7.7,3.1c1,0.8,1.4,1.8,1.2,2.8l9.3,0.7C221.4,102.6,220.4,100.3,218,98.4 M215.6,110.8L209,107
	l-6,3.5l6.7,3.9L215.6,110.8 M203.6,117.8l-6.7-3.9l-6,3.5l6.7,3.9L203.6,117.8 M191.5,124.9l-6.7-3.9l-6,3.5l6.7,3.9L191.5,124.9
	 M179.4,131.9l-6.7-3.9l-3,1.8l6.7,3.9L179.4,131.9 M211.6,94.4l-6.1-3.5l-6.6,3.9l6.1,3.5L211.6,94.4"/>
<path class="st26" d="M268,127.1l-7.7,3.1c1,0.8,1.4,1.8,1.2,2.8l9.3,0.7C271.4,131.4,270.3,129,268,127.1 M265.6,139.6l-6.7-3.9
	l-6,3.5l6.7,3.9L265.6,139.6 M253.5,146.6l-6.7-3.9l-6,3.5l6.7,3.9L253.5,146.6 M241.5,153.6l-6.7-3.9l-6,3.5l6.7,3.9L241.5,153.6
	 M229.4,160.6l-6.7-3.9l-3,1.8l6.7,3.9L229.4,160.6 M261.5,123.2l-6.1-3.5l-6.6,3.9l6.1,3.5L261.5,123.2"/>
<linearGradient id="SVGID_9_" gradientUnits="userSpaceOnUse" x1="182.7624" y1="115.4" x2="214.6003" y2="115.4" gradientTransform="matrix(1 0 0 -1 0 206)">
	<stop  offset="0" style="stop-color:#A5BDCB"/>
	<stop  offset="0.9958" style="stop-color:#D8E9F4;stop-opacity:0"/>
</linearGradient>
<path class="st27" d="M209.9,84.1c-6.2-3.6-16.3-3.6-22.5,0s-6.2,9.4,0.1,13c6.2,3.6,16.3,3.6,22.5,0S216.1,87.7,209.9,84.1"/>
<linearGradient id="SVGID_10_" gradientUnits="userSpaceOnUse" x1="143.9047" y1="72.05" x2="178.7052" y2="72.05" gradientTransform="matrix(1 0 0 -1 0 206)">
	<stop  offset="0" style="stop-color:#A5BDCB"/>
	<stop  offset="0.9958" style="stop-color:#D8E9F4;stop-opacity:0"/>
</linearGradient>
<path class="st28" d="M173.6,126.8c-6.8-3.9-17.8-3.9-24.6,0c-6.8,3.9-6.7,10.3,0.1,14.3c6.8,3.9,17.8,3.9,24.6,0
	C180.5,137.1,180.4,130.7,173.6,126.8"/>
<linearGradient id="SVGID_11_" gradientUnits="userSpaceOnUse" x1="198.6922" y1="42.65" x2="233.517" y2="42.65" gradientTransform="matrix(1 0 0 -1 0 206)">
	<stop  offset="0" style="stop-color:#A5BDCB"/>
	<stop  offset="0.9958" style="stop-color:#D8E9F4;stop-opacity:0"/>
</linearGradient>
<path class="st29" d="M228.4,156.2c-6.8-3.9-17.8-3.9-24.6,0s-6.7,10.3,0.1,14.3c6.8,3.9,17.8,3.9,24.6,0
	C235.2,166.5,235.2,160.1,228.4,156.2"/>
<linearGradient id="SVGID_12_" gradientUnits="userSpaceOnUse" x1="237.2144" y1="73.0174" x2="114.1266" y2="80.4772" gradientTransform="matrix(1 0 0 -1 0 206)">
	<stop  offset="0" style="stop-color:#A5BDCB"/>
	<stop  offset="0.9958" style="stop-color:#D8E9F4;stop-opacity:0"/>
</linearGradient>
<path class="st30" d="M253,121.2c-6,0-11.7,0.5-16.7,1.5l-8.3-4.8c-0.3-0.2-0.7-0.2-1,0l-12.9,7.8c-0.5,0.3-0.5,1,0,1.3l4.7,2.7
	c-1.7,1.6-2.7,3.3-2.7,5.1c0,7.5,16.5,13.6,36.9,13.6s36.9-6.1,36.9-13.6C289.9,127.2,273.4,121.2,253,121.2z"/>
<path class="st31" d="M290.3,128.6L290.3,128.6l-4.9-15.5l-21.6,2.5l-21.6-2.5l-4.9,15.5l0,0c-0.3,0.9-0.5,1.9-0.5,2.9
	c0,8.8,12.1,15.9,27,15.9s27-7.1,27-15.9C290.8,130.5,290.6,129.5,290.3,128.6z"/>
<linearGradient id="SVGID_13_" gradientUnits="userSpaceOnUse" x1="243.5584" y1="97.9786" x2="313.8918" y2="71.6453" gradientTransform="matrix(1 0 0 -1 0 206)">
	<stop  offset="4.237288e-03" style="stop-color:#FFEC5E"/>
	<stop  offset="1" style="stop-color:#FFCE4A"/>
</linearGradient>
<ellipse class="st32" cx="263.8" cy="115.6" rx="22.1" ry="13"/>
<path class="st33" d="M241.8,115.6c0,5.2,5.3,9.7,12.8,11.8c2.8-8.7,9.2-10,9.2-10l4.7-11.9l-1-2.6c-1.2-0.1-2.4-0.2-3.6-0.2
	C251.6,102.6,241.8,108.4,241.8,115.6z"/>
<path class="st4" d="M273.1,89.5h-18.5v22.4l0,0l0,0c0,3,4.1,5.4,9.2,5.4s9.2-2.4,9.2-5.4l0,0l0,0L273.1,89.5L273.1,89.5z"/>
<path class="st34" d="M273.1,89.5h-18.5v22.4l0,0l0,0c0,3,4.1,5.4,9.2,5.4s9.2-2.4,9.2-5.4l0,0l0,0L273.1,89.5L273.1,89.5z"/>
<path class="st4" d="M218.9,56.6c0,0,0.3,25.4,19.2,25.4s-5.5-22.9-5.5-22.9"/>
<path class="st4" d="M308.7,56.6c0,0-0.3,25.4-19.2,25.4c-18.9,0,5.5-22.9,5.5-22.9"/>
<path class="st34" d="M218.9,56.6c0,0,0.3,25.4,19.2,25.4s-5.5-22.9-5.5-22.9"/>
<path class="st34" d="M308.7,56.6c0,0-0.3,25.4-19.2,25.4c-18.9,0,5.5-22.9,5.5-22.9"/>
<linearGradient id="SVGID_14_" gradientUnits="userSpaceOnUse" x1="254.58" y1="116.5" x2="273.0513" y2="116.5" gradientTransform="matrix(1 0 0 -1 0 206)">
	<stop  offset="0" style="stop-color:#5fcece"/>
	<stop  offset="1" style="stop-color:#5fcece"/>
</linearGradient>
<ellipse class="st35" cx="263.8" cy="89.5" rx="9.2" ry="5.4"/>
<path class="st4" d="M232.6,56.6c0,0-1.6,40.8,31.2,40.8S295,56.6,295,56.6H232.6z"/>
<path class="st33" d="M232.6,56.6c0,0-1.6,40.8,31.2,40.8c8.3,0,14.4-2.6,18.9-6.6c-2.2,0.7-4.7,1.1-7.6,1.1
	c-26,0-24.7-32.3-24.7-32.3"/>
<ellipse class="st4" cx="263.8" cy="56.6" rx="31.2" ry="18.3"/>
<ellipse class="st34" cx="263.9" cy="56.6" rx="25.8" ry="14.5"/>
<path class="st5" d="M241.7,63.9c4.5,4.3,12.7,7.2,22.2,7.2s17.8-2.9,22.2-7.2c-4.5-4.3-12.7-7.2-22.2-7.2S246.1,59.6,241.7,63.9z"
	/>
<path class="st4" d="M220.9,59.2h12.4c1.1,0,1.9-0.9,1.9-1.9V56c0-1.1-0.9-1.9-1.9-1.9h-12.4c-1.1,0-1.9,0.9-1.9,1.9v1.3
	C218.9,58.3,219.8,59.2,220.9,59.2z"/>
<path class="st4" d="M306.8,59.2h-12.4c-1.1,0-1.9-0.9-1.9-1.9V56c0-1.1,0.9-1.9,1.9-1.9h12.4c1.1,0,1.9,0.9,1.9,1.9v1.3
	C308.7,58.3,307.9,59.2,306.8,59.2z"/>
<g>
	<path class="st36" d="M285,155.6c0,1.5,0.5,3,1.2,4.2c0.8-1.2,1.2-2.6,1.2-4.2c0-1.5-0.5-3-1.2-4.2
		C285.4,152.7,285,154.1,285,155.6z"/>
	<path class="st36" d="M288.5,156.4c-0.6,1.1-0.9,2.2-0.9,3.4c1-0.5,1.9-1.3,2.6-2.4c0.6-1.1,0.9-2.2,0.9-3.4
		C290.1,154.6,289.2,155.4,288.5,156.4z"/>
	<path class="st36" d="M283.8,156.4c0.6,1.1,0.9,2.2,0.9,3.4c-1-0.5-1.9-1.3-2.6-2.4c-0.6-1.1-0.9-2.2-0.9-3.4
		C282.2,154.6,283.2,155.4,283.8,156.4z"/>
</g>
<g>
	<path class="st36" d="M196.3,137.8c0,1.7,0.5,3.3,1.4,4.6c0.9-1.3,1.4-2.9,1.4-4.6c0-1.7-0.5-3.3-1.4-4.6
		C196.8,134.6,196.3,136.1,196.3,137.8z"/>
	<path class="st36" d="M200.2,138.7c-0.7,1.2-1,2.5-1,3.7c1.1-0.6,2.1-1.4,2.8-2.6c0.7-1.2,1-2.5,1-3.7
		C201.9,136.7,200.9,137.6,200.2,138.7z"/>
	<path class="st36" d="M195,138.7c0.7,1.2,1,2.5,1,3.7c-1.1-0.6-2.1-1.4-2.8-2.6c-0.7-1.2-1-2.5-1-3.7
		C193.3,136.7,194.3,137.6,195,138.7z"/>
</g>
<g>
	<path class="st36" d="M116.1,180c0,1.7,0.5,3.3,1.4,4.6c0.9-1.3,1.4-2.9,1.4-4.6c0-1.7-0.5-3.3-1.4-4.6
		C116.6,176.8,116.1,178.3,116.1,180z"/>
	<path class="st36" d="M120.1,180.9c-0.7,1.2-1,2.5-1,3.7c1.1-0.6,2.1-1.4,2.8-2.6c0.7-1.2,1-2.5,1-3.7
		C121.8,178.9,120.8,179.8,120.1,180.9z"/>
	<path class="st36" d="M114.8,180.9c0.7,1.2,1,2.5,1,3.7c-1.1-0.6-2.1-1.4-2.8-2.6c-0.7-1.2-1-2.5-1-3.7
		C113.1,178.9,114.1,179.8,114.8,180.9z"/>
</g>
<linearGradient id="SVGID_15_" gradientUnits="userSpaceOnUse" x1="276.8827" y1="160.3" x2="284.0666" y2="160.3" gradientTransform="matrix(1 0 0 -1 0 206)">
	<stop  offset="0" style="stop-color:#5fcece"/>
	<stop  offset="1" style="stop-color:#5fcece"/>
</linearGradient>
<path class="st37" d="M279.4,39.3c0,0,2.2,6.5-2.6,11.2l3.6,1.6c0,0,5.4-6.3,2.9-12.8H279.4z"/>
<linearGradient id="SVGID_16_" gradientUnits="userSpaceOnUse" x1="99.3865" y1="177.8" x2="105.2289" y2="177.8" gradientTransform="matrix(1 0 0 -1 0 206)">
	<stop  offset="0" style="stop-color:#5fcece"/>
	<stop  offset="1" style="stop-color:#5fcece"/>
</linearGradient>
<path class="st38" d="M101.5,23c0,0,1.8,5.3-2.1,9.1l2.9,1.3c0,0,4.4-5.1,2.4-10.4C104.7,23,101.5,23,101.5,23z"/>
<path class="st4" d="M46.6,33.4c0,0,6.4-0.7,9.6,4.6l2.2-2.9c0,0-4.6-6.1-11-5.2L46.6,33.4z"/>
<path class="st4" d="M195,45.3c0,0,5,4,3.5,10l3.6-0.5c0,0,1.1-7.6-4-11.5L195,45.3z"/>
<path class="st4" d="M179.2,146.9c0,0,0.7,6.4-4.6,9.6l2.9,2.2c0,0,6.1-4.6,5.3-11L179.2,146.9z"/>
<path class="st5" d="M236.6,22.1c0,0,5.5,0,7.8,4.8l2.2-2.3c0,0-3.4-5.6-8.9-5.5L236.6,22.1z"/>
<path class="st5" d="M39.4,93.4c0,0-3.3,5-9,4.1l0.8,3.4c0,0,7.1,0.4,10.3-4.8L39.4,93.4z"/>
<path class="st5" d="M312.2,80.3c0,0-3.3,5-9,4.1l0.8,3.4c0,0,7.1,0.4,10.3-4.8L312.2,80.3z"/>
<path class="st5" d="M273.4,161c0,0-5.8-1.5-6.9-7.1l-2.9,1.9c0,0,2,6.9,7.9,8.2L273.4,161z"/>
<path class="st31" d="M264.1,56.8c0,0-4.8-3.8-3.5-9.6l-3.5,0.5c0,0-1,7.3,4,11L264.1,56.8z"/>
<path class="st31" d="M185.9,104.5c0,0-1.7,5.7-7.4,6.6l1.7,3c0,0,6.9-1.7,8.5-7.5L185.9,104.5z"/>
<ellipse transform="matrix(0.3708 -0.9287 0.9287 0.3708 109.1882 313.7448)" class="st3" cx="286.1" cy="76.3" rx="4.5" ry="2.5"/>
<ellipse transform="matrix(0.943 -0.3327 0.3327 0.943 -25.6846 97.5815)" class="st3" cx="272.1" cy="123.8" rx="3.2" ry="1.8"/>
<circle class="st3" cx="282.3" cy="84.5" r="1.8"/>
<path class="st39" d="M286.5,116.6c0.1-0.4-0.6-0.6-0.6-1c0-2.3-1.1-4.5-2.9-6.4l-6.8,4.1c-0.7,0.4-0.7,1.4,0,1.8l2.2,1.3
	c1.6,1,4.5,3.4,3.3,6.8c-1.7,4.6,7.3,1.3,7.3,1.3L286.5,116.6z"/>
<g>
	<g>
		
			<linearGradient id="SVGID_17_" gradientUnits="userSpaceOnUse" x1="275.675" y1="96.75" x2="315.4454" y2="96.75" gradientTransform="matrix(1 0 0 -1 0 206)">
			<stop  offset="0" style="stop-color:#5fcece"/>
			<stop  offset="1" style="stop-color:#5fcece"/>
		</linearGradient>
		<path class="st40" d="M295.8,121.1l19.1-11.6c0.6-0.4,0.6-1.3,0-1.6l-18.3-10.5c-0.5-0.3-1-0.3-1.5,0l-18.9,11.5
			c-0.7,0.4-0.7,1.4,0,1.8l18.1,10.4C294.8,121.4,295.4,121.4,295.8,121.1z"/>
	</g>
</g>
<g>
	
		<linearGradient id="SVGID_18_" gradientUnits="userSpaceOnUse" x1="134.8748" y1="38.1875" x2="174.6452" y2="38.1875" gradientTransform="matrix(1 0 0 -1 0 206)">
		<stop  offset="4.237288e-03" style="stop-color:#FFEC5E"/>
		<stop  offset="1" style="stop-color:#FFCE4A"/>
	</linearGradient>
	<path class="st41" d="M155.1,179.7l19.1-11.6c0.6-0.4,0.6-1.3,0-1.6L155.9,156c-0.5-0.3-1-0.3-1.5,0l-18.9,11.5
		c-0.7,0.4-0.7,1.4,0,1.8l18.1,10.4C154,179.9,154.6,179.9,155.1,179.7z"/>
</g>
<g>
	<g>
		<path class="st5" d="M228.2,128l13.1-7.9c0.4-0.3,0.4-0.9,0-1.1l-12.5-7.2c-0.3-0.2-0.7-0.2-1,0l-12.9,7.8c-0.5,0.3-0.5,1,0,1.3
			l12.4,7.1C227.5,128.1,227.9,128.1,228.2,128z"/>
	</g>
</g>
<polygon class="st36" points="58.3,192.2 83.4,177.1 79.9,172.4 77.4,180.3 73.8,176.5 70.8,184 67.3,180.3 64.5,187.9 60.8,184.5 
	"/>
<path class="st8" d="M162.5,43.2v36.9c0,1,1.1,1.7,2,1.1l20.7-12.1c0.4-0.2,0.7-0.7,0.7-1.1V31.2c0-1-1.1-1.7-2-1.2l-20.7,12
	C162.8,42.2,162.5,42.7,162.5,43.2z"/>
<path class="st3" d="M177.6,37.7l5.5-3.1c0.2-0.1,0.4,0,0.4,0.2v2.5c0,0.1-0.1,0.2-0.1,0.2l-5.5,3.2c-0.2,0.1-0.4,0-0.4-0.2V38
	C177.4,37.9,177.5,37.8,177.6,37.7z"/>
<path class="st42" d="M179.8,126.1c-6.8-3.9-17.8-3.9-24.6,0s-6.7,10.3,0.1,14.3c6.8,3.9,17.8,3.9,24.6,0
	C186.7,136.4,186.6,130,179.8,126.1"/>
<linearGradient id="SVGID_19_" gradientUnits="userSpaceOnUse" x1="150.1497" y1="75.75" x2="184.9503" y2="75.75" gradientTransform="matrix(1 0 0 -1 0 206)">
	<stop  offset="0" style="stop-color:#F5F8FD"/>
	<stop  offset="1" style="stop-color:#FFFFFF"/>
</linearGradient>
<path class="st43" d="M179.8,123.1c-6.8-3.9-17.8-3.9-24.6,0s-6.7,10.3,0.1,14.3c6.8,3.9,17.8,3.9,24.6,0
	C186.7,133.4,186.6,127,179.8,123.1"/>
<path class="st31" d="M177.4,122.8c-5.4-3.1-14.3-3.2-19.7,0s-5.4,8.3,0.1,11.4c5.5,3.2,14.3,3.2,19.7,0S182.8,125.9,177.4,122.8"/>
<linearGradient id="SVGID_20_" gradientUnits="userSpaceOnUse" x1="155.5263" y1="79.75" x2="179.5818" y2="79.75" gradientTransform="matrix(1 0 0 -1 0 206)">
	<stop  offset="0" style="stop-color:#F5F8FD"/>
	<stop  offset="1" style="stop-color:#FFFFFF"/>
</linearGradient>
<path class="st44" d="M176,121.3c-4.7-2.7-12.3-2.7-17,0s-4.7,7.1,0.1,9.9c4.7,2.7,12.3,2.7,17,0S180.7,124.1,176,121.3"/>
<g>
	<g>
		<g class="st14">
			<g>
				<g>
					<g>
						<g>
							<g>
								<path class="st4" d="M174.4,122.8c-0.1-0.1-0.3-0.1-0.5-0.1l-5.2,1c-0.1,0-0.3,0-0.4,0l-4.4-1.9c-0.3-0.1-0.7,0-0.7,0.2
									l0.1,3.2c0,0.1-0.1,0.2-0.2,0.2l-4.4,1.8c-0.2,0.1-0.2,0.3-0.1,0.4c0.1,0,0.1,0.1,0.2,0.1l5.2,0.9c0.1,0,0.1,0,0.2,0.1
									c0.1,0,0.1,0.1,0.1,0.1l1.6,3l0.1,0.1c0.2,0.1,0.5,0.1,0.7,0l3.1-2.6c0.1-0.1,0.2-0.1,0.4-0.1h5.4c0.4,0,0.6-0.2,0.4-0.4
									l-3.3-2.5c-0.1-0.1-0.1-0.2-0.1-0.2l1.7-3C174.6,122.9,174.5,122.8,174.4,122.8"/>
							</g>
						</g>
					</g>
				</g>
			</g>
		</g>
	</g>
</g>
<path class="st42" d="M214.8,83.3c-6.2-3.6-16.3-3.6-22.5,0s-6.2,9.4,0.1,13c6.2,3.6,16.3,3.6,22.5,0
	C221.1,92.7,221.1,86.9,214.8,83.3"/>
<linearGradient id="SVGID_21_" gradientUnits="userSpaceOnUse" x1="187.6996" y1="119" x2="219.5371" y2="119" gradientTransform="matrix(1 0 0 -1 0 206)">
	<stop  offset="0" style="stop-color:#F5F8FD"/>
	<stop  offset="1" style="stop-color:#FFFFFF"/>
</linearGradient>
<path class="st45" d="M214.8,80.5c-6.2-3.6-16.3-3.6-22.5,0s-6.2,9.4,0.1,13c6.2,3.6,16.3,3.6,22.5,0
	C221.1,90,221.1,84.1,214.8,80.5"/>
<path class="st3" d="M212.6,80.2c-5-2.9-13-2.9-18,0s-4.9,7.5,0.1,10.4s13,2.9,18,0S217.6,83.1,212.6,80.2"/>
<path class="st46" d="M211.4,78.9c-4.3-2.5-11.3-2.5-15.5,0c-4.3,2.5-4.3,6.5,0.1,9c4.3,2.5,11.3,2.5,15.6,0
	C215.7,85.5,215.7,81.4,211.4,78.9"/>
<g>
	<g class="st14">
		<g>
			<g>
				<path class="st4" d="M209.9,80.2c-0.1-0.1-0.3-0.1-0.4-0.1l-4.7,0.9c-0.1,0-0.3,0-0.4,0l-4-1.7c-0.3-0.1-0.7,0-0.7,0.2l0.1,2.9
					c0,0.1-0.1,0.2-0.2,0.2l-4.1,1.7c-0.2,0.1-0.2,0.3-0.1,0.4c0,0,0.1,0,0.2,0.1l4.8,0.9c0.1,0,0.1,0,0.2,0.1l0.1,0.1l1.5,2.8
					l0.1,0.1c0.2,0.1,0.5,0.1,0.6,0l2.9-2.4c0.1-0.1,0.2-0.1,0.3-0.1h5c0.4,0,0.5-0.2,0.3-0.4l-3-2.3c-0.1-0.1-0.1-0.1-0.1-0.2
					l1.6-2.7C210,80.4,210,80.3,209.9,80.2"/>
			</g>
		</g>
	</g>
</g>
<path class="st42" d="M234.5,155.5c-6.8-3.9-17.8-3.9-24.6,0s-6.7,10.3,0.1,14.3c6.8,3.9,17.8,3.9,24.6,0S241.4,159.4,234.5,155.5"
	/>
<linearGradient id="SVGID_22_" gradientUnits="userSpaceOnUse" x1="204.8497" y1="46.45" x2="239.6876" y2="46.45" gradientTransform="matrix(1 0 0 -1 0 206)">
	<stop  offset="0" style="stop-color:#F5F8FD"/>
	<stop  offset="1" style="stop-color:#FFFFFF"/>
</linearGradient>
<path class="st47" d="M234.5,152.4c-6.8-3.9-17.8-3.9-24.6,0s-6.7,10.3,0.1,14.3c6.8,3.9,17.8,3.9,24.6,0
	C241.4,162.8,241.4,156.4,234.5,152.4"/>
<path class="st31" d="M232.1,152.1c-5.4-3.1-14.3-3.2-19.7,0s-5.4,8.3,0.1,11.4c5.5,3.2,14.3,3.2,19.7,0
	C237.6,160.4,237.5,155.3,232.1,152.1"/>
<linearGradient id="SVGID_23_" gradientUnits="userSpaceOnUse" x1="210.2523" y1="50.35" x2="234.3025" y2="50.35" gradientTransform="matrix(1 0 0 -1 0 206)">
	<stop  offset="0" style="stop-color:#F5F8FD"/>
	<stop  offset="1" style="stop-color:#FFFFFF"/>
</linearGradient>
<path class="st48" d="M230.8,150.7c-4.7-2.7-12.3-2.7-17,0s-4.7,7.1,0.1,9.9c4.7,2.7,12.3,2.7,17,0
	C235.5,157.8,235.5,153.4,230.8,150.7"/>
<g>
	<g>
		<g class="st14">
			<g>
				<g>
					<g>
						<g>
							<g>
								<path class="st4" d="M229.1,152.1c-0.1-0.1-0.3-0.1-0.5-0.1l-5.2,1c-0.1,0-0.3,0-0.4,0l-4.4-1.9c-0.3-0.1-0.7,0-0.7,0.2
									l0.1,3.2c0,0.1-0.1,0.2-0.2,0.2l-4.4,1.8c-0.2,0.1-0.2,0.3-0.1,0.4c0,0,0.1,0.1,0.2,0.1l5.2,0.9c0.1,0,0.1,0,0.2,0.1
									c0.1,0,0.1,0.1,0.1,0.1l1.6,3l0.1,0.1c0.2,0.1,0.5,0.1,0.7,0l3.1-2.6c0.1-0.1,0.2-0.1,0.4-0.1h5.4c0.4,0,0.6-0.2,0.4-0.4
									l-3.3-2.5c-0.1-0.1-0.1-0.2-0.1-0.2l1.7-3C229.3,152.3,229.2,152.2,229.1,152.1"/>
							</g>
						</g>
					</g>
				</g>
			</g>
		</g>
	</g>
</g>
</svg>
