<?xml version="1.0" encoding="utf-8"?>
<!-- Generator: Adobe Illustrator 21.1.0, SVG Export Plug-In . SVG Version: 6.00 Build 0)  -->
<svg version="1.1" id="All_projects" xmlns="http://www.w3.org/2000/svg" xmlns:xlink="http://www.w3.org/1999/xlink" x="0px"
	 y="0px" viewBox="0 0 1064.6 535.8" style="enable-background:new 0 0 1064.6 535.8;" xml:space="preserve">
<style type="text/css">
	.st0{opacity:0.71;fill:#97B1CC;enable-background:new    ;}
	.st1{opacity:0.1;fill:url(#SVGID_1_);enable-background:new    ;}
	.st2{fill:#2A3C67;}
	.st3{fill:url(#SVGID_2_);}
	.st4{opacity:0.3;fill:#C48551;enable-background:new    ;}
	.st5{fill:#FFE269;}
	.st6{fill:#FC9E48;}
	.st7{fill:url(#SVGID_3_);}
	.st8{fill:#e53b51;}
	.st9{fill:url(#SVGID_4_);}
	.st10{fill:#FFFFFF;}
	.st11{opacity:0.3;fill:#684226;enable-background:new    ;}
	.st12{fill:url(#SVGID_5_);}
	.st13{opacity:0.27;fill:url(#SVGID_6_);enable-background:new    ;}
	.st14{opacity:0.15;enable-background:new    ;}
	.st15{opacity:0.5;fill:url(#SVGID_7_);enable-background:new    ;}
	.st16{fill:#D8D8D8;}
	.st17{fill:url(#SVGID_8_);}
	.st18{enable-background:new    ;}
	.st19{fill:#E6EDF4;}
	.st20{fill:#E20613;}
	.st21{fill:#009EE2;}
	.st22{fill:#F8AF00;}
	.st23{fill:#93C01F;}
	.st24{opacity:0.17;fill:#4C3E33;enable-background:new    ;}
	.st25{fill:#F4F4F4;}
	.st26{fill:#EFCCA3;}
	.st27{fill:#D67729;}
	.st28{fill:#666666;}
	.st29{fill:none;}
	.st30{fill:url(#SVGID_9_);}
	.st31{fill:url(#SVGID_10_);}
	.st32{opacity:0.25;fill:url(#SVGID_11_);enable-background:new    ;}
	.st33{fill:url(#SVGID_12_);}
	.st34{opacity:0.7;fill:url(#SVGID_13_);enable-background:new    ;}
	.st35{opacity:0.9;fill:#2A3C67;enable-background:new    ;}
	.st36{fill:none;stroke:#E9F0FF;stroke-width:2.0335;stroke-linecap:round;stroke-miterlimit:10;}
	.st37{opacity:0.5;enable-background:new    ;}
	.st38{fill:url(#SVGID_14_);}
	.st39{opacity:0.33;fill:url(#SVGID_15_);enable-background:new    ;}
	.st40{fill:url(#SVGID_16_);}
	.st41{fill:#556B99;}
	.st42{fill:url(#SVGID_17_);}
	.st43{opacity:0.3;fill:#969696;enable-background:new    ;}
	.st44{opacity:0.3;fill:#4C3E33;enable-background:new    ;}
	.st45{fill:#C6AC91;}
	.st46{fill:#5B5B2E;}
	.st47{fill:#C6CC48;}
	.st48{opacity:0.33;fill:url(#SVGID_18_);enable-background:new    ;}
	.st49{opacity:0.33;fill:url(#SVGID_19_);enable-background:new    ;}
	.st50{opacity:0.33;fill:url(#SVGID_20_);enable-background:new    ;}
	.st51{opacity:0.1;fill:url(#SVGID_21_);enable-background:new    ;}
	.st52{fill:url(#SVGID_22_);}
	.st53{opacity:0.7;fill:url(#SVGID_23_);enable-background:new    ;}
	.st54{fill:url(#SVGID_24_);}
	.st55{fill:url(#SVGID_25_);}
	.st56{opacity:0.7;fill:url(#SVGID_26_);enable-background:new    ;}
	.st57{fill:url(#SVGID_27_);}
	.st58{fill:url(#SVGID_28_);}
	.st59{opacity:0.3;fill:#77533A;enable-background:new    ;}
	.st60{fill:url(#SVGID_29_);}
	.st61{opacity:0.35;fill:#7E9DAA;enable-background:new    ;}
	.st62{fill:#9DCC4A;}
	.st63{opacity:0.15;fill:#0A0A0A;enable-background:new    ;}
</style>
<g>
	<path class="st0" d="M662.6,209.3l-17.2,7.1c2.2,1.8,3.2,4,2.7,6.2l21,1.5C670.1,218.8,667.8,213.6,662.6,209.3"/>
	<polyline class="st0" points="657.2,237.3 642.2,228.6 628.7,236.5 643.7,245.1 657.2,237.3 	"/>
	<polyline class="st0" points="648.1,200.5 634.5,192.6 619.6,201.3 633.2,209.1 648.1,200.5 	"/>
	
		<linearGradient id="SVGID_1_" gradientUnits="userSpaceOnUse" x1="583.8896" y1="315.5134" x2="714.5563" y2="314.18" gradientTransform="matrix(1 0 0 -1 0 538)">
		<stop  offset="2.165098e-07" style="stop-color:#070707"/>
		<stop  offset="0.9958" style="stop-color:#D8E9F4;stop-opacity:0"/>
	</linearGradient>
	<path class="st1" d="M629,196c-13.5,0-26.2,1.2-37.4,3.3L573,188.6c-0.7-0.4-1.6-0.4-2.3,0l-29,17.6c-1.1,0.6-1.1,2.2,0,2.8
		l10.6,6.1c-3.8,3.5-5.9,7.3-5.9,11.4c0,16.8,37,30.5,82.7,30.5s82.7-13.6,82.7-30.5C711.7,209.6,674.7,196,629,196z"/>
	<path class="st2" d="M712.7,212.7L712.7,212.7l-11-34.8l-48.5,5.7l-48.5-5.7l-11,34.8l0,0c-0.7,2.1-1,4.3-1,6.5
		c0,19.7,27.1,35.6,60.5,35.6s60.5-15.9,60.5-35.6C713.7,217,713.4,214.8,712.7,212.7z"/>
	
		<linearGradient id="SVGID_2_" gradientUnits="userSpaceOnUse" x1="607.786" y1="1836.5967" x2="765.4689" y2="1895.6344" gradientTransform="matrix(1 0 0 1 0 -1670)">
		<stop  offset="4.237288e-03" style="stop-color:#FFEC5E"/>
		<stop  offset="1" style="stop-color:#FFCE4A"/>
	</linearGradient>
	<ellipse class="st3" cx="653.2" cy="183.6" rx="49.5" ry="29.1"/>
	<path class="st4" d="M603.8,183.6c0,11.7,11.8,21.8,28.8,26.4c6.3-19.6,20.7-22.5,20.7-22.5l10.5-26.7l-2.3-5.9
		c-2.7-0.3-5.4-0.4-8.2-0.4C625.9,154.4,603.8,167.5,603.8,183.6z"/>
	<path class="st5" d="M673.9,125h-41.4v50.3l0,0l0,0c0,6.7,9.3,12.2,20.7,12.2s20.7-5.5,20.7-12.2l0,0l0,0V125z"/>
	<path class="st6" d="M673.9,125h-41.4v50.3l0,0l0,0c0,6.7,9.3,12.2,20.7,12.2s20.7-5.5,20.7-12.2l0,0l0,0V125z"/>
	<path class="st5" d="M552.6,51.2c0,0,0.6,57,43.1,57S583.4,57,583.4,57"/>
	<path class="st5" d="M753.9,51.2c0,0-0.6,57-43.1,57C668.4,108.2,723,57,723,57"/>
	<path class="st6" d="M552.6,51.2c0,0,0.6,57,43.1,57S583.4,57,583.4,57"/>
	<path class="st6" d="M753.9,51.2c0,0-0.6,57-43.1,57C668.4,108.2,723,57,723,57"/>
	
		<linearGradient id="SVGID_3_" gradientUnits="userSpaceOnUse" x1="632.5" y1="1795" x2="673.9" y2="1795" gradientTransform="matrix(1 0 0 1 0 -1670)">
		<stop  offset="0" style="stop-color:#5fcece"/>
		<stop  offset="1" style="stop-color:#5fcece"/>
	</linearGradient>
	<ellipse class="st7" cx="653.2" cy="125" rx="20.7" ry="12.2"/>
	<path class="st5" d="M583.3,51.2c0,0-3.7,91.4,69.9,91.4s69.9-91.4,69.9-91.4L583.3,51.2z"/>
	<path class="st4" d="M583.3,51.2c0,0-3.7,91.4,69.9,91.4c18.7,0,32.3-5.9,42.4-14.7c-5,1.6-10.6,2.5-17,2.5
		c-58.3,0-55.4-72.4-55.4-72.4"/>
	<ellipse class="st5" cx="653.2" cy="51.2" rx="69.9" ry="41.1"/>
	<ellipse class="st6" cx="653.4" cy="51.2" rx="57.8" ry="32.6"/>
	<path class="st8" d="M603.6,67.6c10,9.7,28.6,16.2,49.9,16.2c21.3,0,39.9-6.5,49.9-16.2c-10-9.7-28.6-16.2-49.9-16.2
		C632.1,51.4,613.6,57.9,603.6,67.6z"/>
	<path class="st5" d="M557,57h27.7c2.4,0,4.3-1.9,4.3-4.3v-2.9c0-2.4-1.9-4.3-4.3-4.3H557c-2.4,0-4.3,1.9-4.3,4.3v2.9
		C552.6,55.1,554.6,57,557,57z"/>
	<path class="st5" d="M752.6,59.6h-25.5c-2.2,0-4-1.8-4-4v-2.7c0-2.2,1.8-4,4-4h25.5c2.2,0,4,1.8,4,4v2.7
		C756.6,57.8,754.8,59.6,752.6,59.6z"/>
	
		<linearGradient id="SVGID_4_" gradientUnits="userSpaceOnUse" x1="682.5238" y1="1696.65" x2="698.6204" y2="1696.65" gradientTransform="matrix(1 0 0 1 0 -1670)">
		<stop  offset="0" style="stop-color:#5fcece"/>
		<stop  offset="1" style="stop-color:#5fcece"/>
	</linearGradient>
	<path class="st9" d="M688.3,12.3c0,0,4.9,14.7-5.8,25l8.1,3.7c0,0,12-14,6.6-28.7C697.2,12.3,688.3,12.3,688.3,12.3z"/>
	<path class="st8" d="M766.3,120.4c0,0-6.9,10.3-18.6,8.6l1.6,6.9c0,0,14.7,0.8,21.3-9.8L766.3,120.4z"/>
	<path class="st2" d="M653.9,51.7c0,0-10.8-8.6-7.9-21.5l-7.8,1.2c0,0-2.1,16.3,9.1,24.6L653.9,51.7z"/>
	
		<ellipse transform="matrix(0.3708 -0.9287 0.9287 0.3708 353.7701 713.2749)" class="st10" cx="703.3" cy="95.5" rx="10" ry="5.6"/>
	<ellipse transform="matrix(0.943 -0.3327 0.3327 0.943 -28.8721 234.9675)" class="st10" cx="671.7" cy="201.8" rx="7.1" ry="4"/>
	<circle class="st10" cx="694.7" cy="113.8" r="4.1"/>
	<path class="st11" d="M704.1,185.5c0.1-0.8-1.4-1.1-1.4-1.9c0-5.3-2.4-10.2-6.5-14.4l-15.2,9.2c-1.6,0.9-1.6,3.2,0,4.1l5,2.9
		c3.6,2.3,10,7.7,7.3,15.3c-3.7,10.4,16.4,2.5,16.4,2.5L704.1,185.5z"/>
	<g>
		<g>
			
				<linearGradient id="SVGID_5_" gradientUnits="userSpaceOnUse" x1="679.7001" y1="1839.25" x2="768.9501" y2="1839.25" gradientTransform="matrix(1 0 0 1 0 -1670)">
				<stop  offset="0" style="stop-color:#5fcece"/>
				<stop  offset="1" style="stop-color:#5fcece"/>
			</linearGradient>
			<path class="st12" d="M725,195.9l42.9-26c1.4-0.8,1.4-2.9,0-3.7l-41.1-23.6c-1-0.6-2.3-0.6-3.4,0l-42.5,25.8
				c-1.6,0.9-1.6,3.2,0,4.1l40.7,23.4C722.7,196.5,723.9,196.5,725,195.9z"/>
		</g>
	</g>
	<g>
		<g>
			<path class="st8" d="M573.4,211.2l29.3-17.8c1-0.6,0.9-2,0-2.5l-28.1-16.1c-0.7-0.4-1.6-0.4-2.3,0l-29,17.6
				c-1.1,0.6-1.1,2.2,0,2.8l27.8,16C571.8,211.6,572.7,211.6,573.4,211.2z"/>
		</g>
	</g>
</g>
<g>
	
		<linearGradient id="SVGID_6_" gradientUnits="userSpaceOnUse" x1="442.0183" y1="2098.0654" x2="626.7949" y2="1816.9462" gradientTransform="matrix(1 0 0 1 0 -1670)">
		<stop  offset="0" style="stop-color:#A5BDCB"/>
		<stop  offset="0.9958" style="stop-color:#D8E9F4;stop-opacity:0"/>
	</linearGradient>
	<path class="st13" d="M647.5,372.5L463.3,269.1c-1.9-1.1-4.2-1-6.1,0l-139.7,80.6c-4.1,2.4-4.1,8.3,0.1,10.7l84.9,47.6l-18.7,11
		c-1.7,1-1.7,3.5,0,4.5l64.7,36.2c1.1,0.6,2.5,0.6,3.7,0l20.7-12.2l29,16.3c1.9,1.1,4.2,1,6.1,0l35.8-20.7l69.6-40.2l34.2-19.8
		C651.7,380.7,651.7,374.8,647.5,372.5z"/>
	<path class="st8" d="M452.2,443.2l43.3-25.4c1.5-0.9,1.5-3.1,0-4l-65.1-36.5c-1.1-0.6-2.5-0.6-3.7,0l-42.8,25.2
		c-1.7,1-1.7,3.5,0,4.5l64.7,36.2C449.7,443.9,451.1,443.9,452.2,443.2z"/>
	<polygon class="st10" points="508.5,436.2 660.5,348.5 463.8,238.1 311.8,325.9 	"/>
	<path class="st14" d="M495.4,413.8l-65.1-36.5c-1.1-0.6-2.5-0.6-3.7,0l-18.6,11l70.4,39.5l17.1-10
		C497,416.9,496.9,414.7,495.4,413.8z"/>
	<path class="st5" d="M510.8,434.9l142.7-82.4c3.1-1.8,3.1-6.3,0-8.1l-187.4-105c-1.4-0.8-3.2-0.8-4.6,0l-142.7,82.4
		c-3.1,1.8-3.1,6.3,0,8.1L506.2,435C507.6,435.8,509.4,435.7,510.8,434.9z"/>
	<path class="st4" d="M464.3,256c-1.1-0.6-2.5-0.6-3.7,0l-114.7,63.6c-2.5,1.4-2.5,5.1,0,6.5l142.4,81.2c13.6,7.8,30.4,7.8,44,0.1
		l91.9-52.1c4.7-2.7,4.7-9.5-0.1-12.1L464.3,256z"/>
	
		<linearGradient id="SVGID_7_" gradientUnits="userSpaceOnUse" x1="366.5" y1="1951.4653" x2="435.2" y2="1951.4653" gradientTransform="matrix(1 0 0 1 0 -1670)">
		<stop  offset="0" style="stop-color:#A5BDCB"/>
		<stop  offset="0.9973" style="stop-color:#D8E9F4;stop-opacity:0.4"/>
	</linearGradient>
	<path class="st15" d="M386.6,300.1c1.5,0.8,4,0.4,5.5-0.5l41.6-25.3c2-1.2,2-4.1,0-5.2l-12-6.7l-55.2,31.9L386.6,300.1z"/>
	<path class="st10" d="M450.9,434.8l10.3-6.2c0.3-0.2,0.3-0.7,0-0.9l-9.8-5.6c-0.3-0.1-0.6-0.1-0.8,0l-10.2,6.2
		c-0.4,0.2-0.4,0.8,0,1l9.7,5.6C450.3,435,450.6,435,450.9,434.8z"/>
	<path class="st10" d="M475,389.3c-0.4,0.2-0.9,0.1-1.1-0.3c-3.2-5.5-5.2-11.7-5.2-17.2c0-5.8,2.2-9.7,5.7-11.4v-0.2l89.3-50.8
		c0.6-0.3,0.5-1.1,0-1.4l-97.2-53.9c-1.7-1-3.8-0.9-5.5,0L350.8,317c-2.1,1.2-2.1,4.2,0,5.4l135.1,79c5.2,3,9.8,3,13,0.7
		c2.6-2,4.2-5.6,4.2-10.5s-1.5-10.3-4.1-15.2c-0.2-0.4-0.7-0.6-1.1-0.3L475,389.3z"/>
	<path class="st16" d="M498.5,375.7l-24.2,14.1c-3.5-5.6-5.6-12.1-5.6-17.9s2.2-9.7,5.7-11.4c3.1-1.4,7.1-1,11.6,1.5
		C490.9,364.9,495.4,369.9,498.5,375.7z"/>
	
		<linearGradient id="SVGID_8_" gradientUnits="userSpaceOnUse" x1="367.5623" y1="1948.2941" x2="439" y2="1948.2941" gradientTransform="matrix(1 0 0 1 0 -1670)">
		<stop  offset="0" style="stop-color:#5fcece"/>
		<stop  offset="1" style="stop-color:#5fcece"/>
	</linearGradient>
	<path class="st17" d="M391.9,299.7l45.6-27.4c2-1.2,2-4.1,0-5.2l-18.4-10.3c-1.5-0.8-3.3-0.8-4.8,0l-45.1,27.1
		c-2.2,1.3-2.2,4.6,0.1,5.9l17.8,10C388.6,300.6,390.5,300.6,391.9,299.7z"/>
	<g>
		<g class="st18">
			<g>
				<g>
					<g>
						<g>
							<path class="st19" d="M437.1,294.4c10.9-6.3,26-10.2,42.6-10.2c33.3,0,60.1,15.6,60,34.9c-0.1,9.6-6.8,18.3-17.8,24.7
								c-10.5,6-24.7,9.9-40.4,10.2l0.1-14.6c8.8-0.3,16.7-2.5,22.6-5.9c6.3-3.7,10.3-8.7,10.3-14.3c0.1-11.2-15.6-20.3-34.9-20.3
								c-9.7,0-18.4,2.3-24.8,5.9c-5.9,3.4-9.7,8-10.3,13.1h-25.2C420,308.7,426.7,300.5,437.1,294.4"/>
						</g>
						<g>
							<path class="st20" d="M468.2,338.3c2.9,0.6,5.9,0.9,9.1,1l-0.1,14.6c-6.6-0.1-12.9-0.9-18.8-2.2L468.2,338.3"/>
						</g>
						<g>
							<path class="st21" d="M419.5,320.4h25.2c0.2,1.8,0.8,3.6,1.8,5.3l-23.4,5.6C421,327.8,419.7,324.2,419.5,320.4"/>
						</g>
						<g>
							<path class="st22" d="M438.5,344.6l17.9-10.3c2.3,1.2,4.9,2.2,7.7,3l-9.7,13.5C448.5,349.2,443.2,347.1,438.5,344.6"/>
						</g>
						<g>
							<path class="st23" d="M424.8,333.6l23.4-5.6c1.4,1.6,3.1,3.1,5.1,4.5l-17.9,10.3C431.1,340.1,427.5,337,424.8,333.6"/>
						</g>
					</g>
				</g>
			</g>
		</g>
	</g>
	<path class="st24" d="M591.4,309.8l-10.9-6.1l-83.2,10.9c-0.1-0.1-0.1-0.1-0.1-0.1v0.2l-14.4,5.7l0,0l0,0l2.9,0.3l12.5,1.4l0,0
		L591.4,309.8z"/>
	<path class="st25" d="M624,322.5c0-10.9-7.6-24.2-17.1-29.7c-3.9-2.3-7.6-2.8-10.5-1.9l-3.1,1.8l-28.4,16.1l-90.6,51.5v0.2
		c3.1-1.4,7.1-1,11.6,1.5c5,2.9,9.5,7.9,12.6,13.7c2.8,5.1,4.5,10.8,4.5,16c0,4.9-1.6,8.5-4.2,10.5l120-68.5l0,0
		C622,331.9,624,328.1,624,322.5z"/>
	<polyline class="st6" points="600.6,214.3 498.3,306.4 493.3,300.9 595.5,208.7 600.6,214.3 	"/>
	<path class="st8" d="M600.9,214l-4.9-5.5l4.6-4.1c1.5-1.4,3.9-1.3,5.3,0.3l0,0c1.3,1.5,1.2,3.8-0.3,5.1"/>
	<path class="st26" d="M493.2,300.7c0,0,3.1,0.5,2.6,2.9c0,0,2.7-0.2,2.5,2.8l-13.7,7.3l8.7-12.8"/>
	<path class="st2" d="M487.9,308.9l-3.2,4.8l5.4-2.9C489.5,309.7,488.6,309.1,487.9,308.9z"/>
	<polyline class="st27" points="600.6,214.3 595.7,213.7 496,303.8 498.3,306.4 600.6,214.3 	"/>
	<path class="st28" d="M596.1,218l-4.8-5.4c-0.4-0.5-0.4-1.2,0.1-1.7l3.3-3c0.5-0.4,1.2-0.4,1.7,0.1l4.8,5.4"/>
	<line class="st29" x1="601.2" y1="215" x2="595.2" y2="213"/>
	<path class="st28" d="M594.8,207.9c0,0,3.2-2,5.9,1.5c2.6,3.3,0.5,5.6,0.5,5.6"/>
	<line class="st29" x1="596.1" y1="218" x2="590.5" y2="217.1"/>
	<path class="st6" d="M591.3,212.7c0,0,2.5-1.8,4.4,1c1.9,2.9,0.4,4.3,0.4,4.3"/>
	<path class="st27" d="M596.1,218c0,0,1.5-1.4-0.4-4.3l0,0l0,0l-4,3.6L596.1,218"/>
	
		<linearGradient id="SVGID_9_" gradientUnits="userSpaceOnUse" x1="-34.0018" y1="1980.8" x2="8.9286" y2="1980.8" gradientTransform="matrix(-1 0 0 1 376.5468 -1670)">
		<stop  offset="0" style="stop-color:#5fcece"/>
		<stop  offset="1" style="stop-color:#5fcece"/>
	</linearGradient>
	<path class="st30" d="M368.3,320.4l37.5-21.6c1-0.6,2.7-0.5,3.8,0.2l0,0c1.1,0.7,1.3,1.6,0.3,2.2l-37.5,21.6
		c-1,0.6-2.7,0.5-3.8-0.2l0,0C367.4,321.9,367.3,320.9,368.3,320.4z"/>
	<path class="st8" d="M377.7,324.6l22.3-12.9c1-0.6,2.7-0.5,3.8,0.2l0,0c1.1,0.7,1.3,1.6,0.3,2.2L381.8,327c-1,0.6-2.7,0.5-3.8-0.2
		l0,0C376.9,326.1,376.8,325.2,377.7,324.6z"/>
	
		<linearGradient id="SVGID_10_" gradientUnits="userSpaceOnUse" x1="534.9496" y1="1881.2" x2="548.3157" y2="1881.2" gradientTransform="matrix(1 0 0 1 0 -1670)">
		<stop  offset="0" style="stop-color:#5fcece"/>
		<stop  offset="1" style="stop-color:#5fcece"/>
	</linearGradient>
	<path class="st31" d="M539.7,199.3c0,0,4.1,12.2-4.8,20.8l6.7,3c0,0,10-11.6,5.4-23.8H539.7z"/>
</g>
<g>
	
		<linearGradient id="SVGID_11_" gradientUnits="userSpaceOnUse" x1="287.8054" y1="1924.7946" x2="388.8028" y2="1660.3333" gradientTransform="matrix(1 0 0 1 0 -1670)">
		<stop  offset="0" style="stop-color:#A5BDCB"/>
		<stop  offset="0.9958" style="stop-color:#D8E9F4;stop-opacity:0"/>
	</linearGradient>
	<path class="st32" d="M269.2,277.5l162.9-93.9c1.9-1.1,2-3.9,0-5.1l-81.3-49.9c-0.9-0.5-2-0.6-2.9-0.1L182.5,224
		c-2,1.1-2,4-0.1,5.1l83.8,48.4C267.2,278,268.3,278,269.2,277.5z"/>
	
		<linearGradient id="SVGID_12_" gradientUnits="userSpaceOnUse" x1="579.1623" y1="1799.8116" x2="812.633" y2="1834.5563" gradientTransform="matrix(1 0 0 1 -330.3748 -1670)">
		<stop  offset="0" style="stop-color:#C7D1E0"/>
		<stop  offset="1" style="stop-color:#B3CADE"/>
	</linearGradient>
	<path class="st33" d="M260.8,119.9v154c0,0.7,0.4,1.3,1,1.6l0,0l5.5,2.6l2.9-6.5l172.3-98.9V22.5l1.1,0.7l2.3-8l-5.4-2.2l0,0
		c-1-0.5-2.3-0.6-3.4,0.1L262.5,116.8"/>
	
		<linearGradient id="SVGID_13_" gradientUnits="userSpaceOnUse" x1="591.1748" y1="1815.3" x2="776.2748" y2="1815.3" gradientTransform="matrix(1 0 0 1 -330.3748 -1670)">
		<stop  offset="0" style="stop-color:#9ABED8"/>
		<stop  offset="1" style="stop-color:#9ABED8;stop-opacity:0.7"/>
	</linearGradient>
	<path class="st34" d="M260.8,119.9v154c0,0.7,0.4,1.3,1,1.6l0,0l6.2,2.5l2.2-6.4l172.3-98.9V22.5l1.1,0.7l2.3-8l-5.4-2.2l0,0
		c-1-0.5-2.3-0.6-3.4,0.1L262.5,116.8"/>
	<path class="st2" d="M448,172.7c0,1.3-0.7,2.6-1.9,3.2L269,277.7c-1.2,0.7-2.7-0.2-2.7-1.5v-154c0-1.3,0.7-2.4,1.7-3.1L442.6,15.4
		c2.4-1.4,5.4,0.3,5.4,3.1V172.7z"/>
	<path class="st10" d="M440.4,170.3l-160.3,91.9c-1.1,0.6-2.4-0.2-2.4-1.4V127.6c0-1.3,0.7-2.4,1.7-3.1L435.6,32
		c2.1-1.3,4.8,0.3,4.8,2.7V170.3z"/>
	<path class="st5" d="M440.4,170.3l-162.7-42.7c0-1.2,0.7-2.4,1.7-3L435.6,32c2.1-1.3,4.8,0.3,4.8,2.7V170.3z"/>
	<path class="st35" d="M481.1,182.5v-145c0-1.6-1.7-2.5-3.1-1.8l-173.7,99.8c-0.6,0.4-1,1-1,1.8v145c0,1.6,1.7,2.5,3.1,1.8
		l173.7-99.9"/>
	<path class="st36" d="M469.3,108.7"/>
	<path class="st36" d="M390.4,153.8"/>
	<path class="st36" d="M469.3,124.8"/>
	<g>
		<line class="st36" x1="447.7" y1="131.5" x2="466.7" y2="120.7"/>
		<line class="st36" x1="418.3" y1="148.4" x2="432.7" y2="140.1"/>
		<polyline class="st36" points="372.9,174.3 387.8,165.8 401.2,158.1 		"/>
		<polyline class="st36" points="312.6,208.8 335.4,195.8 347.1,189.1 360.4,181.5 		"/>
	</g>
	<g>
		<line class="st36" x1="449.6" y1="143.7" x2="467.5" y2="133.5"/>
		<polyline class="st36" points="411.2,165.7 425.4,157.6 437.4,150.7 		"/>
		<line class="st36" x1="379.1" y1="184.1" x2="394.9" y2="175"/>
		<polyline class="st36" points="313.4,221.6 332.8,210.5 346.1,202.9 364.8,192.2 		"/>
	</g>
	<g>
		<polyline class="st36" points="435,81 446.9,74.2 457.3,68.2 		"/>
		<polyline class="st36" points="397.8,102.3 411.3,94.5 421.6,88.7 		"/>
		<polyline class="st36" points="348.6,130.4 364.7,121.2 377.7,113.8 		"/>
		<g>
			<line class="st36" x1="313.4" y1="150.5" x2="335.2" y2="138.1"/>
			<g>
				<polyline class="st36" points="432.7,104.5 443.4,98.3 455.3,91.5 467.5,84.6 				"/>
				<polyline class="st36" points="392.2,127.6 408.1,118.5 421.8,110.7 				"/>
				<line class="st36" x1="354.6" y1="149.1" x2="373.7" y2="138.2"/>
				<line class="st36" x1="313.4" y1="172.7" x2="345.1" y2="154.5"/>
			</g>
			<g>
				<line class="st36" x1="435.8" y1="113.5" x2="449.5" y2="105.7"/>
				<line class="st36" x1="402.2" y1="132.7" x2="421" y2="122"/>
				<line class="st36" x1="353.9" y1="160.4" x2="369.6" y2="151.4"/>
				<polyline class="st36" points="314.5,182.9 332.6,172.5 340.8,167.8 				"/>
				<line class="st36" x1="378.2" y1="146.9" x2="392.3" y2="138.9"/>
			</g>
			<g>
				<polyline class="st36" points="422.3,99.2 436.7,91 446.2,85.6 				"/>
				<line class="st36" x1="397" y1="113.7" x2="412.6" y2="104.8"/>
				<polyline class="st36" points="344.8,143.5 351.6,139.7 370.3,129 372,128 				"/>
				<line class="st36" x1="313.7" y1="161.4" x2="329.3" y2="152.4"/>
				<line class="st36" x1="377.9" y1="124.6" x2="387.1" y2="119.6"/>
			</g>
		</g>
	</g>
	<g>
		<polyline class="st36" points="435,179.5 446.9,172.7 457.3,166.7 		"/>
		<polyline class="st36" points="397.8,200.8 411.3,193 421.6,187.2 		"/>
		<polyline class="st36" points="348.6,228.9 364.7,219.7 377.7,212.3 		"/>
		<g>
			<line class="st36" x1="313.4" y1="249" x2="335.2" y2="236.6"/>
			<g>
				<polyline class="st36" points="422.3,197.7 436.7,189.5 446.2,184.1 				"/>
				<line class="st36" x1="397" y1="212.2" x2="412.6" y2="203.3"/>
				<polyline class="st36" points="344.8,242 351.6,238.2 370.3,227.5 372,226.5 				"/>
				<line class="st36" x1="313.7" y1="259.9" x2="329.3" y2="250.9"/>
				<line class="st36" x1="377.9" y1="223.1" x2="387.1" y2="218.1"/>
			</g>
		</g>
	</g>
	<g>
		<line class="st36" x1="423.5" y1="173.3" x2="439.1" y2="164.4"/>
		<g>
			<line class="st36" x1="455.9" y1="154.8" x2="467.5" y2="148.2"/>
			<line class="st36" x1="382.2" y1="196.9" x2="406.3" y2="183.1"/>
			<line class="st36" x1="346.1" y1="217.6" x2="368.1" y2="205"/>
			<line class="st36" x1="313.4" y1="236.3" x2="330.3" y2="226.6"/>
			<line class="st36" x1="443.9" y1="161.4" x2="449.6" y2="158"/>
		</g>
	</g>
	<g>
		<line class="st36" x1="429.1" y1="128.8" x2="448.5" y2="117.8"/>
		<line class="st36" x1="392.8" y1="149.6" x2="405.2" y2="142.5"/>
		<polyline class="st36" points="313.8,194.8 332.7,184 343.5,177.8 360.7,167.9 375.5,159.5 380.6,156.6 		"/>
		<line class="st36" x1="413.3" y1="138.2" x2="422.5" y2="132.8"/>
		<line class="st36" x1="455.5" y1="113.8" x2="463.8" y2="109.3"/>
	</g>
	<g>
		<path class="st37" d="M477.4,88.8c2.2,17.9-6,40-18.5,49.4c-12.4,9.4-24.3,2.6-26.6-15.3c-2.2-17.9,6-40,18.5-49.4
			C463.2,64,475.1,70.9,477.4,88.8z"/>
		<path class="st8" d="M487,88.5c2.2,17.9-6,40-18.5,49.4c-12.4,9.4-24.3,2.6-26.6-15.3c-2.2-17.9,6-40,18.5-49.4
			C472.9,63.8,484.8,70.6,487,88.5z"/>
		<path class="st10" d="M477.8,93.2c0.4,3.5-1.2,7.8-3.6,9.7c-2.4,1.8-4.8,0.5-5.2-3c-0.4-3.5,1.2-7.8,3.6-9.7
			C475.1,88.4,477.4,89.7,477.8,93.2z"/>
	</g>
	<path class="st37" d="M381.4,148.8l-56.7,33.5c-0.6,0.3-0.9,1-0.9,1.6v90l60.2-34.6v-89.1C384,149,382.5,148.2,381.4,148.8z"/>
	<g>
		
			<linearGradient id="SVGID_14_" gradientUnits="userSpaceOnUse" x1="350.027" y1="1884.8213" x2="414.927" y2="1884.8213" gradientTransform="matrix(1 0 0 1 0 -1670)">
			<stop  offset="0" style="stop-color:#5fcece"/>
			<stop  offset="1" style="stop-color:#5fcece"/>
		</linearGradient>
		<path class="st38" d="M415,241.9c0,1.4-0.8,2.8-2,3.5l-61.7,34.7c-0.6,0.3-1.2-0.1-1.2-0.7v-91.9c0-0.7,0.3-1.3,0.9-1.6l61.5-36.2
			c1.1-0.7,2.5,0.1,2.5,1.4L415,241.9L415,241.9z"/>
		<g>
			<g>
				<path class="st10" d="M387.4,190.3c2.6-1.4,3.9,0,3.9,4.3v9.8c0,4.6,1.2,6.7,3.7,6.3v0.2c-2.5,2.4-3.7,5.9-3.7,10.5v9.7
					c0,2.5-0.3,4.5-0.9,5.9s-1.6,2.5-3,3.3v4c4.9-3,7.4-7.8,7.4-14.4v-10c0-4.5,1.3-7.6,3.9-9.3v-3.7c-2.6,1.3-3.9-0.4-3.9-4.9v-9.8
					c0-6.7-2.5-8.7-7.4-6V190.3z"/>
				<path class="st10" d="M369.3,226.1L369.3,226.1c2.6-1.3,3.9,0.3,3.9,4.8V241c0,6.6,2.5,8.6,7.4,5.8v-4c-1.4,0.8-2.5,0.9-3.1,0.1
					c-0.6-0.7-0.9-2.3-0.9-4.8v-9.7c0-4.6-1.2-6.7-3.7-6.2V222c2.4-2.4,3.7-5.9,3.7-10.5v-9.9c0-4.3,1.3-7.2,4-8.9v-4.1
					c-4.9,2.9-7.4,7.8-7.4,14.5v9.8c0,4.5-1.3,7.7-3.9,9.4V226.1z"/>
			</g>
		</g>
	</g>
</g>
<linearGradient id="SVGID_15_" gradientUnits="userSpaceOnUse" x1="163.6419" y1="2141.4846" x2="164.291" y2="1776.6642" gradientTransform="matrix(1 0 0 1 0 -1670)">
	<stop  offset="0" style="stop-color:#A5BDCB"/>
	<stop  offset="0.9958" style="stop-color:#D8E9F4;stop-opacity:0"/>
</linearGradient>
<path class="st39" d="M314.3,419.6L116.9,305.5c-8.4-4.9-21.2-5.4-28.5-1.2l-6,3.5c-7.1-0.7-13.9,0.2-18.3,2.9
	c-2.6,1.6-4.1,3.6-4.5,5.8c0,0.1,0,0.2,0,0.3c0,0.1,0,0.2,0,0.3c-2.6,0.5-5,1.3-6.8,2.4c-2.5,1.5-3.9,3.5-4.3,5.7c0,0.1,0,0.3,0,0.4
	c0,0,0,0-0.1,0h-0.1c-0.3,0-0.6,0.1-0.9,0.1c-0.2,0-0.4,0.1-0.6,0.1c-0.4,0.1-0.9,0.2-1.3,0.3c-1.3,0.3-2.5,0.8-3.6,1.3
	c-0.5,0.3-1.1,0.5-1.6,0.8c-1.3,0.8-2.4,1.8-3.1,2.8l-4.1,5.4L14.6,347l-8.3,24.5l16.2-4.7L214,477.4c8.4,4.9,21.2,5.4,28.5,1.2
	l73.8-42.6C323.6,431.8,322.7,424.4,314.3,419.6z"/>
<linearGradient id="SVGID_16_" gradientUnits="userSpaceOnUse" x1="16.4517" y1="2034.4" x2="331.6024" y2="2034.4" gradientTransform="matrix(1 0 0 1 0 -1670)">
	<stop  offset="0" style="stop-color:#5fcece"/>
	<stop  offset="1" style="stop-color:#5fcece"/>
</linearGradient>
<path class="st40" d="M16.6,318.1c0,0-1.9,13.9,7.9,20.4l194.3,112.3c8.8,5.1,22.1,5.6,29.8,1.2l77.2-44.6
	c6.1-3.7,5.8-17.8,5.8-17.8l-15.4-3.7L129.3,278c-8.8-5.1-22.1-5.6-29.8-1.2L24.7,320L16.6,318.1"/>
<path class="st2" d="M248.9,441.8l77.5-44.7c7.7-4.4,6.7-12.1-2.1-17.2L129.1,267c-8.8-5.1-22.2-5.7-29.9-1.2l-77.5,44.7
	c-7.7,4.4-6.7,12.1,2.1,17.2L219,440.5C227.9,445.6,241.2,446.2,248.9,441.8z"/>
<polygon class="st5" points="45.6,329.2 131.6,279.5 292.3,372.5 206.3,422.1 "/>
<path class="st41" d="M260.7,412.7c6.6,3.8,16.5,4.2,22.2,0.9c5.7-3.3,5-9-1.6-12.8s-16.5-4.2-22.2-0.9
	C253.4,403.2,254.1,408.9,260.7,412.7z"/>
<path class="st24" d="M157.7,373.1l-44.9-25.8c-1.1-0.7-2.6-0.6-3.7,0L84,362.5l50.1,28.9l23.7-14.4
	C159.3,376.2,159.3,373.9,157.7,373.1z"/>
<linearGradient id="SVGID_17_" gradientUnits="userSpaceOnUse" x1="109.551" y1="2036.656" x2="291.6515" y2="2192.7422" gradientTransform="matrix(1 0 0 1 0 -1670)">
	<stop  offset="0" style="stop-color:#5fcece"/>
	<stop  offset="1" style="stop-color:#5fcece"/>
</linearGradient>
<path class="st42" d="M110.9,396.2l46.9-28.4c1.5-0.9,1.5-3.1,0-4L112.9,338c-1.1-0.7-2.6-0.6-3.7,0l-46.5,28.2
	c-1.7,1-1.7,3.5,0,4.5l44.5,25.6C108.3,396.9,109.7,396.9,110.9,396.2z"/>
<path class="st10" d="M103.5,377.7l11.6-7c0.4-0.2,0.4-0.8,0-1l-11.1-6.4c-0.3-0.2-0.6-0.2-0.9,0l-11.5,7c-0.4,0.3-0.4,0.9,0,1.1
	l11,6.3C102.9,377.9,103.2,377.9,103.5,377.7z"/>
<path class="st10" d="M207.3,401.7l35.5-21.5c1.2-0.7,1.1-2.4,0-3l-34-19.5c-0.9-0.5-1.9-0.5-2.8,0L170.9,379
	c-1.3,0.8-1.3,2.7,0,3.4l33.6,19.3C205.4,402.2,206.5,402.2,207.3,401.7z"/>
<path class="st24" d="M197,306.5L150,335c-2.2,1.3-2.2,4.5,0.1,5.8l48.8,27.7c1.5,0.8,3.3,0.8,4.7,0l49.3-29.9L197,306.5z"/>
<path class="st8" d="M203.6,348.8l60.1-36.4c2-1.2,1.9-4,0-5.1l-49.3-28.1c-1.5-0.8-3.3-0.8-4.7,0L150,315.4
	c-2.2,1.3-2.2,4.5,0.1,5.8l48.8,27.7C200.3,349.7,202.1,349.7,203.6,348.8z"/>
<path class="st43" d="M136,403c-5-2.9-1.9-11.5-1.9-11.5l-7.9-4.6l-8.8,5.3L136,403z"/>
<path class="st10" d="M201.6,335.7l11.6-7c0.4-0.2,0.4-0.8,0-1l-11.1-6.4c-0.3-0.2-0.6-0.2-0.9,0l-11.5,7c-0.4,0.3-0.4,0.9,0,1.1
	l11,6.3C201,335.8,201.4,335.8,201.6,335.7z"/>
<path class="st44" d="M73.3,351.6c0.1,0,0.2,0,0.3,0c0.5,0,0.9-0.1,1.4-0.1c0.2,0,0.4,0,0.6-0.1c0.5-0.1,0.9-0.1,1.4-0.2
	c0.1,0,0.3-0.1,0.4-0.1c2.2-0.5,4.2-1.2,5.9-2.1c0.1-0.1,0.2-0.1,0.4-0.2c0.8-0.5,1.5-1.1,2.1-1.7c0.1-0.1,0.2-0.2,0.3-0.3
	c0.2-0.2,0.4-0.5,0.6-0.8c0.1-0.1,0.2-0.2,0.3-0.4c0.2-0.3,0.3-0.6,0.5-0.9c0,0,0-0.1,0.1-0.1c0.5,0,1-0.1,1.4-0.1c0,0,0,0,0.1,0
	c1.1-0.1,2.1-0.3,3.1-0.5l0,0c0.5-0.1,1-0.2,1.4-0.4c0.1,0,0.1,0,0.2-0.1c1.7-0.5,3.2-1.1,4.5-1.9c5.2-3.2,6-8.1,2.8-13
	c-0.3-0.5-0.7-1-1.1-1.5c-1.1-1.4-2.5-2.7-4.2-4l9.2-5.6c2.7-1.6,2.9-4,0.5-5.4l-1.1-0.6c-2.4-1.3-6.5-1-9.2,0.6l-9.2,5.6
	c-11.4-4.5-24.8-4.8-32-0.4c-2.6,1.6-4.1,3.6-4.5,5.8c0,0.1,0,0.2,0,0.3c0,0.1,0,0.2,0,0.3c-2.6,0.5-5,1.3-6.8,2.4
	c-2.5,1.5-3.9,3.5-4.3,5.7c0,0.1,0,0.3,0,0.4c0,0,0,0-0.1,0h-0.1c-0.3,0-0.6,0.1-0.9,0.1c-0.2,0-0.4,0.1-0.6,0.1l0,0l0,0
	c-0.4,0.1-0.9,0.2-1.3,0.3c-0.5,0.1-0.9,0.3-1.4,0.4L71,355C72.1,353.9,72.9,352.8,73.3,351.6z"/>
<path class="st45" d="M101,317.7h-0.3c-3.7,0-6.7-3-6.7-6.7v-10.3c0-3.7,3-6.7,6.7-6.7h0.3c3.7,0,6.7,3,6.7,6.7V311
	C107.7,314.7,104.7,317.7,101,317.7z"/>
<path class="st46" d="M101,317.7h-0.3c-3.7,0-6.7-3-6.7-6.7v-10.3c0-3.7,3-6.7,6.7-6.7h0.3c3.7,0,6.7,3,6.7,6.7V311
	C107.7,314.7,104.7,317.7,101,317.7z"/>
<ellipse class="st47" cx="100.9" cy="282.2" rx="30.6" ry="18.6"/>
<linearGradient id="SVGID_18_" gradientUnits="userSpaceOnUse" x1="70.2" y1="282.25" x2="127.9" y2="282.25">
	<stop  offset="0" style="stop-color:#000000"/>
	<stop  offset="0.9958" style="stop-color:#000000;stop-opacity:0"/>
</linearGradient>
<path class="st48" d="M127.9,273.4c-5.2-5.8-15.3-9.8-27-9.8c-1,0-2.1,0-3.1,0.1c-0.4,0-0.8,0.1-1.1,0.1c-0.6,0.1-1.3,0.1-1.9,0.2
	c-0.5,0.1-0.9,0.1-1.4,0.2s-1,0.1-1.5,0.2s-1,0.2-1.6,0.3c-0.4,0.1-0.8,0.2-1.2,0.3c-0.6,0.1-1.1,0.3-1.7,0.5
	c-0.3,0.1-0.6,0.2-0.9,0.3c-0.6,0.2-1.2,0.4-1.8,0.6c-0.2,0.1-0.5,0.2-0.7,0.3c-0.6,0.3-1.2,0.5-1.8,0.8c-0.2,0.1-0.3,0.1-0.5,0.2
	c-0.6,0.3-1.3,0.6-1.9,1c-0.1,0.1-0.2,0.1-0.3,0.2c-0.6,0.4-1.2,0.8-1.8,1.2l-0.1,0.1c-0.6,0.4-1.2,0.9-1.7,1.3l0,0
	c-3.3,2.9-5.3,6.3-5.6,10.1l0,0l0,0c0,0.2-0.1,0.4-0.1,0.7c0,10.3,13.7,18.6,30.6,18.6c0.8,0,1.5,0,2.3-0.1
	c-5.3-2.1-8.9-5.6-9.7-9.6c1.3,0.1,2.6,0.2,3.9,0.2C113.9,291.3,127.3,283.4,127.9,273.4z"/>
<ellipse class="st29" cx="98.5" cy="280.8" rx="30.6" ry="18.6"/>
<ellipse class="st47" cx="100.9" cy="266.2" rx="28.4" ry="17.5"/>
<linearGradient id="SVGID_19_" gradientUnits="userSpaceOnUse" x1="72.5" y1="266.2" x2="125.7" y2="266.2">
	<stop  offset="0" style="stop-color:#000000"/>
	<stop  offset="0.9958" style="stop-color:#000000;stop-opacity:0"/>
</linearGradient>
<path class="st49" d="M125.7,257.8c-4.9-5.4-14.1-9-24.8-9c-1,0-1.9,0-2.9,0.1c-0.4,0-0.7,0.1-1.1,0.1c-0.6,0-1.1,0.1-1.7,0.2
	c-0.5,0.1-0.9,0.1-1.3,0.2c-0.5,0.1-0.9,0.1-1.4,0.2c-0.5,0.1-1,0.2-1.5,0.3c-0.4,0.1-0.7,0.2-1.1,0.2c-0.6,0.1-1.1,0.3-1.6,0.5
	c-0.3,0.1-0.5,0.2-0.8,0.2c-0.6,0.2-1.2,0.4-1.7,0.6c-0.2,0.1-0.4,0.1-0.6,0.2c-0.6,0.3-1.2,0.5-1.8,0.8c-0.1,0.1-0.2,0.1-0.4,0.2
	c-0.6,0.3-1.2,0.6-1.8,1c-0.1,0-0.1,0.1-0.2,0.1c-0.6,0.4-1.2,0.8-1.8,1.2l0,0c-4.1,3-6.5,6.8-6.7,10.9l0,0l0,0c0,0.1,0,0.3,0,0.4
	c0,9.7,12.7,17.5,28.4,17.5c-4.6-2.2-7.7-5.5-8.5-9.2c1.6,0.2,3.3,0.3,5,0.3C112.8,274.9,125.3,267.3,125.7,257.8z"/>
<path class="st47" d="M126.9,244.8L126.9,244.8l-26-61l-26.1,61l0,0c-0.7,1.5-1,3.1-1,4.8c0,9.7,12.1,17.5,27.1,17.5
	c14.9,0,27.1-7.9,27.1-17.5C128,247.9,127.6,246.3,126.9,244.8z"/>
<linearGradient id="SVGID_20_" gradientUnits="userSpaceOnUse" x1="73.8" y1="225.45" x2="126.1" y2="225.45">
	<stop  offset="0" style="stop-color:#000000"/>
	<stop  offset="0.9958" style="stop-color:#000000;stop-opacity:0"/>
</linearGradient>
<path class="st50" d="M121,257.5c-14.6,3.3-28.1-1.7-30.3-11.2c-0.4-1.6-0.3-3.2,0-4.9l0,0l10.5-56.9l-0.3-0.7l-26.1,61l0,0
	c-0.7,1.5-1,3.1-1,4.8c0,9.7,12.1,17.5,27.1,17.5c11.5,0,21.3-4.7,25.2-11.2C124.5,256.6,122.8,257.1,121,257.5z"/>
<g>
	
		<linearGradient id="SVGID_21_" gradientUnits="userSpaceOnUse" x1="815.9061" y1="37.569" x2="919.9061" y2="196.9023" gradientTransform="matrix(1 0 0 -1 0 538)">
		<stop  offset="2.165098e-07" style="stop-color:#070707"/>
		<stop  offset="0.9958" style="stop-color:#D8E9F4;stop-opacity:0"/>
	</linearGradient>
	<path class="st51" d="M900.8,523.6L690.4,402.2c-2.5-1.4-2.5-5.1-0.1-6.5l141.4-85.5c1.2-0.7,2.6-0.7,3.8-0.1l213.7,123.3
		c2.6,1.4,2.6,5.1,0.1,6.6l-144.7,83.5C903.4,524.3,902,524.3,900.8,523.6z"/>
	
		<linearGradient id="SVGID_22_" gradientUnits="userSpaceOnUse" x1="-21.2477" y1="2129.8696" x2="121.4727" y2="1880.1089" gradientTransform="matrix(-1 0 0 1 897.3585 -1670)">
		<stop  offset="0" style="stop-color:#C7D1E0"/>
		<stop  offset="1" style="stop-color:#B3CADE"/>
	</linearGradient>
	<path class="st52" d="M696,349.7v4.2l135.8-82.1c1.2-0.7,2.6-0.7,3.8-0.1l210.6,121.1l0.7-5.2l4.4,0.1v10.7l0,0
		c0,1.3-0.6,2.5-1.9,3.3l-144.7,83.5c-1.2,0.7-2.6,0.7-3.8,0L690.4,363.8c-1.3-0.7-1.9-2-1.9-3.3v-10.8H696z"/>
	
		<linearGradient id="SVGID_23_" gradientUnits="userSpaceOnUse" x1="-153.9414" y1="2048.4934" x2="208.8585" y2="2048.4934" gradientTransform="matrix(-1 0 0 1 897.3585 -1670)">
		<stop  offset="0" style="stop-color:#9ABED8"/>
		<stop  offset="1" style="stop-color:#9ABED8;stop-opacity:0.7"/>
	</linearGradient>
	<path class="st53" d="M696,349.7v4.2l135.8-82.1c1.2-0.7,2.6-0.7,3.8-0.1l207.1,116.9l4.2-1l4.4,0.1v10.7l0,0
		c0,1.3-0.6,2.5-1.9,3.3l-144.7,83.5c-1.2,0.7-2.6,0.7-3.8,0L690.4,363.8c-1.3-0.7-1.9-2-1.9-3.3v-10.8H696z"/>
	
		<linearGradient id="SVGID_24_" gradientUnits="userSpaceOnUse" x1="-23.7464" y1="2061.5491" x2="157.532" y2="1979.8302" gradientTransform="matrix(-1 0 0 1 897.3585 -1670)">
		<stop  offset="0" style="stop-color:#D7E6F2"/>
		<stop  offset="1" style="stop-color:#DEE2F3"/>
	</linearGradient>
	<path class="st54" d="M900.8,474.5L690.4,353.1c-2.5-1.4-2.5-5.1-0.1-6.5L831.8,261c1.2-0.7,2.6-0.7,3.8-0.1l213.7,123.3
		c2.6,1.4,2.6,5.1,0.1,6.6l-144.7,83.5C903.4,475.1,902,475.1,900.8,474.5z"/>
	
		<linearGradient id="SVGID_25_" gradientUnits="userSpaceOnUse" x1="-172.8188" y1="1887.6823" x2="103.0306" y2="1928.7336" gradientTransform="matrix(-1 0 0 1 897.3585 -1670)">
		<stop  offset="0" style="stop-color:#C7D1E0"/>
		<stop  offset="1" style="stop-color:#B3CADE"/>
	</linearGradient>
	<path class="st55" d="M835.8,91.4l6.1-3.3l0,0c1.1-0.5,2.4-0.6,3.6,0.1L1055.7,213c1.2,0.7,1.9,1.9,1.9,3.3v163.6
		c0,0.8-0.4,1.4-1,1.7l0,0l-5.8,2.7l-3.1-6.9L839.8,257.7V98.2l-1.2,0.7L835.8,91.4z"/>
	
		<linearGradient id="SVGID_26_" gradientUnits="userSpaceOnUse" x1="-160.1415" y1="1905.9501" x2="61.3585" y2="1905.9501" gradientTransform="matrix(-1 0 0 1 897.3585 -1670)">
		<stop  offset="0" style="stop-color:#9ABED8"/>
		<stop  offset="1" style="stop-color:#9ABED8;stop-opacity:0.7"/>
	</linearGradient>
	<path class="st56" d="M836,91.1l5.8-3l0,0c1.1-0.5,2.4-0.6,3.6,0.1L1055.6,213c1.2,0.7,1.9,1.9,1.9,3.3v163.6c0,0.8-0.4,1.4-1,1.7
		l0,0l-6.6,2.6l-2.3-6.8L839.8,257.7V98.2l-1.2,0.7L836,91.1z"/>
	<path class="st29" d="M900.8,474.5L690.4,353.1c-2.5-1.4-2.5-5.1-0.1-6.5L831.8,261c1.2-0.7,2.6-0.7,3.8-0.1l213.7,123.3
		c2.6,1.4,2.6,5.1,0.1,6.6l-144.7,83.5C903.4,475.1,902,475.1,900.8,474.5z"/>
	
		<linearGradient id="SVGID_27_" gradientUnits="userSpaceOnUse" x1="28.0288" y1="2077.0498" x2="129.5063" y2="2054.7974" gradientTransform="matrix(-1 0 0 1 897.3585 -1670)">
		<stop  offset="0" style="stop-color:#C7D1E0"/>
		<stop  offset="1" style="stop-color:#B3CADE"/>
	</linearGradient>
	<path class="st57" d="M783.1,393.9l50.2,29.3c1.2,0.7,2.6,0.7,3.8,0l29.8-16.5c2.6-1.4,2.6-5.1,0.1-6.6l-48.3-28.2
		c-1.2-0.7-2.6-0.7-3.7-0.1l-31.8,17.4C781.4,390.2,781.3,392.8,783.1,393.9z"/>
	
		<linearGradient id="SVGID_28_" gradientUnits="userSpaceOnUse" x1="-27.542" y1="2041.8464" x2="264.0383" y2="1940.5607" gradientTransform="matrix(-1 0 0 1 897.3585 -1670)">
		<stop  offset="0" style="stop-color:#C7D1E0"/>
		<stop  offset="1" style="stop-color:#B3CADE"/>
	</linearGradient>
	<path class="st58" d="M769.5,330.7l163.4,96c1.2,0.7,2.7,0.7,3.9,0l60.7-36c2.5-1.5,2.5-5.1,0-6.5l-163.2-95.9
		c-1.2-0.7-2.7-0.7-3.8,0l-60.9,35.9C767,325.6,767,329.2,769.5,330.7z"/>
	<path class="st2" d="M853.1,280.2l163.4,96c1.2,0.7,2.7,0.7,3.9,0l7.7-4.2c2.5-1.5-1.5-2.9-4-4.4l-163.2-95.9
		c-1.2-0.7-2.7-0.7-3.8,0l-3.9,2C850.6,275.2,850.6,278.8,853.1,280.2z"/>
	<path class="st2" d="M833.9,260.1L1048.8,384c1.3,0.7,2.8-0.2,2.8-1.6V218.8c0-1.3-0.7-2.6-1.9-3.3L839.6,90.7
		c-2.5-1.5-5.7,0.3-5.7,3.3L833.9,260.1L833.9,260.1z"/>
	<path class="st10" d="M841.9,255.2l195,112.3c1.1,0.6,2.5-0.2,2.5-1.5V224.6c0-1.3-0.7-2.6-1.9-3.3L847,108.3
		c-2.2-1.3-5.1,0.3-5.1,2.9V255.2z"/>
	<path class="st5" d="M841.9,186.4l197.5,114.1v-75.9c0-1.3-0.7-2.5-1.8-3.2L847,108.3c-2.2-1.3-5.1,0.3-5.1,2.9V186.4z"/>
	<path class="st59" d="M940.7,274l52.6,30.5c2,1.2,4.6-0.3,4.6-2.6v-56.1c0-1.1-0.6-2.1-1.5-2.6l-52.6-30.5c-2-1.2-4.6,0.3-4.6,2.6
		v56.1C939.2,272.5,939.8,273.5,940.7,274z"/>
	
		<linearGradient id="SVGID_29_" gradientUnits="userSpaceOnUse" x1="-82.2683" y1="1941.4421" x2="271.5176" y2="1808.5759" gradientTransform="matrix(-1 0 0 1 897.3585 -1670)">
		<stop  offset="0" style="stop-color:#5fcece"/>
		<stop  offset="1" style="stop-color:#5fcece"/>
	</linearGradient>
	<path class="st60" d="M927.7,277.8l52.6,30.5c2,1.2,4.6-0.3,4.6-2.6v-56.1c0-1.1-0.6-2.1-1.5-2.6l-52.6-30.5
		c-2-1.2-4.6,0.3-4.6,2.6v56.1C926.2,276.3,926.8,277.3,927.7,277.8z"/>
	<path class="st59" d="M833.9,132.1c0.2,0.1,0.3,0.1,0.5,0.2l63.9,36.9c1.9,1.1,3,3.1,3,5.2v66.4c0,4.6-5,7.5-9,5.2L834,212.3
		L833.9,132.1L833.9,132.1z"/>
	<path class="st8" d="M820.1,138.2l63.9,36.9c1.9,1.1,3,3.1,3,5.2v66.4c0,4.6-5,7.5-9,5.2L814.1,215c-1.9-1.1-3-3.1-3-5.2v-66.4
		C811.1,138.8,816.1,135.9,820.1,138.2z"/>
	<path class="st10" d="M861.1,180.4l10.1,5.9c0.3,0.2,0.5,0.5,0.5,0.8v10.6c0,0.7-0.8,1.2-1.4,0.8l-10.1-5.9
		c-0.3-0.2-0.5-0.5-0.5-0.8v-10.6C859.6,180.5,860.4,180,861.1,180.4z"/>
	<path class="st10" d="M936.1,260.6l10.1,5.9c0.3,0.2,0.5,0.5,0.5,0.8v10.6c0,0.7-0.8,1.2-1.4,0.8l-10.1-5.9
		c-0.3-0.2-0.5-0.5-0.5-0.8v-10.6C934.7,260.7,935.5,260.3,936.1,260.6z"/>
	<path class="st4" d="M814.1,215.1c-1.9-1.1-3-3.1-3-5.2v-34.6l25.3,14.6c1.6,0.9,2.7,2.7,2.7,4.6v35L814.1,215.1z"/>
	<path class="st5" d="M780.5,165.5l42.2,24.4c1.6,0.9,2.7,2.7,2.7,4.6v43.6c0,4.1-4.4,6.6-8,4.6l-42.2-24.4
		c-1.6-0.9-2.7-2.7-2.7-4.6v-43.6C772.5,166,776.9,163.5,780.5,165.5z"/>
	<path class="st61" d="M899.6,464.4c-0.5-0.2-0.9-0.4-1.4-0.6s-1-0.5-1.5-0.7c-0.9-0.5-1.8-1.1-2.5-1.7c-4.5-3.6-5.1-8.4-0.8-12
		l3.5-2.1c0,0,0,0,0.1,0s0.1,0,0.2-0.1c0.2-0.1,0.4-0.2,0.6-0.2c0,0,0.1,0,0.1-0.1c0.2-0.1,0.4-0.2,0.6-0.2h0.1
		c0.2-0.1,0.4-0.1,0.6-0.2h0.1c0.2-0.1,0.5-0.1,0.7-0.2c0,0,0,0,0.1,0c0.2-0.1,0.5-0.1,0.7-0.2l0,0c0.3-0.1,0.5-0.1,0.8-0.2l0,0
		c6-1.3,13.1-0.7,18.5,1.8c6.6,3.1,10.9,6.6,13.7,10l-19.2,11.1c-0.1,0-0.2,0-0.3,0c-0.2,0-0.3-0.1-0.5-0.1
		c-0.3-0.1-0.6-0.1-0.8-0.2c-0.2,0-0.3-0.1-0.5-0.1c-0.3-0.1-0.6-0.1-0.8-0.2c-0.2,0-0.3-0.1-0.5-0.1c-0.3-0.1-0.6-0.1-0.9-0.2
		c-0.2,0-0.3-0.1-0.5-0.1c-0.4-0.1-0.8-0.2-1.2-0.3c-0.1,0-0.1,0-0.2-0.1c-0.5-0.1-0.9-0.2-1.4-0.4c-0.1,0-0.2-0.1-0.4-0.1
		c-0.3-0.1-0.7-0.2-1-0.3c-0.2-0.1-0.3-0.1-0.5-0.2c-0.3-0.1-0.6-0.2-0.9-0.3c-0.2-0.1-0.4-0.1-0.5-0.2c-0.3-0.1-0.6-0.2-0.8-0.3
		c-0.2-0.1-0.4-0.1-0.5-0.2c-0.3-0.1-0.6-0.2-0.9-0.3c-0.2-0.1-0.3-0.1-0.5-0.2c-0.3-0.1-0.6-0.2-0.9-0.4
		C899.9,464.5,899.7,464.4,899.6,464.4z"/>
	<path class="st62" d="M903.9,400.7c4.3,4.1,15.2,16.2,15.6,34.3c0.2,9.9-7.5,18.4-17.5,18.3c-9.5-0.1-17.3-7.8-17.3-17.4
		c0-18.6,11.2-31.1,15.6-35.3C901.4,399.8,902.9,399.8,903.9,400.7z"/>
	<path class="st63" d="M893.2,439.8c9.9,0.1,17.7-8.4,17.5-18.3c-0.1-6.9-1.8-12.9-4.1-18c5,5.6,12.6,16.5,12.9,31.5
		c0.2,9.9-7.5,18.4-17.5,18.3c-9-0.1-16.4-6.9-17.2-15.7C887.3,439,890.2,439.8,893.2,439.8z"/>
	<path class="st61" d="M723.2,347.7L723.2,347.7c0.1,0,0.2-0.1,0.2-0.1c0.2-0.1,0.4-0.2,0.6-0.2c0,0,0.1,0,0.1-0.1
		c0.2-0.1,0.4-0.2,0.6-0.2h0.1c0.2-0.1,0.4-0.1,0.6-0.2h0.1c0.2-0.1,0.5-0.1,0.7-0.2c0,0,0,0,0.1,0c0.2-0.1,0.5-0.1,0.7-0.2l0,0
		c0.3-0.1,0.5-0.1,0.8-0.2l0,0c6-1.3,13.1-0.7,18.5,1.8c15.5,7.3,18.5,17.2,19.1,20.9c0.1,0.8-0.9,1.5-2.3,1.6
		c-1.3,0.1-3,0.1-5.1,0.1c-0.1,0-0.2,0-0.3,0c-0.2,0-0.4,0-0.5,0s-0.3,0-0.4,0c-0.2,0-0.4,0-0.5,0s-0.3,0-0.4,0c-0.2,0-0.4,0-0.5,0
		c-0.2,0-0.3,0-0.5,0s-0.3,0-0.5,0s-0.4,0-0.6,0c-0.2,0-0.3,0-0.5,0c-0.3,0-0.6,0-0.9,0c-0.2,0-0.3,0-0.5,0c-0.3,0-0.6,0-0.8-0.1
		c-0.1,0-0.3,0-0.5,0s-0.5,0-0.7-0.1c-0.2,0-0.3,0-0.5,0s-0.5,0-0.7-0.1c-0.2,0-0.3,0-0.5,0s-0.5,0-0.7-0.1c-0.2,0-0.3,0-0.5-0.1
		c-0.3,0-0.5-0.1-0.8-0.1c-0.2,0-0.3,0-0.5-0.1c-0.3,0-0.6-0.1-0.9-0.1c-0.1,0-0.2,0-0.3,0c-0.4-0.1-0.9-0.1-1.3-0.2
		c-0.1,0-0.2,0-0.3,0c-0.3-0.1-0.7-0.1-1-0.2c-0.2,0-0.3-0.1-0.5-0.1c-0.3-0.1-0.6-0.1-0.9-0.2c-0.2,0-0.3-0.1-0.5-0.1
		c-0.3-0.1-0.6-0.1-0.8-0.2c-0.2,0-0.3-0.1-0.5-0.1c-0.3-0.1-0.6-0.1-0.8-0.2c-0.2,0-0.3-0.1-0.5-0.1c-0.3-0.1-0.6-0.1-0.9-0.2
		c-0.2,0-0.3-0.1-0.5-0.1c-0.4-0.1-0.8-0.2-1.2-0.3c-0.1,0-0.1,0-0.2-0.1c-0.5-0.1-0.9-0.2-1.4-0.4c-0.1,0-0.2-0.1-0.4-0.1
		c-0.3-0.1-0.7-0.2-1-0.3c-0.2-0.1-0.3-0.1-0.5-0.2c-0.3-0.1-0.6-0.2-0.9-0.3c-0.2-0.1-0.4-0.1-0.5-0.2c-0.3-0.1-0.6-0.2-0.8-0.3
		c-0.2-0.1-0.4-0.1-0.5-0.2c-0.3-0.1-0.6-0.2-0.9-0.3c-0.2-0.1-0.3-0.1-0.5-0.2c-0.3-0.1-0.6-0.2-0.9-0.4c-0.1-0.1-0.3-0.1-0.4-0.2
		c-0.5-0.2-0.9-0.4-1.4-0.6s-1-0.5-1.5-0.7c-0.9-0.5-1.8-1.1-2.5-1.7c-4.5-3.6-5.1-8.4-0.8-12"/>
	<path class="st62" d="M730.2,301.1c4.3,4.1,15.2,16.2,15.6,34.3c0.2,9.9-7.5,18.4-17.5,18.3c-9.5-0.1-17.3-7.8-17.3-17.4
		c0-18.6,11.2-31.1,15.6-35.3C727.7,300.2,729.2,300.2,730.2,301.1z"/>
	<path class="st63" d="M719.5,340.3c9.9,0.1,17.7-8.4,17.5-18.3c-0.1-6.9-1.8-12.9-4.1-18c5,5.6,12.6,16.5,12.9,31.5
		c0.2,9.9-7.5,18.4-17.5,18.3c-9-0.1-16.4-6.9-17.2-15.7C713.6,339.4,716.5,340.2,719.5,340.3z"/>
</g>
<polygon class="st62" points="594.6,471.8 670.5,428.9 659.8,415.7 652.3,438.2 641.4,427.3 632.5,448.4 621.8,438 613.4,459.5 
	602.3,449.9 "/>
<polygon class="st62" points="136.1,156.9 212,114 201.4,100.8 193.8,123.3 182.9,112.4 174.1,133.5 163.4,123.2 154.9,144.7 
	143.8,135 "/>
</svg>
