<?xml version="1.0" encoding="utf-8"?>
<!-- Generator: Adobe Illustrator 21.1.0, SVG Export Plug-In . SVG Version: 6.00 Build 0)  -->
<svg version="1.1" id="UX_x2F_UI" xmlns="http://www.w3.org/2000/svg" xmlns:xlink="http://www.w3.org/1999/xlink" x="0px" y="0px"
	 viewBox="0 0 863.1 610.3" style="enable-background:new 0 0 863.1 610.3;" xml:space="preserve">
<style type="text/css">
	.st0{enable-background:new    ;}
	.st1{fill:#F7F8F9;}
	.st2{fill:#C9CED3;}
	.st3{fill:#E4E7EA;}
	.st4{fill:#D7DBDE;}
	.st5{fill:#9DCC4A;}
	.st6{opacity:0.13;}
	.st7{fill:url(#SVGID_1_);}
	.st8{fill:url(#SVGID_2_);}
	.st9{opacity:0.7;fill:url(#SVGID_3_);enable-background:new    ;}
	.st10{fill:url(#SVGID_4_);}
	.st11{fill:url(#SVGID_5_);}
	.st12{opacity:0.7;fill:url(#SVGID_6_);enable-background:new    ;}
	.st13{fill:none;}
	.st14{fill:url(#SVGID_7_);}
	.st15{fill:url(#SVGID_8_);}
	.st16{fill:#2A3C67;}
	.st17{fill:#FFFFFF;}
	.st18{fill:#FFE269;}
	.st19{opacity:0.2;}
	.st20{opacity:0.2;fill:url(#SVGID_9_);enable-background:new    ;}
	.st21{fill:none;stroke:#80915A;stroke-miterlimit:10;}
	.st22{opacity:0.15;}
	.st23{fill:#070707;}
	.st24{fill:url(#SVGID_10_);}
	.st25{opacity:0.71;}
	.st26{opacity:0.23;}
	.st27{fill:#7E9DAA;}
	.st28{opacity:0.13;enable-background:new    ;}
	.st29{fill:#385075;}
	.st30{opacity:0.7;}
	.st31{opacity:0.5;}
	.st32{fill:url(#SVGID_11_);}
	.st33{opacity:0.5;fill:url(#SVGID_12_);enable-background:new    ;}
	.st34{fill:url(#SVGID_13_);}
	.st35{fill:#e53b51;}
	.st36{opacity:0.3;}
	.st37{fill:#C48551;}
	.st38{fill:url(#SVGID_14_);}
	.st39{fill:url(#SVGID_15_);}
	.st40{fill:url(#SVGID_16_);}
	.st41{fill:url(#SVGID_17_);}
	.st42{fill:url(#SVGID_18_);}
	.st43{opacity:0.2;fill:url(#SVGID_19_);enable-background:new    ;}
</style>
<g>
	<g>
		<g class="st0">
			<g>
				<g>
					<path class="st1" d="M78.4,285.1c-6-3.5-6-9.2-0.1-12.6l144.9-84.2c6-3.5,15.8-3.5,21.8,0l71.5,41.3c6,3.5,6.1,9.2,0.1,12.6
						l-11.4,6.6l0,0l-115.8,67.3l0,0l-17.6,10.3c-6,3.5-15.8,3.5-21.8,0L78.4,285.1 M356.9,237.3l-129.2-74.6
						c-4-2.3-10.4-2.3-14.3,0L40.6,263.1c-3.9,2.3-3.9,6,0,8.3L169.9,346c4,2.3,10.4,2.3,14.3,0L357,245.7
						C360.9,243.4,360.9,239.6,356.9,237.3"/>
					<path class="st2" d="M124.5,300c-2.8-1.6-2.8-4.3,0-5.9s7.4-1.6,10.2,0s2.8,4.3,0,5.9C131.9,301.7,127.4,301.7,124.5,300
						 M251.4,209.5c-1.2-0.7-1.2-1.8,0-2.5s3.1-0.7,4.3,0l33.7,19.4c1.2,0.7,1.2,1.8,0,2.5s-3.1,0.7-4.3,0L251.4,209.5 M316.5,229.6
						L245,188.3c-6-3.5-15.8-3.5-21.8,0L78.3,272.5c-6,3.5-6,9.2,0.1,12.6l71.5,41.3c6,3.5,15.8,3.5,21.8,0l17.6-10.3l-93.4-53.9
						l115.8-67.3l93.4,53.9l11.4-6.6C322.5,238.7,322.5,233,316.5,229.6"/>
					<path class="st3" d="M158,272.5c-0.8-0.4-0.7-1.1,0-1.6l0.6-0.4c0.7-0.4,2-0.4,2.7,0l26.8,15.5c0.8,0.4,0.8,1.1,0,1.6l-0.6,0.4
						c-0.7,0.4-2,0.4-2.7,0L158,272.5 M166.2,268.1c-0.9-0.5-0.9-1.4,0-1.9s2.4-0.5,3.4,0l41.4,23.9c0.9,0.5,0.9,1.4,0,2
						c-0.9,0.5-2.4,0.5-3.4,0L166.2,268.1 M133.2,262.1c-4.6-2.7-4.6-7-0.1-9.7l5.8-3.4c4.6-2.7,12.1-2.7,16.8,0l5.8,3.4
						c4.6,2.7,4.6,7,0.1,9.7l-5.8,3.4c-4.6,2.7-12.1,2.7-16.8,0L133.2,262.1 M174.1,263.5c-0.9-0.5-0.9-1.4,0-2
						c0.9-0.5,2.4-0.5,3.4,0l41.4,23.9c0.9,0.5,0.9,1.4,0,1.9s-2.4,0.5-3.4,0L174.1,263.5 M160.2,241.2c-1-0.6-1-1.6,0-2.2
						l53.5-31.1c1-0.6,2.7-0.6,3.7,0l67.5,39c1,0.6,1,1.6,0,2.2l-53.5,31.1c-1,0.6-2.7,0.6-3.7,0L160.2,241.2 M305.1,248.9
						L305.1,248.9L211.7,195L95.9,262.2l93.4,53.9l0,0L305.1,248.9"/>
					<path class="st3" d="M289.3,226.4L255.7,207c-1.2-0.7-3.1-0.7-4.3,0s-1.2,1.8,0,2.5l33.7,19.4c1.2,0.7,3.1,0.7,4.3,0
						C290.5,228.2,290.5,227.1,289.3,226.4"/>
					<path class="st3" d="M134.7,294.1c-2.8-1.6-7.4-1.6-10.2,0c-2.8,1.6-2.8,4.3,0,5.9s7.4,1.6,10.2,0
						C137.6,298.4,137.6,295.8,134.7,294.1"/>
					<path class="st1" d="M161.5,252.4l-5.8-3.4c-4.6-2.7-12.2-2.7-16.8,0l-5.8,3.4c-4.6,2.7-4.6,7,0.1,9.7l5.8,3.4
						c4.6,2.7,12.2,2.7,16.8,0l5.8-3.4C166.2,259.4,166.2,255.1,161.5,252.4"/>
					<path class="st2" d="M218.9,285.5l-41.4-23.9c-0.9-0.5-2.4-0.5-3.4,0c-0.9,0.5-0.9,1.4,0,2l41.4,23.9c0.9,0.5,2.4,0.5,3.4,0
						S219.8,286.1,218.9,285.5"/>
					<path class="st2" d="M211,290.1l-41.4-23.9c-0.9-0.5-2.4-0.5-3.4,0c-0.9,0.5-0.9,1.4,0,1.9l41.4,23.9c0.9,0.5,2.4,0.5,3.4,0
						C211.9,291.5,211.9,290.6,211,290.1"/>
					<path class="st2" d="M188.2,286.1l-26.8-15.5c-0.8-0.4-2-0.4-2.7,0l-0.6,0.4c-0.7,0.4-0.8,1.1,0,1.6l26.8,15.5
						c0.8,0.4,2,0.4,2.7,0l0.6-0.4C189,287.2,189,286.5,188.2,286.1"/>
					<path class="st2" d="M284.9,246.9l-67.5-39c-1-0.6-2.7-0.6-3.7,0L160.2,239c-1,0.6-1,1.6,0,2.2l67.5,39c1,0.6,2.7,0.6,3.7,0
						l53.5-31.1C285.9,248.5,286,247.5,284.9,246.9"/>
				</g>
			</g>
		</g>
	</g>
	<g>
		<g class="st0">
			<g>
				<g>
					<path class="st1" d="M579.5,370c-0.8-0.5-0.8-1.3,0-1.8l0.9-0.5c0.8-0.5,2.2-0.5,3,0l34.1,19.7c0.8,0.5,0.8,1.3,0,1.8l-0.9,0.5
						c-0.8,0.5-2.2,0.5-3,0L579.5,370 M588.9,365c-1.1-0.6-1.1-1.6,0-2.3c1.1-0.6,2.8-0.6,3.9,0l57.5,33.2c1.1,0.6,1.1,1.6,0,2.2
						s-2.8,0.6-3.9,0L588.9,365 M597.9,359.7c-1.1-0.6-1.1-1.6,0-2.3c1.1-0.6,2.8-0.6,3.9,0l57.5,33.2c1.1,0.6,1.1,1.6,0,2.2
						s-2.8,0.6-3.9,0L597.9,359.7 M606.9,354.5c-1.1-0.6-1.1-1.6,0-2.3c1.1-0.6,2.8-0.6,3.9,0l57.5,33.2c1.1,0.6,1.1,1.6,0,2.3
						c-1.1,0.6-2.8,0.6-3.9,0L606.9,354.5 M615.9,349.3c-1.1-0.6-1.1-1.6,0-2.3c1.1-0.6,2.8-0.6,3.9,0l57.5,33.2
						c1.1,0.6,1.1,1.6,0,2.3s-2.8,0.6-3.9,0L615.9,349.3 M506.5,340.7l60-34.9l53.9,31.1l-60,34.9L506.5,340.7 M625,344
						c-1.1-0.6-1.1-1.6,0-2.3c1.1-0.6,2.8-0.6,3.9,0l57.5,33.2c1.1,0.6,1.1,1.6,0,2.3c-1.1,0.6-2.8,0.6-3.9,0L625,344 M585.2,295.4
						c-1.1-0.6-1.1-1.6,0-2.2s2.8-0.6,3.9,0l23.5,13.6c1.1,0.6,1.1,1.6,0,2.2s-2.8,0.6-3.9,0L585.2,295.4 M633.5,323.2
						c-1.1-0.6-1.1-1.6,0-2.3c1.1-0.6,2.8-0.6,3.9,0l23.5,13.6c1.1,0.6,1.1,1.6,0,2.2s-2.8,0.6-3.9,0L633.5,323.2 M680,349
						c-1.1-0.6-1.1-1.6,0-2.2s2.8-0.6,3.9,0l23.5,13.6c1.1,0.6,1.1,1.6,0,2.2s-2.8,0.6-3.9,0L680,349 M606.9,296.4
						c-3.6-2.1-3.6-5.4,0-7.5s9.4-2.1,13,0s3.6,5.4,0,7.5C616.3,298.5,610.5,298.5,606.9,296.4 M655.1,324.2c-3.6-2.1-3.6-5.4,0-7.5
						s9.4-2.1,13,0s3.6,5.4,0,7.5C664.5,326.3,658.7,326.3,655.1,324.2 M701.6,350.1c-3.6-2.1-3.6-5.4,0-7.5s9.4-2.1,13,0
						s3.6,5.4,0,7.5S705.2,352.2,701.6,350.1 M622.7,269l45.3-26.3l127.8,73.8l-45.3,26.3L622.7,269 M809,313.7l-136.1-78.6
						c-2.6-1.5-6.8-1.5-9.4,0L483.2,339.8c-2.6,1.5-2.6,3.9,0,5.5l136.1,78.6c2.6,1.5,6.8,1.5,9.4,0L809,319.1
						C811.6,317.6,811.6,315.2,809,313.7"/>
					<polyline class="st4" points="795.8,316.5 668,242.7 622.7,269 750.5,342.8 795.8,316.5 					"/>
					<path class="st4" d="M619.8,288.9c-3.6-2.1-9.4-2.1-13,0s-3.5,5.4,0,7.5c3.6,2.1,9.4,2.1,13,0
						C623.4,294.3,623.4,291,619.8,288.9"/>
					<path class="st4" d="M612.6,306.7l-23.5-13.6c-1.1-0.6-2.8-0.6-3.9,0c-1.1,0.6-1.1,1.6,0,2.2l23.5,13.6c1.1,0.6,2.8,0.6,3.9,0
						C613.7,308.3,613.7,307.3,612.6,306.7"/>
					<path class="st4" d="M668,316.7c-3.6-2.1-9.4-2.1-13,0s-3.5,5.4,0,7.5c3.6,2.1,9.4,2.1,13,0C671.6,322.2,671.6,318.8,668,316.7
						"/>
					<path class="st4" d="M660.9,334.5L637.3,321c-1.1-0.6-2.8-0.6-3.9,0c-1.1,0.6-1.1,1.6,0,2.3l23.5,13.6c1.1,0.6,2.8,0.6,3.9,0
						C661.9,336.2,661.9,335.2,660.9,334.5"/>
					<path class="st4" d="M714.6,342.6c-3.6-2.1-9.4-2.1-13,0s-3.6,5.4,0,7.5s9.4,2.1,13,0C718.2,348,718.2,344.7,714.6,342.6"/>
					<path class="st4" d="M707.4,360.4l-23.5-13.6c-1.1-0.6-2.8-0.6-3.9,0c-1.1,0.6-1.1,1.6,0,2.2l23.5,13.6c1.1,0.6,2.8,0.6,3.9,0
						C708.5,362,708.5,361,707.4,360.4"/>
					<polyline class="st4" points="620.4,336.9 566.5,305.8 506.5,340.7 560.3,371.8 620.4,336.9 					"/>
					<path class="st4" d="M686.3,375l-57.5-33.2c-1.1-0.6-2.8-0.6-3.9,0c-1.1,0.6-1.1,1.6,0,2.3l57.5,33.2c1.1,0.6,2.8,0.6,3.9,0
						C687.4,376.6,687.4,375.6,686.3,375"/>
					<path class="st4" d="M677.3,380.2L619.8,347c-1.1-0.6-2.8-0.6-3.9,0c-1.1,0.6-1.1,1.6,0,2.3l57.5,33.2c1.1,0.6,2.8,0.6,3.9,0
						S678.4,380.8,677.3,380.2"/>
					<path class="st4" d="M668.3,385.4l-57.5-33.2c-1.1-0.6-2.8-0.6-3.9,0c-1.1,0.6-1.1,1.6,0,2.3l57.5,33.2c1.1,0.6,2.8,0.6,3.9,0
						C669.4,387.1,669.4,386.1,668.3,385.4"/>
					<path class="st4" d="M659.3,390.7l-57.5-33.2c-1.1-0.6-2.8-0.6-3.9,0c-1.1,0.6-1.1,1.6,0,2.3l57.5,33.2c1.1,0.6,2.8,0.6,3.9,0
						S660.4,391.3,659.3,390.7"/>
					<path class="st4" d="M650.3,395.9l-57.5-33.2c-1.1-0.6-2.8-0.6-3.9,0c-1.1,0.6-1.1,1.6,0,2.3l57.5,33.2c1.1,0.6,2.8,0.6,3.9,0
						C651.4,397.5,651.4,396.5,650.3,395.9"/>
					<path class="st4" d="M617.4,387.4l-34.1-19.7c-0.8-0.5-2.2-0.5-3,0l-0.9,0.5c-0.8,0.5-0.8,1.3,0,1.8l34.1,19.7
						c0.8,0.5,2.2,0.5,3,0l0.9-0.5C618.3,388.7,618.3,387.9,617.4,387.4"/>
				</g>
			</g>
		</g>
	</g>
	<polygon class="st5" points="135.9,183.6 36.9,240.7 42.6,210.6 61.4,218.8 64.9,193.7 86.9,205 91.7,179.5 111.1,191.1 
		114.2,171.7 	"/>
	<g class="st6">
		
			<linearGradient id="SVGID_1_" gradientUnits="userSpaceOnUse" x1="228.1873" y1="253.7323" x2="613.9377" y2="253.7323" gradientTransform="matrix(1 0 0 -1 0 612)">
			<stop  offset="0" style="stop-color:#000000"/>
			<stop  offset="1" style="stop-color:#000000;stop-opacity:0"/>
		</linearGradient>
		<path class="st7" d="M388.1,471.8l223.8-129.1c2.7-1.5,2.7-5.4,0.1-7l-150.4-90.9c-1.2-0.7-2.8-0.8-4-0.1L230.3,375.9
			c-2.8,1.5-2.8,5.5-0.1,7l153.9,88.8C385.3,472.5,386.9,472.5,388.1,471.8z"/>
	</g>
	
		<linearGradient id="SVGID_2_" gradientUnits="userSpaceOnUse" x1="369.1977" y1="2000.0306" x2="520.9669" y2="1734.4347" gradientTransform="matrix(1 0 0 1 0 -1596)">
		<stop  offset="0" style="stop-color:#C7D1E0"/>
		<stop  offset="1" style="stop-color:#B3CADE"/>
	</linearGradient>
	<path class="st8" d="M605.9,286.8v4.4L461.5,204c-1.2-0.7-2.8-0.8-4-0.1L233.6,332.6l-0.7-5.5l-4.7,0.1v11.4l0,0
		c0,1.4,0.7,2.7,2,3.5l153.9,88.8c1.2,0.7,2.8,0.7,4,0l223.8-129.1c1.3-0.8,2-2.1,2-3.5v-11.4L605.9,286.8z"/>
	
		<linearGradient id="SVGID_3_" gradientUnits="userSpaceOnUse" x1="228.2" y1="1913.4736" x2="613.9" y2="1913.4736" gradientTransform="matrix(1 0 0 1 0 -1596)">
		<stop  offset="0" style="stop-color:#9ABED8"/>
		<stop  offset="1" style="stop-color:#9ABED8;stop-opacity:0.7"/>
	</linearGradient>
	<path class="st9" d="M605.9,286.8v4.4L461.5,204c-1.2-0.7-2.8-0.8-4-0.1L237.3,328.3l-4.4-1.1l-4.7,0.1v11.4l0,0
		c0,1.4,0.7,2.7,2,3.5L384.1,431c1.2,0.7,2.8,0.7,4,0l223.8-129.1c1.3-0.8,2-2.1,2-3.5V287L605.9,286.8z"/>
	
		<linearGradient id="SVGID_4_" gradientUnits="userSpaceOnUse" x1="366.5562" y1="1927.4279" x2="559.3279" y2="1840.5278" gradientTransform="matrix(1 0 0 1 0 -1596)">
		<stop  offset="0" style="stop-color:#D7E6F2"/>
		<stop  offset="1" style="stop-color:#DEE2F3"/>
	</linearGradient>
	<path class="st10" d="M388.1,419.6l223.8-129.1c2.7-1.5,2.7-5.4,0.1-7l-150.4-90.9c-1.2-0.7-2.8-0.8-4-0.1L230.3,323.7
		c-2.8,1.5-2.8,5.5-0.1,7l153.9,88.8C385.3,420.3,386.9,420.3,388.1,419.6z"/>
	
		<linearGradient id="SVGID_5_" gradientUnits="userSpaceOnUse" x1="208.0057" y1="1742.4968" x2="501.3445" y2="1786.1508" gradientTransform="matrix(1 0 0 1 0 -1596)">
		<stop  offset="0" style="stop-color:#C7D1E0"/>
		<stop  offset="1" style="stop-color:#B3CADE"/>
	</linearGradient>
	<path class="st11" d="M457.2,12.2l-6.5-3.5l0,0c-1.2-0.6-2.6-0.6-3.9,0.1L223.4,141.6c-1.2,0.7-2,2-2,3.5V319
		c0,0.8,0.5,1.5,1.1,1.8l0,0l6.2,2.9l3.3-7.3L453,189V19.4l1.2,0.8L457.2,12.2z"/>
	
		<linearGradient id="SVGID_6_" gradientUnits="userSpaceOnUse" x1="221.4" y1="1761.9309" x2="457" y2="1761.9309" gradientTransform="matrix(1 0 0 1 0 -1596)">
		<stop  offset="0" style="stop-color:#9ABED8"/>
		<stop  offset="1" style="stop-color:#9ABED8;stop-opacity:0.7"/>
	</linearGradient>
	<path class="st12" d="M457,11.9l-6.2-3.2l0,0c-1.2-0.6-2.6-0.6-3.9,0.1L223.4,141.6c-1.2,0.7-2,2-2,3.5V319c0,0.8,0.5,1.5,1.1,1.8
		l0,0l7,2.8l2.5-7.2L453,189V19.4l1.2,0.8L457,11.9z"/>
	<path class="st13" d="M388.1,419.6l223.8-129.1c2.7-1.5,2.7-5.4,0.1-7l-150.4-90.9c-1.2-0.7-2.8-0.8-4-0.1L230.3,323.7
		c-2.8,1.5-2.8,5.5-0.1,7l153.9,88.8C385.3,420.3,386.9,420.3,388.1,419.6z"/>
	
		<linearGradient id="SVGID_7_" gradientUnits="userSpaceOnUse" x1="421.5751" y1="1943.7911" x2="529.4865" y2="1920.1281" gradientTransform="matrix(1 0 0 1 0 -1596)">
		<stop  offset="0" style="stop-color:#C7D1E0"/>
		<stop  offset="1" style="stop-color:#B3CADE"/>
	</linearGradient>
	<path class="st14" d="M513.2,333.8L459.8,365c-1.2,0.7-2.7,0.7-4,0l-31.7-17.6c-2.7-1.5-2.8-5.4-0.1-7l51.4-30
		c1.2-0.7,2.7-0.7,4-0.1l33.8,18.5C515.1,330,515.2,332.7,513.2,333.8z"/>
	
		<linearGradient id="SVGID_8_" gradientUnits="userSpaceOnUse" x1="362.5099" y1="1906.4634" x2="672.5769" y2="1798.7559" gradientTransform="matrix(1 0 0 1 0 -1596)">
		<stop  offset="0" style="stop-color:#C7D1E0"/>
		<stop  offset="1" style="stop-color:#B3CADE"/>
	</linearGradient>
	<path class="st15" d="M527.7,266.7L354,368.8c-1.3,0.7-2.8,0.7-4.1,0l-64.5-38.3c-2.6-1.6-2.6-5.4,0-6.9l173.5-102
		c1.3-0.7,2.8-0.7,4.1,0l64.8,38.2C530.4,261.3,530.4,265.1,527.7,266.7z"/>
	<path class="st16" d="M438.8,213L265,315.1c-1.3,0.7-2.8,0.7-4.1,0l-8.1-4.5c-2.6-1.6,1.6-3.1,4.3-4.7l173.5-102
		c1.3-0.7,2.8-0.7,4.1,0l4.2,2.1C441.5,207.6,441.5,211.5,438.8,213z"/>
	<path class="st16" d="M459.3,191.6L230.7,323.3c-1.3,0.8-3-0.2-3-1.7V147.7c0-1.4,0.7-2.7,2-3.5L453.2,11.4
		c2.7-1.6,6.1,0.3,6.1,3.5L459.3,191.6L459.3,191.6z"/>
	<path class="st17" d="M450.7,186.4L243.3,305.8c-1.2,0.7-2.7-0.2-2.7-1.6V153.9c0-1.4,0.8-2.7,2-3.5L445.3,30.2
		c2.4-1.4,5.4,0.3,5.4,3.1L450.7,186.4L450.7,186.4z"/>
	<path class="st18" d="M450.7,113.2l-210,121.3v-80.7c0-1.4,0.7-2.7,1.9-3.4L445.3,30.1c2.4-1.4,5.4,0.3,5.4,3.1L450.7,113.2
		L450.7,113.2z"/>
	<g>
		<g class="st19">
			<path d="M667.3,193.8C667.3,193.8,667.2,193.8,667.3,193.8c-0.1-0.1-0.2-0.1-0.3-0.1c-0.3-0.1-0.5-0.2-0.8-0.3
				c-0.1,0-0.1-0.1-0.2-0.1c-0.3-0.1-0.6-0.2-0.8-0.3c-0.1,0-0.1,0-0.2-0.1c-0.3-0.1-0.6-0.2-0.9-0.3H664c-0.3-0.1-0.6-0.2-1-0.3
				c0,0,0,0-0.1,0c-0.3-0.1-0.7-0.2-1-0.3l0,0c-0.4-0.1-0.7-0.2-1.1-0.3l0,0c-8.4-1.8-18.3-1-26,2.6c-21.7,10.2-26,24.2-26.9,29.3
				c-0.2,1.1,1.2,2.1,3.2,2.2c1.8,0.1,4.2,0.2,7.1,0.2c0.1,0,0.3,0,0.4,0c0.2,0,0.5,0,0.8,0c0.2,0,0.4,0,0.6,0c0.2,0,0.5,0,0.7,0
				s0.4,0,0.6,0c0.2,0,0.5,0,0.7,0s0.5,0,0.7,0s0.5,0,0.7,0c0.3,0,0.5,0,0.8,0c0.2,0,0.5,0,0.7,0c0.4,0,0.8,0,1.2-0.1
				c0.2,0,0.4,0,0.7,0c0.4,0,0.8,0,1.2-0.1c0.2,0,0.4,0,0.6,0c0.3,0,0.7,0,1-0.1c0.2,0,0.5,0,0.7-0.1c0.3,0,0.7-0.1,1-0.1
				c0.2,0,0.5,0,0.7-0.1c0.3,0,0.7-0.1,1-0.1c0.2,0,0.5,0,0.7-0.1c0.4,0,0.7-0.1,1.1-0.1c0.2,0,0.4-0.1,0.7-0.1
				c0.4-0.1,0.9-0.1,1.3-0.2c0.2,0,0.3,0,0.5-0.1c0.6-0.1,1.2-0.2,1.8-0.3c0.1,0,0.2,0,0.4-0.1c0.5-0.1,1-0.2,1.5-0.2
				c0.2,0,0.4-0.1,0.6-0.1c0.4-0.1,0.8-0.1,1.2-0.2c0.2,0,0.5-0.1,0.7-0.1c0.4-0.1,0.8-0.2,1.2-0.2c0.2,0,0.5-0.1,0.7-0.2
				c0.4-0.1,0.8-0.2,1.2-0.3c0.2-0.1,0.5-0.1,0.7-0.2c0.4-0.1,0.8-0.2,1.3-0.3c0.2-0.1,0.4-0.1,0.6-0.2c0.5-0.1,1.1-0.3,1.6-0.4
				c0.1,0,0.2-0.1,0.3-0.1c0.6-0.2,1.3-0.3,1.9-0.5c0.2,0,0.3-0.1,0.5-0.2c0.5-0.1,0.9-0.3,1.4-0.4c0.2-0.1,0.5-0.1,0.7-0.2
				c0.4-0.1,0.8-0.3,1.2-0.4c0.3-0.1,0.5-0.2,0.8-0.3c0.4-0.1,0.8-0.3,1.2-0.4c0.3-0.1,0.5-0.2,0.8-0.3c0.4-0.1,0.8-0.3,1.2-0.4
				c0.2-0.1,0.5-0.2,0.7-0.3c0.4-0.2,0.9-0.3,1.3-0.5c0.2-0.1,0.4-0.2,0.6-0.3c0.6-0.3,1.3-0.5,1.9-0.8c0.7-0.3,1.4-0.7,2.1-1
				c1.3-0.7,2.5-1.5,3.6-2.3c6.3-5.1,7.1-11.8,1.1-16.8"/>
		</g>
		<path class="st5" d="M657.5,128.5c-6.1,5.8-21.4,22.8-21.9,48.2c-0.3,13.9,10.6,25.8,24.5,25.8c13.4-0.1,24.2-11,24.2-24.4
			c0-26.1-15.7-43.7-21.9-49.5C661,127.2,658.8,127.2,657.5,128.5z"/>
		
			<linearGradient id="SVGID_9_" gradientUnits="userSpaceOnUse" x1="642.9648" y1="493.2631" x2="674.9648" y2="375.9298" gradientTransform="matrix(1 0 0 -1 0 612)">
			<stop  offset="0" style="stop-color:#000000"/>
			<stop  offset="1" style="stop-color:#000000;stop-opacity:0"/>
		</linearGradient>
		<path class="st20" d="M672.4,183.4c-13.9,0.1-24.8-11.8-24.5-25.8c0.2-9.7,2.6-18.1,5.7-25.2c-7.1,7.9-17.6,23.2-18.1,44.2
			c-0.3,13.9,10.6,25.8,24.5,25.8c12.6-0.1,23-9.7,24.1-22.1C680.7,182.2,676.7,183.4,672.4,183.4z"/>
	</g>
	<path class="st21" d="M406.6,196.7"/>
	<g class="st22">
		<path class="st23" d="M264.3,218.4l0.2,72.5c0,1.7,0.5,3.3,1.5,4.7l7.8,11.2c0.7,1,1.5,1.8,2.5,2.3l24.1,14.4
			c2.6,1.5,5.7,1.6,8.3,0.1L488.2,221c2.6-1.5,4.2-4.2,4.2-7.2v-124c0-6.3-6.9-10.3-12.4-7.1L273.6,202.1
			C267.8,205.5,264.3,211.7,264.3,218.4z"/>
	</g>
	<g>
		
			<linearGradient id="SVGID_10_" gradientUnits="userSpaceOnUse" x1="294.8" y1="1779.7" x2="496.8" y2="1779.7" gradientTransform="matrix(1 0 0 1 0 -1596)">
			<stop  offset="0" style="stop-color:#5fcece"/>
			<stop  offset="1" style="stop-color:#5fcece"/>
		</linearGradient>
		<path class="st24" d="M294.8,159.6v153.7c0,7.9,8.5,12.8,15.4,8.9l181.5-104.3c3.2-1.8,5.1-5.2,5.1-8.9V54.1
			c0-7.9-8.6-12.8-15.4-8.9L299.9,150.8C296.8,152.6,294.8,156,294.8,159.6z"/>
		<g class="st25">
			<path class="st17" d="M489.6,68.3c-1-0.6-2.1-0.6-3.1,0l-106,61.8c-1,0.6-1.5,1.6-1.5,2.7l0.8,70.3c0,1.1,0.6,2.1,1.6,2.7
				c0.5,0.3,1,0.4,1.5,0.4s1.1-0.1,1.5-0.4l105.2-60.6c1-0.6,1.5-1.6,1.5-2.7V71C491.2,69.9,490.6,68.9,489.6,68.3z M486.6,70.7
				l-51.1,65.9l-53.8-4.7L486.6,70.7z M383.2,204c-0.4,0.1-0.7,0-0.8-0.1c-0.1-0.1-0.5-0.3-0.5-0.8l-0.8-69.1l52.8,4.6L383.2,204z
				 M388,201.3l48.4-62.4l52,4.5L388,201.3z M489.1,141.3l-51.1-4.5L489.1,71l0,0V141.3z"/>
		</g>
		<g class="st25">
			<path class="st17" d="M307.8,173.1v7.3c0,1,1.1,1.7,2,1.2l61.3-34.7c0.4-0.2,0.7-0.7,0.7-1.2v-8c0-1-1.1-1.7-2-1.2L308.4,172
				C308,172.2,307.8,172.6,307.8,173.1z"/>
		</g>
		<g class="st25">
			<path class="st17" d="M307.8,193.5v7.3c0,1,1.1,1.7,2,1.2l61.3-34.7c0.4-0.2,0.7-0.7,0.7-1.2v-8c0-1-1.1-1.7-2-1.2l-61.3,35.4
				C308,192.6,307.8,193,307.8,193.5z"/>
		</g>
		<g class="st25">
			<path class="st17" d="M307.8,213.9v7.3c0,1,1.1,1.7,2,1.2l61.3-34.7c0.4-0.2,0.7-0.7,0.7-1.2v-8c0-1-1.1-1.7-2-1.2l-61.3,35.4
				C308,213,307.8,213.5,307.8,213.9z"/>
		</g>
		<g class="st25">
			<path class="st17" d="M307.8,234.1v8.2c0,0.7,0.8,1.2,1.4,0.8l27-15.2c0.3-0.2,0.5-0.5,0.5-0.8v-8.9c0-0.8-0.8-1.2-1.5-0.8
				l-27,15.9C307.9,233.5,307.8,233.8,307.8,234.1z"/>
		</g>
	</g>
	<g class="st25">
		<g class="st0">
			<g>
				<path class="st17" d="M348.8,250.9c-6.4,3.7-11.5,12.6-11.5,19.9s5.2,10.3,11.6,6.6c6.4-3.7,11.5-12.6,11.5-19.9
					C360.3,250.2,355.1,247.2,348.8,250.9"/>
			</g>
		</g>
	</g>
	<g class="st25">
		<g class="st0">
			<g>
				<path class="st17" d="M392.8,226.7c-6.4,3.7-11.5,12.6-11.5,19.9c0,7.3,5.2,10.3,11.6,6.6s11.5-12.6,11.5-19.9
					C404.4,226,399.2,223.1,392.8,226.7"/>
			</g>
		</g>
	</g>
	<g class="st22">
		<path d="M346.4,171.1v129.8l150.5-84.8V78.3L352.4,161C348.7,163,346.4,166.9,346.4,171.1z"/>
	</g>
	<g class="st26">
		<g class="st0">
			<g>
				<path class="st27" d="M429.5,204.1c-6.4,3.7-11.5,12.6-11.5,19.9c0,7.3,5.2,10.3,11.6,6.6s11.5-12.6,11.5-19.9
					C441.1,203.4,435.9,200.4,429.5,204.1"/>
			</g>
		</g>
	</g>
	<g class="st26">
		<g class="st0">
			<g>
				<path class="st27" d="M465.5,183.6c-6.4,3.7-11.5,12.6-11.5,19.9c0,7.3,5.2,10.3,11.6,6.6s11.5-12.6,11.5-19.9
					C477,182.8,471.9,179.9,465.5,183.6"/>
			</g>
		</g>
	</g>
	<g>
		<path class="st1" d="M389.7,174.5v157.3c0,7.5,8.1,12.2,14.6,8.4l185.3-106.5c3-1.7,4.9-5,4.9-8.4V66.8c0-7.5-8.1-12.2-14.6-8.4
			L394.6,166.1C391.6,167.9,389.8,171.1,389.7,174.5z"/>
		<path class="st28" d="M587.2,82.4c-1-0.6-2.2-0.6-3.1,0l-107.4,62.7c-1,0.6-1.6,1.6-1.6,2.7l0.8,71.2c0,1.1,0.6,2.1,1.6,2.7
			c0.5,0.3,1,0.4,1.6,0.4c0.5,0,1.1-0.1,1.6-0.4l106.6-61.5c1-0.6,1.6-1.6,1.6-2.7V85.1C588.8,84,588.2,83,587.2,82.4z"/>
		<path class="st29" d="M602.4,86.2c-1-0.6-2.2-0.6-3.1,0l-107.4,62.7c-1,0.6-1.6,1.6-1.6,2.7l0.8,71.2c0,1.1,0.6,2.1,1.6,2.7
			c0.5,0.3,1,0.4,1.6,0.4c0.5,0,1.1-0.1,1.6-0.4L602.5,164c1-0.6,1.6-1.6,1.6-2.7V88.9C603.9,87.8,603.4,86.8,602.4,86.2z"/>
		<g class="st30">
			<g class="st0">
				<g>
					<path class="st16" d="M544.4,212.7c-1.5,0.9-2.7,2.9-2.7,4.6c0,1.7,1.2,2.4,2.7,1.5s2.7-2.9,2.7-4.6
						C547.1,212.5,545.9,211.8,544.4,212.7"/>
				</g>
			</g>
		</g>
		<g class="st31">
			<g class="st0">
				<g>
					
						<linearGradient id="SVGID_11_" gradientUnits="userSpaceOnUse" x1="552" y1="1806.15" x2="557.3717" y2="1806.15" gradientTransform="matrix(1 0 0 1 0 -1596)">
						<stop  offset="0" style="stop-color:#9ABED8"/>
						<stop  offset="1" style="stop-color:#9ABED8;stop-opacity:0.7"/>
					</linearGradient>
					<path class="st32" d="M554.7,207.1c-1.5,0.9-2.7,2.9-2.7,4.6c0,1.7,1.2,2.4,2.7,1.5s2.7-2.9,2.7-4.6S556.2,206.2,554.7,207.1"
						/>
				</g>
			</g>
		</g>
		<g class="st31">
			<g class="st0">
				<g>
					
						<linearGradient id="SVGID_12_" gradientUnits="userSpaceOnUse" x1="560.524" y1="1800.85" x2="565.8958" y2="1800.85" gradientTransform="matrix(1 0 0 1 0 -1596)">
						<stop  offset="0" style="stop-color:#9ABED8"/>
						<stop  offset="1" style="stop-color:#9ABED8;stop-opacity:0.7"/>
					</linearGradient>
					<path class="st33" d="M563.2,201.8c-1.5,0.9-2.7,2.9-2.7,4.6c0,1.7,1.2,2.4,2.7,1.5s2.7-2.9,2.7-4.6
						C565.9,201.6,564.7,200.9,563.2,201.8"/>
				</g>
			</g>
		</g>
		<g class="st31">
			<g class="st0">
				<g>
					
						<linearGradient id="SVGID_13_" gradientUnits="userSpaceOnUse" x1="568.9" y1="1796.0809" x2="574.2717" y2="1796.0809" gradientTransform="matrix(1 0 0 1 0 -1596)">
						<stop  offset="0" style="stop-color:#9ABED8"/>
						<stop  offset="1" style="stop-color:#9ABED8;stop-opacity:0.7"/>
					</linearGradient>
					<path class="st34" d="M571.6,197c-1.5,0.9-2.7,2.9-2.7,4.6s1.2,2.4,2.7,1.5s2.7-2.9,2.7-4.6C574.3,196.9,573.1,196.2,571.6,197
						"/>
				</g>
			</g>
		</g>
	</g>
	<g>
		<path class="st35" d="M460,221.2l-53,30.6c-1.5,0.9-2.5,2.5-2.5,4.3v55.1c0,3.8,4.2,6.3,7.5,4.3l53-30.6c1.5-0.9,2.5-2.5,2.5-4.3
			v-55.1C467.5,221.7,463.3,219.3,460,221.2z"/>
		<path class="st17" d="M426,256.2l-8.4,4.9c-0.2,0.1-0.4,0.4-0.4,0.7v8.8c0,0.6,0.7,1,1.2,0.7l8.4-4.9c0.2-0.1,0.4-0.4,0.4-0.7
			v-8.8C427.2,256.2,426.6,255.9,426,256.2z"/>
		<g class="st36">
			<path class="st37" d="M465,284.9c1.5-0.9,2.5-2.5,2.5-4.3v-28.7l-21,12.1c-1.4,0.8-2.2,2.2-2.2,3.8v29.1L465,284.9z"/>
		</g>
		
			<linearGradient id="SVGID_14_" gradientUnits="userSpaceOnUse" x1="455.7" y1="1871.8" x2="499.5" y2="1871.8" gradientTransform="matrix(1 0 0 1 0 -1596)">
			<stop  offset="0" style="stop-color:#5fcece"/>
			<stop  offset="1" style="stop-color:#5fcece"/>
		</linearGradient>
		<path class="st38" d="M492.9,243.8l-35,20.2c-1.4,0.8-2.2,2.2-2.2,3.8V304c0,3.4,3.7,5.5,6.6,3.8l35-20.2c1.4-0.8,2.2-2.2,2.2-3.8
			v-36.2C499.5,244.2,495.8,242.1,492.9,243.8z"/>
	</g>
	<g>
		
			<linearGradient id="SVGID_15_" gradientUnits="userSpaceOnUse" x1="405.0962" y1="1772.7981" x2="469.0039" y2="1772.7981" gradientTransform="matrix(1 0 0 1 0 -1596)">
			<stop  offset="0" style="stop-color:#D7E6F2"/>
			<stop  offset="1" style="stop-color:#DEE2F3"/>
		</linearGradient>
		<path class="st39" d="M406.6,196.2c-0.5,0-1-0.3-1.3-0.7c-0.4-0.7-0.2-1.6,0.5-2.1l60.9-35.8c0.7-0.4,1.6-0.2,2.1,0.5
			c0.4,0.7,0.2,1.6-0.5,2.1l-61,35.8C407.1,196.1,406.8,196.2,406.6,196.2z"/>
	</g>
	<g>
		
			<linearGradient id="SVGID_16_" gradientUnits="userSpaceOnUse" x1="405.0962" y1="1785.998" x2="469.0039" y2="1785.998" gradientTransform="matrix(1 0 0 1 0 -1596)">
			<stop  offset="0" style="stop-color:#D7E6F2"/>
			<stop  offset="1" style="stop-color:#DEE2F3"/>
		</linearGradient>
		<path class="st40" d="M406.6,209.4c-0.5,0-1-0.3-1.3-0.7c-0.4-0.7-0.2-1.6,0.5-2.1l60.9-35.8c0.7-0.4,1.6-0.2,2.1,0.5
			c0.4,0.7,0.2,1.6-0.5,2.1l-60.9,35.8C407.1,209.4,406.8,209.4,406.6,209.4z"/>
	</g>
	<g>
		
			<linearGradient id="SVGID_17_" gradientUnits="userSpaceOnUse" x1="405.0962" y1="1799.2981" x2="469.0039" y2="1799.2981" gradientTransform="matrix(1 0 0 1 0 -1596)">
			<stop  offset="0" style="stop-color:#D7E6F2"/>
			<stop  offset="1" style="stop-color:#DEE2F3"/>
		</linearGradient>
		<path class="st41" d="M406.6,222.7c-0.5,0-1-0.3-1.3-0.7c-0.4-0.7-0.2-1.6,0.5-2.1l60.9-35.8c0.7-0.4,1.6-0.2,2.1,0.5
			c0.4,0.7,0.2,1.6-0.5,2.1l-60.9,35.8C407.1,222.6,406.8,222.7,406.6,222.7z"/>
	</g>
	<g>
		
			<linearGradient id="SVGID_18_" gradientUnits="userSpaceOnUse" x1="405.0529" y1="1820.6481" x2="441.3051" y2="1820.6481" gradientTransform="matrix(1 0 0 1 0 -1596)">
			<stop  offset="0" style="stop-color:#D7E6F2"/>
			<stop  offset="1" style="stop-color:#DEE2F3"/>
		</linearGradient>
		<path class="st42" d="M406.6,235.9c-0.5,0-1-0.3-1.3-0.7c-0.4-0.7-0.2-1.6,0.5-2.1l33.2-19.5c0.7-0.4,1.6-0.2,2.1,0.5
			s0.2,1.6-0.5,2.1l-33.2,19.5C407.1,235.9,406.8,235.9,406.6,235.9z"/>
	</g>
	<g>
		<g class="st0">
			<g>
				<g>
					<path class="st5" d="M547.3,165.3c-4.5,2.6-8.9,7.1-12.4,13l-6.3,10.8l-2.6-1.5c-2.7-1.5-6.2-1-9.7,1c-3.4,2-6.9,5.5-9.5,10
						l-11,18.8c-0.4,0.7-0.1,1.3,0.4,1l22.9-13.2l18.6-10.7l35.8-20.7c0.6-0.3,0.8-1.2,0.4-1.5l-14.3-8.1
						C556.4,162.1,551.8,162.7,547.3,165.3"/>
				</g>
			</g>
		</g>
	</g>
	<g>
		<g class="st0">
			<g>
				<path class="st18" d="M583.1,109c-6.4,3.7-11.5,12.6-11.5,19.9c0,7.3,5.2,10.3,11.6,6.6c6.4-3.7,11.5-12.6,11.5-19.9
					C594.6,108.2,589.5,105.3,583.1,109"/>
			</g>
		</g>
	</g>
	<g>
		<g class="st0">
			<g>
				<g>
					<path class="st1" d="M277.6,493.5L253,507.7c-1.1,0.6-3,0.7-4.1,0c-1.1-0.6-1.1-1.7,0-2.4l24.6-14.2c1.1-0.7,3-0.7,4.1,0
						C278.7,491.8,278.7,492.9,277.6,493.5 M227.1,522.7l-24.7,14.2c-1.1,0.6-2.9,0.6-4.1,0c-1.1-0.6-1.1-1.7,0-2.4l24.7-14.2
						c1.1-0.6,2.9-0.6,4.1,0C228.2,521,228.2,522,227.1,522.7 M324.4,465.4l-24.7,14.2c-1.1,0.6-2.9,0.6-4.1,0
						c-1.1-0.7-1.1-1.7,0-2.4l24.7-14.2c1.1-0.6,2.9-0.6,4.1,0C325.6,463.7,325.6,464.7,324.4,465.4 M254.9,494.6
						c-3.8,2.2-9.8,2.2-13.6,0c-3.7-2.2-3.7-5.7,0-7.9s9.8-2.2,13.6,0C258.7,488.9,258.6,492.4,254.9,494.6 M204.4,523.8
						c-3.8,2.2-9.8,2.2-13.6,0c-3.7-2.2-3.7-5.7,0.1-7.9s9.8-2.2,13.6,0C208.2,518.1,208.1,521.6,204.4,523.8 M301.8,466.5
						c-3.8,2.2-9.8,2.2-13.6,0s-3.7-5.7,0-7.9c3.8-2.2,9.8-2.2,13.6,0C305.5,460.8,305.5,464.3,301.8,466.5 M242.4,454.2l-35.7,20.6
						c-0.9,0.5-2.3,0.5-3.2,0l-0.9-0.5c-0.9-0.5-0.9-1.3,0-1.8l35.7-20.6c0.9-0.5,2.3-0.5,3.2,0l0.9,0.5
						C243.2,452.9,243.2,453.7,242.4,454.2 M257.9,434.3l-60.2,34.8c-1.1,0.6-3,0.7-4.1,0s-1.1-1.7,0-2.4l60.2-34.8
						c1.1-0.7,3-0.7,4.1,0S259,433.7,257.9,434.3 M248.4,428.8l-60.2,34.8c-1.1,0.6-3,0.6-4.1,0s-1.1-1.7,0-2.4l60.2-34.8
						c1.1-0.7,3-0.6,4.1,0C249.6,427.1,249.6,428.2,248.4,428.8 M239,423.4l-60.2,34.8c-1.1,0.6-3,0.7-4.1,0c-1.1-0.6-1.1-1.7,0-2.4
						L235,421c1.1-0.7,3-0.7,4.1,0C240.1,421.6,240.1,422.7,239,423.4 M229.6,417.9l-60.2,34.8c-1.1,0.6-3,0.7-4.1,0s-1.1-1.7,0-2.4
						l60.2-34.8c1.1-0.7,3-0.7,4.1,0C230.7,416.2,230.7,417.2,229.6,417.9 M220.1,412.4L160,447.1c-1.1,0.6-3,0.6-4.1,0
						s-1.1-1.7,0-2.4l60.2-34.8c1.1-0.7,3-0.6,4.1,0C221.3,410.7,221.3,411.7,220.1,412.4 M209.9,486.4L153.5,519l-62.9-36.5
						l56.4-32.6L209.9,486.4 M209.4,396.5L75.5,473.8l-47.4-27.5L162,369L209.4,396.5 M14.3,443.3c-2.7,1.6-2.7,4.1,0,5.7L203,558.6
						c2.7,1.6,7.1,1.6,9.9,0l142.5-82.3c2.7-1.6,2.7-4.1,0-5.7L166.7,361c-2.7-1.6-7.1-1.6-9.9,0L14.3,443.3"/>
					<polyline class="st4" points="28.1,446.2 162,369 209.4,396.5 75.5,473.8 28.1,446.2 					"/>
					<path class="st4" d="M190.9,515.9c3.8-2.2,9.8-2.2,13.6,0c3.7,2.2,3.7,5.7,0,7.9c-3.8,2.2-9.8,2.2-13.6,0
						C187.1,521.6,187.1,518.1,190.9,515.9"/>
					<path class="st4" d="M198.4,534.5l24.7-14.2c1.1-0.6,2.9-0.6,4.1,0c1.1,0.6,1.1,1.7,0,2.4l-24.7,14.2c-1.1,0.6-2.9,0.6-4.1,0
						C197.2,536.3,197.2,535.2,198.4,534.5"/>
					<path class="st4" d="M241.4,486.8c3.8-2.2,9.8-2.2,13.6,0c3.7,2.2,3.7,5.7,0,7.9c-3.8,2.2-9.8,2.2-13.6,0
						C237.6,492.4,237.6,488.9,241.4,486.8"/>
					<path class="st4" d="M248.9,505.4l24.6-14.2c1.1-0.7,3-0.7,4.1,0c1.1,0.6,1.1,1.7,0,2.4L253,507.8c-1.1,0.6-3,0.7-4.1,0
						C247.7,507.1,247.8,506,248.9,505.4"/>
					<path class="st4" d="M288.2,458.6c3.8-2.2,9.8-2.2,13.6,0c3.7,2.2,3.7,5.7,0,7.9s-9.8,2.2-13.6,0S284.5,460.8,288.2,458.6"/>
					<path class="st4" d="M295.7,477.3l24.7-14.2c1.1-0.6,2.9-0.6,4.1,0c1.1,0.6,1.1,1.7,0,2.4l-24.7,14.2c-1.1,0.6-2.9,0.6-4.1,0
						C294.6,479,294.6,477.9,295.7,477.3"/>
					<polyline class="st4" points="90.7,482.5 147,449.9 209.9,486.4 153.5,519 90.7,482.5 					"/>
					<path class="st4" d="M155.9,444.8l60.2-34.8c1.1-0.7,3-0.6,4.1,0s1.1,1.7,0,2.4L160,447.1c-1.1,0.6-3,0.6-4.1,0
						C154.8,446.5,154.8,445.4,155.9,444.8"/>
					<path class="st4" d="M165.3,450.3l60.2-34.8c1.1-0.7,3-0.7,4.1,0c1.1,0.6,1.1,1.7,0,2.4l-60.2,34.8c-1.1,0.6-3,0.7-4.1,0
						C164.2,452,164.2,450.9,165.3,450.3"/>
					<path class="st4" d="M174.8,455.8L235,421c1.1-0.7,3-0.7,4.1,0s1.1,1.7,0,2.4l-60.2,34.8c-1.1,0.6-3,0.7-4.1,0
						C173.6,457.5,173.6,456.4,174.8,455.8"/>
					<path class="st4" d="M184.2,461.2l60.2-34.8c1.1-0.7,3-0.6,4.1,0s1.1,1.7,0,2.4l-60.2,34.8c-1.1,0.6-3,0.6-4.1,0
						C183.1,462.9,183.1,461.9,184.2,461.2"/>
					<path class="st4" d="M193.6,466.7l60.2-34.8c1.1-0.7,3-0.7,4.1,0c1.1,0.6,1.1,1.7,0,2.4l-60.2,34.8c-1.1,0.6-3,0.7-4.1,0
						C192.5,468.4,192.5,467.4,193.6,466.7"/>
					<path class="st4" d="M202.6,472.5l35.7-20.6c0.9-0.5,2.3-0.5,3.2,0l0.9,0.5c0.9,0.5,0.9,1.3,0,1.8l-35.7,20.6
						c-0.9,0.5-2.3,0.5-3.2,0l-0.9-0.5C201.7,473.8,201.7,473,202.6,472.5"/>
				</g>
			</g>
		</g>
	</g>
	<g>
		<g class="st0">
			<g>
				<g>
					<path class="st1" d="M388.1,531.3c-6.5-3.8-6.6-9.9-0.1-13.7l157.3-91.4c6.5-3.8,17.2-3.8,23.7,0l77.6,44.8
						c6.5,3.8,6.6,9.9,0.1,13.7l-12.4,7.2l0,0L508.6,565l0,0l-19.2,11.1c-6.5,3.8-17.2,3.8-23.7,0L388.1,531.3 M690.6,479.5
						l-140.3-81c-4.3-2.5-11.3-2.5-15.6,0l-187.6,109c-4.3,2.5-4.3,6.5,0.1,9l140.3,81c4.3,2.5,11.3,2.5,15.6,0l187.6-109
						C695,486,694.9,482,690.6,479.5"/>
					<path class="st2" d="M438.3,547.5c-3.1-1.8-3.1-4.7,0-6.4c3.1-1.8,8-1.8,11.1,0s3.1,4.7,0,6.4
						C446.3,549.3,441.3,549.3,438.3,547.5 M576,449.2c-1.3-0.7-1.3-1.9,0-2.7c1.3-0.7,3.4-0.7,4.6,0l36.5,21.1
						c1.3,0.7,1.3,1.9,0,2.7c-1.3,0.7-3.4,0.7-4.6,0L576,449.2 M646.7,471L569,426.2c-6.5-3.8-17.2-3.8-23.7,0L388,517.6
						c-6.5,3.8-6.5,10,0.1,13.7l77.6,44.8c6.5,3.8,17.2,3.8,23.7,0l19.2-11.1l-101.4-58.5l125.7-73.1l101.4,58.5l12.4-7.2
						C653.3,481,653.2,474.8,646.7,471"/>
					<path class="st3" d="M474.6,517.7c-0.8-0.5-0.8-1.2,0-1.7l0.7-0.4c0.8-0.5,2.2-0.5,3,0l29.1,16.8c0.8,0.5,0.8,1.2,0,1.7
						l-0.7,0.4c-0.8,0.5-2.1,0.5-3,0L474.6,517.7 M483.5,512.9c-1-0.6-1-1.5,0-2.1s2.7-0.6,3.7,0l45,26c1,0.6,1,1.5,0,2.1
						s-2.6,0.6-3.7,0L483.5,512.9 M447.7,506.3c-5-2.9-5-7.6-0.1-10.5l6.3-3.7c5-2.9,13.2-2.9,18.2,0l6.3,3.7c5,2.9,5,7.6,0.1,10.5
						l-6.3,3.7c-5,2.9-13.2,2.9-18.2,0L447.7,506.3 M492.1,507.9c-1-0.6-1-1.5,0-2.1s2.6-0.6,3.7,0l45,26c1,0.6,1,1.5,0,2.1
						s-2.7,0.6-3.7,0L492.1,507.9 M508.8,497.8c-0.8-0.5-0.8-1.2,0-1.7l0.7-0.4c0.8-0.5,2.2-0.5,3,0l29.1,16.8
						c0.8,0.5,0.8,1.2,0,1.7l-0.7,0.4c-0.8,0.5-2.2,0.5-3,0L508.8,497.8 M517.7,493c-1-0.6-1-1.5,0-2.1s2.7-0.6,3.7,0l45,26
						c1,0.6,1,1.5,0,2.1s-2.6,0.6-3.7,0L517.7,493 M481.9,486.5c-5-2.9-5-7.6-0.1-10.5l6.3-3.7c5-2.9,13.2-2.9,18.2,0l6.3,3.7
						c5,2.9,5,7.6,0.1,10.5l-6.3,3.7c-5,2.9-13.2,2.9-18.2,0L481.9,486.5 M526.3,488.1c-1-0.6-1-1.5,0-2.1s2.7-0.6,3.7,0l45,26
						c1,0.6,1,1.5,0,2.1s-2.6,0.6-3.7,0L526.3,488.1 M543,477.9c-0.8-0.5-0.8-1.2,0-1.7l0.7-0.4c0.8-0.5,2.2-0.5,3,0l29.1,16.8
						c0.8,0.5,0.8,1.2,0,1.7l-0.7,0.4c-0.8,0.5-2.1,0.5-3,0L543,477.9 M551.9,473.2c-1-0.6-1-1.5,0-2.1s2.6-0.6,3.7,0l45,26
						c1,0.6,1,1.5,0,2.1s-2.7,0.6-3.7,0L551.9,473.2 M516,466.6c-5-2.9-5-7.6-0.1-10.5l6.3-3.7c5-2.9,13.2-2.9,18.2,0l6.3,3.7
						c5,2.9,5,7.6,0.1,10.5l-6.3,3.7c-5,2.9-13.2,2.9-18.2,0L516,466.6 M560.5,468.2c-1-0.6-1-1.5,0-2.1s2.7-0.6,3.7,0l45,26
						c1,0.6,1,1.5,0,2.1s-2.6,0.6-3.7,0L560.5,468.2 M634.4,492L634.4,492L533,433.4l-125.7,73.1L508.6,565l0,0L634.4,492"/>
					<path class="st3" d="M617.2,467.6l-36.5-21.1c-1.3-0.7-3.4-0.7-4.6,0c-1.3,0.7-1.3,1.9,0,2.7l36.5,21.1c1.3,0.7,3.4,0.7,4.6,0
						C618.5,469.6,618.5,468.4,617.2,467.6"/>
					<path class="st3" d="M449.3,541.1c-3.1-1.8-8-1.8-11.1,0s-3,4.7,0,6.4c3.1,1.8,8,1.8,11.1,0
						C452.4,545.8,452.4,542.9,449.3,541.1"/>
					<path class="st1" d="M546.8,456.1l-6.3-3.7c-5-2.9-13.2-2.9-18.2,0l-6.3,3.7c-5,2.9-5,7.6,0.1,10.5l6.3,3.7
						c5,2.9,13.2,2.9,18.2,0l6.3-3.7C551.9,463.7,551.8,459,546.8,456.1"/>
					<path class="st2" d="M609.1,492l-45-26c-1-0.6-2.7-0.6-3.7,0s-1,1.5,0,2.1l45,26c1,0.6,2.7,0.6,3.7,0S610.1,492.6,609.1,492"/>
					<path class="st2" d="M600.5,497l-45-26c-1-0.6-2.6-0.6-3.7,0c-1,0.6-1,1.5,0,2.1l45,26c1,0.6,2.7,0.6,3.7,0
						C601.5,498.6,601.5,497.6,600.5,497"/>
					<path class="st2" d="M575.8,492.6l-29.1-16.8c-0.8-0.5-2.2-0.5-3,0l-0.7,0.4c-0.8,0.5-0.8,1.2,0,1.7l29.1,16.8
						c0.8,0.5,2.2,0.5,3,0l0.7-0.4C576.6,493.9,576.6,493.1,575.8,492.6"/>
					<path class="st1" d="M512.6,475.9l-6.3-3.7c-5-2.9-13.2-2.9-18.2,0l-6.3,3.7c-5,2.9-5,7.6,0.1,10.5l6.3,3.7
						c5,2.9,13.2,2.9,18.2,0l6.3-3.7C517.7,483.6,517.6,478.8,512.6,475.9"/>
					<path class="st2" d="M574.9,511.9l-45-26c-1-0.6-2.6-0.6-3.7,0c-1,0.6-1,1.5,0,2.1l45,26c1,0.6,2.7,0.6,3.7,0
						S575.9,512.5,574.9,511.9"/>
					<path class="st2" d="M566.3,516.9l-45-26c-1-0.6-2.7-0.6-3.7,0s-1,1.5,0,2.1l45,26c1,0.6,2.7,0.6,3.7,0
						C567.4,518.4,567.4,517.5,566.3,516.9"/>
					<path class="st2" d="M541.6,512.5l-29.1-16.8c-0.8-0.5-2.2-0.5-3,0l-0.7,0.4c-0.8,0.5-0.8,1.3,0,1.7l29.1,16.8
						c0.8,0.5,2.2,0.5,3,0l0.7-0.4C542.4,513.8,542.4,513,541.6,512.5"/>
					<path class="st1" d="M478.4,495.8l-6.3-3.7c-5-2.9-13.2-2.9-18.2,0l-6.3,3.7c-5,2.9-5,7.6,0.1,10.5l6.3,3.7
						c5,2.9,13.2,2.9,18.2,0l6.3-3.7C483.5,503.5,483.5,498.7,478.4,495.8"/>
					<path class="st2" d="M540.7,531.8l-45-26c-1-0.6-2.6-0.6-3.7,0c-1,0.6-1,1.5,0,2.1l45,26c1,0.6,2.7,0.6,3.7,0
						C541.7,533.3,541.7,532.4,540.7,531.8"/>
					<path class="st2" d="M532.2,536.7l-45-26c-1-0.6-2.6-0.6-3.7,0c-1,0.6-1,1.5,0,2.1l45,26c1,0.6,2.7,0.6,3.7,0
						C533.2,538.3,533.2,537.3,532.2,536.7"/>
					<path class="st2" d="M507.4,532.4l-29.1-16.8c-0.8-0.5-2.2-0.5-3,0l-0.7,0.4c-0.8,0.5-0.8,1.2,0,1.7l29.1,16.8
						c0.8,0.5,2.2,0.5,3,0l0.7-0.4C508.2,533.6,508.2,532.9,507.4,532.4"/>
				</g>
			</g>
		</g>
	</g>
	<g>
		<g class="st19">
			<path d="M77.9,423.1C78,423.1,78,423.1,77.9,423.1c0.2-0.1,0.3-0.1,0.3-0.1c0.3-0.1,0.6-0.3,0.9-0.4c0.1,0,0.2-0.1,0.2-0.1
				c0.3-0.1,0.6-0.2,0.9-0.4c0.1,0,0.1,0,0.2-0.1c0.3-0.1,0.7-0.2,1-0.3h0.1c0.4-0.1,0.7-0.2,1.1-0.3h0.1c0.4-0.1,0.8-0.2,1.2-0.3
				l0,0c0.4-0.1,0.8-0.2,1.3-0.3l0,0c9.5-2,20.9-1.1,29.6,3c24.7,11.6,29.6,27.5,30.6,33.3c0.2,1.3-1.4,2.4-3.6,2.5
				c-2,0.1-4.8,0.2-8.1,0.2c-0.2,0-0.3,0-0.5,0c-0.3,0-0.6,0-0.9,0c-0.2,0-0.4,0-0.6,0c-0.3,0-0.6,0-0.8,0s-0.5,0-0.7,0
				c-0.3,0-0.6,0-0.9,0c-0.3,0-0.5,0-0.8,0s-0.6,0-0.8,0c-0.3,0-0.6,0-0.9,0s-0.5,0-0.8,0c-0.5,0-0.9,0-1.4-0.1c-0.3,0-0.5,0-0.8,0
				c-0.4,0-0.9-0.1-1.3-0.1c-0.2,0-0.5,0-0.7-0.1c-0.4,0-0.8-0.1-1.1-0.1c-0.3,0-0.5,0-0.8-0.1c-0.4,0-0.7-0.1-1.1-0.1
				c-0.3,0-0.5-0.1-0.8-0.1c-0.4,0-0.8-0.1-1.2-0.1c-0.3,0-0.5-0.1-0.8-0.1c-0.4,0-0.8-0.1-1.2-0.1c-0.3,0-0.5-0.1-0.8-0.1
				c-0.5-0.1-1-0.1-1.5-0.2c-0.2,0-0.4,0-0.5-0.1c-0.7-0.1-1.4-0.2-2.1-0.3c-0.1,0-0.3,0-0.4-0.1c-0.6-0.1-1.1-0.2-1.7-0.3
				c-0.2,0-0.5-0.1-0.7-0.1c-0.5-0.1-0.9-0.2-1.4-0.2c-0.3-0.1-0.5-0.1-0.8-0.2c-0.4-0.1-0.9-0.2-1.3-0.3c-0.3-0.1-0.6-0.1-0.8-0.2
				c-0.5-0.1-0.9-0.2-1.4-0.3c-0.3-0.1-0.5-0.1-0.8-0.2c-0.5-0.1-1-0.2-1.4-0.3c-0.2-0.1-0.5-0.1-0.7-0.2c-0.6-0.2-1.2-0.3-1.8-0.5
				c-0.1,0-0.2-0.1-0.3-0.1c-0.7-0.2-1.5-0.4-2.2-0.6c-0.2-0.1-0.4-0.1-0.6-0.2c-0.5-0.2-1.1-0.3-1.6-0.5c-0.3-0.1-0.5-0.2-0.8-0.3
				c-0.5-0.1-0.9-0.3-1.4-0.5c-0.3-0.1-0.6-0.2-0.9-0.3c-0.5-0.2-0.9-0.3-1.4-0.5c-0.3-0.1-0.6-0.2-0.9-0.3
				c-0.5-0.2-0.9-0.3-1.4-0.5c-0.3-0.1-0.6-0.2-0.8-0.3c-0.5-0.2-1-0.4-1.5-0.6c-0.2-0.1-0.5-0.2-0.7-0.3c-0.7-0.3-1.4-0.6-2.2-0.9
				c-0.8-0.4-1.6-0.8-2.4-1.2c-1.5-0.8-2.9-1.7-4.1-2.7c-7.2-5.8-8.1-13.4-1.2-19.1"/>
		</g>
		<path class="st5" d="M89.1,348.7c6.9,6.6,24.3,25.9,25,54.8c0.3,15.9-12,29.4-27.9,29.3c-15.3-0.1-27.6-12.5-27.6-27.8
			c0-29.8,17.9-49.7,25-56.4C85.1,347.2,87.6,347.2,89.1,348.7z"/>
		
			<linearGradient id="SVGID_19_" gradientUnits="userSpaceOnUse" x1="476.6915" y1="2077.1453" x2="510.0249" y2="1866.4786" gradientTransform="matrix(-1 0 0 1 575.3647 -1596)">
			<stop  offset="0" style="stop-color:#000000"/>
			<stop  offset="1" style="stop-color:#000000;stop-opacity:0"/>
		</linearGradient>
		<path class="st43" d="M72.1,411.2c15.9,0.1,28.3-13.5,27.9-29.3c-0.2-11-2.9-20.7-6.5-28.7c8.1,9,20.1,26.4,20.6,50.3
			c0.3,15.9-12,29.4-27.9,29.3c-14.4-0.1-26.2-11.1-27.5-25.2C62.7,409.9,67.2,411.2,72.1,411.2z"/>
	</g>
	<polygon class="st5" points="852,319 770.1,366.3 774.8,341.4 790.3,348.1 793.2,327.4 811.4,336.7 815.4,315.6 831.5,325.3 
		834,309.2 	"/>
</g>
</svg>
