<?xml version="1.0" standalone="no"?>
<!DOCTYPE svg PUBLIC "-//W3C//DTD SVG 20010904//EN"
 "http://www.w3.org/TR/2001/REC-SVG-20010904/DTD/svg10.dtd">
<svg version="1.0" xmlns="http://www.w3.org/2000/svg"
 width="260.000000pt" height="260.000000pt" viewBox="0 0 260.000000 260.000000"
 preserveAspectRatio="xMidYMid meet">
<metadata>
Created by potrace 1.11, written by Peter Selinger 2001-2013
</metadata>
<g transform="translate(0.000000,260.000000) scale(0.100000,-0.100000)"
fill="#000000" stroke="none">
<path d="M1130 2586 c-153 -25 -296 -69 -411 -126 -182 -92 -377 -264 -488
-430 -77 -115 -110 -179 -150 -293 -84 -239 -100 -456 -50 -699 104 -515 512
-916 1034 -1019 105 -21 389 -19 492 4 121 26 226 63 337 120 352 180 598 503
683 900 25 115 25 399 0 515 -98 450 -414 811 -845 966 -174 62 -431 89 -602
62z m848 -752 c43 -18 88 -58 108 -96 20 -38 30 -169 15 -196 -10 -19 -20 -22
-81 -22 -98 0 -100 1 -100 74 0 66 -11 86 -45 86 -44 0 -45 -5 -45 -385 0
-380 1 -385 45 -385 40 0 45 17 45 167 0 135 -1 143 -19 143 -18 0 -20 9 -23
86 -2 47 -1 88 1 90 2 2 53 4 112 4 107 0 109 0 115 -24 3 -14 4 -130 2 -258
-4 -253 -6 -264 -65 -320 -42 -40 -94 -58 -171 -58 -82 0 -141 26 -186 83
l-31 39 -3 419 c-2 397 -2 420 17 456 40 79 101 112 204 113 39 0 83 -6 105
-16z m-1268 -16 c5 -13 21 -153 35 -313 14 -159 29 -301 32 -315 4 -14 21 120
38 297 18 177 35 329 39 338 4 12 25 15 106 15 93 0 100 -1 100 -20 0 -20
-177 -1023 -186 -1052 -5 -15 -18 -18 -90 -18 -78 0 -85 2 -94 23 -14 35 -191
1047 -185 1057 4 6 49 10 101 10 89 0 95 -1 104 -22z m751 -6 c43 -22 59 -38
81 -81 27 -52 28 -57 28 -215 0 -183 -10 -217 -73 -273 l-36 -31 69 -219 c38
-120 70 -224 70 -231 0 -10 -22 -12 -92 -10 l-93 3 -57 185 -57 185 -3 -185
-3 -185 -90 0 -90 0 -3 530 c-1 292 0 536 3 543 3 9 42 12 149 12 138 0 146
-1 197 -28z"/>
<path d="M1300 1516 l0 -156 29 0 c47 0 52 15 49 166 l-3 139 -37 3 -38 3 0
-155z"/>
</g>
</svg>
